<?xml version="1.0" encoding="utf-8"?>
<!-- Generator: Adobe Illustrator 25.2.0, SVG Export Plug-In . SVG Version: 6.00 Build 0)  -->
<svg version="1.1" id="Layer_1" xmlns="http://www.w3.org/2000/svg" xmlns:xlink="http://www.w3.org/1999/xlink" x="0px" y="0px"
	 viewBox="0 0 400 122.5" style="enable-background:new 0 0 400 122.5;" xml:space="preserve">
<style type="text/css">
	.st0{fill:#F2A987;}
</style>
<g>
	<path class="st0" d="M133.9,62.4l-5.6,5.6l-4.8-4.8l-8.1,7.9l-7.6-7.6l-4.5,4.5l-5-4.8l-7,7l3.7,3.9l-4.8,5l-4.8-4.8l3.9-4.1
		l-6.2-6.2L67.8,79.3l3.9,3.9l-3.5,3.5l6,6l-7.2,7.2l-7-7l6-5.8L62,83.5l4.1-4.1L50.4,63.6l-6.6,6.6l3.9,3.9l-4.8,5l-4.8-4.8
		l3.9-3.9l-7.2-7.2L30.2,68l-4.3-4.5l-7.6,7.6l-8.1-7.9L5.4,68L0,62.4l5.6-5.6l4.8,5l8.1-8.1l7.6,7.6l4.3-4.5l4.8,5l7.2-7.2
		l-3.9-4.1l4.8-4.8l4.8,4.8l-4.1,4.1l6.8,6.6l14.9-14.7l-3.9-3.9l3.9-3.9l-6.2-6.4l7.2-7.2l7,7l-6.2,6.4l3.9,3.9l-4.1,3.9l15.5,15.5
		l7.2-7.2L86,50.4l4.8-4.8l4.8,4.8l-4.1,4.1l7.2,7.2l4.8-4.8l4.8,4.5l7.9-7.9l7.9,8.1l4.8-4.8L133.9,62.4z M63.6,63l-3.9-2.7
		L55.8,63l3.9,2.5L63.6,63z M64.3,56l2.3,3.7L69,56l-2.5-3.7L64.3,56z M69,70.2l-2.5-3.7l-2.3,3.7l2.3,3.7L69,70.2z M77.7,63
		l-4.1-2.7L69.6,63l3.9,2.5L77.7,63z"/>
	<path class="st0" d="M157,69.8L149,62l-4.8,4.8l-5.4-5.6l5.6-5.6l5,4.8l7.9-7.9l8.5,8.5L157,69.8z M239.5,18V9.5h12.4v12h-8.3v20.7
		h-19.8v10.5l-7.2,7.6l7.2,7.2v12.2h19.4v20.9h8.5V113h-12v-8.3H219V84.1h-11.8l-7.6-7.4l-7.2,7.4h-10.7v20h-21.1v8.7h-12.4v-12h8.5
		V80h18.8V69l7.9-7.6l-7.9-8.1V42.6H157V21.7h-8.7V9.3h12v8.5h20.9v19.6H193l6.6,6.8l7-6.8h12V18H239.5z M167.1,28.1l-1-4.8l-4.8-1
		l1,4.8L167.1,28.1z M161.4,84.3l1,4.1l4.1,1l-0.8-4.3L161.4,84.3z M166.9,94l-4.5,1l-1,4.8l4.5-1L166.9,94z M161.8,37.6l4.1-0.8
		l1-4.3l-4.3,1L161.8,37.6z M176.8,84.3l-4.8,1l-1,4.5l4.8-1L176.8,84.3z M176.8,37.8l-1-4.5l-4.5-1l1,4.5L176.8,37.8z M171.3,94.2
		l1,4.3l4.3,0.8l-1-4.1L171.3,94.2z M176.8,22.5l-4.1,0.8l-1,4.3l4.3-1L176.8,22.5z M190.5,52.5l-1.7-7.4l-7.4-1.7l1.7,7.4
		L190.5,52.5z M191.1,69.4l-7.4,1.7l-1.7,7.4l7.4-1.7L191.1,69.4z M192.8,63.2l3.7-2.5l-3.7-2.3l-3.7,2.3L192.8,63.2z M194.4,5.4
		L200,0l5.6,5.6l-4.8,4.8l7.9,8.1l-8.9,8.7l-8.5-8.5l8.3-8.1L194.4,5.4z M200.6,112l5,5l-5.6,5.4l-5.6-5.6l4.8-4.8l-7.9-7.9l8.9-8.9
		l8.5,8.7L200.6,112z M202.3,53.9l-2.5-4.1l-2.7,4.1l2.7,3.9L202.3,53.9z M199.8,63.6l-2.7,4.1l2.7,3.9l2.5-3.9L199.8,63.6z
		 M206.8,58.5l-3.5,2.3l3.5,2.5l3.7-2.5L206.8,58.5z M217.1,43l-7.6,1.7l-1.7,7.4l7.4-1.7L217.1,43z M209.1,69.4l1.7,7.4l7.4,1.7
		l-1.7-7.4L209.1,69.4z M223.3,22.1l1,4.3l4.3,1l-1-4.3L223.3,22.1z M229.1,32l-4.8,1l-1,4.5l4.5-1L229.1,32z M223.5,84.5l1,4.5
		l4.5,1l-1-4.5L223.5,84.5z M223.7,99.8l4.3-1l0.8-4.1l-4.1,0.8L223.7,99.8z M238.8,22.1l-4.5,1l-1,4.8l4.5-1L238.8,22.1z
		 M233.3,94.2l1,4.8l4.8,1l-1-4.8L233.3,94.2z M233.5,32.2l0.8,4.1l4.3,1l-1-4.3L233.5,32.2z M239,84.5l-4.3,1l-1,4.1l4.3-0.8
		L239,84.5z M243.4,52.5l7.6,7.6l4.8-4.5l5.4,5.4l-5.6,5.8l-4.8-4.8l-7.6,7.9l-8.7-8.5L243.4,52.5z"/>
	<path class="st0" d="M399.8,62.4l-5.6,5.6l-4.8-4.8l-8.1,7.9l-7.6-7.6l-4.5,4.5l-5-4.8l-7,7l3.7,3.9l-4.8,5l-4.8-4.8l3.9-4.1
		l-6.2-6.2l-15.5,15.3l3.9,3.9l-3.5,3.5l6,6l-7.2,7.2l-7-7l6-5.8l-3.9-3.7l4.1-4.1l-15.7-15.7l-6.6,6.6l3.9,3.9l-4.8,5l-4.8-4.8
		l3.9-3.9l-7.2-7.2l-4.8,4.8l-4.3-4.5l-7.6,7.6l-8.1-7.9l-4.8,4.8l-5.4-5.6l5.6-5.6l4.8,5l8.1-8.1l7.6,7.6l4.3-4.5l4.8,5l7.2-7.2
		l-3.9-4.1l4.8-4.8l4.8,4.8l-4.1,4.1l6.8,6.6l14.9-14.7l-3.9-3.9l3.9-3.9l-6.2-6.4l7.2-7.2l7,7l-6.2,6.4l3.9,3.9l-4.1,3.9l15.5,15.5
		l7.2-7.2l-3.9-4.1l4.8-4.8l4.8,4.8l-4.1,4.1l7.2,7.2l4.8-4.8l4.8,4.5l7.9-7.9l7.9,8.1l4.8-4.8L399.8,62.4z M329.5,63l-3.9-2.7
		l-3.9,2.7l3.9,2.5L329.5,63z M330.1,56l2.3,3.7l2.5-3.7l-2.5-3.7L330.1,56z M334.9,70.2l-2.5-3.7l-2.3,3.7l2.3,3.7L334.9,70.2z
		 M343.6,63l-4.1-2.7l-3.9,2.7l3.9,2.5L343.6,63z"/>
</g>
</svg>
