<?xml version="1.0" encoding="utf-8"?>
<!-- Generator: Adobe Illustrator 25.2.0, SVG Export Plug-In . SVG Version: 6.00 Build 0)  -->
<svg version="1.1" id="Layer_1" xmlns="http://www.w3.org/2000/svg" xmlns:xlink="http://www.w3.org/1999/xlink" x="0px" y="0px"
	 viewBox="0 0 266.8 75.2" style="enable-background:new 0 0 266.8 75.2;" xml:space="preserve">
<style type="text/css">
	.st0{fill:#F2A987;}
</style>
<g>
	<path class="st0" d="M134.1,37.5l-5.6,5.6l-4.8-4.8l-8.1,7.9l-7.7-7.7l-4.6,4.6l-5-4.8l-7,7l3.7,3.9l-4.8,5l-4.8-4.8l3.9-4.1
		l-6.2-6.2L67.9,54.4l3.9,3.9l-3.5,3.5l6,6L67,75.1l-7-7l6-5.8l-3.9-3.7l4.1-4.1L50.5,38.7l-6.6,6.6l3.9,3.9l-4.8,5l-4.8-4.8
		l3.9-3.9L35,38.3L30.2,43l-4.3-4.6l-7.7,7.7l-8.1-7.9L5.4,43L0,37.5l5.6-5.6l4.8,5l8.1-8.1l7.7,7.7l4.3-4.6l4.8,5l7.2-7.2l-3.9-4.1
		l4.8-4.8l4.8,4.8l-4.1,4.1l6.8,6.6l14.9-14.7l-3.9-3.9l3.9-3.9l-6.2-6.4L66.6,0l7,7l-6.2,6.4l3.9,3.9l-4.1,3.9l15.5,15.5l7.2-7.2
		l-3.9-4.1l4.8-4.8l4.8,4.8l-4.1,4.1l7.2,7.2l4.8-4.8l4.8,4.6l7.9-7.9l7.9,8.1l4.8-4.8L134.1,37.5z M63.7,38.1l-3.9-2.7l-3.9,2.7
		l3.9,2.5L63.7,38.1z M64.4,31l2.3,3.7l2.5-3.7l-2.5-3.7L64.4,31z M69.1,45.3l-2.5-3.7l-2.3,3.7l2.3,3.7L69.1,45.3z M77.8,38.1
		l-4.1-2.7l-3.9,2.7l3.9,2.5L77.8,38.1z"/>
	<path class="st0" d="M266.7,37.5l-5.6,5.6l-4.8-4.8l-8.1,7.9l-7.7-7.7l-4.6,4.6l-5-4.8l-7,7l3.7,3.9l-4.8,5l-4.8-4.8l3.9-4.1
		l-6.2-6.2l-15.5,15.3l3.9,3.9l-3.5,3.5l6,6l-7.2,7.2l-7-7l6-5.8l-3.9-3.7l4.1-4.1l-15.7-15.7l-6.6,6.6l3.9,3.9l-4.8,5l-4.8-4.8
		l3.9-3.9l-7.2-7.2l-4.8,4.8l-4.3-4.6l-7.7,7.7l-8.1-7.9L138,43l-5.4-5.6l5.6-5.6l4.8,5l8.1-8.1l7.7,7.7l4.3-4.6l4.8,5l7.2-7.2
		l-3.9-4.1l4.8-4.8l4.8,4.8l-4.1,4.1l6.8,6.6l14.9-14.7l-3.9-3.9l3.9-3.9L192,7.2l7.2-7.2l7,7l-6.2,6.4l3.9,3.9l-4.1,3.9l15.5,15.5
		l7.2-7.2l-3.9-4.1l4.8-4.8l4.8,4.8l-4.1,4.1l7.2,7.2l4.8-4.8l4.8,4.6l7.9-7.9l7.9,8.1l4.8-4.8L266.7,37.5z M196.4,38.1l-3.9-2.7
		l-3.9,2.7l3.9,2.5L196.4,38.1z M197,31l2.3,3.7l2.5-3.7l-2.5-3.7L197,31z M201.8,45.3l-2.5-3.7l-2.3,3.7l2.3,3.7L201.8,45.3z
		 M210.5,38.1l-4.1-2.7l-3.9,2.7l3.9,2.5L210.5,38.1z"/>
</g>
</svg>
