<?xml version="1.0" encoding="utf-8"?>
<!-- Generator: Adobe Illustrator 25.1.0, SVG Export Plug-In . SVG Version: 6.00 Build 0)  -->
<svg version="1.1" id="Layer_1" xmlns="http://www.w3.org/2000/svg" xmlns:xlink="http://www.w3.org/1999/xlink" x="0px" y="0px"
	 viewBox="0 0 96.5 99.9" style="enable-background:new 0 0 96.5 99.9;" xml:space="preserve">
<style type="text/css">
	.st0{fill:#F2A987;}
</style>
<g>
	<g>
		<path class="st0" d="M47.8,99.9C21.6,99.9,0,79,0,50S22.6,0,48.7,0s47.8,21,47.8,50S73.9,99.9,47.8,99.9z M48.3,9.5
			C26.8,9.5,11.5,27.2,11.5,50s15.3,40.5,36.8,40.5C69.7,90.5,85,72.8,85,50S69.7,9.5,48.3,9.5z"/>
	</g>
	<g>
		<path class="st0" d="M47.7,78.5c-6.3,0-13.8-2.5-18.6-5.7l3.5-11.6c4.4,3.2,10.3,5.4,15.5,5.4c4.5,0,6.3-2.1,6.3-4.8
			c0-2.9-1.4-4.8-9.9-8.2c-9.7-3.9-13.1-9.6-13.1-16.2c0-8.1,6.6-15.9,19.5-15.9c6,0,12.2,2.1,15.5,4.3L63,37.2
			c-3.2-2.2-8.3-4.5-12.2-4.5c-4.7,0-6.6,2.2-6.6,4.4c0,3.6,2.8,4.8,9.7,7.8c10.3,4.4,13.4,9.3,13.4,16.4
			C67.4,70.1,61,78.5,47.7,78.5z"/>
	</g>
</g>
</svg>
