<?xml version="1.0" encoding="utf-8"?>
<!-- Generator: Adobe Illustrator 25.1.0, SVG Export Plug-In . SVG Version: 6.00 Build 0)  -->
<svg version="1.1" id="Layer_1" xmlns="http://www.w3.org/2000/svg" xmlns:xlink="http://www.w3.org/1999/xlink" x="0px" y="0px"
	 viewBox="0 0 91.5 95" style="enable-background:new 0 0 91.5 95;" xml:space="preserve">
<style type="text/css">
	.st0{fill:#323232;}
</style>
<g>
	<path class="st0" d="M45.5,95C20.2,95,0,75,0,47.7S20.6,0,46,0c25.3,0,45.5,20.3,45.5,47.6S71,95,45.5,95z M45.8,6.5
		C23.6,6.5,7.7,24.3,7.7,47.7c0,23.2,15.9,41.1,38.1,41.1s38.1-17.9,38.1-41.1C83.8,24.3,67.9,6.5,45.8,6.5z"/>
</g>
<g>
	<path class="st0" d="M45.3,74.8c-6,0-12-2.2-16.6-5.2l3.1-8.1c4.2,3,9.2,4.9,13.8,4.9c5.5,0,8-3.2,8-6.9c0-3.7-1.6-6-9.9-9.5
		c-9.2-3.9-12.5-8.6-12.5-15c0-7.6,6.3-14.8,17.4-14.8c5.1,0,10.2,1.7,13.2,3.8L58.9,32c-2.8-1.9-7-3.7-10.6-3.7
		c-5.5,0-8.1,3-8.1,6.6s2.6,5.6,9.1,8.5c10.4,4.5,13.5,8.8,13.5,15.7C62.8,67.5,56.2,74.8,45.3,74.8z"/>
</g>
</svg>
