<?xml version="1.0" encoding="utf-8"?>
<!-- Generator: Adobe Illustrator 25.1.0, SVG Export Plug-In . SVG Version: 6.00 Build 0)  -->
<svg version="1.1" id="Layer_1" xmlns="http://www.w3.org/2000/svg" xmlns:xlink="http://www.w3.org/1999/xlink" x="0px" y="0px"
	 viewBox="0 0 528.5 50.7" style="enable-background:new 0 0 528.5 50.7;" xml:space="preserve">
<style type="text/css">
	.st0{fill:#2B2B2B;}
</style>
<g>
	<path class="st0" d="M0.4,41c1.2-1.8,5.8,0.9,9.3,1.1c1.6-0.2,2.7-1.5,2.7-3.9c0-3.6-2.7-10.7-2.3-15.9c0.5-5.4,5.1-9.5,9.1-9.5
		c3,0,5.3,2.6,5.3,4.8c-0.1,3.3-6.4,1.3-6.8,4.8c0.1,4,2.3,10,2.3,15.3c0,0.9-0.1,1.9-0.3,2.8c4.5-2.1,10.5-7.5,14-11.1
		c1.6-1.6,2.7-1.1,2.7,0.5c0,1.3-0.9,3.6-3,5.8C29.6,40.1,21.9,48.1,13,49c-1.2,0.5-2.6,1-4.3,1.3C1.8,51.5-1.2,43.6,0.4,41z"/>
	<path class="st0" d="M42.2,15c1.7,0.1,3.3,1.5,3.3,4.1c0,1.7-0.6,3.9-2.3,6.5c-1.3,2.6-3.4,9.5-4,12.6c-0.4,1.9-0.3,2.6,0.5,2.6
		c2.6-0.2,10.9-7.5,14.7-11.4c1.6-1.6,2.6-1.1,2.6,0.4c0,1.4-0.9,3.7-2.8,5.9c-3,3.4-12.5,12.9-18.2,12.9c-3.4,0-5.3-3.2-5.1-7.2
		c0.5-6.4,3.6-13.9,5.5-20.1C37.6,17.1,39.3,14.9,42.2,15z M42.3,6.6c-1-3,2.1-6.8,6.7-6.5c2.4,0.2,3.3,1.5,3.3,3.2
		c0,0.9-0.2,1.8-0.6,2.7c-1.2,3.3-3.6,5.3-6.1,5.2C43.4,11.1,42,9.4,42.3,6.6z"/>
	<path class="st0" d="M60.7,49.4c-6.2,0-9.8-4.5-9.7-11c0.2-7.1,4.1-15.1,8.3-19.6c3.4-3.7,6.6-4,8.2-2.8c0.6-1.2,1.8-2.2,3.7-2.5
		c3.5,0,6.4,2,8,5.1c2.3,0.2,4.7,0.2,7,0.2c3,0,6.1-0.2,8.9-0.5c1.9-0.2,2.7,0.4,2.7,1.4c0,1.2-1.5,3-4.4,4.3
		c-3,1.1-7.4,1.5-11.8,1.5c-0.3,0-0.5,0-0.9,0v0.2C80.4,36.1,71.9,49.4,60.7,49.4z M61.8,42c4.6,0,11.2-9.1,11.5-16.2
		c0-0.5,0-0.9,0-1.3c-2.5-0.8-4.2-2.3-5.2-4c-0.5,0.9-1.3,1.9-2.6,2.9c-2.6,3.1-5.2,7.6-6.2,11.8c-0.2,1-0.3,1.9-0.3,2.8
		C59,40.4,59.7,42,61.8,42z"/>
	<path class="st0" d="M95.6,49.9c-4.9,0-8.9-3.9-8.9-9.7c0-7.9,7.2-23.6,13.6-36.6c1.1-2.3,2.8-3.3,4.4-3.3c2,0,3.9,1.9,3.5,5.1
		c-0.2,2.2-1.6,5.8-3.2,9.4c0.9-0.2,1.8-0.2,2.9-0.1c2.5,0.2,4.6,1.6,6,3.8c2.4,0.2,4.7,0.2,7,0.2c2.9,0,5.7-0.2,8.7-0.5
		c1.9-0.2,2.8,0.4,2.8,1.4c0,1.3-1.5,3.1-4.5,4.3c-3.1,1.1-6.9,1.5-11.2,1.5c-0.4,0-0.9,0-1.2,0C115.4,38.5,104.1,50.1,95.6,49.9z
		 M96.5,42.3c4,0,11-8.9,11-15.7c0-0.7-0.1-1.3-0.2-1.9c-3.1-0.8-5-1.9-6-3.3c-0.7,1-1.4,2-2.1,2.8c-2.4,4.7-5.1,11.4-5.1,14.9
		C94.1,41.2,94.9,42.3,96.5,42.3z"/>
	<path class="st0" d="M121.8,49.5c-1.7,0-3.2-1.1-3.2-3.2c0-1.2,0.5-3,1.9-5c2.7-8.1,10.3-29.9,13-36.2c1.2-3.3,3-4.7,4.7-4.7
		c1.9,0,3.5,2.1,3.3,5.8c-0.3,3.3-1.9,8-5.2,12.8c-0.9,2.2-1.9,4.7-3,7.5c6.9-7.8,11.8-10.7,14.8-10.9c2.7-0.2,4.8,1.8,4.8,5.3
		c0,1-0.2,2-0.5,3.2c-1,3.6-3.9,11-4.8,14.2c-0.5,1.6-0.5,2.8,0.4,2.8c2.6-0.2,11.6-8,15.2-11.7c1.6-1.6,2.6-1.1,2.6,0.4
		c0,1.4-0.9,3.7-2.9,5.9c-3,3.6-13.1,13.5-19.5,13.5c-3,0-5.1-2.9-4.2-7.2c0.9-5.8,5.5-15.7,4.9-16.7c-0.7-0.9-6.7,4.2-15.5,14.6
		c-0.5,1.6-1.1,3.3-1.6,5C126.3,48,123.9,49.5,121.8,49.5z"/>
	<path class="st0" d="M177.6,41.9c-4.2,5.1-8.3,7.3-11.6,7.3c-1.6,0-3-0.5-4-1.5c-1.7-1.2-2.6-3.7-2.6-6.8c0-1.6,0.2-3.5,0.8-5.4
		c3.8-13.1,12.6-21.3,20.1-21.3c1.6,0,3.2,0.4,4.6,1.2c2.2,1.3,3,3.2,3,4.9c0,2.3-1.2,4.3-2.6,4.9c1.3,0.2,2.3,1.5,2.3,3.3
		c0,1.1-0.4,2.4-1.3,3.9c-0.6,1.6-1.2,5.1-1.3,6.8c0,0.9,0.2,1.3,0.7,1.3c2.9,0,10.7-7.6,14.2-11.1c1.6-1.6,2.6-1.1,2.6,0.4
		c0,1.4-0.9,3.7-2.8,5.9c-2.8,3.2-12.1,12.8-17.5,12.8C179.4,48.5,177.9,45.8,177.6,41.9z M178.9,32.9c0.4-1.4,0.9-2.8,1.4-4
		c0.9-2.2,2.3-3.3,3.6-3.7c-1.2-0.5-1.9-2.9-3.9-3.7c-4.6-1.2-10.4,7.9-12,14c-0.4,1.3-0.5,2.6-0.5,3.5c0,1.2,0.2,2,0.8,2.3
		C169.9,42,174.1,38.9,178.9,32.9z"/>
	<path class="st0" d="M198.4,49.1c-2,0-4-1.6-3.8-4c-0.1-1.9,1.1-4.8,3.1-7.9c2.1-6.9,4-12.7,6-18.1c-0.5-2.6,2.9-5,5.5-5
		c1.2,0,2.3,0.5,2.7,1.7c1,2.8-0.9,6.5-2.9,11c7.8-8.7,12.8-12.2,16-12.2c3,0,5.9,3,4.4,6.4c-0.9,3.4-4.4,13-5.3,16.8
		c-0.5,2.1-0.6,2.9,0.3,3c1.1-0.1,3.6-1.6,6-3.4c2.3-1.3,3.6-1.3,3.6,0.6c0,1.5-1,3.7-3.6,5.8c-3.3,3-7.1,4.9-9.5,4.9
		c-1.6,0-3-0.7-3.9-1.9c-0.9-0.8-1.3-2.2-1.3-4c0-1.1,0.2-2.4,0.5-3.8c1-4.4,3.8-12,4.4-14c0.5-1.8-7.1,3.9-15.9,14.6
		c-0.9,2.4-1.7,4.7-2.5,6.7C201.4,48.3,199.9,49.1,198.4,49.1z"/>
	<path class="st0" d="M259.6,49.4c-6.2,0-9.8-4.6-9.7-11.1c0.2-7.1,4.1-14.9,8.4-19.4c2.5-2.7,4.9-3.6,6.6-3.3
		c1.9-1.5,3.9-2.2,5.8-2.2c4.8,0,9,4.5,9.1,11.4C279.9,35.7,270.8,49.4,259.6,49.4z M260.7,42.1c4.6,0,11.5-9.6,11.5-16.7
		c-0.1-2.9-1-4.3-2.4-4.3c-1.2,0-3,1.2-4.7,3.4c-1.3,2.5-2.8,3.6-3.8,3.6c-1.2,2-2.3,4.4-2.9,6.7c-0.3,1.2-0.5,2.3-0.5,3.3
		C257.9,40.4,258.8,42.1,260.7,42.1z"/>
	<path class="st0" d="M298.7,1c3,0.8,4.7,3.6,4.7,7.2c0,1.1-0.2,2.3-0.5,3.5c-1.3,5.1-5.4,9.4-11.5,11.9c-1.1,0.5-2,0.6-2.8,0.6
		c-2.6,0-3.3-1.9-1.9-3.1c4.4-3.3,7.5-6.5,7.6-9.2c0.1-3.1-3-4.5-3-6.1C291.3,3.2,295.2-0.1,298.7,1z"/>
	<path class="st0" d="M318.5,41.9c-4.3,5-8.4,7.6-11.7,7.6c-1.5,0-2.7-0.5-3.8-1.5c-1.7-1.6-2.5-4.2-2.5-7.3
		c0-10.3,8.5-26,19.2-26.8c3.8-0.3,5.5,1.1,5.5,3c0,2.3-2.8,5.1-7.9,5.8c-5.5,2.6-10.7,15.9-8.6,18.2c1.7,1.4,7.6-3.4,11.7-9.5
		c2.1-7.3,5.7-16.3,8.9-23.5c1.4-4.7,5.3-8.7,7.7-7.7c1.2,0.5,2,1.6,2,3.8c0,3-1.6,7.9-6.5,15.3c-2.7,6-6.2,16.1-6.2,20.3
		c0,0.9,0.3,1.2,0.9,1.3c2.9,0,11.1-7.6,14.9-11.4c1.6-1.6,2.6-1.1,2.6,0.4c0,1.4-0.9,3.7-2.8,5.9c-2.9,3.3-12.5,13.1-18.2,13.1
		C320.9,48.8,318.9,45.8,318.5,41.9z"/>
	<path class="st0" d="M348.4,49.4c-6.2,0-9.8-4.5-9.7-11c0.2-7.1,4.1-15.1,8.3-19.6c3.4-3.7,6.6-4,8.2-2.8c0.6-1.2,1.8-2.2,3.7-2.5
		c3.5,0,6.4,2,8,5.1c2.3,0.2,4.7,0.2,7,0.2c3,0,6.1-0.2,8.9-0.5c1.9-0.2,2.7,0.4,2.7,1.4c0,1.2-1.5,3-4.4,4.3
		c-3,1.1-7.4,1.5-11.8,1.5c-0.3,0-0.5,0-0.9,0v0.2C368.2,36.1,359.6,49.4,348.4,49.4z M349.5,42c4.6,0,11.2-9.1,11.5-16.2
		c0-0.5,0-0.9,0-1.3c-2.5-0.8-4.2-2.3-5.2-4c-0.5,0.9-1.3,1.9-2.6,2.9c-2.6,3.1-5.2,7.6-6.2,11.8c-0.2,1-0.3,1.9-0.3,2.8
		C346.7,40.4,347.5,42,349.5,42z"/>
	<path class="st0" d="M376.1,49.1c-2,0-4-1.6-3.8-4c-0.1-1.9,1.1-4.8,3.1-7.9c2.1-6.9,4-12.7,6-18.1c-0.5-2.6,2.9-5,5.5-5
		c1.2,0,2.3,0.5,2.7,1.7c1,2.8-0.9,6.5-2.9,11c7.8-8.7,12.8-12.2,16-12.2c3,0,5.9,3,4.4,6.4c-0.9,3.4-4.4,13-5.3,16.8
		c-0.5,2.1-0.6,2.9,0.3,3c3-0.2,10.2-6.5,14.8-11.2c1.6-1.6,2.6-1.1,2.6,0.4c0,1.3-0.9,3.6-2.9,5.9c-4,4.7-12.9,12.8-18.4,12.8
		c-1.3,0-2.6-0.7-3.6-1.9c-0.9-0.8-1.3-2.2-1.3-4c0-1.1,0.2-2.4,0.5-3.8c1-4.4,3.8-12,4.4-14c0.5-1.8-7.1,3.9-15.9,14.6
		c-0.9,2.4-1.7,4.7-2.5,6.7C379,48.3,377.5,49.1,376.1,49.1z"/>
	<path class="st0" d="M415.4,49.1c-2,0-4-1.6-3.8-4c-0.1-1.9,1.1-4.8,3.1-7.9c2.1-6.9,4-12.7,6-18.1c-0.5-2.6,2.9-5,5.5-5
		c1.2,0,2.3,0.5,2.7,1.7c1,2.8-0.9,6.5-2.9,11c7.8-8.7,12.8-12.2,16-12.2c3,0,5.9,3,4.4,6.4c-0.9,3.4-4.4,13-5.3,16.8
		c-0.5,2.1-0.6,2.9,0.3,3c3-0.2,10.2-6.5,14.8-11.2c1.6-1.6,2.6-1.1,2.6,0.4c0,1.3-0.9,3.6-2.9,5.9c-4,4.7-12.9,12.8-18.4,12.8
		c-1.3,0-2.6-0.7-3.6-1.9c-0.9-0.8-1.3-2.2-1.3-4c0-1.1,0.2-2.4,0.5-3.8c1-4.4,3.8-12,4.4-14c0.5-1.8-7.1,3.9-15.9,14.6
		c-0.9,2.4-1.7,4.7-2.5,6.7C418.4,48.3,416.9,49.1,415.4,49.1z"/>
	<path class="st0" d="M464,50.8c-4.3,0-7.5-1.6-9.2-4.3c-1.6-1.7-2.3-4.1-2.3-7c0-1.6,0.2-3.2,0.6-4.8c-0.1-0.2-0.1-0.2-0.1-0.4
		c0-0.5,0.2-0.9,0.5-1.4c3.1-9.9,12.1-19.2,19.1-19.2c4.9,0,8.1,3.8,8.1,7.9c0,0.9-0.2,1.7-0.4,2.5c-2.2,6.6-12.8,10-19.5,11.4
		c-0.2,0.9-0.3,1.6-0.4,2.5c-0.2,3.9,1.3,5.4,4.9,5.4c8,0,17.7-8.3,23.3-13.9c1.6-1.6,2.6-1.1,2.6,0.4c0,1.3-0.9,3.6-2.9,5.9
		C484.9,39.9,474,50.8,464,50.8z M463.7,28.9c5.3-1.9,8.9-4.2,9.9-5.9c0.5-1.6-0.2-2.3-1.2-2.3C470.4,20.7,466.5,24.2,463.7,28.9z"
		/>
	<path class="st0" d="M493.5,39.6c-0.2,1.4,0,2.1,0.6,2.1c3,0,11.7-7.9,16.2-12.3c1.7-1.6,2.7-1.1,2.7,0.4c0,1.4-0.9,3.7-2.9,5.9
		c-3.3,3.8-14.7,14.6-20.7,14.6c-2.3,0-4.4-1.9-4.4-6c0-1.1,0.2-2.3,0.5-3.7c1.8-7.8,7.3-20.5,12-32.2c1.4-5.4,5.2-7.2,6.9-6.7
		c1.5,0.3,2.3,2.3,2.3,5c0,4.3-2,10.6-6.8,16C497.4,28.1,494.3,35.3,493.5,39.6z"/>
	<path class="st0" d="M515.2,39.6c-0.2,1.4,0,2.1,0.6,2.1c1.1,0,4-1.7,7.5-4.5c1.9-1.3,3.6-1.6,3.6,0.2c0,1.6-0.9,3.8-3.6,6.3
		c-4.3,4-9,6.7-12.1,6.7c-2.4,0-4.5-1.9-4.5-5.9c0-1.1,0.2-2.4,0.5-3.8c1.8-7.8,7.3-20.5,12-32.2c1.4-5.4,5.2-7.2,6.9-6.7
		c1.5,0.3,2.3,2.3,2.3,5c0,4.3-2,10.6-6.8,16C519,28.1,516,35.3,515.2,39.6z"/>
</g>
</svg>
