<?xml version="1.0" encoding="utf-8"?>
<!-- Generator: Adobe Illustrator 25.1.0, SVG Export Plug-In . SVG Version: 6.00 Build 0)  -->
<svg version="1.1" id="Layer_2" xmlns="http://www.w3.org/2000/svg" xmlns:xlink="http://www.w3.org/1999/xlink" x="0px" y="0px"
	 viewBox="0 0 379.8 199" style="enable-background:new 0 0 379.8 199;" xml:space="preserve">
<style type="text/css">
	.st0{fill:#FFFFFF;}
	.st1{fill:#F59230;}
	.st2{fill:#231F20;}
	.st3{fill:#0182AA;}
</style>
<rect x="-3.2" y="-4.1" class="st0" width="385.3" height="207.8"/>
<path class="st1" d="M189.4,72.3c-3.6,0-7.7,2.4-7.7,6.1c0,3.6,4.1,7,7.7,7s6.3-3.4,6.3-7C195.7,74.7,193,72.3,189.4,72.3"/>
<path class="st2" d="M181.4,86c-2.1,0-4.5,1.7-4.5,3.8c0,2.1,2.4,5.5,4.5,5.5c2.1,0,4.5-3.4,4.5-5.5C185.9,87.7,183.5,86,181.4,86z
	 M182.8,92.3c-0.8,0-1.4-1.2-1.4-2c0-0.8,0.6-1.9,1.4-1.9c0.8,0,1.7,1.1,1.7,1.9C184.6,91.1,183.6,92.3,182.8,92.3z"/>
<path class="st2" d="M174.2,81.1c1.1,0,2.8-1.1,2.8-2.2c0-1.1-1.7-2.4-2.8-2.4c-1.1,0-2.8,1.3-2.8,2.4
	C171.4,80,173.1,81.1,174.2,81.1"/>
<path class="st2" d="M188.7,81.1c1.1,0,2.8-0.9,2.8-1.9c0-1.1-1.7-2.6-2.8-2.6c-1.1,0-2.8,1.6-2.8,2.6
	C185.9,80.2,187.6,81.1,188.7,81.1"/>
<g>
	<path class="st3" d="M157.1,114.5c0-0.7,0.7-1.8,1.2-1.8c0.2,0,0.2,0.1,0.3,0.3c0.1,0.1,0.6,0.7,1.8,0.7c1.2,0,2.1-0.8,2.1-2.1
		c0-3.6-7.4-3.7-7.4-9.9c0-4,4.3-8.2,8.5-8.2c2.4,0,3.8,1.5,3.8,3.9c0,3.4-3.9,6.5-5.7,6.5c-1.1,0-1.7-1.1-1.7-1.8
		c0-0.5,0.3-0.2,0.8-0.2c1.6,0,4.3-2.5,4.3-4.5c0-1-0.5-1.7-1.7-1.7c-2.2,0-5.9,2.7-5.9,5.9c0,4.7,7.4,4.8,7.4,9.8
		c0,2.4-2,4.5-4.5,4.5C157.8,116,157.1,114.7,157.1,114.5z"/>
	<path class="st3" d="M169.5,115.6v9.8c0,1.1-1,1.3-1.6,1.3s-0.7-0.4-0.7-0.8v-21.1c0-0.9-0.3-0.9-0.3-1.1c0-0.2,0.5-0.3,1-0.3
		c1,0,1.6,0.6,1.6,1.3c0.6-0.9,1.5-1.6,2.7-1.6c2.4,0,3.5,2.3,3.5,5.3c0,1.7-0.3,3.3-0.8,4.4c2-0.1,2.4-0.9,3.1-2.3
		c0.3-0.6,0.4-0.8,0.7-0.8c0.5,0,1.1,0.7,1.1,1.1c0,1.4-1.9,3.8-5.9,3.8c-0.8,0.9-2,1.4-3,1.4C170.2,116.1,169.7,115.9,169.5,115.6z
		 M169.5,107.6v6.5c0.4-0.6,1.4-0.9,2.8-1.1c0.7-1.1,1.1-3.1,1.1-4.2c0-2.8-0.9-3.8-1.9-3.8C170.6,105.1,169.8,106.2,169.5,107.6z"
		/>
	<path class="st3" d="M188.7,110.5c0.1-0.6,0.4-0.9,0.7-0.9c0.5,0,1.1,0.7,1.1,1.2c0,0,0,0.1,0,0.2c-0.5,2-1.7,4.7-4.3,4.7
		c-1.1,0-1.9-0.5-2.3-1.2c-0.6,0.7-1.4,1.2-2.6,1.2c-2.4,0-3.6-2-3.6-4.6c0-5,3.5-8.1,7.2-8.1c0.8,0,1.4,0.5,1.4,1.3
		c0,0.5-0.1,0.7-0.4,0.7c-0.3,0-0.6-0.1-0.9-0.1c-2.3,0-5,2-5,6.3c0,1.6,0.7,2.5,1.7,2.5c0.8,0,1.4-0.7,1.7-1.6v-4.6
		c0-0.6-0.1-0.8-0.1-1c0-0.3,0.4-0.5,0.8-0.5c1,0,1.6,0.6,1.6,1.3v5c0,0.7,0.3,1.4,1,1.4C187.9,113.8,188.4,111.8,188.7,110.5z"/>
	<path class="st3" d="M192.3,112.3c0-1.9,0.5-4.1,1.5-6.7h-2.3h-0.3c0,1.2-0.2,3.8-0.8,5.6c-0.4,1.3-2,0.2-1.7-0.8
		c0.3-1.2,0.5-3.7,0.5-5.3c-0.8-0.4-1.3-1.1-1.3-1.9c0-0.8,0.7-1.4,1.5-1.4c0.7,0,1.6,0.4,1.9,1.6c1,0.1,1.3,0.1,1.6,0.1h1.6
		c0.4,0,1.6,1,1.4,1.7c0,0.4-1.4,3.9-1.4,6.9c0,0.8,0.4,1.6,1.2,1.6c1.4,0,1.9-1.9,2.2-3.3c0.1-0.6,0.4-0.9,0.7-0.9
		c0.5,0,1.1,0.7,1.1,1.2c0,0.1,0,0.2,0,0.2c-0.5,2-1.7,4.7-4.3,4.7C194,115.8,192.3,115,192.3,112.3z"/>
	<path class="st3" d="M198.1,96.3c0-0.9-0.3-0.9-0.3-1.1s0.5-0.3,1-0.3c1,0,1.6,0.6,1.6,1.3v9.4c1-1.3,2.2-2.5,3.5-2.5
		c1.9,0,2.7,1.6,2.7,3.3c0,2.3-1.7,4-2.9,4.9c0.3,1.3,1,2.5,2.1,2.5c1.4,0,2.4-1.9,2.7-3.2c0.4-1.8,2-0.4,1.8,0.5
		c-0.5,1.6-2,4.7-4.8,4.7c-2.4,0-4-2.7-4-4.7c0-0.9,2.8-1.9,2.8-4.7c0-0.8-0.4-1.3-1-1.3c-0.7,0-2.1,1-3,4.2v5.2
		c0,0.6,0,1.3-0.8,1.3c-0.6,0-1.4-0.2-1.4-1.3V96.3z"/>
	<path class="st3" d="M208.4,98.6c0-1.1,0.8-1.8,1.8-1.8c1.1,0,1.8,0.8,1.8,1.8c0,1-0.8,1.8-1.8,1.8
		C209.2,100.4,208.4,99.6,208.4,98.6z M210.9,112.4c0,0.3,0,1.4,0.8,1.4c1.2,0,1.8-1.9,2-3.3c0.4-1.8,2-0.4,1.8,0.5
		c-0.5,2-1.7,4.7-4.3,4.7c-1.6,0-2.5-1.3-2.5-2.8v-8.1c0-0.6-0.1-0.8-0.1-1c0-0.3,0.4-0.5,0.8-0.5c1,0,1.6,0.6,1.6,1.3V112.4z"/>
	<path class="st3" d="M216.3,111.9c0.4,1,1.2,1.9,2.8,1.9c2.4,0,3.3-2,3.7-3.8c0.3-1.4,2-0.8,1.8,0.3c-0.2,1.8-1.4,5.5-5.9,5.5
		c-2.7,0-5.3-2.2-5.3-6c0-3.8,2.3-6.7,4.6-6.7c1.7,0,2.7,1.2,2.7,3C220.8,108.4,219.3,111,216.3,111.9z M216,110.2
		c1.5-0.7,2.5-2.3,2.5-4.1c0-0.7-0.2-1.1-0.6-1.1c-1.5,0-1.9,3.3-1.9,4.6C215.9,109.9,216,110.1,216,110.2z"/>
</g>
</svg>
