<?xml version="1.0" encoding="utf-8"?>
<!-- Generator: Adobe Illustrator 25.2.3, SVG Export Plug-In . SVG Version: 6.00 Build 0)  -->
<svg version="1.1" id="Layer_1" xmlns="http://www.w3.org/2000/svg" xmlns:xlink="http://www.w3.org/1999/xlink" x="0px" y="0px"
	 viewBox="0 0 613 52.8" style="enable-background:new 0 0 613 52.8;" xml:space="preserve">
<style type="text/css">
	.st0{fill:#222222;}
	.st1{fill:none;}
</style>
<g>
	<path class="st0" d="M26.2,20.3c-1.2-4.9-3.4-7.1-6.9-7.1c-3.4,0-5.7,2.5-5.7,5.4c0,7.3,16.6,12,16.6,21.7
		c0,7.6-9.2,15.2-30.2,10.8l2-8.2c15.1,4.3,19.7,1.9,19.7-1.4c0-6.4-16.6-10.7-16.6-21.1c0-7.2,7.2-14.2,16.3-14.2
		c7.5,0,10.7,4.5,12,12.4L26.2,20.3z"/>
	<path class="st0" d="M41,39.9l3-12l-5-3.3l7.8-8.7l7.8-0.6l-5.3,23c-1.8,7.6-1,7.8,10.5,5.3l0.9,4C44.4,57.1,38.1,51.8,41,39.9z
		 M47.5,10.1l2.4-9.4l9.8-0.6l-3.1,9.4L47.5,10.1z"/>
	<path class="st0" d="M83.8,14.7c7.8,0,13,5.5,13,14.7c0,12.5-9.9,23.4-20.2,23.4c-7.8,0-13-5.5-13-14.7
		C63.6,25.6,73.5,14.7,83.8,14.7z M81.7,21.4c-6.2,0-9.9,7.3-9.9,14.6c0,6.3,2.6,9.9,7,9.9c6.2,0,9.9-7.3,9.9-14.6
		C88.7,25.1,86.1,21.4,81.7,21.4z"/>
	<path class="st0" d="M101.1,50.7l9.6-49l8-0.7l-3.9,19.9c3.9-3.5,8.2-6.3,11.9-6.3c4.5,0,8.2,3.9,8.2,12c0,13-8.9,26.1-23.8,26.1
		C108.1,52.7,103.9,51.7,101.1,50.7z M127.1,28.7c0-4.5-1.8-6.4-4.2-6.4c-2.5,0-6.1,2.4-9.4,5.4l-3.3,16.9c2.9,0.9,5.6,1.4,7.1,1.4
		C122.6,46,127.1,36.3,127.1,28.7z"/>
	<path class="st0" d="M161.7,47.8c0-5.8,4.6-16.8,4.6-22c0-2.1-0.9-3.5-3.6-3.5c-3.1,0-6.8,2.3-11.1,7.3l-4.3,22h-7.8l9.7-50l8-0.7
		l-4.1,21.3c5-5,10.3-7.6,15-7.6c5.5,0,7.1,3.2,7.1,7.1c0,7.1-4.8,19-4.8,22.5c0,1.3,0.6,1.4,6.8-0.1l1,4
		C166.9,54.5,161.7,53.2,161.7,47.8z"/>
	<path class="st0" d="M202.4,45.9c-4.2,3.9-8.9,6.8-12.6,6.8c-4.2,0-7.6-3.5-7.6-10.9c0-13.2,9-26.8,23.8-26.8
		c2.9,0,6.2,0.4,9.8,1.4l-5.1,26.1c-0.6,3.2-0.5,3.2,6.6,1.7l1,4C206,55.3,202,53,202.4,45.9z M203.5,39.6l3.2-16.5
		c-2.8-0.8-5.5-1.2-6.9-1.2c-5.2,0-9.4,9.5-9.4,17.4c0,3.9,1.4,5.6,3.5,5.6C196.1,44.8,200.1,42.6,203.5,39.6z"/>
	<path class="st0" d="M244.6,47.8c0-5.7,4.6-16.6,4.6-21.8c0-2.2-0.9-3.6-3.5-3.6c-3.1,0-6.7,2.1-11,6.7l-4.5,22.6h-7.8
		c3.3-17.1,5-25.1,6.3-35.7l7.9-0.6l-0.9,7.1c5.2-5.3,10.6-7.8,15.3-7.8c5.5,0,7.1,3.2,7.1,7.1c0,7.1-4.8,19-4.8,22.5
		c0,1.3,0.6,1.4,6.8-0.1l1,4C249.8,54.5,244.6,53.2,244.6,47.8z"/>
	<path class="st0" d="M326.1,24.1c0,15.6-10.7,28.7-24,28.7c-9.1,0-15.5-6.6-15.5-18c0-15.6,10.7-28.7,24-28.7
		C319.7,6.1,326.1,12.6,326.1,24.1z M317.9,25.6c0-8.4-4.3-12.2-9.4-12.2c-8.8,0-13.7,9.8-13.7,19.8c0,8.4,4.3,12.2,9.4,12.2
		C313,45.4,317.9,35.6,317.9,25.6z"/>
	<path class="st0" d="M338.9,3.3l10-0.2c-0.6,8.9-5.6,15.3-12,21.4l-3.3-1.9C337.8,17,338.8,10.8,338.9,3.3z"/>
	<path class="st0" d="M350.3,51.7l8.6-44.4c18.6-3,29.9,2.9,29.9,17.1C388.7,40.9,375.9,54.8,350.3,51.7z M365.9,13.6l-6,31.4
		c14.2,0.3,20.7-8.6,20.7-19.7C380.5,17.6,376.2,13.1,365.9,13.6z"/>
	<path class="st0" d="M414.1,14.7c7.8,0,13,5.5,13,14.7c0,12.5-9.9,23.4-20.2,23.4c-7.8,0-13-5.5-13-14.7
		C394,25.6,403.8,14.7,414.1,14.7z M412,21.4c-6.2,0-9.9,7.3-9.9,14.6c0,6.3,2.6,9.9,7,9.9c6.2,0,9.9-7.3,9.9-14.6
		C419,25.1,416.4,21.4,412,21.4z"/>
	<path class="st0" d="M454.3,47.8c0-5.7,4.6-16.6,4.6-21.8c0-2.2-0.9-3.6-3.5-3.6c-3.1,0-6.7,2.1-11,6.7l-4.5,22.6h-7.8
		c3.3-17.1,5-25.1,6.3-35.7l7.9-0.6l-0.9,7.1c5.2-5.3,10.6-7.8,15.3-7.8c5.5,0,7.1,3.2,7.1,7.1c0,7.1-4.8,19-4.8,22.5
		c0,1.3,0.6,1.4,6.8-0.1l1,4C459.5,54.5,454.3,53.2,454.3,47.8z"/>
	<path class="st0" d="M497.6,47.8c0-5.7,4.6-16.6,4.6-21.8c0-2.2-0.9-3.6-3.5-3.6c-3.1,0-6.7,2.1-11,6.7l-4.5,22.6h-7.8
		c3.3-17.1,5-25.1,6.3-35.7l7.9-0.6l-0.9,7.1c5.2-5.3,10.6-7.8,15.3-7.8c5.5,0,7.1,3.2,7.1,7.1c0,7.1-4.8,19-4.8,22.5
		c0,1.3,0.6,1.4,6.8-0.1l1,4C502.8,54.5,497.6,53.2,497.6,47.8z"/>
	<path class="st0" d="M518.9,39.5c0-12.1,9.7-24.8,21.2-24.8c6,0,9.6,3.5,9.6,9.1c0,8.9-8.7,13.8-23,14.8c0.3,7.1,4.5,8.3,20.5,4.9
		l0.9,3.8C527.8,58.3,518.9,50.5,518.9,39.5z M527.2,33.4c8.9-0.6,14.7-2.7,14.7-7.4c0-2.5-1.6-4.2-4.5-4.2
		C532.2,21.8,528.4,27.3,527.2,33.4z"/>
	<path class="st0" d="M555.3,38.4c0-21.5,11.4-37.5,21.2-37.5c4,0,6.8,2.7,6.8,8.1c0,10.6-7.8,20.7-19.8,31c1,6.6,5.1,7.2,14.1,3
		l1.5,3.9C564.2,56.8,555.3,53.2,555.3,38.4z M563.4,34c7.8-8,11.8-15.3,11.8-21.2c0-2.4-1.2-3.4-2.4-3.4
		C568.9,9.5,563.9,18.3,563.4,34z"/>
	<path class="st0" d="M584.8,38.4c0-21.5,11.4-37.5,21.2-37.5c4,0,6.8,2.7,6.8,8.1c0,10.6-7.8,20.7-19.8,31c1,6.6,5.1,7.2,14.1,3
		l1.5,3.9C593.7,56.8,584.8,53.2,584.8,38.4z M592.9,34c7.8-8,11.8-15.3,11.8-21.2c0-2.4-1.2-3.4-2.4-3.4
		C598.4,9.5,593.4,18.3,592.9,34z"/>
</g>
<g>
	<path d="M50.6,1209.1c-1.2-4.8-3.3-6.9-6.8-6.9c-3.3,0-5.6,2.5-5.6,5.3c0,7.2,16.4,11.8,16.4,21.3c0,7.4-9.1,15-29.7,10.6l2-8.1
		c14.9,4.3,19.4,1.9,19.4-1.4c0-6.3-16.3-10.5-16.3-20.8c0-7.1,7.1-14,16.1-14c7.4,0,10.5,4.4,11.8,12.2L50.6,1209.1z"/>
	<path d="M65.2,1228.4l2.9-11.8l-4.9-3.3l7.7-8.6l7.7-0.6l-5.2,22.6c-1.8,7.5-1,7.7,10.3,5.2l0.9,3.9
		C68.5,1245.3,62.3,1240,65.2,1228.4z M71.5,1199l2.3-9.3l9.6-0.6l-3,9.3L71.5,1199z"/>
	<path d="M107.3,1203.5c7.7,0,12.8,5.4,12.8,14.5c0,12.3-9.7,23-19.8,23c-7.7,0-12.8-5.4-12.8-14.5
		C87.4,1214.3,97.1,1203.5,107.3,1203.5z M105.2,1210.1c-6.1,0-9.8,7.2-9.8,14.4c0,6.2,2.6,9.8,6.9,9.8c6.1,0,9.8-7.2,9.8-14.4
		C112.1,1213.8,109.5,1210.1,105.2,1210.1z"/>
	<path d="M125,1238.9l9.4-48.2l7.9-0.7l-3.8,19.6c3.8-3.5,8.1-6.2,11.7-6.2c4.4,0,8.1,3.8,8.1,11.8c0,12.8-8.8,25.7-23.5,25.7
		C131.9,1240.9,127.7,1240,125,1238.9z M150.6,1217.3c0-4.4-1.8-6.3-4.1-6.3c-2.5,0-6,2.3-9.2,5.3L134,1233c2.8,0.9,5.5,1.3,7,1.3
		C146.2,1234.3,150.6,1224.7,150.6,1217.3z"/>
	<path d="M184.6,1236.1c0-5.7,4.5-16.5,4.5-21.6c0-2.1-0.9-3.4-3.5-3.4c-3,0-6.7,2.3-10.9,7.2l-4.3,21.7h-7.7l9.6-49.2l7.9-0.7
		l-4,21c5-5,10.1-7.4,14.7-7.4c5.4,0,6.9,3.2,6.9,6.9c0,7-4.7,18.7-4.7,22.2c0,1.3,0.6,1.3,6.7-0.1l1,3.9
		C189.7,1242.7,184.6,1241.5,184.6,1236.1z"/>
	<path d="M224.7,1234.2c-4.1,3.8-8.8,6.7-12.4,6.7c-4.1,0-7.4-3.5-7.4-10.8c0-13,8.9-26.4,23.4-26.4c2.8,0,6.1,0.4,9.6,1.3l-5,25.7
		c-0.6,3.1-0.5,3.1,6.5,1.7l1,3.9C228.2,1243.5,224.3,1241.2,224.7,1234.2z M225.8,1228l3.1-16.2c-2.8-0.8-5.4-1.2-6.8-1.2
		c-5.1,0-9.3,9.4-9.3,17.1c0,3.8,1.3,5.5,3.4,5.5C218.5,1233.2,222.4,1231,225.8,1228z"/>
	<path d="M266.3,1236.1c0-5.6,4.5-16.4,4.5-21.5c0-2.1-0.9-3.5-3.4-3.5c-3,0-6.6,2.1-10.8,6.6l-4.5,22.2h-7.7
		c3.3-16.8,4.9-24.7,6.2-35.1l7.8-0.6l-0.9,7c5.1-5.2,10.4-7.7,15.1-7.7c5.4,0,6.9,3.2,6.9,6.9c0,7-4.7,18.7-4.7,22.2
		c0,1.3,0.6,1.3,6.7-0.1l1,3.9C271.4,1242.7,266.3,1241.5,266.3,1236.1z"/>
	<path d="M346.4,1212.8c0,15.3-10.5,28.2-23.6,28.2c-8.9,0-15.2-6.4-15.2-17.7c0-15.3,10.5-28.2,23.6-28.2
		C340.1,1195.1,346.4,1201.5,346.4,1212.8z M338.3,1214.3c0-8.2-4.3-12-9.2-12c-8.6,0-13.5,9.6-13.5,19.5c0,8.2,4.3,12,9.2,12
		C333.5,1233.7,338.3,1224.1,338.3,1214.3z"/>
	<path d="M359,1192.4l9.8-0.2c-0.6,8.7-5.5,15-11.8,21l-3.3-1.9C357.9,1205.8,358.9,1199.7,359,1192.4z"/>
	<path d="M370.2,1240l8.4-43.7c18.3-3,29.4,2.8,29.4,16.8C408,1229.3,395.4,1242.9,370.2,1240z M385.6,1202.5l-6,30.9
		c14,0.3,20.3-8.5,20.3-19.3C400,1206.4,395.7,1201.9,385.6,1202.5z"/>
	<path d="M433,1203.5c7.7,0,12.8,5.4,12.8,14.5c0,12.3-9.7,23-19.8,23c-7.7,0-12.8-5.4-12.8-14.5
		C413.2,1214.3,422.9,1203.5,433,1203.5z M431,1210.1c-6.1,0-9.8,7.2-9.8,14.4c0,6.2,2.6,9.8,6.9,9.8c6.1,0,9.8-7.2,9.8-14.4
		C437.9,1213.8,435.3,1210.1,431,1210.1z"/>
	<path d="M472.6,1236.1c0-5.6,4.5-16.4,4.5-21.5c0-2.1-0.9-3.5-3.4-3.5c-3,0-6.6,2.1-10.8,6.6l-4.5,22.2h-7.7
		c3.3-16.8,4.9-24.7,6.2-35.1l7.8-0.6l-0.9,7c5.1-5.2,10.4-7.7,15.1-7.7c5.4,0,6.9,3.2,6.9,6.9c0,7-4.7,18.7-4.7,22.2
		c0,1.3,0.6,1.3,6.7-0.1l1,3.9C477.7,1242.7,472.6,1241.5,472.6,1236.1z"/>
	<path d="M515.2,1236.1c0-5.6,4.5-16.4,4.5-21.5c0-2.1-0.9-3.5-3.4-3.5c-3,0-6.6,2.1-10.8,6.6l-4.5,22.2h-7.7
		c3.3-16.8,4.9-24.7,6.2-35.1l7.8-0.6l-0.9,7c5.1-5.2,10.4-7.7,15.1-7.7c5.4,0,6.9,3.2,6.9,6.9c0,7-4.7,18.7-4.7,22.2
		c0,1.3,0.6,1.3,6.7-0.1l1,3.9C520.3,1242.7,515.2,1241.5,515.2,1236.1z"/>
	<path d="M536.1,1227.9c0-11.9,9.6-24.4,20.8-24.4c6,0,9.4,3.5,9.4,8.9c0,8.8-8.6,13.6-22.6,14.6c0.3,6.9,4.5,8.1,20.2,4.8l0.9,3.8
		C544.9,1246.4,536.1,1238.8,536.1,1227.9z M544.3,1222c8.7-0.6,14.5-2.7,14.5-7.3c0-2.5-1.6-4.2-4.4-4.2
		C549.3,1210.5,545.5,1216,544.3,1222z"/>
</g>
<g>
	<path d="M50.6,1209.1c-1.2-4.8-3.3-6.9-6.8-6.9c-3.3,0-5.6,2.5-5.6,5.3c0,7.2,16.4,11.8,16.4,21.3c0,7.4-9.1,15-29.7,10.6l2-8.1
		c14.9,4.3,19.4,1.9,19.4-1.4c0-6.3-16.3-10.5-16.3-20.8c0-7.1,7.1-14,16.1-14c7.4,0,10.5,4.4,11.8,12.2L50.6,1209.1z"/>
	<path d="M65.2,1228.4l2.9-11.8l-4.9-3.3l7.7-8.6l7.7-0.6l-5.2,22.6c-1.8,7.5-1,7.7,10.3,5.2l0.9,3.9
		C68.5,1245.3,62.3,1240,65.2,1228.4z M71.5,1199l2.3-9.3l9.6-0.6l-3,9.3L71.5,1199z"/>
	<path d="M107.3,1203.5c7.7,0,12.8,5.4,12.8,14.5c0,12.3-9.7,23-19.8,23c-7.7,0-12.8-5.4-12.8-14.5
		C87.4,1214.3,97.1,1203.5,107.3,1203.5z M105.2,1210.1c-6.1,0-9.8,7.2-9.8,14.4c0,6.2,2.6,9.8,6.9,9.8c6.1,0,9.8-7.2,9.8-14.4
		C112.1,1213.8,109.5,1210.1,105.2,1210.1z"/>
	<path d="M125,1238.9l9.4-48.2l7.9-0.7l-3.8,19.6c3.8-3.5,8.1-6.2,11.7-6.2c4.4,0,8.1,3.8,8.1,11.8c0,12.8-8.8,25.7-23.5,25.7
		C131.9,1240.9,127.7,1240,125,1238.9z M150.6,1217.3c0-4.4-1.8-6.3-4.1-6.3c-2.5,0-6,2.3-9.2,5.3L134,1233c2.8,0.9,5.5,1.3,7,1.3
		C146.2,1234.3,150.6,1224.7,150.6,1217.3z"/>
	<path d="M184.6,1236.1c0-5.7,4.5-16.5,4.5-21.6c0-2.1-0.9-3.4-3.5-3.4c-3,0-6.7,2.3-10.9,7.2l-4.3,21.7h-7.7l9.6-49.2l7.9-0.7
		l-4,21c5-5,10.1-7.4,14.7-7.4c5.4,0,6.9,3.2,6.9,6.9c0,7-4.7,18.7-4.7,22.2c0,1.3,0.6,1.3,6.7-0.1l1,3.9
		C189.7,1242.7,184.6,1241.5,184.6,1236.1z"/>
	<path d="M224.7,1234.2c-4.1,3.8-8.8,6.7-12.4,6.7c-4.1,0-7.4-3.5-7.4-10.8c0-13,8.9-26.4,23.4-26.4c2.8,0,6.1,0.4,9.6,1.3l-5,25.7
		c-0.6,3.1-0.5,3.1,6.5,1.7l1,3.9C228.2,1243.5,224.3,1241.2,224.7,1234.2z M225.8,1228l3.1-16.2c-2.8-0.8-5.4-1.2-6.8-1.2
		c-5.1,0-9.3,9.4-9.3,17.1c0,3.8,1.3,5.5,3.4,5.5C218.5,1233.2,222.4,1231,225.8,1228z"/>
	<path d="M266.3,1236.1c0-5.6,4.5-16.4,4.5-21.5c0-2.1-0.9-3.5-3.4-3.5c-3,0-6.6,2.1-10.8,6.6l-4.5,22.2h-7.7
		c3.3-16.8,4.9-24.7,6.2-35.1l7.8-0.6l-0.9,7c5.1-5.2,10.4-7.7,15.1-7.7c5.4,0,6.9,3.2,6.9,6.9c0,7-4.7,18.7-4.7,22.2
		c0,1.3,0.6,1.3,6.7-0.1l1,3.9C271.4,1242.7,266.3,1241.5,266.3,1236.1z"/>
	<path d="M346.4,1212.8c0,15.3-10.5,28.2-23.6,28.2c-8.9,0-15.2-6.4-15.2-17.7c0-15.3,10.5-28.2,23.6-28.2
		C340.1,1195.1,346.4,1201.5,346.4,1212.8z M338.3,1214.3c0-8.2-4.3-12-9.2-12c-8.6,0-13.5,9.6-13.5,19.5c0,8.2,4.3,12,9.2,12
		C333.5,1233.7,338.3,1224.1,338.3,1214.3z"/>
	<path d="M359,1192.4l9.8-0.2c-0.6,8.7-5.5,15-11.8,21l-3.3-1.9C357.9,1205.8,358.9,1199.7,359,1192.4z"/>
	<path d="M370.2,1240l8.4-43.7c18.3-3,29.4,2.8,29.4,16.8C408,1229.3,395.4,1242.9,370.2,1240z M385.6,1202.5l-6,30.9
		c14,0.3,20.3-8.5,20.3-19.3C400,1206.4,395.7,1201.9,385.6,1202.5z"/>
	<path d="M433,1203.5c7.7,0,12.8,5.4,12.8,14.5c0,12.3-9.7,23-19.8,23c-7.7,0-12.8-5.4-12.8-14.5
		C413.2,1214.3,422.9,1203.5,433,1203.5z M431,1210.1c-6.1,0-9.8,7.2-9.8,14.4c0,6.2,2.6,9.8,6.9,9.8c6.1,0,9.8-7.2,9.8-14.4
		C437.9,1213.8,435.3,1210.1,431,1210.1z"/>
	<path d="M472.6,1236.1c0-5.6,4.5-16.4,4.5-21.5c0-2.1-0.9-3.5-3.4-3.5c-3,0-6.6,2.1-10.8,6.6l-4.5,22.2h-7.7
		c3.3-16.8,4.9-24.7,6.2-35.1l7.8-0.6l-0.9,7c5.1-5.2,10.4-7.7,15.1-7.7c5.4,0,6.9,3.2,6.9,6.9c0,7-4.7,18.7-4.7,22.2
		c0,1.3,0.6,1.3,6.7-0.1l1,3.9C477.7,1242.7,472.6,1241.5,472.6,1236.1z"/>
	<path d="M515.2,1236.1c0-5.6,4.5-16.4,4.5-21.5c0-2.1-0.9-3.5-3.4-3.5c-3,0-6.6,2.1-10.8,6.6l-4.5,22.2h-7.7
		c3.3-16.8,4.9-24.7,6.2-35.1l7.8-0.6l-0.9,7c5.1-5.2,10.4-7.7,15.1-7.7c5.4,0,6.9,3.2,6.9,6.9c0,7-4.7,18.7-4.7,22.2
		c0,1.3,0.6,1.3,6.7-0.1l1,3.9C520.3,1242.7,515.2,1241.5,515.2,1236.1z"/>
	<path d="M536.1,1227.9c0-11.9,9.6-24.4,20.8-24.4c6,0,9.4,3.5,9.4,8.9c0,8.8-8.6,13.6-22.6,14.6c0.3,6.9,4.5,8.1,20.2,4.8l0.9,3.8
		C544.9,1246.4,536.1,1238.8,536.1,1227.9z M544.3,1222c8.7-0.6,14.5-2.7,14.5-7.3c0-2.5-1.6-4.2-4.4-4.2
		C549.3,1210.5,545.5,1216,544.3,1222z"/>
	<path d="M571.6,1226.9c0-21.2,11.2-36.9,20.9-36.9c4,0,6.7,2.6,6.7,8c0,10.4-7.7,20.4-19.5,30.5c1,7.8,7.1,8.8,28.5-6l0.2,6
		C583.9,1245.2,571.6,1245,571.6,1226.9z M579.6,1222.5c7.7-7.9,11.6-15.1,11.6-20.8c0-2.4-1.1-3.3-2.3-3.3
		C585,1198.4,580.1,1207,579.6,1222.5z"/>
	<path d="M600.3,1226.9c0-21.2,11.2-36.9,20.9-36.9c4,0,6.7,2.6,6.7,8c0,10.4-7.7,20.4-19.5,30.5c1,6.5,5,7.1,13.9,2.9l1.5,3.8
		C609.1,1244.9,600.3,1241.5,600.3,1226.9z M608.3,1222.5c7.7-7.9,11.6-15.1,11.6-20.8c0-2.4-1.1-3.3-2.3-3.3
		C613.7,1198.4,608.8,1207,608.3,1222.5z"/>
</g>
<g>
	<path d="M23.5,1137.6c-1.3-5.2-3.6-7.5-7.4-7.5c-3.6,0-6.1,2.7-6.1,5.8c0,7.8,17.7,12.7,17.7,23.1c0,8.1-9.8,16.2-32.2,11.5
		l2.1-8.8c16.1,4.6,21,2.1,21-1.5c0-6.8-17.7-11.4-17.7-22.5c0-7.7,7.7-15.1,17.4-15.1c8,0,11.4,4.8,12.8,13.2L23.5,1137.6z"/>
	<path d="M39.3,1158.5l3.1-12.7l-5.3-3.5l8.3-9.3l8.3-0.6l-5.7,24.5c-1.9,8.1-1.1,8.4,11.2,5.7l0.9,4.2
		C42.9,1176.9,36.1,1171.2,39.3,1158.5z M46.2,1126.7l2.5-10.1l10.4-0.6l-3.3,10.1L46.2,1126.7z"/>
	<path d="M84.9,1131.6c8.4,0,13.9,5.8,13.9,15.7c0,13.3-10.5,25-21.5,25c-8.4,0-13.9-5.8-13.9-15.7
		C63.4,1143.2,73.9,1131.6,84.9,1131.6z M82.7,1138.8c-6.6,0-10.6,7.8-10.6,15.6c0,6.7,2.8,10.6,7.4,10.6c6.6,0,10.6-7.8,10.6-15.6
		C90.1,1142.7,87.3,1138.8,82.7,1138.8z"/>
	<path d="M104.2,1170l10.2-52.2l8.5-0.8l-4.1,21.3c4.1-3.8,8.8-6.7,12.7-6.7c4.8,0,8.8,4.1,8.8,12.7c0,13.8-9.5,27.8-25.4,27.8
		C111.6,1172.1,107.1,1171.1,104.2,1170z M131.8,1146.5c0-4.8-1.9-6.8-4.5-6.8c-2.7,0-6.5,2.5-10,5.8l-3.5,18c3.1,0.9,6,1.5,7.6,1.5
		C127,1165,131.8,1154.6,131.8,1146.5z"/>
	<path d="M168.7,1167c0-6.1,4.9-17.9,4.9-23.4c0-2.2-0.9-3.7-3.8-3.7c-3.3,0-7.2,2.5-11.8,7.8l-4.6,23.5H145l10.4-53.4l8.5-0.8
		l-4.4,22.7c5.4-5.4,11-8.1,16-8.1c5.8,0,7.5,3.5,7.5,7.5c0,7.6-5.1,20.3-5.1,24c0,1.4,0.7,1.5,7.3-0.1l1.1,4.2
		C174.2,1174,168.7,1172.7,168.7,1167z"/>
	<path d="M212.2,1164.9c-4.5,4.1-9.5,7.3-13.4,7.3c-4.5,0-8.1-3.8-8.1-11.7c0-14.1,9.6-28.6,25.3-28.6c3.1,0,6.6,0.5,10.4,1.5
		l-5.5,27.9c-0.7,3.4-0.5,3.4,7.1,1.8l1.1,4.2C215.9,1174.9,211.7,1172.5,212.2,1164.9z M213.3,1158.1l3.4-17.6
		c-3-0.8-5.8-1.3-7.4-1.3c-5.5,0-10.1,10.1-10.1,18.5c0,4.1,1.5,6,3.7,6C205.4,1163.7,209.6,1161.4,213.3,1158.1z"/>
	<path d="M257.2,1167c0-6.1,4.9-17.7,4.9-23.3c0-2.3-0.9-3.8-3.7-3.8c-3.3,0-7.1,2.2-11.7,7.1l-4.8,24.1h-8.4
		c3.5-18.2,5.3-26.8,6.7-38.1l8.4-0.6l-1,7.6c5.5-5.6,11.3-8.4,16.4-8.4c5.8,0,7.5,3.5,7.5,7.5c0,7.6-5.1,20.3-5.1,24
		c0,1.4,0.7,1.5,7.3-0.1l1.1,4.2C262.7,1174,257.2,1172.7,257.2,1167z"/>
	<path d="M344,1141.6c0,16.6-11.4,30.6-25.6,30.6c-9.7,0-16.5-7-16.5-19.2c0-16.6,11.4-30.6,25.6-30.6
		C337.2,1122.4,344,1129.4,344,1141.6z M335.2,1143.2c0-8.9-4.6-13-10-13c-9.4,0-14.6,10.4-14.6,21.1c0,8.9,4.6,13,10,13
		C330,1164.3,335.2,1153.9,335.2,1143.2z"/>
	<path d="M357.6,1119.5l10.7-0.2c-0.7,9.4-6,16.3-12.8,22.8l-3.5-2.1C356.5,1134.1,357.6,1127.4,357.6,1119.5z"/>
	<path d="M369.8,1171.1l9.1-47.4c19.8-3.2,31.9,3.1,31.9,18.2C410.8,1159.5,397.1,1174.3,369.8,1171.1z M386.4,1130.5L380,1164
		c15.1,0.3,22-9.2,22-21C402,1134.7,397.4,1129.9,386.4,1130.5z"/>
	<path d="M437.9,1131.6c8.4,0,13.9,5.8,13.9,15.7c0,13.3-10.5,25-21.5,25c-8.4,0-13.9-5.8-13.9-15.7
		C416.4,1143.2,426.9,1131.6,437.9,1131.6z M435.6,1138.8c-6.6,0-10.6,7.8-10.6,15.6c0,6.7,2.8,10.6,7.4,10.6
		c6.6,0,10.6-7.8,10.6-15.6C443.1,1142.7,440.3,1138.8,435.6,1138.8z"/>
	<path d="M480.7,1167c0-6.1,4.9-17.7,4.9-23.3c0-2.3-0.9-3.8-3.7-3.8c-3.3,0-7.1,2.2-11.7,7.1l-4.8,24.1H457
		c3.5-18.2,5.3-26.8,6.7-38.1l8.4-0.6l-1,7.6c5.5-5.6,11.3-8.4,16.4-8.4c5.8,0,7.5,3.5,7.5,7.5c0,7.6-5.1,20.3-5.1,24
		c0,1.4,0.7,1.5,7.3-0.1l1.1,4.2C486.2,1174,480.7,1172.7,480.7,1167z"/>
	<path d="M526.9,1167c0-6.1,4.9-17.7,4.9-23.3c0-2.3-0.9-3.8-3.7-3.8c-3.3,0-7.1,2.2-11.7,7.1l-4.8,24.1h-8.4
		c3.5-18.2,5.3-26.8,6.7-38.1l8.4-0.6l-1,7.6c5.5-5.6,11.3-8.4,16.4-8.4c5.8,0,7.5,3.5,7.5,7.5c0,7.6-5.1,20.3-5.1,24
		c0,1.4,0.7,1.5,7.3-0.1l1.1,4.2C532.5,1174,526.9,1172.7,526.9,1167z"/>
	<path d="M549.6,1158.1c0-12.9,10.4-26.5,22.6-26.5c6.4,0,10.2,3.8,10.2,9.7c0,9.5-9.3,14.7-24.5,15.8c0.3,7.5,4.8,8.8,21.9,5.2
		l0.9,4.1C559.1,1178.1,549.6,1169.8,549.6,1158.1z M558.4,1151.6c9.4-0.6,15.7-2.9,15.7-7.9c0-2.7-1.7-4.5-4.8-4.5
		C563.8,1139.2,559.7,1145.1,558.4,1151.6z"/>
	<path class="st1" d="M588,1156.9c0-23,12.1-40,22.6-40c4.3,0,7.3,2.8,7.3,8.7c0,11.3-8.3,22.1-21.1,33.1c1.1,7.1,5.5,7.7,15,3.1
		l4.8-3.1l2.5,3.8l-5.6,3.4C597.5,1176.5,588,1172.7,588,1156.9z M596.6,1152.2c8.4-8.5,12.6-16.4,12.6-22.6c0-2.6-1.2-3.6-2.5-3.6
		C602.5,1126,597.2,1135.4,596.6,1152.2z"/>
	<path class="st1" d="M622,1160.7l-3.7,2.4l-2.3-3.9l5.8-3.9c0.6-22.1,12.4-38.3,22.6-38.3c4.3,0,7.3,2.8,7.3,8.7
		c0,10.4-8.4,20.3-21.3,30.3c0.4,9.7,4.6,11,15.3,5.9l1.6,4.1C632.6,1175.6,623.5,1173.3,622,1160.7z M630.6,1149.5
		c8.3-7.4,12.4-14.4,12.4-19.8c0-2.6-1.2-3.6-2.5-3.6C636.6,1126,631.5,1134.3,630.6,1149.5z"/>
</g>
<path d="M590.8,1163c0,0,27.2-17.6,27.2-37c0-4.8-1.5-9.1-7.3-9.1c-11.1,0-22.6,17.5-22.6,40.9c0,6.8,3.3,14,10.2,14
	c11.2,0,53.4-24.8,53.4-45.7c0-3.1-0.6-9.2-7.2-9.2c-13.4,0-22.7,22.2-22.7,41.1c0,6.1,3.6,13.8,9.3,13.8c8.7,0,16.2-5.8,16.2-5.8
	l-1.6-4.1c0,0-4.3,2.8-10.6,2.8c-5,0-5-9.7-5-12.4c0-2.8,2.4-26.2,10.3-26.2c2.2,0,2.9,1.8,2.5,4.8c-1.7,12.8-27.2,33.9-41.8,33.9
	c-9.1,0-4.3-38.6,5.6-38.6c2,0,2.8,1.8,2.5,4.6c-1.5,13.1-18,26.8-18,26.8L590.8,1163z"/>
</svg>
