<?xml version="1.0" standalone="no"?>
<!DOCTYPE svg PUBLIC "-//W3C//DTD SVG 1.1//EN" "http://www.w3.org/Graphics/SVG/1.1/DTD/svg11.dtd" >
<svg xmlns="http://www.w3.org/2000/svg" xmlns:xlink="http://www.w3.org/1999/xlink" version="1.1">
<metadata>
Created by FontForge 20170812 at Mon Sep 27 13:52:32 2010
 By www-data
Jessica Hische 2010
</metadata>
<defs>
<font id="Snowflake" horiz-adv-x="695" >
  <font-face 
    font-family="Snowflake"
    font-weight="400"
    font-stretch="normal"
    units-per-em="1000"
    panose-1="0 0 0 0 0 0 0 0 0 0"
    ascent="750"
    descent="-250"
    x-height="778"
    cap-height="784"
    bbox="-7 -251 1389 983"
    underline-thickness="50"
    underline-position="-100"
    unicode-range="U+0020-2212"
  />
<missing-glyph horiz-adv-x="389" 
 />
    <glyph glyph-name=".notdef" horiz-adv-x="389" 
 />
    <glyph glyph-name="C" unicode="C" horiz-adv-x="685" 
d="M643 570c6 -24 9 -49 9 -77h-45l-24 22l-22 -22h-35l-24 22l-23 -22h-36c0 22 -4 38 -11 51l6 37l-34 -6c-15 11 -33 15 -45 17l-20 21l-16 -22c-12 -2 -27 -7 -40 -16l-33 6l8 -31c-5 -8 -8 -17 -11 -28l-29 -29l26 -26v-43l-26 -25l26 -26v-47l-26 -25l30 -31
c4 -16 9 -28 16 -39l-8 -30l31 6c14 -10 29 -15 42 -17l17 -21l19 23c12 2 25 6 37 14l30 -5l-4 35c9 15 15 35 15 64h32l27 -27l29 27h25l27 -27l29 27h40c0 -31 -3 -59 -10 -86l-44 -22l22 -41c-11 -21 -24 -41 -39 -59l-42 3l-3 -45c-15 -12 -32 -22 -49 -31l-39 19
l-19 -40c-21 -6 -41 -10 -62 -11l-25 25l-25 -25c-20 2 -39 6 -58 11l-19 40l-38 -18c-18 9 -35 20 -50 33l-3 42l-39 -3c-16 18 -29 40 -41 62l21 38l-43 22c-5 18 -8 37 -10 58l29 31l-31 30v33l31 32l-31 30v33l31 31l-30 30c1 16 4 32 7 47l41 21l-20 38
c11 22 25 43 41 62l38 -3l3 41c16 13 33 24 51 33l38 -17l18 39c19 5 39 9 59 11l25 -24l24 25c25 -1 50 -5 74 -13l18 -38l37 17c18 -9 36 -20 52 -33l3 -41l37 3c16 -19 30 -40 41 -63l-19 -37zM423 755l-46 9l18 -28zM337 755l-14 -25l16 -23l15 24zM311 764l-46 -9
l28 -19zM206 729l-39 -24l32 -7zM100 446l-23 24v-47zM79 490l25 -15l25 15l-25 16zM100 349l-23 23v-47zM105 319l-27 -16l27 -17l28 17zM109 396l35 -84l30 84l-30 83zM180 319l-27 -16l27 -17l27 17zM185 349l24 -24v47zM185 446l24 -23v47zM180 475l25 15l-25 16
l-25 -16zM179 672l-26 5l6 -26l27 -4zM185 631l-66 -52l24 -82l43 63zM118 658l-23 -40l32 9zM65 512l27 21l-21 25zM77 224l20 25l-26 21zM124 124l9 31l-32 9zM125 203l66 -52l1 71l-47 64zM165 131l-7 -26l27 5l7 25zM172 77l40 -24l-7 31zM271 27l46 -9l-19 28zM344 27
l16 24l-15 24l-17 -23zM371 18l46 9l-28 19zM626 269l-28 -16l16 -28zM587 164l-32 -9l9 -31zM551 267l-50 -40l1 -68l63 43zM523 131l-27 4l7 -25l26 -5zM516 77l-33 7l-7 -31zM468 264l-11 -40l26 16zM472 184l-28 5l6 -26l28 -7zM474 131l-65 -2l-52 -47l73 -5zM412 183
l-39 -16l27 -12zM345 150l-16 -23l17 -24l15 24zM315 167l-39 16l11 -28zM278 129l-64 2l44 -54l73 5zM238 163l6 26l-28 -5l-6 -28zM222 272l-15 -29l30 -15zM216 510l15 44l-30 -15zM210 598l28 -5l-6 26l-28 7zM208 651l65 2l52 47l-73 5zM270 599l39 16l-27 11zM339 632
l17 23l-16 24l-16 -24zM379 615l39 -16l-12 27zM415 653l65 -2l-44 54l-73 -5zM468 524l15 25l-26 15zM478 598l5 28l-27 -7l-6 -26zM481 729l8 -31l32 7zM535 677l-26 -5l-7 -25l26 4zM551 521l14 65l-63 43l-1 -68zM561 627l32 -9l-23 40zM614 563l-16 -28l28 -16z" />
    <glyph glyph-name="D" unicode="D" horiz-adv-x="701" 
d="M152 31l-29 -29h-73v75l30 31l-30 29v34l30 30l-30 29v40l30 31l-30 29v34l30 30l-30 30v33l30 31l-30 29v40l30 31l-30 29v34l30 30l-30 29v74h73l29 -29l30 29h54l29 -29l30 29h54h5l28 -28l26 23c16 -3 31 -7 47 -12l12 -33l35 13c14 -7 28 -15 41 -25l3 -44l41 3
c15 -17 28 -38 39 -60l-19 -36l38 -18c4 -16 6 -32 8 -50l-28 -26l29 -28v-37l-29 -27l29 -28v-37l-29 -27l27 -27c-2 -21 -6 -41 -11 -60l-40 -19l20 -37c-11 -23 -25 -44 -40 -62l-38 3l-3 -42c-12 -9 -24 -18 -37 -25l-36 14l-14 -37c-13 -5 -27 -9 -41 -11l-30 26
l-33 -33h-1h-49l-34 34l-30 -31v2h-54zM363 608l-29 -27h-35l-35 34l-37 -36l22 -22v-43l-24 -24l24 -27v-39l-30 -29l30 -33v-36l-27 -27l27 -29v-41l-22 -23l37 -36l30 30h45l24 -22l14 26c9 2 18 5 27 11l32 -6l-8 28c8 11 15 24 18 42l28 27l-24 22v50l24 23l-24 22v46
l24 23l-27 24c-3 13 -8 23 -14 31l3 30l-35 -6c-7 3 -15 5 -21 6zM299 614h45l-22 22zM371 622l17 20l-11 23l-16 -19zM412 617l-28 -11l40 -15zM591 352l23 -23v45zM613 307l-27 16l-28 -16l28 -17zM591 446l23 -22v45zM587 474l25 15l-25 15l-25 -15zM582 397l-34 82
l-30 -82l30 -81zM455 235l30 14l-15 28zM482 164l-6 27l-28 7l6 -27zM507 352l-24 22v-45zM483 424l24 22l-24 23v-45zM485 307l27 -17l27 17l-27 16zM512 474l25 15l-25 15l-25 -15zM476 508l15 29l-30 13zM483 597l5 27l-28 -6l-5 -27zM384 180l28 -11l12 26zM388 144
l-17 20l-10 -24l16 -19zM344 172h-45l23 -22zM278 136l-14 22l-14 -22l14 -22zM216 559l-23 -23l23 -23v46zM209 593l32 32h-32v-32zM193 441l23 -23v46zM216 369l-23 -23l23 -23v46zM215 488l-27 16l-26 -16l26 -17zM183 393l-30 82l-32 -82l32 -83zM144 301l-27 16
l-26 -16l26 -17zM153 291l-32 -82l32 -83l30 83zM162 301l26 -17l27 17l-27 16zM216 275l-23 -23l23 -23v46zM209 192v-32h32zM264 628l14 21l-14 22l-14 -22zM204 651l53 33l-53 33l-47 -33zM183 579l-30 83l-32 -83l32 -82zM144 488l-27 16l-26 -16l26 -17zM112 536
l-22 23v-46zM90 608l22 22l-22 23v-45zM112 442l-22 23v-46zM112 346l-22 23v-46zM112 252l-22 23v-46zM112 160l-22 23v-46zM116 116l-23 -14l23 -15l24 15zM150 43l14 21l-14 22l-14 -22zM183 29h46l-23 22zM204 68l53 33l-53 34l-47 -34zM264 43l14 21l-14 22l-14 -22z
M299 29h46l-23 22zM321 70l47 37l-49 28l-50 -34zM387 51l11 24l-17 19l-10 -23zM403 39l44 13l-25 13zM450 94l34 50l-58 3l-36 -39zM477 63l40 24l-33 7zM507 120l27 -5l-7 25l-27 5zM501 159l65 52l-19 80l-47 -62zM567 133l23 39l-32 -9zM614 231l6 44l-26 -19zM620 555
l-21 -25l27 -20zM573 653l-9 -31l32 -9zM572 574l-65 52l-1 -70l43 -61zM527 646l7 25l-27 -5l-7 -25zM519 696l-40 24l7 -31zM484 642l-34 50l-60 -15l36 -38zM447 734l-44 13l19 -26zM387 735l-16 -20l10 -23l17 19zM368 679l-47 37l-52 -31l50 -34zM345 757h-46l23 -22z
M264 743l-14 -22l14 -22l14 22zM229 757h-46l23 -23zM150 743l-14 -22l14 -22l14 22zM140 684l-24 15l-23 -15l23 -15zM77 762l7 -31l31 -8l-7 32zM108 30l7 32l-31 -7l-7 -32z" />
    <glyph glyph-name="E" unicode="E" horiz-adv-x="641" 
d="M562 98l31 -30v-68h-64l-30 29l-28 -29h-60l-30 29l-29 -29h-57l-30 29l-28 -29h-56l-29 29l-29 -29h-73v76l30 30l-30 29v35l30 30l-30 29v40l30 30l-30 29v35l30 30l-30 29v34l30 30l-30 29v41l30 30l-30 29v35l30 30l-30 29v74h73l29 -30l30 30h54l29 -30l30 30h57
l29 -30l30 30h60l28 -30l30 30h64v-68l-31 -31l31 -34v-69h-62l-32 31l-30 -31h-55l-32 31l-34 -31h-51l-33 33l-37 -36l22 -23v-66h67l28 -29l30 29h52l28 -29l30 29h57v-66l-30 -29l30 -31v-76h-55l-32 31l-30 -31h-48l-32 31l-30 -31h-65v-60l-22 -22l37 -36l33 33h51
l34 -31l32 31h55l30 -31l32 31h62v-69zM539 175l-7 -31l31 7l7 31zM500 156l-14 -21l14 -22l13 22zM493 100l-53 33l-53 -33l53 -33zM462 176h-45l22 -22zM383 156l-14 -21l14 -22l13 22zM374 100l-53 33l-52 -33l52 -33zM344 176h-45l23 -22zM264 156l-14 -21l14 -22l14 22
zM90 228l22 23l-22 22v-45zM112 159l-22 22v-45zM188 283l27 16l-27 17l-26 -17zM216 273l-23 -22l23 -23v45zM153 309l30 82l-30 82l-32 -82zM162 486l26 -16l27 16l-27 17zM193 535l23 -23v46zM157 683l47 -34l53 34l-53 33zM183 578l-30 82l-32 -82l32 -82zM144 486
l-27 17l-26 -17l26 -16zM112 535l-22 23v-46zM90 606l22 23l-22 23v-46zM112 441l-22 22v-45zM112 345l-22 23v-46zM91 299l26 -16l27 16l-27 17zM153 290l-32 -83l32 -82l30 82zM204 133l-47 -33l47 -33l53 33zM241 159l-32 32v-32h32zM216 325l25 22l-25 23l-23 -23z
M262 313h45l-23 23zM345 333l14 21l-14 22l-14 -22zM348 389l53 -33l53 33l-53 34zM377 313h46l-23 23zM455 333l14 21l-14 22l-14 -22zM516 338l-31 8l7 -32l31 -7zM492 460l-7 -31l31 7l7 31zM500 391l-17 11l-17 -11l17 -11zM455 448l-14 -22l14 -21l14 21zM421 462h-45
l23 -23zM345 448l-14 -22l14 -21l14 21zM306 462h-46l23 -23zM285 423l-50 -34l50 -33l53 33zM241 440l-25 23l-23 -22l23 -23zM209 592l32 32h-32v-32zM264 626l14 22l-14 21l-14 -21zM269 683l52 -34l53 34l-53 33zM299 606h45l-22 23zM383 626l13 22l-13 21l-14 -21z
M387 683l53 -34l53 34l-53 33zM417 606h45l-23 23zM500 626l13 22l-13 21l-14 -21zM563 632l-31 7l7 -31l31 -8zM539 754l-7 -32l31 7l7 32zM547 684l-17 11l-17 -11l17 -10zM500 741l-14 -21l14 -22l13 22zM461 755h-46l23 -22zM383 741l-14 -21l14 -22l13 22zM345 755h-46
l23 -22zM264 741l-14 -21l14 -22l14 22zM229 755h-46l23 -22zM150 741l-14 -21l14 -22l14 22zM140 682l-24 15l-23 -15l23 -14zM77 761l7 -32l31 -7l-7 32zM108 29l7 31l-31 -7l-7 -31zM93 100l23 -15l24 15l-24 15zM150 41l14 22l-14 22l-14 -22zM183 27h46l-23 23zM264 41
l14 22l-14 22l-14 -22zM299 27h46l-23 23zM383 41l13 22l-13 22l-14 -22zM415 27h46l-23 23zM500 41l13 22l-13 22l-14 -22zM513 98l17 -10l17 10l-17 11zM539 29l31 -7l-7 31l-31 7z" />
    <glyph glyph-name="ydieresis" unicode="&#xff;" horiz-adv-x="703" 
d="M426 103l27 -28v-75h-68l-29 29l-29 -29h-73v76l30 30l-30 29v34l30 31l-30 29v35l13 7l-23 48l-36 -17c-18 10 -35 21 -51 33l-3 41l-35 -3c-16 19 -30 40 -41 64l19 38l-38 19c-4 16 -7 32 -8 49l29 28l-30 31v35l30 29l-30 31v87h76l31 -30l29 30h69v-97l-25 -26
l25 -24v-39l-27 -27l30 -29c2 -11 6 -19 10 -27l-8 -32l32 6c16 -10 33 -14 45 -16l19 -23l16 24c12 2 26 6 39 15l32 -6l-8 31c5 8 9 18 11 29l29 28l-26 26v54l28 27l-28 29v78h71l32 -31l31 31h71v-75l-31 -32l31 -30v-45l-31 -32l29 -29c-1 -16 -3 -32 -7 -47l-40 -20
l20 -39c-11 -23 -25 -44 -40 -63l-37 3l-3 -41c-15 -13 -32 -24 -50 -33l-37 17l-22 -48l17 -12v-22l-32 -32l32 -33v-42zM383 299l45 10l-27 18zM397 250l23 -23v46zM414 181l-23 -23l23 -23v46zM357 289l-32 -82l32 -82l30 82zM342 332l15 -24l15 25l-16 23zM486 334
l39 25l-32 7zM512 589l-24 -16l24 -15l25 15zM486 600l23 23l-23 22v-45zM610 573l-24 16l-25 -16l25 -15zM589 625l23 -23v46zM551 589l24 37l-24 37l-24 -37zM513 391l26 -5l-7 26l-26 5zM507 432l64 54l-22 81l-43 -63zM572 405l23 40l-32 -9zM624 552l-26 -20l20 -26z
M599 754l-8 -31l32 7l7 31zM611 677l-26 17l-26 -17l26 -17zM551 731l-11 -17l11 -17l11 17zM540 677l-26 17l-26 -17l26 -17zM477 730l31 -7l-7 31l-31 7zM477 554l-16 -44l30 15zM482 465l-27 7l6 -28l27 -7zM484 412l-63 -2l-52 -46l72 -6zM424 464l-39 -16l27 -11z
M356 431l-16 -23l15 -24l16 23zM318 448l-39 16l12 -27zM241 510l-15 44l-14 -29zM248 472l-28 -7l-5 -28l27 7zM117 589l-24 -16l24 -15l25 15zM90 599l24 23l-24 23v-46zM130 626l24 -37l24 37l-24 37zM191 589l-25 -16l25 -15l24 15zM196 622l23 -23v46zM203 755l-7 -32
l31 7l7 32zM216 677l-27 17l-26 -17l26 -16zM155 732l-10 -17l10 -17l11 17zM145 677l-27 17l-26 -17l26 -16zM74 762l7 -32l32 -7l-7 32zM85 506l20 26l-26 20zM131 405l9 31l-32 9zM132 486l64 -54l1 72l-43 63zM171 412l-7 -26l26 5l7 26zM178 359l39 -25l-7 32zM262 358
l72 6l-52 46l-64 2zM274 309l46 -10l-18 28zM294 227l23 23l-23 23v-46zM317 158l-23 23v-46zM312 29l7 31l-31 -7l-7 -31zM299 103l23 -14l24 14l-24 15zM354 41l14 22l-14 21l-14 -21zM363 103l24 -14l23 14l-23 15zM400 29l32 -7l-7 31l-32 7zM309 896l-83 -82l-85 85
l83 82zM258 909l-19 -12l19 -12l20 12zM225 948l-12 -18l12 -17l11 17zM191 885l20 12l-20 12l-19 -12zM213 862l12 -18l11 18l-11 18zM559 896l-83 -82l-85 85l82 82zM508 909l-19 -12l19 -12l20 12zM474 948l-11 -18l11 -17l12 17zM441 885l19 12l-19 12l-19 -12zM463 862
l11 -18l12 18l-12 18z" />
    <glyph glyph-name="F" unicode="F" horiz-adv-x="641" 
d="M562 684l31 -34v-70h-62l-32 32l-30 -32h-55l-32 32l-34 -32h-51l-33 34l-37 -36l28 -29v-35l-30 -28l30 -31v-25h42l28 -29l30 29h52l28 -29l30 29h57v-66l-30 -29l30 -31v-76h-55l-32 32l-30 -32h-48l-32 32l-30 -32h-33v8l-37 -36l30 -31v-34l-30 -29l30 -30v-76h-74
l-31 31l-30 -31h-70v76l30 30l-30 29v34l30 31l-30 29v40l30 30l-30 29v34l30 31l-30 29v34l30 30l-30 29v40l30 31l-30 29v34l30 31l-30 29v74h73l29 -30l30 30h54l29 -30l30 29h57l29 -29l30 29h60l28 -29l30 29h64v-68zM539 753l-7 -31l31 7l7 31zM500 741l-14 -22
l14 -21l13 21zM493 682l-53 34l-53 -34l53 -33zM461 755h-46l23 -23zM383 741l-14 -22l14 -21l13 21zM374 682l-53 34l-52 -34l52 -33zM345 755h-46l23 -23zM264 741l-14 -22l14 -21l14 21zM193 250l23 -23v46zM216 181l-23 -23l23 -23v46zM188 282l27 17l-27 16l-26 -16z
M90 227l22 23l-22 23v-46zM112 158l-22 23v-46zM162 486l26 -17l27 17l-27 16zM183 391l-30 82l-32 -82l32 -82zM153 495l30 83l-30 82l-32 -82zM144 486l-27 16l-26 -16l26 -17zM112 534l-22 23v-45zM90 606l22 23l-22 23v-46zM112 440l-22 23v-46zM112 344l-22 23v-45z
M91 299l26 -17l27 17l-27 16zM153 289l-32 -82l32 -82l30 82zM216 463l-23 -23l23 -23v46zM193 534l23 -22v45zM157 682l47 -33l53 33l-53 34zM229 755h-46l23 -23zM150 741l-14 -22l14 -21l14 21zM140 682l-24 15l-23 -15l23 -15zM77 760l7 -31l31 -7l-7 31zM102 24l7 32
l-31 -7l-7 -32zM91 107l26 -16l27 16l-27 17zM150 47l11 17l-11 17l-11 -17zM162 107l26 -16l27 16l-27 17zM231 17l-7 32l-32 7l8 -32zM216 330l50 -33l53 33l-53 34zM243 254h45l-23 23zM326 274l13 22l-13 21l-14 -21zM329 330l53 -33l53 33l-53 34zM358 254h46l-23 23z
M436 274l14 22l-14 21l-14 -21zM497 280l-31 7l7 -32l31 -7zM473 401l-7 -31l31 7l7 31zM481 332l-17 11l-17 -11l17 -11zM436 389l-14 -22l14 -21l14 21zM402 403h-45l23 -23zM326 389l-14 -22l14 -21l13 21zM287 403h-46l23 -23zM225 367l-13 22l-14 -22l14 -21zM209 591
l32 32h-32v-32zM264 626l14 21l-14 22l-14 -22zM299 606h45l-22 23zM383 626l13 21l-13 22l-14 -22zM417 606h45l-23 23zM500 626l13 21l-13 22l-14 -22zM513 684l17 -11l17 11l-17 11zM539 611l31 -7l-7 31l-31 7z" />
    <glyph glyph-name="G" unicode="G" horiz-adv-x="710" 
d="M652 568c6 -25 9 -50 9 -77h-45l-24 22l-22 -22h-34l-24 22l-23 -22h-36c0 21 -4 38 -11 50l6 38l-34 -6c-15 10 -33 15 -45 16l-19 23l-16 -24c-12 -2 -27 -6 -40 -15l-33 6l8 -32c-5 -8 -8 -16 -11 -28l-29 -28l26 -26v-43l-26 -25l26 -27v-46l-26 -25l30 -31
c4 -16 9 -28 16 -39l-8 -30l31 5c14 -10 29 -14 42 -16l16 -23l19 24c12 3 25 7 37 15l30 -5l-4 35c6 10 10 22 13 37l26 27l-27 27l-35 -37h-45v45l31 30l-31 32v39h44l33 -33l35 33h41l33 -33l34 33h72v-108l-29 -27l27 -27c-1 -22 -4 -41 -9 -60l-44 -22l22 -42
c-11 -21 -24 -42 -40 -60l-40 3l-3 -44c-15 -12 -32 -22 -49 -31l-39 19l-19 -41c-21 -5 -41 -9 -62 -10l-24 24l-25 -24c-20 2 -39 5 -58 11l-19 40l-38 -18c-18 9 -35 20 -50 32l-3 42l-38 -3c-16 19 -29 40 -41 63l21 39l-43 21c-5 19 -8 38 -10 59l29 31l-31 29v33
l31 33l-31 30v33l31 31l-30 30c1 16 4 32 7 47l41 20l-20 39c11 24 25 44 41 63l37 -3l3 41c16 13 33 24 51 33l38 -17l18 38c19 6 39 10 59 12l25 -24l23 25c25 -1 50 -6 74 -13l18 -38l37 17c18 -10 36 -21 52 -34l3 -40l36 3c16 -19 30 -40 41 -64l-19 -38zM433 754
l-46 9l18 -28zM348 754l-14 -25l16 -23l14 24zM322 763l-46 -9l28 -19zM217 728l-39 -24l32 -8zM112 444l-23 23v-47zM91 488l25 -15l25 15l-25 16zM112 347l-23 22v-46zM117 317l-27 -17l27 -17l28 17zM121 394l34 -85l30 85l-30 83zM191 317l-27 -17l27 -17l27 17z
M196 347l24 -24v46zM196 444l24 -24v47zM191 473l25 15l-25 16l-25 -16zM190 670l-26 6l6 -26l27 -5zM196 630l-65 -54l23 -81l43 62zM130 657l-23 -41l32 10zM77 510l27 20l-21 26zM89 221l20 26l-26 20zM136 121l9 31l-32 9zM137 201l65 -53l1 72l-47 64zM176 128l-7 -26
l27 5l7 25zM183 74l40 -25l-7 32zM282 24l46 -10l-19 28zM354 24l16 24l-15 23l-16 -23zM381 14l46 10l-28 18zM486 49l40 25l-33 7zM513 107l26 -5l-6 26l-27 4zM496 297l24 -14l24 16l-24 13zM512 156l62 44l-14 77l-49 -53zM572 300l23 -15l23 14l-23 14zM573 121l23 40
l-32 -9zM635 267l-28 -17l16 -28zM630 339l7 31l-31 -7l-7 -31zM642 409l-47 1l23 -24zM556 385l-24 -38l24 -34l25 34zM396 395l20 -5l-5 20l-19 4zM411 316l5 19l-20 -4l-4 -20zM437 351l23 13l-22 15l-23 -14zM523 409l-47 1l24 -24zM477 370l7 -31l32 -7l-8 31zM478 262
l-11 -40l26 15zM482 181l-28 6l6 -27l28 -7zM484 128l-65 -2l-52 -47l73 -5zM422 179l-39 -15l27 -12zM355 147l-15 -24l16 -24l15 25zM326 164l-39 15l11 -27zM289 126l-64 2l44 -54l73 5zM249 160l6 27l-28 -6l-6 -28zM233 270l-15 -29l30 -15zM227 508l15 43l-30 -14z
M221 596l28 -6l-6 27l-28 7zM219 650l65 1l52 47l-73 6zM281 598l39 15l-27 12zM350 630l16 23l-15 25l-16 -24zM389 613l39 -15l-12 27zM425 651l65 -1l-44 54l-73 -6zM478 522l15 24l-26 15zM488 596l5 28l-27 -7l-6 -27zM491 728l8 -32l32 8zM545 676l-26 -6l-7 -25l26 5
zM560 518l14 66l-62 43l-1 -68zM570 626l32 -10l-23 41zM623 561l-16 -28l28 -17z" />
    <glyph glyph-name="H" unicode="H" horiz-adv-x="760" 
d="M224 106l30 -30v-76h-74l-31 31l-30 -31h-70v76l30 30l-30 29v34l30 31l-30 29v40l30 30l-30 29v34l30 31l-30 29v34l30 30l-30 29v40l30 31l-30 29v34l30 31l-30 29v74h73l27 -28l28 28h77v-75l-30 -28l30 -31v-34l-30 -29l30 -30v-66h42l28 -30l30 30h52l28 -30l30 30
h42v66l29 30l-29 29v34l29 31l-29 28v75h77l28 -28l26 28h74v-74l-30 -29l30 -31v-34l-30 -29l30 -31v-40l-30 -29l30 -30v-34l-30 -29l30 -31v-34l-30 -29l30 -30v-40l-30 -29l30 -31v-34l-30 -29l30 -30v-76h-70l-30 31l-32 -31h-73v76l29 30l-29 29v34l29 31l-29 29v59
h-40l-32 31l-30 -31h-48l-32 31l-30 -31h-40v-59l-30 -29l30 -31v-34zM242 313h45l-23 23zM325 333l13 22l-13 21l-14 -21zM328 389l53 -33l53 33l-53 34zM357 313h46l-23 23zM435 333l14 22l-14 21l-14 -21zM474 313h46l-23 23zM561 32l7 31l-31 -7l-7 -31zM671 557
l-23 -23l23 -22v45zM648 632l23 -22v45zM599 299l-27 16l-26 -16l26 -17zM578 391l29 -82l32 82l-32 82zM607 289l-29 -82l29 -82l32 82zM617 299l26 -17l27 17l-27 16zM648 250l23 -23v46zM671 181l-23 -23l23 -23v46zM648 344l23 -22v45zM648 440l23 -23v46zM670 486
l-27 16l-26 -16l26 -17zM607 495l32 83l-32 82l-29 -82zM599 486l-27 16l-26 -16l26 -17zM567 534l-22 23v-45zM545 610l22 22l-22 23v-45zM567 440l-22 23v-46zM545 322l22 22l-22 23v-45zM567 250l-22 23v-46zM567 158l-22 23v-46zM572 91l27 16l-27 17l-26 -17zM611 47
l10 17l-10 17l-11 -17zM617 107l26 -16l27 16l-27 17zM683 56l-32 7l7 -31l32 -7zM658 755l-7 -32l32 7l7 32zM670 680l-27 17l-26 -17l26 -16zM611 737l-11 -17l11 -17l10 17zM599 680l-27 17l-26 -17l26 -16zM530 762l7 -32l31 -7l-7 32zM551 389l-53 34l-53 -34l53 -33z
M518 462h-45l23 -22zM435 448l-14 -21l14 -22l14 22zM401 462h-45l23 -22zM325 448l-14 -21l14 -22l13 22zM286 462h-46l23 -22zM265 423l-53 -34l53 -33l53 33zM89 227l22 23l-22 23v-46zM111 158l-22 23v-46zM215 557l-23 -23l23 -22v45zM192 632l23 -22v45zM214 486
l-27 16l-26 -16l26 -17zM215 463l-23 -23l23 -23v46zM182 391l-30 82l-32 -82l32 -82zM152 495l30 83l-30 82l-32 -82zM143 486l-27 16l-26 -16l26 -17zM111 534l-22 23v-45zM89 610l22 22l-22 23v-45zM111 440l-22 23v-46zM111 344l-22 23v-45zM90 299l26 -17l27 17l-27 16
zM152 289l-32 -82l32 -82l30 82zM161 299l26 -17l27 17l-27 16zM192 250l23 -23v46zM215 181l-23 -23l23 -23v46zM192 344l23 -22v45zM199 755l-8 -32l32 7l7 32zM187 697l-26 -17l26 -16l27 16zM149 737l-11 -17l11 -17l11 17zM143 680l-27 17l-26 -17l26 -16zM77 730
l31 -7l-7 32l-31 7zM101 32l7 31l-31 -7l-7 -31zM90 107l26 -16l27 16l-27 17zM149 47l11 17l-11 17l-11 -17zM161 107l26 -16l27 16l-27 17zM199 32l31 -7l-7 31l-32 7z" />
    <glyph glyph-name="I" unicode="I" horiz-adv-x="726" 
d="M82 688l-32 31v65h58l27 -28l29 28h58l27 -28l28 28h59l27 -28l29 28h57l28 -28l28 28h59l27 -28l28 28h56v-66l-31 -30l31 -32v-67h-53l-31 31l-30 -31h-53l-31 31l-36 -37l22 -24v-49l-25 -25l25 -26v-42l-25 -25l25 -26v-43l-25 -25l25 -26v-45l-22 -24l36 -37l29 29
h57l28 -29l29 29h55v-66l-31 -31l31 -31v-67h-54l-30 30l-30 -30h-54l-30 30l-30 -30h-53l-31 30l-29 -30h-55l-30 30l-29 -30h-54l-31 30l-29 -30h-56v67l32 31l-32 32v65h57l28 -29l30 29h56l28 -29l37 37l-28 34v31l30 30l-30 29v35l30 30l-30 29v34l30 30l-30 29v34
l28 35l-37 37l-30 -31h-52l-32 31l-30 -31h-55v67zM100 614l7 32l-32 -7l-7 -32zM137 631l13 22l-13 22l-14 -22zM137 688l53 -34l53 34l-53 33zM168 618h46l-23 23zM249 631l13 22l-13 22l-14 -22zM393 580l-30 82l-32 -82l32 -83zM368 688l53 -34l52 34l-52 33zM363 127
l30 82l-30 82l-32 -82zM421 131l-53 -33l53 -34l52 34zM358 98l-53 33l-53 -33l53 -34zM327 471l27 17l-27 16l-26 -16zM363 475l-32 -82l32 -82l30 82zM300 514l23 22l-23 23v-45zM323 442l-23 23v-46zM323 346l-23 23v-45zM301 301l26 -17l27 17l-27 16zM323 252l-23 23
v-46zM372 301l27 -17l26 17l-26 16zM426 275l-23 -23l23 -23v46zM403 346l23 -22v45zM403 442l23 -23v46zM425 488l-26 16l-27 -16l27 -17zM403 536l23 -22v45zM305 654l53 34l-53 33l-53 -33zM284 618h45l-22 23zM329 168h-45l23 -23zM249 154l-14 -22l14 -21l13 21z
M243 98l-53 33l-53 -33l53 -34zM214 168h-46l23 -23zM137 154l-14 -22l14 -21l13 21zM75 147l32 -7l-7 31l-32 7zM99 25l8 32l-32 -7l-7 -32zM98 99l17 -10l17 10l-17 11zM137 39l13 22l-13 21l-14 -21zM168 28h46l-23 22zM249 39l13 22l-13 21l-14 -21zM284 28h45l-22 22z
M364 39l13 22l-13 21l-14 -21zM397 28h45l-23 22zM477 39l13 22l-13 21l-14 -21zM483 98l53 -34l53 34l-53 33zM514 28h45l-23 22zM590 39l14 22l-14 21l-14 -21zM653 50l-31 7l7 -32l31 -7zM629 171l-7 -31l31 7l7 31zM630 99l-17 11l-17 -11l17 -10zM590 154l-14 -22
l14 -21l14 21zM559 168h-45l22 -23zM477 153l-14 -22l14 -22l13 22zM442 168h-45l22 -23zM397 618h45l-23 23zM477 633l13 22l-13 21l-14 -21zM483 688l53 -34l53 34l-53 33zM514 618h45l-23 23zM590 631l14 22l-14 22l-14 -22zM653 639l-31 7l7 -32l31 -7zM629 760l-7 -31
l31 7l7 31zM630 686l-17 11l-17 -11l17 -10zM590 747l-14 -22l14 -22l14 22zM559 758h-45l22 -23zM477 747l-14 -22l14 -22l13 22zM442 758h-45l22 -23zM364 747l-14 -22l14 -22l13 22zM329 758h-45l23 -23zM249 747l-14 -22l14 -22l13 22zM214 758h-46l23 -23zM137 747
l-14 -22l14 -22l13 22zM132 686l-17 11l-17 -11l17 -10zM99 760l-31 7l7 -31l32 -7z" />
    <glyph glyph-name="J" unicode="J" horiz-adv-x="689" 
d="M76 269l-26 26v65h72l31 -30l29 30h69v-66l-23 -25l26 -17c2 -9 5 -18 10 -26l-4 -32l30 6c10 -6 23 -10 39 -12l18 -23l15 23c12 2 27 7 40 16l30 -6l-7 31c6 10 10 22 14 36l30 31l-26 26v44l26 27l-26 25v41l26 26l-26 26v47l26 27l-26 25v42l26 26l-26 26v76h75
l26 -26l25 26h75v-73l-30 -29l30 -30v-34l-30 -29l30 -31v-40l-30 -29l30 -31v-33l-30 -29l30 -31v-34l-30 -29l28 -29c-2 -21 -5 -40 -10 -59l-40 -20l19 -38c-11 -23 -24 -44 -39 -62l-36 3l-3 -41c-15 -12 -32 -23 -49 -32l-36 17l-19 -39c-18 -6 -37 -9 -55 -11l-25 24
l-23 -24c-19 1 -39 4 -58 8l-19 41l-40 -19c-19 8 -36 19 -52 31v35h-37c-15 17 -28 36 -39 57l20 35l-41 24c-4 15 -6 30 -8 46zM94 202l15 29l-28 15zM138 111l6 31l-32 6zM135 187l64 -42l-5 69l-41 45zM173 121l-5 -28l27 8l5 27zM180 69l39 -22l-8 31zM278 26l45 -6
l-19 26zM348 27l15 23l-16 24l-14 -24zM374 18l44 9l-27 18zM475 51l38 25l-31 7zM604 556l-22 -23l22 -22v45zM582 631l22 -23v46zM577 314l-26 -16l26 -17l26 17zM541 307l32 83l-32 82l-30 -82zM582 343l22 -22v45zM582 439l22 -23v46zM603 485l-26 16l-26 -16l26 -17z
M541 494l32 83l-32 82l-30 -82zM532 485l-26 16l-27 -16l27 -17zM501 533l-23 23v-45zM478 608l23 23l-23 23v-46zM501 439l-23 23v-46zM501 343l-23 23v-45zM506 314l-27 -16l27 -17l26 17zM501 108l25 -5l-6 25l-25 5zM495 148l63 53l-19 80l-45 -62zM559 121l22 40
l-31 -9zM604 220l6 46l-26 -20zM592 752l-7 -32l31 7l7 32zM603 679l-26 17l-26 -17l26 -16zM544 736l-11 -17l11 -17l11 17zM532 679l-26 17l-27 -17l27 -16zM463 759l7 -32l32 -7l-8 32zM466 268l-15 -43l29 14zM471 181l-27 6l6 -27l27 -7zM473 128l-62 -2l-51 -45l71 -5
zM413 179l-38 -15l27 -11zM347 147l-15 -23l14 -23l15 23zM320 161l-37 16l11 -27zM280 126l-61 -1l40 -53l73 10zM244 156l6 27l-26 -6l-7 -26zM231 246l-13 -25l26 -14zM201 336l-7 -32l31 7l8 32zM188 284l-22 -14l22 -14l22 14zM153 313l-10 -17l10 -17l11 17zM136 270
l-22 14l-22 -14l22 -14zM104 336l-32 7l7 -32l32 -7z" />
    <glyph glyph-name="K" unicode="K" horiz-adv-x="722" 
d="M501 24l-29 -25h-27l-20 33l11 44l-44 11l-19 32l11 42l-43 11l-17 27l11 41l-42 10l-25 43v-65l-30 -29l30 -30v-35l-30 -28l30 -31v-75h-74l-31 30l-30 -30h-70v75l30 31l-30 29v34l30 30l-30 29v40l30 31l-30 29v34l30 30l-30 29v34l30 31l-30 29v40l30 30l-30 29v35
l30 30l-30 29v74h73l27 -27l28 27h77v-74l-30 -29l30 -30v-35l-30 -29l30 -30v-59l25 41l42 10l-11 42l17 27l43 11l-11 41l20 33l43 11l-10 42l17 28h25l29 -26l37 25h33l29 -25l37 25h49l-31 -50l-42 -11l10 -41l-17 -28l-42 -11l11 -41l-21 -33l-42 -11l11 -41l-18 -28
l-42 -11l11 -41l-26 -42l26 -42l-11 -41l43 -11l17 -28l-11 -41l43 -11l20 -33l-11 -41l43 -11l16 -27l-10 -42l43 -11l32 -53h-47l-37 24l-29 -25h-33zM463 498l26 38l-32 -6zM468 561h30l-13 27h-30zM565 664l26 38l-32 -6zM568 752l-11 -17l11 -17l11 17zM515 580l26 37
l-32 -6zM538 748l-69 -54l-14 -88l67 56zM465 757l-11 -17l11 -17l10 17zM201 696l-26 -16l26 -17l27 17zM103 227l22 23l-22 23v-46zM125 158l-22 23v-46zM175 485l26 -16l27 16l-27 17zM196 390l-30 83l-32 -83l32 -82zM166 495l30 82l-30 83l-32 -83zM157 485l-27 17
l-26 -17l26 -16zM125 534l-22 23v-46zM103 609l22 23l-22 23v-46zM125 440l-22 23v-46zM125 344l-22 23v-46zM104 299l26 -17l27 17l-27 16zM166 289l-32 -82l32 -83l30 83zM175 299l26 -17l27 17l-27 16zM206 250l23 -23v46zM229 181l-23 -23l23 -23v46zM206 344l23 -23v46
zM206 440l23 -23v46zM206 534l23 -23v46zM206 632l23 -23v46zM163 737l-11 -17l11 -17l11 17zM157 680l-27 16l-26 -16l26 -17zM91 735l31 -7l-7 32l-31 7zM115 31l7 32l-31 -7l-7 -32zM104 107l26 -17l27 17l-27 16zM163 47l11 17l-11 17l-11 -17zM175 107l26 -17l27 17
l-27 16zM244 24l-7 32l-32 7l8 -32zM237 735l7 32l-31 -7l-8 -32zM425 686l-26 -37l32 6zM425 623h-30l13 -27h30zM377 602l-25 -38l31 6zM336 435l-10 21h-24l10 -22zM323 521l-26 -38l32 6zM268 479l-17 -26l17 -26l17 26zM323 418l-83 -24l82 -25l83 24zM410 410l26 37
l-32 -6zM436 334l-25 38l-6 -32zM268 315l17 26l-17 27l-17 -27zM317 271l7 32l-32 6zM328 328l11 23h-26l-11 -23h26zM375 183l6 31l-32 6zM422 98l6 32l-31 6zM424 164l13 27h-30l-13 -27h30zM369 259l70 -55l-16 86l-67 56zM422 497l19 85l-71 -52l-17 -87zM566 118
l-6 -32l31 -6zM563 60l-11 -17l11 -17l10 17zM515 202l-6 -32l32 -6zM464 284l-6 -32l31 -6zM466 226l-13 -27h31l13 27h-31zM517 128l-68 56l14 -87l69 -55zM465 60l-11 -17l11 -17l10 17z" />
    <glyph glyph-name="L" unicode="L" horiz-adv-x="639" 
d="M152 30l-29 -29h-73v76l30 30l-30 29v35l30 30l-30 29v40l30 30l-30 29v35l30 30l-30 29v34l30 30l-30 29v41l30 30l-30 29v35l30 30l-30 29v74h73l29 -30l30 30h71v-66l-30 -33l30 -29v-37l-30 -33l30 -29v-39l-30 -32l30 -30v-30l-30 -33l30 -29v-34l-30 -32l30 -29
v-36l-26 -27l37 -36l33 33h51l34 -31l32 31h55l30 -31l32 31h62v-69l-31 -35l31 -30v-68h-64l-30 29l-28 -29h-60l-30 29l-29 -29h-57l-30 29l-28 -29h-56zM216 559l-23 -23l23 -23v46zM193 631l23 -23v46zM153 310l30 82l-30 82l-32 -82zM188 317l-26 -17l26 -16l27 16z
M144 300l-27 17l-26 -17l26 -16zM153 291l-32 -83l32 -82l30 82zM204 134l-47 -33l47 -33l53 33zM193 252l23 -23v45zM193 347l23 -23v46zM193 441l23 -23v45zM215 487l-27 17l-26 -17l26 -16zM153 497l30 82l-30 82l-32 -82zM144 487l-27 17l-26 -17l26 -16zM112 536
l-22 23v-46zM90 607l22 23l-22 23v-46zM112 442l-22 22v-45zM112 346l-22 23v-46zM112 252l-22 22v-45zM112 160l-22 22v-45zM116 116l-23 -15l23 -15l24 15zM150 42l14 22l-14 22l-14 -22zM183 28h46l-23 23zM264 42l14 22l-14 22l-14 -22zM269 101l52 -33l53 33l-53 33z
M299 28h46l-23 23zM383 42l13 22l-13 22l-14 -22zM387 101l53 -33l53 33l-53 33zM415 28h46l-23 23zM500 42l13 22l-13 22l-14 -22zM563 54l-31 7l7 -31l31 -7zM539 176l-7 -31l31 7l7 31zM547 99l-17 11l-17 -11l17 -10zM500 157l-14 -21l14 -22l13 22zM462 177h-45l22 -22
zM383 157l-14 -21l14 -22l13 22zM344 177h-45l23 -22zM264 157l-14 -21l14 -22l14 22zM241 160l-32 32v-32h32zM193 755l-8 -32l32 7l7 32zM208 683l-24 15l-23 -15l23 -14zM150 742l-14 -21l14 -22l14 22zM140 683l-24 15l-23 -15l23 -14zM77 762l7 -32l31 -7l-7 32z
M108 30l7 31l-31 -7l-7 -31z" />
    <glyph glyph-name="M" unicode="M" horiz-adv-x="806" 
d="M725 103l30 -29v-74h-73l-27 27l-28 -27h-77v74l30 29l-30 30v35l30 29l-30 30v40l30 29l-30 30v37l24 28l-20 21l-4 -6v2l-26 -40l-45 -10l10 -45l-35 -55l-52 32l-51 -32l-37 58l9 42l-42 9l-26 41v-2l-4 6l-20 -21l24 -28v-37l-30 -30l30 -29v-40l-30 -30l30 -29v-35
l-30 -30l30 -29v-74h-77l-28 27l-27 -27h-73v74l30 29l-30 30v35l30 29l-30 30v41l30 29l-30 30v34l30 29l-30 30v35l30 29l-30 30v40l30 29l-30 30v35l30 29l-30 30v76h70l30 -31l31 31h74v-6h1v-51l49 -16l28 -44l-10 -46l46 -10l33 -53l34 53l46 10l-10 46l28 44l49 16
v51h1v6h74l31 -31l30 31h70v-76l-30 -30l30 -29v-35l-30 -30l30 -29v-40l-30 -30l30 -29v-35l-30 -30l30 -29v-34l-30 -30l30 -29v-41l-30 -30l30 -29v-35zM736 761h-46l23 -23zM589 225l23 23l-23 23v-46zM612 150l-23 23v-46zM661 484l26 -17l27 17l-27 16zM684 392
l-32 82l-30 -82l30 -83zM652 493l32 83l-32 63l-30 -63zM643 484l-27 16l-26 -16l26 -17zM612 438l-23 23v-46zM612 342l-23 23v-46zM590 297l26 -17l27 17l-27 16zM652 287l-30 -82l30 -82l32 82zM661 297l26 -17l27 17l-27 16zM692 248l23 -23v46zM715 173l-23 -23l23 -23
v46zM692 342l23 -23v46zM692 438l23 -23v46zM692 532l23 -22v45zM692 624l23 -22v45zM668 736v-31l28 -14v31zM655 688l-11 -17l11 -17l11 17zM642 705l-1 31l-27 -14v-31zM616 761h-45l23 -23zM588 715l-26 1l11 -24h26zM551 654v-62l57 26v63zM516 682l-24 -39l32 8z
M532 591l-11 23h-25l11 -23h25zM461 594l-24 -39l31 7zM461 520h-26l11 -23h26zM404 532l-20 -29l19 -31l19 30zM344 594l-8 -32l32 -7zM344 520l-11 -23h25l11 23h-25zM289 682l-8 -31l31 -8zM283 614l-11 -23h26l11 23h-26zM254 592l-1 62l-56 27v-63zM231 692l11 24
l-25 -1l-11 -23h25zM234 761h-46l23 -23zM163 736v-31l28 -14v31zM90 225l22 23l-22 23v-46zM112 150l-22 23v-46zM121 576l32 -83l30 83l-30 63zM183 392l-30 82l-32 -82l32 -83zM144 484l-27 16l-26 -16l26 -17zM112 532l-22 23v-45zM90 602l22 22l-22 23v-45zM112 438
l-22 23v-46zM112 342l-22 23v-46zM91 297l26 -17l27 17l-27 16zM153 287l-32 -82l32 -82l30 82zM162 297l26 -17l27 17l-27 16zM193 248l23 -23v46zM216 173l-23 -23l23 -23v46zM193 342l23 -23v46zM193 438l23 -23v46zM188 467l27 17l-27 16l-26 -16zM150 688l-11 -17
l11 -17l11 17zM137 705v31l-28 -14v-31zM69 761l23 -23l22 23h-45zM102 31l7 32l-31 -7l-7 -32zM91 102l26 -16l27 16l-27 17zM150 45l11 17l-11 17l-11 -17zM162 102l26 -16l27 16l-27 17zM231 24l-7 32l-32 7l8 -32zM238 479l7 32l-31 7zM228 554l19 27l-34 -4l-21 -28z
M249 445l40 5l20 31l-43 -3zM302 385l7 31l-31 8zM260 520l57 -27v63l-57 26v-62zM322 423l57 -26l-1 62l-56 27v-63zM362 287l7 32l-31 7zM361 364l11 23h-26l-11 -23h26zM400 310l23 36l-22 35l-23 -35zM444 287l24 39l-31 -7zM444 364h26l-11 23h-26zM483 423v63l-56 -27
l-1 -62zM488 556v-63l56 27l1 62zM503 385l24 39l-32 -8zM516 450l40 -5l-17 33l-43 3zM592 577l-35 4l20 -27l36 -5zM567 479l24 39l-31 -7zM605 31l7 32l-31 -7l-7 -32zM616 86l27 16l-27 17l-26 -17zM655 45l11 17l-11 17l-11 -17zM661 102l26 -16l27 16l-27 17zM702 31
l32 -7l-7 32l-32 7z" />
    <glyph glyph-name="N" unicode="N" horiz-adv-x="765" 
d="M80 677l-30 30v76h70l30 -31l31 31h74v-6h1v-51l48 -16l29 -45l-10 -45l44 -10l25 -39l-9 -43l42 -9l28 -45l-10 -45l45 -9l1 -2h-1l27 -44l20 21l-24 29v30l29 31l-29 28v41l29 30l-29 29v34l29 31l-29 28v75h77l28 -28l26 28h73v-74l-29 -29l29 -31v-34l-29 -29l29 -31
v-40l-29 -29l29 -31v-33l-29 -29l29 -31v-34l-29 -29l29 -30v-40l-29 -29l29 -31v-34l-29 -29l29 -30v-76h-69l-30 31l-32 -31h-71v56l-46 16l-29 46l10 46l-46 10l-23 37l10 49l-48 11l-26 41l11 48l-48 10l-3 5l-24 39l-20 -21l24 -28v-37l-30 -30l30 -29v-40l-30 -30
l30 -29v-35l-30 -30l30 -29v-74h-77l-28 27l-27 -27h-73v74l30 29l-30 30v35l30 29l-30 30v41l30 29l-30 30v34l30 29l-30 30v35l30 29l-30 30v40l30 29l-30 30v35zM493 90l8 31l-32 7zM459 167h26l11 23h-26zM512 126l57 -26l-1 62l-56 27v-63zM676 555l-23 -23l23 -22v45z
M653 630l23 -22v45zM603 297l-26 16l-26 -16l26 -17zM583 389l29 -82l32 82l-32 82zM612 287l-29 -82l29 -64l32 64zM622 297l26 -17l26 17l-26 16zM653 248l23 -23v46zM676 179l-23 -23l23 -23v46zM653 342l23 -22v45zM653 438l23 -23v46zM674 484l-26 16l-26 -16l26 -17z
M612 493l32 83l-32 82l-29 -82zM603 484l-26 16l-26 -16l26 -17zM572 532l-23 23v-45zM549 608l23 22l-23 23v-45zM572 438l-23 23v-46zM572 342l-23 23v-45zM573 232l-35 -5l-20 -27l35 4zM534 88l-11 -23h26l11 23h-26zM531 20h46l-23 23zM602 45v31l-28 13v-31zM615 92
l11 17l-11 17l-10 -17zM629 76v-31l28 13v31zM697 20l-23 23l-23 -23h46zM663 749l-7 -31l32 7l7 31zM674 678l-26 17l-26 -17l26 -16zM615 735l-10 -17l10 -17l11 17zM603 678l-26 17l-26 -17l26 -16zM534 756l7 -31l32 -7l-7 31zM543 263l-23 39l-8 -32zM522 340l-43 -4
l-21 -34l41 3zM464 401l-7 -31l31 -7zM505 262l-57 26v-62l57 -27v63zM428 188l7 32l-31 7zM398 264h26l11 24l-26 -1zM399 500l-5 -32l32 -5zM431 423h-25l-11 -23h26zM443 361l-57 26v-62l57 -27v63zM102 30l7 31l-31 -7l-7 -32zM144 297l-27 16l-26 -16l26 -17zM121 392
l32 -83l30 83l-30 82zM153 287l-32 -82l32 -83l30 83zM162 297l26 -17l27 17l-27 16zM193 248l23 -23v46zM216 173l-23 -23l23 -23v46zM193 342l23 -23v46zM193 438l23 -23v46zM188 467l27 17l-27 16l-26 -16zM153 493l30 83l-30 63l-32 -63zM144 484l-27 16l-26 -16l26 -17
zM112 532l-22 23v-46zM90 601l22 23l-22 23v-46zM112 438l-22 23v-46zM112 342l-22 23v-46zM112 248l-22 23v-46zM112 150l-22 23v-46zM91 102l26 -16l27 16l-27 17zM150 45l11 17l-11 17l-11 -17zM162 102l26 -16l27 16l-27 17zM231 22l-7 32l-32 7l8 -31zM238 479l7 32
l-31 7zM228 554l19 27l-34 -4l-21 -28zM302 385l7 31l-31 8zM364 288l7 31l-31 8zM361 364l11 23h-26l-11 -23h26zM344 594l-8 -32l32 -7zM344 520l-11 -23h25l11 23h-25zM378 459l-56 27v-63l57 -26zM289 682l-8 -31l31 -8zM283 614l-11 -23h26l11 23h-26zM317 556l-57 26
v-62l57 -27v63zM266 478l-17 -33l40 5l20 31zM254 592l-1 62l-56 27v-63zM231 692l11 24l-25 -1l-11 -23h25zM234 761h-46l23 -23zM163 736v-31l28 -14v31zM150 688l-11 -17l11 -17l11 17zM137 705v31l-28 -14v-31zM114 761h-45l23 -23z" />
    <glyph glyph-name="O" unicode="O" horiz-adv-x="710" 
d="M610 191l20 -38c-11 -24 -25 -45 -41 -64l-37 3l-3 -42c-16 -13 -32 -24 -50 -32l-38 17l-19 -40c-20 -6 -41 -9 -62 -11l-23 25l-26 -25c-20 2 -39 5 -58 11l-19 40l-38 -17c-18 8 -34 19 -50 31l-3 43l-38 -3c-16 18 -29 39 -40 63l20 39l-43 21c-5 18 -8 38 -10 59
l30 30l-32 31v33l32 32l-32 30v33l32 32l-31 29c2 17 4 33 8 47l40 21l-20 39c11 23 25 44 41 63l37 -3l3 41c16 13 33 24 51 33l38 -17l18 39c19 5 39 9 59 11l25 -24l23 25c25 -1 50 -5 74 -13l18 -38l37 17c18 -9 36 -20 52 -34l3 -40l36 3c16 -19 30 -40 41 -63l-19 -39
l40 -20c3 -15 6 -31 7 -49l-29 -28l30 -31v-35l-30 -29l30 -31v-35l-30 -30l28 -29c-2 -21 -5 -42 -10 -60zM629 558l-21 -26l27 -21zM445 200l-8 30c6 11 11 23 14 38l32 31l-27 27v45l27 27l-27 26v41l27 27l-30 30c-3 10 -6 19 -11 27l9 31l-33 -6c-16 11 -34 15 -46 16
l-19 24l-16 -24c-12 -3 -27 -7 -40 -16l-33 6l8 -30c-4 -8 -8 -18 -11 -29l-29 -29l26 -26v-42l-26 -26l26 -26v-47l-26 -26l31 -30c3 -16 8 -29 15 -40l-8 -29l31 6c14 -10 29 -15 42 -17l16 -23l19 25c12 2 24 6 35 15zM425 180l-39 -16l28 -11zM374 124l-16 24l-14 -24
l15 -24zM329 164l-39 16l12 -27zM115 445l-23 24v-46zM94 490l25 -16l25 16l-25 15zM115 348l-23 23v-47zM120 318l-27 -17l27 -16l28 16zM124 395l34 -84l30 84l-30 84zM246 554l-31 -15l15 -30zM218 627l6 -28l28 -7l-6 28zM199 445l24 -22v46zM223 371l-24 -23l24 -24v47
zM219 490l-25 15l-25 -15l25 -16zM194 318l-27 -17l27 -16l27 16zM236 271l-15 -30l30 -15zM230 181l-6 -28l28 7l6 28zM284 600l39 16l-27 11zM392 616l39 -16l-12 27zM492 423l24 22l-24 24v-46zM516 348l-24 23v-47zM496 490l25 -16l25 16l-25 15zM485 509l15 30l-30 15z
M491 599l6 28l-28 -7l-6 -28zM464 226l30 15l-15 30zM491 153l-6 28l-28 7l6 -28zM494 301l27 -16l27 16l-27 17zM527 395l30 -84l34 84l-34 84zM571 490l25 -16l25 16l-25 15zM595 318l-28 -17l28 -16l27 16zM600 348l23 -24v47zM600 445l23 -22v46zM582 659l-9 -31l32 -9z
M581 578l-66 53v-71l43 -64zM542 652l6 26l-26 -5l-7 -26zM534 705l-39 25l7 -32zM436 756l-46 8l18 -27zM449 705l-73 -6l52 -45l65 -2zM353 632l16 24l-15 24l-16 -24zM351 756l-14 -25l16 -24l15 25zM325 764l-46 -8l28 -19zM266 705l-44 -53l65 2l52 45zM221 730
l-40 -25l32 -7zM193 673l-26 5l7 -26l26 -5zM200 631l-66 -53l23 -82l43 64v71zM133 659l-23 -40l32 9zM81 511l26 21l-20 26zM92 222l21 26l-27 21zM139 121l9 32l-32 8zM140 202l65 -53l1 72l-47 64zM179 128l-6 -26l26 5l7 26zM186 75l40 -25l-7 32zM228 128l44 -53l73 5
l-52 46zM285 24l46 -8l-18 27zM357 24l16 24l-15 25l-16 -24zM384 16l46 8l-27 19zM443 75l44 53l-64 -2l-53 -46zM489 50l40 25l-33 7zM516 107l27 -5l-7 26l-27 5zM510 149l65 53l-19 83l-47 -64zM576 121l23 40l-32 -8zM629 269l-27 -21l21 -26z" />
    <glyph glyph-name="P" unicode="P" horiz-adv-x="699" 
d="M81 680l-30 29v74h73l29 -30l30 30h54l29 -30l30 30h57l29 -30l30 29c17 0 34 -3 49 -6l14 -39l42 19c10 -5 20 -10 29 -16l3 -43l44 1c9 -10 17 -20 24 -31l-15 -41l41 -18c5 -15 8 -30 9 -45l-27 -25l26 -30c-2 -16 -6 -32 -11 -47l-38 -16l14 -38
c-8 -12 -16 -24 -26 -35l-41 1l-3 -40c-10 -7 -19 -13 -30 -18l-41 19l-14 -38c-15 -4 -32 -6 -49 -8l-30 30l-29 -30h-56l-31 30l-36 -33l20 -20v-28l-32 -32l32 -33v-42l-28 -27l28 -28v-75h-68l-29 29l-29 -29h-73v76l30 30l-30 29v34l30 31l-30 29v40l30 30l-30 29v34
l30 31l-30 29v34l30 30l-30 29v40l30 31l-30 29v34zM109 29l7 31l-31 -7l-7 -31zM322 651l50 31l-50 31l-49 -31zM384 669l-14 -22l14 -21l13 21zM345 606l-22 23l-23 -23h45zM279 647l-14 22l-14 -22l14 -21zM205 649l53 33l-53 34l-47 -34zM194 250l23 -23v46zM211 181
l-23 -23l23 -23v46zM189 282l27 17l-27 16l-26 -16zM145 299l-27 16l-26 -16l26 -17zM122 391l32 -82l30 82l-30 82zM154 289l-32 -82l32 -82l30 82zM163 486l26 -17l27 17l-27 16zM194 534l23 -22v45zM210 591l32 32h-32v-32zM184 578l-30 82l-32 -82l32 -83zM145 486
l-27 16l-26 -16l26 -17zM113 534l-22 23v-45zM91 606l22 23l-22 23v-46zM113 440l-22 23v-46zM113 344l-22 23v-45zM113 250l-22 23v-46zM113 158l-22 23v-46zM96 103l23 -14l24 14l-24 15zM151 41l14 22l-14 21l-14 -21zM160 103l24 -14l23 14l-23 15zM222 53l-32 7l7 -31
l32 -7zM222 322v45l-23 -23zM222 417v46l-23 -23zM228 498l37 -36l27 27h64l27 -25l26 25l34 -12l-2 31c2 2 3 4 4 6l21 22l-17 19c0 1 -1 2 -1 3l4 34l-35 -13h-1l-33 33l-33 -30h-53l-32 32l-37 -36l22 -23v-34zM411 610l26 -6l-8 19zM482 608l3 21l-20 -6l-4 -21z
M489 446l-11 23l-26 1l11 -24h26zM399 431l-13 22l-14 -22l14 -21zM345 464h-45l23 -23zM262 333l14 22l-14 22l-13 -22zM262 406l14 22l-14 21l-13 -21zM327 426l-49 -32l49 -31l49 31zM302 320h45l-23 23zM386 333l13 22l-13 22l-14 -22zM407 321l45 5l-25 20zM460 375
l36 49l-58 11l-40 -41zM489 537l21 -14l22 14l-21 13zM494 342l34 19l-30 11zM518 393l20 -6l-3 21l-21 6zM513 441l54 25l-10 59l-48 -30zM569 392l23 31l-32 -3zM569 538l19 -12l18 11l-18 13zM614 474l8 32l-24 -10zM613 600l-20 -23l28 -15zM569 680l-9 -29l32 -2z
M568 610l-56 26l-4 -57l50 -30zM536 666l3 21l-20 -6l-4 -21zM528 710l-34 19l4 -29zM494 652l-36 50l-62 -19l40 -41zM452 745l-45 5l20 -25zM384 741l-14 -22l14 -21l13 21zM346 755h-46l23 -23zM265 741l-14 -22l14 -21l14 21zM230 755h-46l23 -23zM151 741l-14 -22
l14 -21l14 21zM141 682l-24 15l-23 -15l23 -15zM109 753l-31 7l7 -31l31 -7z" />
    <glyph glyph-name="Q" unicode="Q" horiz-adv-x="717" 
d="M634 163c-4 -9 -8 -18 -13 -26l75 -71l-33 -33h-44v-44l-27 -28l-74 71c-10 -6 -20 -12 -31 -17l-30 18l-16 -35c-20 -5 -40 -8 -60 -10l-23 24l-26 -24c-19 2 -38 6 -57 11l-19 40l-39 -17c-17 9 -34 19 -50 32l-3 42l-37 -3c-16 19 -30 40 -41 63l20 40l-42 20
c-5 19 -9 39 -11 60l30 30l-32 30v33l32 32l-32 31v33l32 31l-30 30c1 16 4 32 7 47l41 20l-20 40c11 23 25 44 40 62l38 -2l3 41c16 13 33 23 51 33l37 -18l19 40c19 5 38 9 58 11l25 -24l24 25c25 -1 50 -6 74 -13l18 -39l37 17c18 -9 35 -20 51 -33l4 -40l36 2
c16 -19 30 -40 41 -63l-20 -39l40 -19c4 -16 6 -32 8 -49l-30 -29l31 -31v-34l-31 -30l31 -31v-35l-31 -29l29 -30c-2 -21 -6 -41 -11 -60l-41 -20zM624 227l6 46l-26 -20zM447 204l-9 31c7 10 12 22 15 37l31 32l-27 26v45l27 28l-27 26v41l27 27l-30 29
c-2 10 -6 19 -10 27l8 32l-33 -6c-16 10 -33 14 -46 16l-18 24l-17 -25c-12 -2 -26 -6 -40 -15l-32 6l8 -31c-5 -8 -9 -18 -11 -29l-29 -28l26 -26v-43l-26 -25l26 -27v-47l-26 -25l30 -30c3 -17 9 -29 15 -40l-7 -30l31 6c14 -10 29 -15 41 -16l16 -24l20 25
c11 2 23 7 35 15zM427 184l-39 -15l27 -12zM376 128l-16 24l-15 -24l16 -24zM330 169l-39 15l12 -27zM117 450l-24 23v-46zM96 494l25 -15l25 15l-25 16zM117 352l-24 23v-46zM122 322l-27 -17l27 -16l27 16zM126 399l33 -84l31 84l-31 84zM247 558l-30 -15l15 -29zM220 631
l6 -28l28 -7l-6 28zM201 450l23 -23v46zM224 375l-23 -23l23 -23v46zM220 494l-25 16l-25 -16l25 -15zM196 322l-28 -17l28 -16l27 16zM237 275l-14 -30l30 -14zM231 186l-5 -28l28 7l5 28zM286 605l39 15l-28 12zM393 620l39 -15l-11 27zM601 450l24 -23v46zM625 375
l-24 -23l24 -23v46zM597 479l25 15l-25 16l-25 -16zM592 399l-33 84l-31 -84l31 -84zM523 479l25 15l-25 16l-25 -16zM494 427l24 23l-24 23v-46zM518 352l-24 23v-46zM487 514l14 29l-30 15zM492 603l6 28l-28 -7l-6 -28zM465 231l30 14l-14 30zM492 158l-5 28l-28 7l6 -28
zM495 305l27 -16l28 16l-28 17zM557 289l-46 -64v-72l66 53zM601 166l-32 -9l9 -32zM596 289l27 16l-27 17l-27 -17zM630 562l-20 -26l26 -20zM584 664l-10 -32l33 -9zM582 582l-65 54l-1 -72l44 -63zM543 657l7 25l-27 -5l-6 -26zM536 710l-40 25l7 -32zM438 760l-47 9
l19 -27zM450 710l-73 -5l53 -47l64 -2zM354 637l16 23l-15 25l-16 -24zM353 760l-15 -24l16 -24l15 25zM327 769l-46 -9l27 -18zM268 710l-44 -54l64 2l53 47zM222 735l-40 -25l33 -7zM195 677l-27 5l7 -25l27 -6zM201 636l-65 -54l22 -81l44 63zM135 664l-23 -41l32 9z
M82 516l26 20l-20 26zM94 227l20 26l-26 20zM140 125l9 32l-32 9zM141 206l66 -53v72l-46 64zM181 132l-7 -26l27 6l6 25zM188 79l40 -25l-8 32zM229 132l44 -53l74 5l-53 47zM286 29l46 -10l-18 28zM359 28l16 24l-15 25l-16 -24zM386 19l46 10l-28 18zM445 79l44 53
l-65 -1l-52 -47zM490 54l40 25l-32 7zM590 -9l11 17l-11 16l-11 -17zM552 63l56 -14l-12 55l-74 32zM640 79l-17 -10l17 -11l17 10z" />
    <glyph glyph-name="R" unicode="R" horiz-adv-x="701" 
d="M635 65l43 -11l32 -53h-47l-37 24l-29 -25h-33l-37 25l-29 -25h-27l-20 33l11 44l-44 11l-19 32l11 42l-43 11l-17 27l11 41l-42 10l-22 37h-47v-51l-32 -31l32 -33v-42l-28 -27l28 -29v-74h-68l-29 29l-29 -29h-73v75l30 31l-30 29v34l30 30l-30 29v40l30 31l-30 29v34
l30 30l-30 29v34l30 31l-30 29v40l30 30l-30 29v35l30 30l-30 29v74h73l29 -29l30 30h54l29 -30l30 30h57l29 -30l30 29c17 -1 34 -3 49 -7l14 -39l42 20c10 -5 20 -11 29 -17l3 -42l44 1c9 -10 17 -21 24 -32l-15 -41l41 -17c5 -15 8 -30 9 -45l-27 -25l26 -30
c-2 -16 -6 -32 -11 -47l-38 -17l14 -37c-8 -13 -16 -24 -26 -35l-41 1l-3 -41c-9 -6 -19 -12 -29 -17l28 -45l-11 -41l43 -11l20 -33l-11 -41l43 -11l16 -27zM523 227h-31l-13 -27h31zM398 395l62 -20l36 50l-58 10zM424 347l-3 19l-18 6l3 -19zM386 410l13 22l-13 22
l-14 -22zM489 446l-11 24h-26l11 -23zM461 603l21 6l3 21l-20 -6zM489 538l21 -14l22 13l-21 14zM490 285l-6 -32l31 -6zM494 343l34 19l-30 11zM518 394l20 -6l-3 21l-21 6zM513 442l54 24l-10 60l-48 -30zM569 392l23 31l-32 -2zM569 538l19 -12l18 12l-18 12zM614 475
l8 32l-24 -10zM613 600l-20 -22l28 -15zM569 680l-9 -28l32 -3zM568 611l-56 25l-4 -56l50 -30zM536 666l3 21l-20 -6l-4 -21zM528 711l-34 19l4 -30zM494 653l-36 50l-62 -20l40 -40zM437 605l-8 19l-18 -14zM322 652l50 31l-50 31l-49 -31zM345 606l-22 23l-23 -23h45z
M194 251l23 -23v46zM211 182l-23 -23l23 -23v46zM189 283l27 17l-27 16l-26 -16zM91 228l22 23l-22 23v-46zM113 159l-22 23v-46zM122 578l32 -82l30 82l-30 83zM184 391l-30 83l-32 -83l32 -82zM145 486l-27 17l-26 -17l26 -16zM113 535l-22 23v-46zM91 607l22 22l-22 23
v-45zM113 441l-22 23v-46zM113 345l-22 23v-46zM92 300l26 -17l27 17l-27 16zM154 290l-32 -82l32 -83l30 83zM163 486l26 -16l27 16l-27 17zM194 535l23 -23v46zM210 592l32 32h-32v-32zM205 649l53 34l-53 33l-47 -33zM265 670l-14 -22l14 -22l14 22zM384 670l-14 -22
l14 -22l13 22zM452 746l-45 5l20 -25zM384 742l-14 -22l14 -22l13 22zM346 756h-46l23 -23zM265 742l-14 -22l14 -22l14 22zM230 756h-46l23 -23zM151 742l-14 -22l14 -22l14 22zM141 683l-24 14l-23 -14l23 -15zM78 761l7 -32l31 -7l-7 32zM109 29l7 32l-31 -7l-7 -32z
M96 104l23 -15l24 15l-24 15zM151 42l14 21l-14 22l-14 -22zM160 104l24 -15l23 15l-23 15zM222 54l-32 7l7 -32l32 -7zM222 322v46l-23 -23zM222 418v46l-23 -23zM228 578l22 -23v-34l-22 -22l37 -36l27 26h64l27 -24l26 25l34 -13l-2 31c2 2 3 4 4 7l21 22l-17 18
c0 1 -1 3 -1 4l4 34l-35 -13h-1l-33 32l-33 -30h-53l-32 32zM345 464h-45l23 -23zM276 428l-14 22l-13 -22l13 -21zM266 323l17 27l-17 27l-17 -27zM345 267l6 31l-32 6zM302 325h46l-23 22zM327 364l49 31l-49 31l-49 -31zM401 184l6 31l-32 6zM448 99l6 32l-32 6zM450 165
l13 27h-30l-13 -27h30zM395 260l70 -55l-16 86l-67 56zM447 322l32 -6l-26 38l-1 -4l-15 23l-6 -32l19 -3zM491 27l10 17l-10 17l-11 -17zM489 98l69 -55l-15 86l-68 56zM535 171l32 -6l-26 38zM589 27l10 17l-10 17l-11 -17zM586 87l31 -6l-25 38z" />
    <glyph glyph-name="S" unicode="S" horiz-adv-x="692" 
d="M152 75l-43 -17c-18 9 -36 20 -53 32l40 59l42 12l-5 42l40 57c17 -12 34 -22 51 -30l16 -43l45 20c17 -5 34 -8 51 -10l30 -27l26 26l35 -13l-2 32l3 6l22 24l-18 19c0 1 0 2 -1 3l5 35l-36 -13c-6 2 -13 3 -21 3h-19l-21 28l-29 -27c-23 0 -44 3 -64 8l-14 39l-43 -19
c-10 5 -20 10 -29 16l-4 44l-45 -1c-8 10 -16 20 -23 31l13 37l-39 17c-5 15 -8 30 -10 46l26 25l-27 32c2 19 6 38 12 56l39 17l-13 38c8 13 17 25 27 36l40 -1l4 40c10 7 21 14 32 19l40 -18l13 38c15 3 31 6 48 8l32 -32l36 32c22 -2 43 -4 63 -8l27 -43l40 24
c13 -4 25 -9 36 -14l10 -46l44 17c22 -13 41 -27 57 -41l-39 -46l2 3l-54 -16l5 -43l-47 -56c-11 10 -24 19 -40 28l-16 42l-40 -18c-18 6 -38 10 -60 11l-25 23l-24 -23l-36 13l2 -33c0 -1 -1 -2 -2 -3l-23 -25l18 -20c0 -1 0 -2 1 -2l-5 -36l30 15c8 -3 16 -5 27 -5h14
l32 -31l33 30c13 -1 27 -2 39 -4l19 -41l41 23c14 -6 28 -14 41 -22l4 -44l45 1c8 -10 16 -21 24 -32l-15 -42l42 -19c5 -14 8 -30 9 -45l-28 -26l27 -32c-2 -16 -6 -32 -11 -48l-39 -17l14 -39c-8 -12 -17 -24 -26 -35l-42 1l-4 -42c-9 -6 -20 -12 -30 -18l-42 19l-13 -38
c-17 -4 -34 -7 -52 -8l-30 29l-32 -28c-24 1 -47 5 -70 9l-24 39l-36 -22c-14 4 -27 9 -40 15zM569 698l-24 -23l30 -12l24 23zM175 64l36 -13l-12 25zM281 25l47 -5l-21 26zM264 107l44 -40l51 32l-47 33zM368 36l14 22l-14 22l-14 -22zM390 23l46 6l-26 20zM479 45l34 19
l-30 11zM503 98l20 -7l-3 22l-21 6zM497 147l55 25l-10 62l-48 -32zM473 245l22 -14l22 14l-21 14zM555 96l23 32l-32 -3zM555 246l19 -12l19 12l-19 12zM601 180l8 34l-25 -11zM600 310l-21 -23l29 -16zM555 392l-9 -29l32 -3zM554 321l-58 26l-3 -58l50 -31zM521 378l3 21
l-20 -6l-4 -21zM510 426l-35 20l4 -31zM424 460l-42 5l16 -26zM353 452l-16 -20l12 -24l16 21zM327 476l-44 4l22 -28zM245 479l-20 -6l-4 -22l21 6zM229 616l26 -1l-11 24l-26 1zM321 630l14 22l-14 22l-14 -22zM350 620l46 -6l-20 26zM425 621l20 18l-8 25l-19 -17z
M510 562l10 32l-24 22l-10 -31zM482 631l49 9l-22 47l-58 -11zM515 725l-36 13l11 -25zM453 733l-18 -19l9 -25l18 19zM377 657l48 25l-44 40l-50 -32zM408 764l-46 5l20 -26zM321 753l-14 -22l14 -23l14 23zM301 768l-46 -5l26 -21zM247 713l-37 -51l60 -11l40 42zM218 546
l-22 14l-23 -14l22 -14zM212 747l-34 -20l30 -11zM188 694l-20 6l3 -22l21 -6zM193 645l-55 -26l11 -61l48 31zM136 696l-23 -33l32 3zM136 545l-19 12l-19 -12l19 -12zM89 600l-7 -32l23 10zM91 474l20 23l-28 15zM136 399l9 29l-32 3zM137 471l57 -27l4 58l-50 31z
M170 413l-3 -21l20 6l4 21zM178 367l34 -19l-4 31zM212 427l41 -48l82 15l-55 52zM259 330l46 -5l-20 26zM340 330l17 20l-12 24l-16 -21zM366 318l46 -6l-20 26zM411 349l70 15l-48 51l-74 -23zM445 312l21 7l4 21l-21 -6zM462 175l-26 1l11 -24l26 -1zM480 129l-59 11
l-40 -42l63 -20zM368 159l-14 -22l14 -23l14 23zM339 169l-46 5l21 -26zM264 167l-19 -17l7 -25l20 17zM246 99l-18 -19l9 -24l18 19zM178 232l-10 -31l24 -23l10 32zM205 161l-50 -10l23 -46l58 10zM114 126l-24 -23l31 -12l24 23z" />
    <glyph glyph-name="T" unicode="T" horiz-adv-x="731" 
d="M644 687l31 -31v-68h-53l-31 31l-30 -31h-53l-31 31l-36 -36l22 -24v-50l-25 -24l25 -27v-42l-25 -25l25 -26v-43l-25 -24l25 -26v-46l-22 -24l22 -23v-48l-29 -28l29 -29v-14v0v0v-60h-69l-30 29l-28 -29h-78v71l34 35l-34 33v36l28 27l-28 35v30l30 31l-30 29v34l30 30
l-30 29v34l30 31l-30 29v34l28 35l-37 36l-30 -31h-52l-32 31l-30 -31h-55v67l32 32l-32 32v64h58l27 -28l29 28h58l27 -28l28 28h59l27 -28l29 28h57l28 -28l28 28h59l27 -28l28 28h56v-65zM629 760l-7 -32l31 7l7 32zM590 746l-14 -22l14 -21l14 21zM589 687l-53 34
l-53 -34l53 -33zM559 757h-45l22 -22zM477 746l-14 -22l14 -21l13 21zM300 229l23 23l-23 22v-45zM323 156l-23 22v-45zM327 471l27 16l-27 17l-26 -17zM363 474l-32 -82l32 -82l30 82zM300 513l23 23l-23 23v-46zM323 442l-23 22v-45zM323 346l-23 23v-46zM301 300l26 -16
l27 16l-27 17zM363 291l-32 -83l32 -82l30 82zM372 300l27 -16l26 16l-26 17zM403 252l23 -23v45zM426 178l-23 -22l23 -23v45zM403 346l23 -23v46zM403 442l23 -23v45zM425 487l-26 17l-27 -17l27 -16zM403 536l23 -23v46zM363 497l30 82l-30 82l-32 -82zM305 654l53 33
l-53 34l-53 -34zM368 687l53 -33l52 33l-52 34zM442 757h-45l22 -22zM364 746l-14 -22l14 -21l13 21zM329 757h-45l23 -22zM249 746l-14 -22l14 -21l13 21zM243 687l-53 34l-53 -34l53 -33zM214 757h-46l23 -22zM137 746l-14 -22l14 -21l13 21zM75 735l32 -7l-8 32l-31 7z
M100 614l7 31l-32 -7l-7 -31zM98 686l17 -11l17 11l-17 10zM137 631l13 21l-13 22l-14 -22zM168 617h46l-23 23zM249 631l13 21l-13 22l-14 -22zM284 617h45l-22 23zM321 29l7 31l-31 -7l-8 -31zM307 103l24 -14l23 14l-23 15zM363 41l13 22l-13 21l-14 -21zM372 103l23 -14
l24 14l-24 15zM440 22l-7 31l-31 7l7 -31zM397 617h45l-23 23zM477 632l13 22l-13 22l-14 -22zM514 617h45l-23 23zM590 631l14 21l-14 22l-14 -22zM596 686l17 -11l17 11l-17 10zM629 614l31 -7l-7 31l-31 7z" />
    <glyph glyph-name="U" unicode="U" horiz-adv-x="706" 
d="M82 671l-31 32v73h76l31 -30l29 30h69v-77l-28 -28l28 -27v-36l-26 -27l26 -26v-48l-26 -27l26 -27v-48l-25 -26l25 -24v-39l-27 -28l30 -29c2 -10 6 -19 10 -26l-8 -32l32 6c16 -10 33 -15 45 -16l19 -24l16 25c12 2 26 6 39 15l32 -6l-8 31c5 8 9 17 11 28l29 28
l-26 27v44l23 24l-23 24v49l23 24l-23 24v53l23 24l-23 25v37l28 28l-28 29v78h71l32 -32l31 32h71v-75l-31 -32l31 -30v-32l-31 -32l31 -30v-36l-31 -32l31 -30v-33l-31 -32l31 -30v-33l-31 -32l29 -29c-1 -17 -3 -32 -7 -48l-40 -19l20 -40c-11 -23 -25 -44 -40 -62l-37 3
l-3 -42c-15 -12 -32 -23 -50 -32l-37 17l-18 -39c-19 -6 -38 -9 -57 -11l-25 23l-23 -24c-25 1 -49 5 -73 12l-18 39l-36 -17c-18 9 -35 20 -51 33l-3 41l-35 -3c-16 19 -30 40 -41 63l19 39l-38 19c-4 15 -7 32 -8 49l29 28l-30 31v34l30 30l-30 31v35l30 29l-30 31v36
l31 31l-31 32v31zM86 223l20 26l-26 21zM218 555l-23 -23l23 -22v45zM195 619l23 -23v45zM218 479l-26 17l-27 -17l27 -17zM123 386l33 -84l30 84l-30 84zM143 291l-25 16l-24 -16l24 -15zM192 307l-25 -16l25 -15l24 15zM197 336l23 -24v47zM195 425l23 -22v45zM154 488
l32 82l-32 82l-29 -82zM146 479l-27 17l-26 -17l26 -17zM114 530l-22 23v-46zM92 596l22 23l-22 22v-45zM115 428l-24 23v-47zM115 336l-24 23v-47zM132 122l9 32l-32 9zM133 203l64 -53l1 72l-43 63zM172 130l-7 -26l26 5l7 26zM179 76l39 -25l-7 32zM275 26l46 -9l-18 27z
M358 26l15 24l-16 24l-14 -24zM384 17l45 9l-27 18zM487 51l39 25l-32 7zM510 535l-23 23v-46zM487 596l23 23l-23 22v-45zM513 496l-27 -17l27 -17l27 17zM614 553l-23 -23l23 -23v46zM591 619l23 -23v45zM587 307l-25 -16l25 -15l24 15zM549 302l32 84l-32 84l-31 -84z
M590 336l23 -24v47zM590 433l23 -23v46zM612 479l-27 17l-26 -17l26 -17zM550 488l32 82l-32 82l-30 -82zM510 426l-23 23v-45zM508 336l-23 23v-47zM513 307l-24 -16l24 -15l25 15zM514 109l26 -5l-7 26l-26 5zM508 150l64 53l-22 82l-43 -63zM573 122l23 41l-32 -9z
M625 270l-26 -21l20 -26zM600 747l-8 -32l32 7l7 32zM612 670l-26 16l-26 -16l26 -17zM552 724l-11 -17l11 -17l11 17zM541 670l-26 16l-26 -16l26 -17zM478 722l31 -7l-7 32l-31 7zM478 272l-16 -44l30 14zM483 183l-27 7l6 -28l27 -7zM485 130l-63 -2l-52 -46l72 -6z
M425 181l-39 -15l27 -12zM357 149l-15 -23l14 -25l16 24zM319 166l-39 15l12 -27zM283 128l-64 2l44 -54l72 6zM243 162l6 28l-28 -7l-5 -28zM242 228l-15 44l-14 -30zM204 747l-7 -32l31 7l7 32zM217 670l-27 16l-26 -16l26 -17zM156 724l-10 -17l10 -17l11 17zM146 670
l-27 16l-26 -16l26 -17zM107 747l-32 7l7 -32l32 -7z" />
    <glyph glyph-name="V" unicode="V" horiz-adv-x="838" 
d="M680 750l62 34l57 -1l-20 -59l-41 -20l20 -40l-10 -29l-41 -20l20 -40l-11 -32l-41 -20l20 -40l-11 -30l-40 -21l20 -39l-11 -32l-40 -20l19 -39l-10 -30l-40 -20l19 -38l-11 -34l-40 -20l19 -39l-11 -31l-39 -20l19 -39l-10 -28l1 -3h-2h-67l-39 58l-41 -58h-72h-2l1 3
l-10 27l20 40l-40 20l-11 31l20 39l-41 20l-11 33l20 39l-41 21l-10 28l20 40l-41 20l-10 31l20 40l-41 21l-11 29l21 41l-42 20l-11 31l21 41l-42 21l-9 27l20 41l-42 20l-20 59l59 1l62 -34l33 34l70 1l-17 -35l36 -19l12 -36l-17 -36l36 -17l13 -40l-17 -35l35 -18
l13 -36l-17 -35l34 -17l16 -45l-16 -32l32 -16l15 -42l13 38l36 18l-18 36l13 39l40 20l-20 38l11 30l39 20l-19 39l11 33l40 21l-19 39l10 30l41 21l-19 37l70 -1zM703 728l-31 -7l20 -24l30 7zM663 523l-20 25l-30 -7l19 -25zM605 552l55 68l-2 87l-56 -67zM640 749
l-30 -8l19 -24l30 7zM589 726l-16 -43l30 14zM595 547l-20 24l-31 -7l20 -25zM556 631l-16 -43l29 13zM527 543l-16 -43l29 14zM536 345l-57 -68l4 -88l55 68zM483 381l19 -24l30 8l-19 24zM493 448l-16 -43l30 13zM478 147l-18 -8l-1 -20l19 8v20zM458 351l-16 -43l29 13z
M445 283l-3 -20l16 -12l3 20zM399 263l-3 20l-17 -12l3 -20zM379 351l-13 -30l29 -13zM377 119l-1 20l-18 8v-20zM354 189l4 88l-57 68l-1 -88zM305 365l30 -8l20 24l-31 8zM342 448l-14 -30l30 -13zM279 631l-13 -30l29 -13zM289 568l-31 7l-20 -25l31 -7zM246 726l-14 -29
l30 -14zM197 755l-19 -24l30 -8l20 25zM174 711l-1 -87l54 -69l4 89zM189 552l-19 -25l30 -7l20 24zM130 732l-19 -24l30 -7l19 24zM77 738l24 -6l-5 25l-25 6zM119 637l13 30l-29 13zM150 548l13 30l-29 13zM181 456l14 29l-30 14zM215 365l13 30l-29 13zM232 538l-2 -89
l56 -70l4 90zM287 359l-30 7l-19 -24l30 -8zM249 276l13 30l-30 13zM278 189l14 29l-30 13zM308 543l-13 -29l29 -14zM314 94l13 30l-29 13zM297 161l30 -7l20 24l-31 7zM356 25l6 24l-25 -5l-6 -25zM368 67l20 25l-31 7l-20 -24zM421 90l29 83l-29 82l-32 -82zM451 92
l20 -25l31 8l-20 24zM486 25l25 -6l-5 25l-25 5zM518 94l17 43l-30 -13zM510 154l31 7l-20 24l-31 -7zM554 189l16 42l-29 -13zM550 359l20 -25l30 8l-20 24zM584 276l16 43l-30 -13zM547 376l56 69l-2 89l-58 -68zM617 365l16 43l-29 -13zM651 456l16 43l-30 -14zM682 548
l17 43l-30 -13zM713 637l16 43l-29 -13zM757 738l5 25l-25 -6l-5 -25z" />
    <glyph glyph-name="W" unicode="W" horiz-adv-x="1099" 
d="M81 674l-31 32v73h76l31 -30l29 30h69v-76l-28 -29l28 -27v-42l-28 -29l28 -27v-39l-28 -29l28 -27v-40l-28 -28l28 -27v-40l-27 -27l30 -29c2 -11 6 -19 10 -27l-8 -32l32 6c16 -10 33 -14 45 -16l19 -23l16 24c11 2 26 6 39 15l32 -6l-8 31c5 8 8 18 11 29l29 28
l-28 28v39l24 23l-24 25v48l25 26l-25 27v51l25 25l-25 27v34l30 29l-30 31v74h2v2h71l32 -32l31 32h71v-75l-31 -32l31 -30v-32l-31 -32l31 -30v-36l-31 -31l31 -31v-33l-31 -32l31 -30v-33l-31 -32l32 -32c3 -9 6 -17 10 -24l-8 -32l32 6c16 -10 33 -14 45 -16l19 -23
l16 24c11 2 26 6 39 15l32 -6l-8 31c5 8 9 18 11 29l29 28l-26 26v43l22 21l-22 23v52l23 24l-23 25v55l23 23l-23 25v38l28 27l-28 29v78h71l32 -32l31 32h71v-75l-31 -32l31 -30v-32l-31 -32l31 -30v-36l-31 -31l31 -31v-33l-31 -32l31 -30v-33l-31 -32l29 -29
c-1 -16 -3 -32 -7 -47l-40 -20l20 -39c-11 -23 -25 -44 -40 -63l-37 3l-3 -41c-15 -13 -32 -24 -50 -33l-37 17l-18 -39c-19 -5 -38 -9 -57 -11l-25 23l-23 -24c-25 1 -49 6 -73 13l-18 38l-36 -16c-19 10 -38 22 -55 36c-17 -15 -36 -27 -55 -37l-37 17l-18 -38
c-19 -6 -38 -10 -57 -12l-25 23l-23 -24c-25 1 -49 6 -73 13l-18 38l-36 -17c-18 10 -35 21 -51 34l-3 40l-35 -3c-16 19 -30 40 -41 64l19 38l-38 19c-4 16 -7 32 -8 49l29 28l-30 31v35l30 29l-30 31v35l30 30l-30 31v36l31 30l-31 33v30zM85 227l20 26l-26 20zM217 558
l-23 -23l23 -23v46zM194 622l23 -23v46zM217 483l-26 17l-27 -17l27 -17zM122 389l33 -83l30 83l-30 84zM142 295l-25 15l-24 -15l24 -16zM191 310l-25 -15l25 -16l24 16zM196 339l23 -23v46zM194 434l23 -23v46zM153 491l32 82l-32 82l-29 -82zM145 483l-27 17l-26 -17
l26 -17zM113 534l-22 22v-45zM91 599l22 23l-22 23v-46zM114 436l-24 24v-47zM114 339l-24 23v-46zM131 126l9 31l-32 9zM132 207l64 -54l1 72l-43 63zM171 133l-7 -26l26 5l7 26zM178 80l39 -25l-7 32zM274 30l46 -10l-18 28zM357 29l15 25l-16 23l-14 -24zM383 20l45 10
l-27 18zM486 55l39 25l-32 7zM509 535l-23 23v-46zM486 599l23 23l-23 23v-46zM512 500l-27 -17l27 -17l27 17zM613 556l-23 -22l23 -23v45zM590 622l23 -23v46zM586 310l-25 -15l25 -16l24 16zM548 306l32 83l-32 84l-31 -84zM589 339l23 -23v46zM589 436l23 -23v47z
M611 483l-27 17l-26 -17l26 -17zM549 491l32 82l-32 82l-30 -82zM509 434l-23 23v-46zM507 339l-23 23v-46zM512 310l-24 -15l24 -16l25 16zM509 106l26 -5l-6 26l-27 5zM548 124l32 84l-32 84l-31 -84zM572 127l-6 -26l26 5l6 26zM575 80l39 -25l-7 32zM671 30l46 -10
l-18 28zM754 29l15 25l-16 23l-15 -24zM780 20l45 10l-27 18zM883 55l39 25l-32 7zM906 535l-23 23v-46zM883 599l23 23l-23 23v-46zM909 500l-27 -17l27 -17l27 17zM1010 556l-23 -22l23 -23v45zM987 622l23 -23v46zM982 310l-24 -15l24 -16l25 16zM945 306l32 83l-32 84
l-31 -84zM986 339l23 -23v46zM986 436l23 -23v47zM1008 483l-27 17l-26 -17l26 -17zM946 491l32 82l-32 82l-30 -82zM906 434l-23 23v-46zM904 339l-23 23v-46zM909 310l-24 -15l24 -16l25 16zM910 112l26 -5l-7 26l-26 5zM904 153l64 54l-22 81l-43 -63zM969 126l23 40
l-32 -9zM1021 273l-26 -20l20 -26zM996 750l-8 -31l32 7l7 31zM1008 673l-26 16l-26 -16l26 -17zM948 727l-11 -17l11 -17l11 17zM937 673l-26 16l-26 -16l26 -17zM874 726l31 -7l-7 31l-31 7zM874 275l-16 -44l30 15zM879 186l-27 7l6 -28l27 -7zM881 133l-63 -2l-52 -46
l72 -5zM821 185l-39 -16l27 -11zM753 153l-16 -24l15 -24l16 23zM715 169l-39 16l12 -27zM679 131l-64 2l44 -53l72 5zM629 165l6 28l-28 -7l-5 -28zM624 273l-26 -20l20 -26zM599 750l-8 -31l32 7l7 31zM611 673l-26 16l-26 -16l26 -17zM551 727l-11 -17l11 -17l11 17z
M540 673l-26 16l-26 -16l26 -17zM477 726l31 -7l-7 31l-31 7zM477 275l-16 -44l30 15zM482 186l-27 7l6 -28l27 -7zM484 133l-63 -2l-52 -46l72 -5zM424 185l-39 -16l27 -11zM356 153l-16 -24l15 -24l16 23zM318 169l-39 16l12 -27zM282 131l-64 2l44 -53l72 5zM242 165
l6 28l-28 -7l-5 -28zM241 231l-15 44l-14 -29zM203 750l-7 -31l31 7l7 31zM216 673l-27 16l-26 -16l26 -17zM155 727l-10 -17l10 -17l11 17zM145 673l-27 16l-26 -16l26 -17zM106 750l-32 7l7 -31l32 -7z" />
    <glyph glyph-name="X" unicode="X" horiz-adv-x="818" 
d="M700 64l43 -11l33 -53h-47l-37 24l-29 -25h-33l-38 25l-29 -25h-26l-20 33l11 44l-44 11l-19 32l10 42l-42 11l-26 41l-25 -41l-42 -11l10 -42l-19 -32l-44 -11l11 -44l-20 -33h-26l-30 25l-37 -25h-33l-29 25l-37 -24h-47l33 53l43 11l-11 42l16 27l43 11l-11 41l21 33
l42 11l-10 41l17 28l42 11l-11 41l26 42l-25 42l10 41l-42 11l-17 28l10 41l-42 11l-20 33l10 41l-42 11l-17 28l11 41l-43 11l-30 50h48l37 -25l29 25h33l38 -25l29 26h25l17 -28l-11 -42l43 -11l20 -33l-10 -41l42 -11l25 -41l26 41l42 11l-10 41l20 33l43 11l-11 42
l17 28h25l29 -26l38 25h33l29 -25l36 25h49l-30 -50l-43 -11l11 -41l-17 -28l-42 -11l10 -41l-20 -33l-42 -11l10 -41l-17 -28l-42 -11l10 -41l-25 -42l26 -42l-11 -41l42 -11l17 -28l-10 -41l42 -11l21 -33l-11 -41l43 -11l16 -27zM555 498l26 38l-32 -6zM559 561h31
l-13 27h-31zM657 664l26 38l-32 -7zM660 752l-11 -17l11 -17l10 17zM607 580l25 37l-31 -6zM630 748l-76 -48l-8 -94l75 54zM556 757l-10 -17l10 -17l11 17zM158 664l6 31l-32 7zM155 718l11 17l-11 17l-10 -17zM208 580l6 31l-31 6zM197 660l71 -54l-7 90l-76 52zM260 498
l6 32l-32 6zM256 561l13 27h-31l-13 -27h31zM259 723l10 17l-10 17l-11 -17zM260 284l-26 -38l32 6zM257 226h-30l13 -27h30zM158 118l-26 -38l32 6zM161 26l10 17l-10 17l-11 -17zM208 202l-26 -38l32 6zM259 26l10 17l-10 17l-11 -17zM266 91l6 89l-69 -47l-12 -91z
M517 686l-26 -37l32 6zM517 623h-30l13 -27h30zM469 602l-26 -38l32 6zM409 548l-16 -52l15 -52l16 52zM487 393l-82 33l-82 -32l82 -31zM346 602l-6 -32l32 -6zM298 686l-6 -31l32 -6zM298 623l-13 -27h30l13 27h-30zM353 530l-71 52l19 -85l69 -54zM313 410l6 31l-32 6z
M319 340l-6 32l-26 -38zM301 98l26 38l-32 -6zM299 164h31l-13 27h-31zM285 204l74 52l9 90l-73 -54zM349 183l25 37l-31 -6zM408 243l16 52l-15 52l-16 -52zM466 183l6 31l-31 6zM514 98l6 32l-32 6zM516 164l13 27h-31l-13 -27h31zM458 254l72 -50l-10 88l-73 54zM502 410
l26 37l-32 -6zM528 334l-26 38l-6 -32zM514 497l19 85l-71 -52l-17 -87zM555 284l-6 -32l32 -6zM558 226l-13 -27h30l13 27h-30zM556 26l11 17l-11 17l-10 -17zM551 91l73 -49l-6 87l-77 55zM601 170l32 -6l-26 38zM654 26l11 17l-11 17l-10 -17zM651 86l32 -6l-26 38z" />
    <glyph glyph-name="Y" unicode="Y" horiz-adv-x="703" 
d="M426 103l27 -28v-75h-68l-29 29l-29 -29h-73v76l30 30l-30 29v34l30 31l-30 29v35l13 7l-23 48l-36 -17c-18 10 -35 21 -51 33l-3 41l-35 -3c-16 19 -30 40 -41 64l19 38l-38 19c-4 16 -7 32 -8 49l29 28l-30 31v35l30 29l-30 31v87h76l31 -30l29 30h69v-97l-25 -26
l25 -24v-39l-27 -27l30 -29c2 -11 6 -19 10 -27l-8 -32l32 6c16 -10 33 -14 45 -16l19 -23l16 24c12 2 26 6 39 15l32 -6l-8 31c5 8 9 18 11 29l29 28l-26 26v54l28 27l-28 29v78h71l32 -31l31 31h71v-75l-31 -32l31 -30v-45l-31 -32l29 -29c-1 -16 -3 -32 -7 -47l-40 -20
l20 -39c-11 -23 -25 -44 -40 -63l-37 3l-3 -41c-15 -13 -32 -24 -50 -33l-37 17l-22 -48l17 -12v-22l-32 -32l32 -33v-42zM383 299l45 10l-27 18zM397 250l23 -23v46zM414 181l-23 -23l23 -23v46zM357 289l-32 -82l32 -82l30 82zM342 332l15 -24l15 25l-16 23zM486 334
l39 25l-32 7zM512 589l-24 -16l24 -15l25 15zM486 600l23 23l-23 22v-45zM610 573l-24 16l-25 -16l25 -15zM589 625l23 -23v46zM551 589l24 37l-24 37l-24 -37zM513 391l26 -5l-7 26l-26 5zM507 432l64 54l-22 81l-43 -63zM572 405l23 40l-32 -9zM624 552l-26 -20l20 -26z
M599 754l-8 -31l32 7l7 31zM611 677l-26 17l-26 -17l26 -17zM551 731l-11 -17l11 -17l11 17zM540 677l-26 17l-26 -17l26 -17zM477 730l31 -7l-7 31l-31 7zM477 554l-16 -44l30 15zM482 465l-27 7l6 -28l27 -7zM484 412l-63 -2l-52 -46l72 -6zM424 464l-39 -16l27 -11z
M356 431l-16 -23l15 -24l16 23zM318 448l-39 16l12 -27zM241 510l-15 44l-14 -29zM248 472l-28 -7l-5 -28l27 7zM117 589l-24 -16l24 -15l25 15zM90 599l24 23l-24 23v-46zM130 626l24 -37l24 37l-24 37zM191 589l-25 -16l25 -15l24 15zM196 622l23 -23v46zM203 755l-7 -32
l31 7l7 32zM216 677l-27 17l-26 -17l26 -16zM155 732l-10 -17l10 -17l11 17zM145 677l-27 17l-26 -17l26 -16zM74 762l7 -32l32 -7l-7 32zM85 506l20 26l-26 20zM131 405l9 31l-32 9zM132 486l64 -54l1 72l-43 63zM171 412l-7 -26l26 5l7 26zM178 359l39 -25l-7 32zM262 358
l72 6l-52 46l-64 2zM274 309l46 -10l-18 28zM294 227l23 23l-23 23v-46zM317 158l-23 23v-46zM312 29l7 31l-31 -7l-7 -31zM299 103l23 -14l24 14l-24 15zM354 41l14 22l-14 21l-14 -21zM363 103l24 -14l23 14l-23 15zM400 29l32 -7l-7 31l-32 7z" />
    <glyph glyph-name="Z" unicode="Z" horiz-adv-x="736" 
d="M89 30l-31 -31h-8v111l28 28l-28 29v23l50 10l1 42l42 48l45 3l-3 45l31 35l48 4l-4 47l34 39l47 3l-3 47l65 74h-22l-30 30l-28 -30h-41l-30 30l-29 -30h-35l-30 30l-29 -30h-76v69l30 31l-30 29v66h75l30 -31l32 31h32l30 -31l31 31h39l30 -31l31 31h32l30 -31l31 31
h33l30 -31l31 31h38l30 -31l31 31h9v-97l-33 -31l33 -33v-34l-36 -40l-51 -3l4 -50l-26 -30l-48 -4l3 -47l-32 -36l-49 -3l4 -48l-32 -37l-51 -3l4 -50l-38 -42h16l30 -30l29 30h41l30 -30l28 30h35l30 -30l29 30h77v-69l-30 -31l30 -29v-66h-76l-30 31l-31 -31h-32l-30 31
l-32 -31h-38l-30 31l-32 -31h-32l-30 31l-31 -31h-32l-30 31l-32 -31h-38zM117 30h46l-23 23zM190 43l14 22l-14 22l-14 -22zM170 141l8 -25l25 -3l-7 24zM211 30h46l-23 23zM281 63l82 32l-82 30l-74 -30zM280 183l-32 -2l1 -32zM253 237l8 -24l25 -4l-7 25zM307 30h46
l-23 23zM376 43l14 22l-14 22l-14 -22zM401 30h46l-23 23zM499 30h46l-23 23zM652 21l-8 31l-31 7l7 -31zM620 163l-7 -31l31 7l8 31zM610 105l-17 -11l17 -10l17 10zM570 148l-14 -22l14 -22l14 22zM570 87l-14 -22l14 -22l14 22zM545 166h-46l23 -23zM550 95l-83 30
l-82 -30l82 -32zM447 166h-46l23 -23zM376 148l-14 -22l14 -22l14 22zM353 166h-46l23 -23zM316 223l30 34l-32 -1zM333 298l25 -4l-7 24l-26 4zM392 312l30 34l-32 -2zM409 387l25 -4l-7 25l-26 4zM470 400l28 36l-32 -4zM484 474l25 -3l-7 24l-26 4zM528 531l9 62l-60 -18
l-9 -62zM496 641l5 -25l32 -11l-14 32zM542 482l30 34l-32 -2zM557 559l25 -4l-7 25l-25 4zM611 560l31 34l-33 -1zM627 721l-5 -31l30 9l5 31zM610 751h-45l23 -23zM614 682l-60 -18l-9 -62l60 18zM539 736l-14 -23l14 -22l14 22zM516 751h-45l22 -23zM447 718l-82 -32
l82 -30l73 30zM465 587l-2 32l-31 -34zM420 751h-45l23 -23zM352 738l-14 -22l14 -22l14 22zM326 751h-45l22 -23zM228 751h-45l22 -23zM78 760l7 -31l31 -7l-7 31zM109 618l7 31l-31 -7l-7 -31zM118 676l17 11l-17 10l-17 -10zM158 633l14 22l-14 22l-14 -22zM158 694
l14 22l-14 22l-14 -22zM183 615h45l-23 23zM178 686l82 -30l82 30l-82 32zM281 615h45l-23 23zM352 633l14 22l-14 22l-14 -22zM375 615h45l-22 23zM439 558l-37 7l17 -37l36 -10zM403 488l-9 -61l59 18l10 62zM391 531l-31 -34l33 1zM375 455l-26 4l8 -25l25 -4zM327 399
l-9 -62l59 18l10 62zM316 444l-31 -34l32 2zM298 366l-26 4l8 -25l25 -3zM250 311l-10 -62l60 18l9 62zM238 354l-30 -34l32 2zM222 280l-26 4l8 -25l25 -4zM171 220l-9 -61l59 18l10 62zM160 270l-31 -34l32 2zM136 185l-25 4l7 -25l25 -4zM95 121l-14 -59l60 25l10 55z
" />
    <glyph glyph-name="zero" unicode="0" horiz-adv-x="694" 
d="M242 740l18 39c18 6 37 9 56 11l26 -23l23 24c24 -1 48 -5 71 -12l19 -39l36 17c18 -9 34 -20 50 -33l3 -40l35 2c16 -18 30 -39 41 -63l-19 -37l38 -19c4 -16 6 -32 7 -49l-28 -28l29 -30v-35l-29 -29l29 -30v-36l-29 -29l28 -28c-2 -22 -6 -42 -11 -61l-40 -20l19 -38
c-11 -23 -24 -44 -40 -63l-35 3l-4 -41c-15 -13 -31 -24 -48 -33l-38 18l-19 -40c-19 -6 -39 -10 -60 -11l-23 24l-26 -24c-18 2 -37 5 -55 10l-19 41l-38 -18c-17 9 -33 20 -48 32l-3 42l-37 -3c-15 19 -29 39 -40 62l20 39l-41 21c-5 18 -8 38 -10 59l28 29l-30 30v34
l30 31l-30 29v34l30 31l-29 28c1 17 4 33 7 48l40 20l-20 38c11 23 24 44 40 63l36 -3l3 41c16 12 32 23 50 32zM259 701l-43 -53l63 2l51 46zM439 577l-32 -6c-16 10 -32 14 -44 16l-19 24l-17 -25c-11 -2 -25 -6 -38 -15l-32 6l8 -30c-5 -8 -9 -18 -12 -29l-27 -28l25 -25
v-43l-25 -25l25 -25v-48l-25 -24l29 -30c3 -16 9 -29 15 -40l-7 -29l30 5c14 -9 28 -13 40 -15l16 -24l20 25c11 2 22 7 33 14l32 -5l-8 30c6 10 11 23 14 38l31 31l-26 25v46l26 26l-26 25v42l26 26l-29 29c-3 10 -6 19 -11 27zM382 612l38 -15l-12 26zM585 347l23 -23v46z
M606 301l-26 17l-27 -17l27 -17zM585 444l23 -23v46zM581 472l24 16l-24 15l-24 -15zM576 394l-33 83l-30 -83l30 -83zM452 227l29 15l-14 29zM479 155l-6 28l-27 6l5 -27zM503 347l-23 23v-46zM480 421l23 23l-23 23v-46zM481 301l27 -17l26 17l-26 17zM508 472l24 16
l-24 15l-24 -15zM473 507l14 29l-29 14zM478 595l6 28l-27 -7l-6 -27zM414 181l-38 -15l27 -12zM364 126l-15 23l-15 -24l16 -23zM320 166l-38 15l11 -27zM112 444l-24 23v-46zM91 488l24 -16l25 16l-25 15zM112 347l-24 23v-46zM116 318l-26 -17l26 -17l27 17zM120 394
l33 -83l30 83l-30 83zM239 550l-30 -14l14 -29zM212 623l6 -28l27 -6l-6 27zM193 444l23 -23v46zM216 370l-23 -23l23 -23v46zM213 488l-25 15l-24 -15l24 -16zM188 318l-26 -17l26 -17l27 17zM229 271l-14 -29l29 -15zM223 183l-5 -28l27 7l6 27zM276 597l39 15l-27 11z
M214 726l-39 -25l32 -7zM188 669l-26 5l6 -26l26 -5zM194 628l-64 -53l22 -81l42 62v72zM129 655l-23 -40l32 9zM77 509l26 20l-20 26zM89 223l20 26l-26 20zM134 123l9 31l-31 9zM135 203l64 -53l1 72l-46 62zM174 130l-7 -26l26 5l7 26zM181 77l39 -25l-7 32zM221 130
l43 -53l72 5l-51 46zM277 27l45 -9l-18 27zM348 27l15 23l-14 25l-16 -24zM374 18l45 9l-27 18zM432 77l43 53l-63 -2l-52 -46zM477 52l38 25l-31 7zM503 109l26 -5l-7 26l-25 5zM497 150l64 53l-19 81l-46 -62zM562 123l23 40l-32 -9zM607 223l6 46l-25 -20zM613 555
l-20 -26l26 -20zM568 655l-9 -31l31 -9zM567 575l-64 53l-1 -72l42 -62zM528 648l6 26l-25 -5l-7 -26zM521 701l-39 25l7 -32zM425 751l-45 9l18 -27zM437 701l-71 -5l51 -46l64 -2zM343 629l16 23l-15 24l-15 -23zM342 751l-14 -24l15 -24l15 24zM299 733l18 27l-46 -9z
" />
    <glyph glyph-name="one" unicode="1" horiz-adv-x="307" 
d="M225 105l30 -30v-75h-70l-30 30l-32 -30h-73v75l29 30l-29 29v34l29 30l-29 29v40l29 30l-29 29v33l29 30l-29 29v35l29 30l-29 28v41l29 30l-29 28v35l29 30l-29 29v73h77l28 -27l26 27h74v-73l-30 -29l30 -30v-34l-30 -29l30 -30v-41l-30 -28l30 -31v-33l-30 -29
l30 -30v-34l-30 -29l30 -30v-40l-30 -29l30 -30v-34zM202 750l-7 -32l32 7l7 32zM89 226l22 23l-22 22v-45zM111 157l-22 23v-46zM161 483l26 -17l27 17l-27 16zM183 388l-32 82l-29 -82l29 -82zM151 492l32 82l-32 82l-29 -82zM143 483l-27 16l-26 -16l26 -17zM111 531
l-22 22v-45zM89 605l22 23l-22 23v-46zM111 437l-22 23v-45zM111 342l-22 23v-46zM90 297l26 -17l27 17l-27 16zM151 287l-29 -81l29 -82l32 82zM161 297l26 -17l27 17l-27 16zM192 249l23 -23v45zM215 180l-23 -23l23 -23v46zM192 342l23 -23v46zM192 437l23 -22v45z
M192 531l23 -23v45zM192 628l23 -23v46zM214 676l-27 16l-26 -16l26 -17zM155 732l-11 -17l11 -17l10 17zM143 676l-27 16l-26 -16l26 -17zM74 757l7 -32l31 -7l-7 32zM105 32l7 31l-31 -7l-7 -32zM116 90l27 16l-27 17l-26 -17zM155 47l10 17l-10 17l-11 -17zM161 106
l26 -16l27 16l-27 17zM202 32l32 -7l-7 31l-32 7z" />
    <glyph glyph-name="two" unicode="2" horiz-adv-x="625" 
d="M535 101l41 -42v-59h-65l-26 29l-25 -29h-2l-30 29l-28 -29h-34l-29 29l-28 -29h-41l-29 29l-28 -29h-32l-29 29l-28 -29h-71v65l35 35l-36 35c0 13 0 26 1 40l33 22l-23 34c4 15 9 30 17 45l47 10l-10 46c8 10 18 20 29 30l45 -5l5 43c9 6 20 12 31 18l40 -10l9 35
c6 3 12 5 18 8l40 -15l11 42l1 1l41 -3l-5 36l20 21l-23 24c-1 1 -2 3 -3 5l2 32l-35 -13l-26 26l-29 -27c-19 -1 -37 -4 -54 -9l-43 19l-15 -40c-22 -10 -42 -23 -62 -38l-35 50l6 48l-49 14l-39 57c21 14 41 27 62 38l45 -17l9 43c13 6 26 11 40 15l37 -22l24 38
c22 5 45 8 69 10l33 -29l29 30c19 -2 36 -4 52 -8l13 -39l42 19c11 -5 21 -11 30 -17l4 -42l42 1c10 -11 18 -23 26 -35l-14 -39l39 -17c5 -16 9 -32 11 -48l-26 -31l27 -26c-2 -17 -5 -32 -11 -47l-40 -17l12 -34c-10 -14 -22 -28 -36 -40l-30 1l-2 -28
c-16 -12 -34 -23 -52 -33l-44 19l-16 -49c-9 -4 -18 -8 -28 -11l-42 13l-9 -42c-12 -9 -22 -20 -30 -33h50l26 -27l27 27h39l26 -27l28 27h2l23 -27l25 27h69v-63zM63 651l31 12l-24 23l-31 -12zM458 178l-13 -19l13 -20l12 20zM406 173h-45l22 -23zM336 163l-16 -26l16 -26
l17 26zM311 173h-46l23 -23zM423 329l34 19l-30 12zM449 385l21 -6l-3 21l-21 6zM442 425l57 27l-10 62l-50 -31zM428 532l22 -14l22 14l-22 14zM504 386l23 32l-32 -3zM504 531l19 -12l19 13l-19 12zM549 468l8 38l-29 -15zM550 597l-16 -23l24 -11zM504 681l-9 -29l32 -3z
M507 607l-55 25l-3 -55l46 -36zM469 664l4 21l-21 -6l-3 -21zM462 713l-34 19l4 -31zM385 748l-46 6l20 -26zM318 741l-14 -22l14 -22l13 22zM277 757l-46 -5l25 -21zM258 710l-45 -40l48 -25l47 33zM160 726l-36 -13l24 -12zM127 545l24 23l-10 31l-24 -23zM156 614l31 45
l-59 10l-22 -46zM177 696l18 -18l9 24l-18 19zM214 610l7 25l-20 17l-7 -25zM242 603l47 5l-26 21zM318 618l13 22l-13 23l-14 -23zM371 637l59 11l-37 51l-63 -20zM416 513l-14 -22l21 3zM403 577l9 -25l11 19zM386 601l26 1l10 24l-26 -1zM418 457l-24 7l4 -25l24 -7z
M358 419l-32 -55l59 -14l41 60zM325 343l-3 -32l27 -16l3 32zM290 416l-2 -30l25 -15l3 30zM246 393l-37 -27l31 -5zM248 350l-41 -62l75 9l29 59zM250 240l-7 25l-26 4l7 -25zM208 171l-8 -28l29 5l8 28zM176 319l-28 5l8 -27l27 -5zM187 274l-59 -57l21 -94l51 73z
M104 265l-18 -42l30 12zM85 133l23 22l-23 23v-45zM110 28l8 30l-31 -5l-8 -30zM103 101l21 -14l22 13l-21 14zM153 47l15 20l-12 23l-15 -21zM170 29h46l-23 23zM173 101l77 -32l71 32l-71 30zM265 29h46l-23 23zM336 40l17 26l-17 26l-16 -26zM361 29h45l-23 23zM456 28
l11 17l-11 17l-11 -17zM436 69l77 32l-77 30l-85 -30zM523 172l-5 -30l29 9l5 30zM524 32l29 -9l-5 30l-29 9z" />
    <glyph glyph-name="three" unicode="3" horiz-adv-x="650" 
d="M106 39c-20 10 -38 22 -56 36l33 51l46 6l-8 50l39 60c12 -9 26 -17 41 -23l21 -38l40 20c10 -1 20 -3 31 -4l38 -34l35 34l36 -13l-5 35c0 1 1 2 1 3l18 19l-22 23c-1 2 -2 4 -4 6l2 32l-37 -14c-5 1 -11 1 -17 1h-15l-30 30l-30 -30l-46 -1v71l35 35l-35 33v68h47
l29 -30l30 30h15c6 0 12 1 17 1l37 -13l-2 31c2 2 3 5 4 7l22 23l-18 18c0 1 -1 2 -1 4l5 34l-36 -13l-35 34l-38 -34c-11 -1 -21 -2 -31 -4l-40 20l-21 -37c-15 -7 -29 -14 -41 -23l-39 59l8 50l-46 7l-33 50c18 15 36 27 56 37l52 -17l16 39l33 -16l26 35c18 2 36 4 56 6
l36 -29l31 30c19 -1 37 -3 55 -7l13 -40l44 20c10 -5 19 -11 28 -17l4 -43l45 1c9 -10 17 -21 24 -32l-15 -41l42 -18c4 -16 7 -32 9 -48l-24 -24l23 -25c-2 -18 -6 -36 -11 -53l-29 -11l9 -34l-40 -27l37 -27c1 -2 2 -3 3 -5l-9 -34l29 -11c5 -18 9 -35 11 -53l-23 -25
l24 -24c-2 -16 -5 -32 -9 -48l-42 -18l15 -41c-7 -12 -15 -23 -24 -33l-45 1l-4 -43c-9 -6 -18 -11 -28 -16l-44 19l-13 -39c-18 -4 -36 -7 -55 -7l-31 30l-36 -29c-20 1 -38 3 -56 6l-26 35l-33 -17l-16 40zM192 53l20 17l-7 25l-20 -17zM238 24l51 -6l-23 28zM220 102
l44 -39l55 28l-48 35zM326 34l16 21l-12 23l-15 -20zM355 23l46 6l-25 20zM444 45l34 19l-30 11zM432 219l-14 -23l22 4zM419 284l9 -26l11 20zM439 240l22 -13l22 14l-22 14zM432 520l-14 -24l22 4zM419 584l9 -25l11 19zM439 544l22 -14l22 14l-22 14zM459 502l-2 -72
l61 42l-7 60zM490 367l18 27l-17 28l-18 -27zM518 313l-59 42v-72l52 -30zM469 94l21 -6l-4 21l-20 6zM462 140l57 26l-8 62l-53 -31zM520 95l23 32l-32 -3zM565 176l8 39l-29 -16zM570 297l-19 -21l24 -12zM562 240l-19 12l-19 -12l19 -12zM540 339l-13 28l-11 -23z
M527 417l13 29l-24 -5zM524 545l19 -12l19 12l-19 12zM570 487l5 34l-24 -13zM565 608l-21 -23l29 -15zM520 689l-9 -29l32 -2zM519 618l-57 27l-4 -58l53 -31zM486 675l4 21l-21 -6l-3 -21zM478 721l-34 19l4 -31zM401 756l-46 5l21 -26zM326 750l-11 -23l15 -21l12 23z
M289 766l-51 -5l28 -23zM264 721l-44 -38l51 -25l48 35zM192 731l-7 -25l20 -17l7 26zM108 681l35 15l-28 25l-35 -15zM165 576l25 27l-14 35l-25 -28zM174 655l17 23l-28 5l-17 -23zM220 620l9 24l-18 19l-9 -24zM252 617l46 4l-24 21zM332 635l14 22l-14 22l-14 -22z
M360 618l26 -5l-8 19zM385 651l59 10l-37 51l-63 -20zM411 610l21 6l3 22l-21 -6zM428 475l-26 1l10 -24l26 -1zM372 468h-47l23 -24zM293 448l-14 -22l14 -22l14 22zM257 319l7 21l-22 -3l-6 -21zM242 449l22 -3l-7 21l-21 3zM293 343l14 22l-14 22l-14 -22zM325 317h47
l-24 23zM389 364l66 33l-66 30l-83 -30zM402 309h26l10 24h-26zM432 168l-21 6l3 -21l21 -6zM444 123l-59 11l-41 -42l63 -20zM386 172l-26 -6l18 -13zM332 150l-14 -22l14 -22l14 22zM298 164l-46 3l22 -25zM220 164l-18 -18l9 -25l18 19zM165 209l-14 -34l25 -28l14 34z
M174 130l-28 -5l17 -23l28 5zM143 89l-35 15l-28 -26l35 -14z" />
    <glyph glyph-name="five" unicode="5" horiz-adv-x="687" 
d="M146 77l-44 -18c-21 11 -41 24 -62 38l39 57l49 14l-6 48l35 51c20 -15 40 -28 62 -38l15 -41l43 19c17 -4 35 -7 54 -9l29 -26l26 26l35 -13l-2 32c1 2 2 3 3 5l23 24l-20 21l5 36l-32 -11c-10 7 -24 14 -39 18l-24 32l-27 -25c-20 0 -40 -2 -56 -5l-32 25l-20 -36
l-51 61l11 54l-53 -4l-41 49v0l32 40l-31 31l1 31l30 30l-29 30v29l29 29l-29 29v71h65l28 -29l29 29h32l28 -29l30 29h40l28 -29l30 29h34l28 -29l28 27l23 -27l26 29h56v-64l-37 -37l37 -36v-68h-55l-24 27l-24 -27h-2l-27 27l-27 -27h-38l-28 27l-26 -27h-48v-55
c18 1 31 2 45 2l32 -36l31 29c15 -3 30 -7 44 -11l18 -40l33 19c17 -8 33 -18 47 -29l4 -43l42 1c10 -11 19 -22 26 -34l-14 -41l42 -18c4 -15 8 -30 9 -46l-27 -26l26 -32c-2 -16 -6 -32 -11 -47l-39 -17l14 -40c-8 -12 -16 -24 -26 -35l-42 1l-4 -41
c-9 -7 -19 -13 -30 -18l-42 19l-13 -39c-16 -4 -33 -7 -52 -8l-29 30l-33 -29c-24 2 -47 5 -69 10l-25 38l-36 -22c-14 4 -27 9 -40 15zM169 65l36 -12l-12 24zM276 26l46 -5l-21 26zM258 108l45 -40l50 32l-47 33zM362 37l14 22l-14 23l-13 -23zM384 24l46 6l-26 20z
M473 46l34 20l-30 11zM497 99l21 -6l-4 21l-20 6zM492 148l55 25l-10 62l-49 -31zM468 247l22 -15l22 14l-22 15zM549 97l23 32l-32 -2zM549 248l19 -13l19 12l-19 13zM595 182l8 33l-24 -10zM594 311l-21 -23l29 -15zM549 394l-9 -30l32 -2zM544 327l-57 27l-3 -58l50 -31z
M511 379l4 22l-21 -6l-3 -22zM502 431l-34 20l4 -31zM418 471l-39 10l14 -31zM278 607h45l-22 23zM349 617l16 26l-16 26l-17 -26zM373 607h46l-23 23zM468 607l11 17l-11 17l-11 -17zM524 749l-5 -30l29 8l5 30zM548 629l-29 9l5 -30l29 -9zM468 752l-11 -17l11 -16l11 16z
M511 679l-70 32l-78 -32l78 -30zM419 751h-46l23 -22zM349 740l-17 -26l17 -26l16 26zM323 751h-45l23 -22zM263 711l-78 -32l78 -30l70 30zM210 523l-23 -15l23 -15l24 15zM172 520l30 74l-30 68l-32 -68zM228 551l22 -23v45zM218 607l34 -6l-9 33l-34 6zM228 751h-45
l22 -22zM165 734l-12 -23l15 -20l12 22zM159 680l-22 14l-22 -14l22 -14zM102 616l22 22l-22 23v-45zM124 551l-22 22v-45zM91 758l8 -30l31 -6l-8 30zM121 431l5 32l-32 5zM115 508l24 -15l23 15l-23 15zM152 463l19 -33l20 33l-20 31zM192 350l18 25l-15 27l-17 -25z
M256 341l47 3l-25 22zM270 386l51 35l-53 40l-69 -35zM302 463l22 24l-40 2zM337 357l16 20l-11 24l-16 -21zM345 426l16 20l-12 24l-16 -21zM370 339l43 -18l-12 30zM411 366l62 6l-40 60l-67 -16zM440 314l21 6l3 22l-21 -7zM457 177h-27l11 -24h26zM475 131l-60 10
l-40 -41l63 -20zM362 160l-13 -22l13 -22l14 22zM334 170l-47 6l21 -26zM259 169l-20 -18l7 -25l20 17zM240 101l-18 -19l9 -25l18 19zM172 234l-10 -32l24 -22l10 31zM201 165l-50 -9l22 -47l58 11zM108 127l-24 -23l31 -12l24 23z" />
    <glyph glyph-name="six" unicode="6" horiz-adv-x="639" 
d="M490 734l52 17c18 -10 37 -23 55 -37l-33 -51l-46 -6l9 -51l-39 -60c-12 10 -25 17 -40 24l-21 37l-39 -20c-10 2 -20 3 -31 4l-37 35l-35 -36l-32 3l4 -35c-4 -10 -6 -20 -6 -29v-49c7 3 16 6 25 9l31 -27l30 35c17 0 36 -2 57 -7c2 0 3 0 5 -1l12 -25l26 13
c25 -11 49 -26 70 -45l-5 -48l49 -6c11 -17 19 -36 25 -56l-22 -33l31 -23c1 -5 1 -9 1 -14c0 -14 -1 -27 -2 -39l-41 -27l24 -40c-7 -20 -17 -38 -29 -54l-37 -2l1 -37c-15 -13 -33 -25 -52 -34l-37 17l-16 -36c-15 -4 -31 -7 -47 -8l-21 22l-22 -23c-20 1 -38 4 -56 8
l-13 30l-31 -15c-21 9 -40 21 -56 34l-3 39l-33 -3c-17 21 -31 43 -41 67l18 36l-35 18c-4 19 -7 38 -7 56l24 25l-24 25v47l24 24l-24 26v47l24 24l-24 26v37l25 28l-22 22c3 14 6 27 10 40l34 9l-15 33c8 13 17 26 27 38l40 -1l4 41c10 7 21 14 33 20l42 -20l14 40
c17 4 35 7 53 7l31 -30l35 29c20 -1 38 -3 55 -6l26 -35l32 16zM457 736l-20 -17l7 -25l19 17zM412 766l-51 6l23 -29zM429 687l-43 39l-54 -28l47 -35zM324 755l-15 -21l12 -23l15 21zM296 766l-45 -5l25 -21zM209 745l-34 -20l30 -11zM235 593l-22 -4l8 -20zM218 642
l3 -21l20 -7l-3 22zM240 555l-29 -15l14 -30zM293 324l-40 14l-3 -35l-28 -18l28 -27c2 -12 5 -23 11 -32l-8 -30l31 6c5 -4 12 -7 18 -9l21 -31l22 29c6 2 11 4 16 7l32 -7l-5 34c4 9 6 17 6 24v0l24 26l-38 18c-2 2 -3 4 -5 6l-7 36l-35 -12l-20 27zM265 354l27 5l-16 11z
M329 358l28 -4l-12 16zM376 353l19 15l-5 24l-19 -15zM417 324l-29 7l22 -35zM438 222l-15 29l-14 -45zM438 278l22 -12l20 16l-22 12zM443 139l-7 24l-25 5l7 -25zM382 178l-41 -22l31 -10zM302 159l-43 17l13 -30zM108 432l-23 24v-48zM86 479l26 -17l27 17l-27 17z
M108 333l-23 23v-47zM111 304l-24 -16l24 -16l25 16zM116 384l33 -85l30 85l-30 85zM184 304l-24 -16l24 -16l25 16zM214 401l16 28l-17 26l-16 -28zM235 350l-17 27l-16 -28l17 -26zM220 268l-15 -30l30 -15zM214 177l-6 -28l28 7l5 28zM211 479l-27 17l-26 -17l26 -17z
M185 689l-28 7l6 -29l29 -7zM189 634l-64 -66l25 -72l46 58zM135 615l14 23l-22 -4zM131 693l-22 -32l31 3zM98 622l-10 -40l27 14zM81 545v-41l23 21zM79 219l20 26l-26 21zM125 116l9 32l-32 9zM126 198l64 -54v73l-42 64zM164 123l-6 -26l26 5l6 26zM171 69l39 -25l-7 32
zM259 21l46 -5l-21 26zM244 74l66 7l-40 46l-64 5zM323 141l-12 -20l13 -20l12 20zM327 33l12 21l-13 20l-12 -21zM345 18l45 10l-27 18zM405 67l39 54l-61 2l-47 -38zM443 42l37 28l-32 5zM466 103l22 -4l-6 22l-22 4zM517 111l24 40l-32 -8zM555 216l-3 47l-22 -25z
M528 360l-10 -32l31 -10zM523 299l-17 -13l19 -11l17 14zM515 196l-19 80l-42 -67l6 -68zM432 332l58 -36l-10 76l-68 22zM482 424l-38 26l7 -32zM409 449l-20 -16l5 -25l20 15zM387 469l-46 7l20 -27zM311 438l-70 -40l75 -17l60 25zM272 460l-29 -11l20 -10zM208 659
l59 -4l40 42l-62 20zM265 617l27 5l-18 14zM319 639l14 22l-14 22l-14 -22zM352 625l45 -4l-20 26zM430 624l17 19l-9 25l-18 -19zM483 579l14 35l-24 28l-15 -35zM474 659l27 5l-16 23l-27 -5zM539 685l28 26l-35 15l-27 -26z" />
    <glyph glyph-name="seven" unicode="7" horiz-adv-x="711" 
d="M385 68l19 -38l-11 -31h-70l-19 48l-61 -48h-71l27 78l41 20l-19 43l14 41l40 20l-20 38l11 31l41 21l-20 39l12 34l35 17l-17 35l13 38l38 18l-19 37l11 33l38 18l-27 47l-27 -22h-58l-31 30l-30 -30h-54l-31 30l-30 -30h-56v66l32 32l-32 31v64h59l27 -28l28 28h58
l27 -28l29 28h58l27 -28l29 28h52l27 -28l29 28h40l27 -28l29 28h65l-1 -1h1l-21 -59l-40 -20l20 -40l-10 -28l-41 -20l20 -40l-11 -32l-41 -20l20 -39l-11 -30l-40 -20l19 -40l-11 -31l-39 -20l19 -39l-10 -30l-40 -19l19 -39l-11 -33l-40 -20l19 -38l-11 -32zM229 29l5 25
l-25 -6l-5 -25zM402 342l-57 -68l4 -87l55 68zM349 378l19 -24l30 7l-19 24zM387 183l-31 -7l20 -25l31 8zM420 186l16 43l-30 -13zM401 613h16l-11 -30l29 13l-8 17h20l-23 23zM461 542l-20 24l-31 -7l20 -24zM416 355l19 -24l31 7l-20 24zM449 274l17 42l-30 -13zM413 372
l55 69l-1 89l-58 -69zM471 547l55 68l-2 87l-57 -67zM529 519l-20 24l-31 -7l20 -24zM483 362l16 42l-29 -13zM517 452l16 42l-30 -13zM548 544l16 42l-29 -13zM603 751l-5 -25l24 6l6 25zM579 632l16 42l-29 -13zM588 698l-20 24l-30 -7l20 -24zM548 752h-45l22 -22z
M481 741l-14 -21l14 -22l3 5l3 -5l14 22l-14 21l-3 -5zM447 752h-46l23 -22zM368 741l-13 -21l13 -22l14 22zM362 683l-53 33l-53 -33l53 -34zM334 752h-46l23 -22zM253 741l-14 -21l14 -22l14 22zM248 683l-53 33l-53 -33l53 -34zM218 752h-46l23 -22zM141 741l-14 -21
l14 -22l14 22zM80 730l31 -7l-7 32l-32 7zM104 610l7 31l-31 -7l-8 -31zM103 681l16 -10l17 10l-17 11zM141 627l14 21l-14 22l-14 -22zM172 613h46l-23 23zM253 627l14 21l-14 22l-14 -22zM288 613h46l-23 23zM368 623l14 22l-14 21l-13 -21zM372 683l53 -34l53 34l-53 33z
M393 538l-16 -42l29 13zM359 444l-16 -43l29 14zM331 356l-16 -42l29 13zM299 263l-16 -43l30 14zM269 174l-16 -43l30 13zM263 54l26 9l-16 22l-30 -7zM321 204l-30 -7l19 -24l30 7zM291 120l16 -54l42 35l-11 59zM347 29l25 -6l-6 25l-25 6zM371 122l13 -29l16 42z" />
    <glyph glyph-name="eight" unicode="8" horiz-adv-x="717" 
d="M656 387c4 -15 6 -31 8 -47l-31 -31l31 -32c-1 -18 -4 -35 -8 -51l-41 -21l20 -41c-11 -24 -25 -45 -41 -64l-36 3l-4 -42c-16 -13 -33 -24 -51 -34l-37 18l-18 -40c-17 -5 -35 -9 -53 -11l-31 25l-28 -26c-23 2 -46 6 -69 13l-18 39l-36 -17c-18 9 -35 20 -52 34l-3 41
l-36 -3c-16 19 -30 41 -41 65l20 40l-41 20c-3 16 -6 32 -7 49l30 30l-30 32c1 18 4 35 8 52l40 20l-20 40c11 24 25 46 41 65l36 -3l3 42c20 16 42 29 64 40c-4 10 -7 22 -9 34l29 28l-28 30c5 20 13 38 24 53l39 -1l1 41c15 9 31 16 49 20l32 -32l31 32
c16 -4 31 -10 44 -18l1 -43l43 1c10 -15 18 -32 23 -50l-31 -33l32 -31c-2 -11 -5 -23 -10 -33c21 -10 41 -23 59 -38l4 -42l36 3c16 -19 30 -40 41 -64l-20 -41zM626 382l-20 -27l26 -20zM620 306v1v0l-25 16l-25 -16v0v-1l25 -16zM581 480l-9 -32l32 -9zM580 397l-65 55
l-1 -74l44 -65zM546 306l-1 1h1l-25 16l-25 -16v0v-1l25 -16zM451 214l-9 32c5 8 8 17 11 28l30 30l-29 30c-2 13 -6 24 -12 33l9 33l-32 -6c-14 9 -29 14 -41 16l-16 24l-18 -23c-12 -2 -30 -6 -46 -17l-33 6l9 -34c-5 -8 -9 -19 -11 -31l-30 -31l31 -31
c2 -10 6 -19 10 -26l-9 -33l33 6c16 -12 34 -16 46 -18l18 -23l16 24c12 2 27 7 41 17zM431 193l-39 -15l27 -12zM324 178l-39 15l12 -27zM170 307v0v-1l25 -16l25 16v1v0l-25 16zM246 372l-29 -15l14 -30zM219 447l6 -29l28 -7l-6 29zM228 277l-10 -32l31 -11zM225 195
l-6 -29l28 7l6 29zM285 420l39 16l-27 12zM347 477l16 -24l14 25l-15 24zM392 436l39 -16l-12 28zM491 418l5 29l-27 -7l-6 -29zM499 357l-30 15l16 -45zM467 234l31 13l-13 31zM496 166l-5 29l-28 7l6 -29zM541 473l7 27l-27 -6l-6 -26zM534 528l-40 26l8 -33zM493 472
l-47 49l-58 -10l40 -40zM381 539l44 17l-30 14zM452 541l18 7l1 19l-17 -7zM455 584l17 37l-27 -10zM453 718l-10 -28l27 -10zM419 744l-37 17l10 -28zM338 761l-37 -17l27 -11zM324 665l-42 -12l42 -15v-1l-20 -45l39 22h1l18 -42l17 42h1l39 -22l-21 45s0 1 1 1l41 15
l-42 12l19 41l-38 -22v1l-17 41l-18 -41s-1 0 -1 -1l-38 22zM343 540l-19 28l-27 -19zM267 718l-16 -38l27 10zM275 611l-27 10l17 -37zM263 559l-19 8l2 -21l18 -7zM268 519l-46 -50h65l49 42zM221 554l-39 -26l32 -7zM194 494l-26 6l7 -27l26 -5zM201 452l-66 -55l23 -84
l43 65v74zM146 306l-1 1h1l-25 16l-25 -16v0v-1l25 -16zM134 480l-22 -41l32 9zM82 329l26 21l-20 26zM88 237l20 26l-26 21zM134 133l10 32l-32 9zM135 216l66 -55v74l-43 65zM175 140l-7 -26l26 5l7 26zM182 85l39 -25l-7 33zM280 34l46 -10l-19 28zM267 85l73 6l-52 47
l-65 2zM363 160l-16 -24l15 -25l15 24zM364 34l15 25l-16 24l-15 -25zM390 24l46 10l-28 18zM449 85l44 55l-65 -2l-52 -47zM494 60l40 25l-32 8zM521 119l27 -5l-7 26l-26 5zM515 161l65 55l-22 84l-44 -65zM581 133l23 41l-32 -9zM634 284l-27 -21l21 -26z" />
    <glyph glyph-name="nine" unicode="9" horiz-adv-x="639" 
d="M145 58l-52 -17c-19 11 -37 23 -55 37l33 51l45 6l-8 50l39 60c11 -10 25 -17 40 -24l20 -37l40 20c9 -2 20 -3 30 -4l37 -34l36 35l31 -2l-4 34c4 10 6 20 6 29c0 7 0 25 1 49c-8 -4 -17 -7 -26 -9l-31 27l-30 -35c-17 0 -36 2 -57 6c-1 1 -3 1 -5 1l-11 25l-26 -12
c-25 10 -50 25 -71 45l6 47l-50 6c-10 17 -19 36 -25 56l23 32l-32 23c0 5 -1 10 -1 14c0 14 1 27 3 39l41 26l-25 40c8 20 17 38 29 54l38 2l-2 37c16 13 33 25 52 34l38 -17l15 36c15 4 31 6 47 8l22 -22l22 22c19 -1 38 -3 55 -7l14 -30l31 15c21 -9 39 -21 55 -34l3 -39
l34 3c17 -21 30 -43 40 -67l-17 -36l35 -17c4 -19 6 -38 6 -56l-24 -24l24 -26v-46l-24 -24l24 -26v-46l-24 -25l24 -25v-37l-24 -28l21 -22c-2 -14 -5 -27 -10 -40l-34 -9l15 -32c-8 -13 -17 -26 -27 -38l-40 1l-3 -41c-10 -7 -21 -14 -33 -20l-43 20l-13 -40
c-17 -4 -35 -6 -54 -7l-30 31l-36 -29c-19 1 -38 3 -55 6l-25 35l-33 -17zM178 56l19 17l-6 25l-20 -17zM222 26l51 -5l-23 28zM206 105l43 -39l53 28l-47 35zM310 37l16 21l-12 23l-16 -21zM338 26l46 6l-26 20zM426 47l33 20l-29 11zM400 199l21 3l-7 20zM417 149l-3 22
l-21 6l3 -21zM394 236l30 15l-15 30zM342 466l39 -15l3 36l29 17l-29 27c-1 12 -5 23 -10 32l7 30l-30 -6c-6 4 -12 7 -19 9l-20 31l-22 -30c-6 -1 -12 -3 -17 -6l-32 6l5 -33c-4 -9 -6 -17 -6 -24v0l-24 -26l38 -17c2 -3 4 -5 6 -7l6 -35l36 12l19 -27zM369 436l-27 -5
l16 -11zM306 432l-29 4l12 -16zM259 437l-20 -15l5 -24l19 15zM218 465l28 -7l-21 36zM196 567l16 -29l13 45zM197 511l-22 12l-21 -15l23 -12zM191 650l7 -25l25 -4l-7 24zM252 611l41 21l-31 10zM332 629l44 -16l-14 30zM527 358l23 -23v47zM549 311l-27 17l-27 -17
l27 -17zM527 457l23 -24v47zM523 486l25 16l-25 15l-24 -15zM518 406l-32 85l-31 -85l31 -85zM450 486l25 16l-25 15l-24 -15zM420 389l-16 -27l18 -27l16 28zM399 439l18 -26l16 28l-18 26zM415 521l14 30l-29 14zM421 611l5 28l-27 -7l-6 -28zM423 311l27 -17l27 17
l-27 17zM449 103l28 -7l-6 29l-28 7zM446 157l63 66l-25 71l-45 -57zM500 177l-14 -23l21 3zM503 99l23 32l-32 -3zM537 170l9 39l-27 -14zM553 246l1 40l-23 -20zM555 570l-20 -26l26 -20zM510 672l-9 -32l31 -9zM509 590l-64 54l-1 -73l42 -63zM470 665l7 26l-26 -5
l-7 -26zM463 719l-39 25l7 -32zM376 766l-46 5l20 -25zM390 714l-66 -7l40 -46l65 -5zM311 648l12 20l-12 19l-12 -20zM308 754l-12 -20l12 -20l13 20zM289 770l-45 -10l28 -18zM229 721l-39 -54l62 -2l46 38zM191 746l-37 -28l32 -5zM169 685l-23 4l6 -22l23 -4zM117 677
l-24 -40l32 8zM80 573l2 -47l22 25zM106 430l10 31l-31 10zM111 490l17 13l-19 11l-17 -13zM120 593l18 -79l42 66l-5 68zM202 457l-58 37l11 -76l68 -22zM152 366l39 -26l-7 33zM226 342l20 15l-5 25l-20 -15zM248 321l45 -6l-20 26zM323 352l71 40l-76 17l-60 -25z
M362 331l30 11l-20 9zM427 132l-60 4l-39 -41l61 -20zM369 175l-26 -6l17 -13zM315 153l-13 -22l13 -22l14 22zM282 166l-45 4l21 -25zM205 167l-18 -19l9 -24l18 19zM152 212l-15 -35l25 -27l14 34zM160 133l-27 -5l16 -24l28 6zM95 106l-27 -25l34 -14l28 25z" />
    <glyph glyph-name="period" unicode="." horiz-adv-x="279" 
d="M197 88l29 -29v-58h-64l-24 25l-26 -25h-62v56l27 27l-27 27v60h60l28 -27l26 27h62v-55zM175 144l-6 -27l27 6l6 27zM76 123l27 -6l-6 27l-27 6zM102 28l6 27l-27 -6l-6 -28zM111 78l14 8l-14 9l-13 -9zM138 41l9 15l-9 14l-10 -14zM138 99l9 15l-9 14l-10 -14zM149 86
l14 -8l13 8l-13 9zM177 29l27 -6l-6 27l-27 6z" />
    <glyph glyph-name="comma" unicode="," horiz-adv-x="279" 
d="M98 -51c0 0 61 -3 61 38v1v12v1v0l-20 19l-19 -19h-70v56l27 27l-27 27v60h60l28 -27l26 27h62v-55l-29 -28l29 -29v-43l-30 -27l22 -25c-6 -18 -16 -33 -30 -43l-25 9l-9 -23c-16 -4 -34 -5 -56 -5v47zM198 50l-27 6l6 -27l27 -6zM175 144l-6 -27l27 6l6 27zM76 123
l27 -6l-6 27l-27 6zM102 28l6 27l-27 -6l-6 -28zM111 78l14 8l-14 9l-13 -9zM138 41l9 15l-9 14l-10 -14zM138 99l9 15l-9 14l-10 -14zM163 78l13 8l-13 9l-14 -9zM187 -31l-17 -2l8 -15l17 2zM122 -63l-8 -15l17 -1l9 15z" />
    <glyph glyph-name="semicolon" unicode=";" horiz-adv-x="279" 
d="M98 134c0 0 61 -2 61 38v2h12l-12 12v0v0l-20 19l-19 -19h-70v56l27 28l-27 26v60h60l28 -27l26 27h62v-55l-29 -28l29 -29v-43l-30 -26l22 -26c-6 -17 -16 -33 -30 -43l-25 10l-9 -24c-16 -3 -34 -4 -56 -4v46zM198 236l-27 6l6 -27l27 -7zM175 330l-6 -27l27 6l6 27z
M76 309l27 -6l-6 27l-27 6zM102 213l6 27l-27 -6l-6 -27zM111 263l14 9l-14 8l-13 -8zM138 227l9 14l-9 15l-10 -15zM138 285l9 14l-9 15l-10 -15zM163 263l13 9l-13 8l-14 -8zM187 154l-17 -1l8 -15l17 1zM122 123l-8 -15l17 -1l9 14zM226 534v-58h-64l-24 25l-26 -25h-62
v56l27 28l-27 26v60h60l28 -27l26 27h62v-55l-29 -28zM175 619l-6 -27l27 6l6 27zM76 598l27 -6l-6 27l-27 6zM102 503l6 27l-27 -6l-6 -28zM111 553l14 8l-14 9l-13 -9zM138 516l9 15l-9 14l-10 -14zM138 574l9 15l-9 14l-10 -14zM149 561l14 -8l13 8l-13 9zM177 504l27 -6
l-6 27l-27 6z" />
    <glyph glyph-name="colon" unicode=":" horiz-adv-x="279" 
d="M197 280l29 -30v-57h-64l-24 24l-26 -24h-62v56l27 27l-27 27v60h60l28 -27l26 27h62v-55zM175 336l-6 -27l27 6l6 27zM76 315l27 -6l-6 27l-27 6zM102 219l6 28l-27 -7l-6 -27zM111 270l14 8l-14 9l-13 -9zM138 233l9 15l-9 14l-10 -14zM138 291l9 15l-9 14l-10 -14z
M149 278l14 -8l13 8l-13 9zM177 221l27 -6l-6 27l-27 6zM138 619l26 27h62v-55l-29 -28l29 -29v-58h-64l-24 25l-26 -25h-62v56l27 28l-27 26v60h60zM76 598l27 -6l-6 27l-27 6zM102 503l6 27l-27 -6l-6 -28zM111 553l14 8l-14 9l-13 -9zM138 516l9 15l-9 14l-10 -14z
M138 574l9 15l-9 14l-10 -14zM149 561l14 -8l13 8l-13 9zM198 525l-27 6l6 -27l27 -6zM202 625l-27 -6l-6 -27l27 6z" />
    <glyph glyph-name="bullet" unicode="&#x2022;" horiz-adv-x="335" 
d="M207 462h41l41 -41l-45 -46l-35 1l-1 -36l-44 -44l-40 40v38h-37l-43 43l42 42l39 1v37l43 44l39 -39v-40zM96 402l24 14l-24 15l-23 -15zM166 509l-15 -23l15 -24l15 24zM193 446l-15 -3l-4 -16l16 4zM153 445l-17 4l4 -17l17 -4zM141 406l-3 -15l15 3l4 16zM167 328
l15 24l-15 23l-15 -23zM178 393l17 -4l-4 17l-17 4zM234 406l24 15l-24 15l-23 -15z" />
    <glyph glyph-name="quotesingle" unicode="'" horiz-adv-x="197" 
d="M62 616c0 0 61 -2 61 38v2v12v0v0l-20 19l-19 -19h-70v56l27 28l-27 26v60h60l28 -27l26 27h62v-55l-29 -28l29 -29v-43l-30 -26l22 -26c-6 -17 -16 -33 -30 -43l-25 10l-9 -24c-16 -3 -34 -4 -56 -4v46zM162 718l-27 6l6 -27l27 -7zM139 812l-6 -27l27 6l6 27zM40 791
l27 -6l-6 27l-27 6zM66 695l6 27l-27 -6l-6 -27zM75 745l14 9l-14 8l-13 -8zM102 708l9 15l-9 15l-10 -15zM102 767l9 14l-9 15l-10 -15zM127 745l13 9l-13 8l-14 -8zM151 636l-17 -1l8 -15l17 1zM86 605l-8 -15l17 -2l9 15z" />
    <glyph glyph-name="quotedblright" unicode="&#x201d;" horiz-adv-x="493" 
d="M98 616c0 0 61 -2 61 38v2v12v0v0l-20 19l-19 -19h-70v56l27 28l-27 26v60h60l28 -27l26 27h62v-55l-29 -28l29 -29v-43l-30 -26l22 -26c-6 -17 -16 -33 -30 -43l-25 10l-9 -24c-16 -3 -34 -4 -56 -4v46zM198 718l-27 6l6 -27l27 -7zM175 812l-6 -27l27 6l6 27zM76 791
l27 -6l-6 27l-27 6zM102 695l6 27l-27 -6l-6 -27zM111 745l14 9l-14 8l-13 -8zM138 708l9 15l-9 15l-10 -15zM138 767l9 14l-9 15l-10 -15zM163 745l13 9l-13 8l-14 -8zM187 636l-17 -1l8 -15l17 1zM122 605l-8 -15l17 -2l9 15zM313 616c0 0 60 -2 60 38v2v12v0v0l-20 19
l-18 -19h-71v56l27 28l-27 26v60h61l27 -27l26 27h62v-55l-28 -28l28 -29v-43l-30 -26l23 -26c-6 -17 -16 -33 -31 -43l-24 10l-9 -24c-16 -3 -35 -4 -56 -4v46zM413 718l-27 6l6 -27l27 -7zM389 812l-6 -27l27 6l6 27zM291 791l27 -6l-6 27l-27 6zM316 695l6 27l-27 -6
l-6 -27zM326 745l13 9l-13 8l-14 -8zM352 708l9 15l-9 15l-9 -15zM352 767l9 14l-9 15l-9 -15zM377 745l14 9l-14 8l-13 -8zM401 636l-17 -1l9 -15l17 1zM337 605l-9 -15l17 -2l9 15z" />
    <glyph glyph-name="quotedblleft" unicode="&#x201c;" horiz-adv-x="492" 
d="M392 792c0 0 -61 2 -61 -38v-2v-12v0h1l19 -19l19 19h70v-56l-27 -28l27 -26v-60h-60l-27 27l-27 -27h-62v55l29 28l-29 29v43l30 26l-22 26c6 17 16 33 31 43l24 -10l9 24c16 3 35 4 56 4v-46zM292 691l27 -7l-6 27l-27 7zM316 596l6 27l-27 -6l-6 -27zM414 617l-27 6
l6 -27l27 -6zM389 713l-6 -27l27 6l6 27zM379 663l-14 -9l14 -8l13 8zM353 700l-10 -15l10 -15l9 15zM353 641l-10 -14l10 -15l9 15zM327 663l-13 -9l13 -8l14 8zM303 772l18 1l-9 15l-17 -1zM368 803l8 15l-17 2l-8 -15zM178 792c0 0 -61 2 -61 -38v-2v-12v0v0l20 -19
l19 19h70v-56l-27 -28l27 -26v-60h-60l-28 27l-26 -27h-62v55l29 28l-29 29v43l30 26l-22 26c6 17 16 33 30 43l24 -10l10 24c16 3 34 4 56 4v-46zM77 691l28 -7l-7 27l-27 7zM101 596l6 27l-27 -6l-6 -27zM199 617l-27 6l7 -27l27 -6zM174 713l-6 -27l27 6l6 27zM164 663
l-13 -9l13 -8l14 8zM138 700l-9 -15l9 -15l9 15zM138 641l-9 -14l9 -15l9 15zM113 663l-13 -9l13 -8l13 8zM89 772l17 1l-8 15l-18 -1zM153 803l9 15l-17 2l-9 -15z" />
    <glyph glyph-name="quoteright" unicode="&#x2019;" horiz-adv-x="279" 
d="M98 616c0 0 61 -2 61 38v2v12v0v0l-20 19l-19 -19h-70v56l27 28l-27 26v60h60l28 -27l26 27h62v-55l-29 -28l29 -29v-43l-30 -26l22 -26c-6 -17 -16 -33 -30 -43l-25 10l-9 -24c-16 -3 -34 -4 -56 -4v46zM198 718l-27 6l6 -27l27 -7zM175 812l-6 -27l27 6l6 27zM76 791
l27 -6l-6 27l-27 6zM102 695l6 27l-27 -6l-6 -27zM111 745l14 9l-14 8l-13 -8zM138 708l9 15l-9 15l-10 -15zM138 767l9 14l-9 15l-10 -15zM163 745l13 9l-13 8l-14 -8zM187 636l-17 -1l8 -15l17 1zM122 605l-8 -15l17 -2l9 15z" />
    <glyph glyph-name="quoteleft" unicode="&#x2018;" horiz-adv-x="279" 
d="M178 792c0 0 -61 2 -61 -38v-2v-12v0v0l20 -19l19 19h70v-56l-27 -28l27 -26v-60h-60l-28 27l-26 -27h-62v55l29 28l-29 29v43l30 26l-22 26c6 17 16 33 30 43l24 -10l10 24c16 3 34 4 56 4v-46zM77 691l28 -7l-7 27l-27 7zM101 596l6 27l-27 -6l-6 -27zM199 617l-27 6
l7 -27l27 -6zM174 713l-6 -27l27 6l6 27zM164 663l-13 -9l13 -8l14 8zM138 700l-9 -15l9 -15l9 15zM138 641l-9 -14l9 -15l9 15zM113 663l-13 -9l13 -8l13 8zM89 772l17 1l-8 15l-18 -1zM153 803l9 15l-17 2l-9 -15z" />
    <glyph glyph-name="asterisk" unicode="*" horiz-adv-x="337" 
d="M207 704h41l41 -41l-45 -46l-35 1l-1 -36l-44 -44l-40 40v38h-37l-43 43l42 42l39 1v37l43 44l39 -39v-40zM96 644l24 14l-24 15l-23 -15zM166 751l-15 -23l15 -24l15 24zM193 688l-15 -3l-4 -16l16 3zM153 687l-17 3l4 -16l17 -4zM141 648l-3 -15l15 3l4 16zM167 570
l15 24l-15 23l-15 -23zM181 633l17 -4l-4 17l-17 3zM234 648l24 15l-24 15l-23 -15z" />
    <glyph glyph-name="numbersign" unicode="#" horiz-adv-x="1441" 
d="M1340 75l26 -25v-52h-37l-35 38l-35 -38h-30l-34 38l-35 -38h-30l-34 38l-35 -38h-30l-35 38l-34 -38h-30l-35 38l-35 -38h-45v46l31 31l-31 32v40h45l32 -34l35 34h32l33 -34l34 34h32l33 -34l34 34h32l33 -34l34 34h33l32 -34l35 34h40v-46zM1330 122l-4 -20l19 5l5 19
zM843 107l20 -5l-4 20l-20 4zM859 26l4 20l-20 -4l-4 -20zM892 62l23 13l-22 15l-23 -13zM941 23l15 22l-15 22l-14 -22zM941 76l15 22l-15 22l-14 -22zM992 62l23 13l-23 15l-23 -13zM1042 23l14 22l-14 22l-14 -22zM1042 76l14 22l-14 22l-14 -22zM1091 62l23 13l-22 15
l-24 -13zM1141 23l14 22l-14 22l-14 -22zM1141 76l14 22l-14 22l-14 -22zM1190 62l23 13l-22 15l-23 -13zM1241 23l14 22l-14 22l-15 -22zM1241 76l14 22l-14 22l-15 -22zM1289 62l23 13l-22 15l-23 -13zM1330 26l20 -4l-5 20l-19 4zM686 105l29 -30v-76h-69l-30 31l-32 -31
h-71v57l-46 15l-29 46l10 46l-46 11l-23 37l10 49l-48 10l-26 41l11 48l-48 11l-3 4l-24 39l-20 -21l24 -28v-37l-30 -30l30 -29v-40l-30 -30l30 -29v-35l-30 -30l30 -29v-74h-77l-28 28l-27 -28h-73v74l30 29l-30 31v34l30 29l-30 30v41l30 29l-30 30v34l30 29l-30 30v35
l30 29l-30 30v40l30 29l-30 31v34l30 29l-30 30v76h70l30 -31l31 31h74v-6l1 1v-52l48 -16l29 -45l-10 -45l44 -10l25 -39l-9 -42l42 -10l28 -44l-10 -45l45 -10l1 -1l-1 -1l27 -43l20 20l-24 30v30l29 30l-29 29v40l29 30l-29 29v35l29 30l-29 29v74h77l28 -27l26 27h73
v-74l-29 -29l29 -30v-35l-29 -29l29 -30v-41l-29 -29l29 -30v-34l-29 -29l29 -30v-35l-29 -29l29 -30v-40l-29 -29l29 -30v-35zM344 595l-8 -31l32 -8zM344 521l-11 -23h25l11 23h-25zM289 684l-8 -32l31 -7zM283 616l-11 -24l26 1l11 23h-26zM254 593l-1 63l-56 26v-62z
M231 694l11 23h-25l-11 -23h25zM234 762h-46l23 -23zM163 737v-31l28 -14v31zM90 227l22 22l-22 23v-45zM112 151l-22 23v-45zM121 577l32 -82l30 82l-30 63zM183 393l-30 82l-32 -82l32 -82zM144 485l-27 17l-26 -17l26 -17zM112 534l-22 22v-45zM90 603l22 23l-22 22v-45z
M112 439l-22 23v-45zM112 344l-22 22v-45zM91 298l26 -17l27 17l-27 17zM153 288l-32 -82l32 -82l30 82zM162 298l26 -17l27 17l-27 17zM193 249l23 -22v45zM216 174l-23 -23l23 -22v45zM193 344l23 -23v45zM193 439l23 -22v45zM188 468l27 17l-27 17l-26 -17zM150 690
l-11 -17l11 -17l11 17zM137 706v31l-28 -14v-31zM69 762l23 -23l22 23h-45zM102 31l7 31l-31 -7l-7 -31zM91 104l26 -17l27 17l-27 16zM150 47l11 17l-11 17l-11 -17zM162 104l26 -17l27 17l-27 16zM231 24l-7 31l-32 7l8 -31zM238 481l7 31l-31 8zM228 555l19 27l-34 -4
l-21 -28zM249 446l40 5l20 32l-43 -3zM302 386l7 32l-31 7zM260 521l57 -27v63l-57 26v-62zM364 289l7 32l-31 7zM361 365l11 23h-26l-11 -23h26zM322 425l57 -27l-1 63l-56 26v-62zM399 501l-5 -32l32 -5zM431 425l-25 -1l-11 -23h26zM428 190l7 31l-31 8zM398 266h26
l11 23h-26zM386 326l57 -26v62l-57 27v-63zM663 752l-7 -31l32 7l7 31zM622 485l26 -16l26 16l-26 17zM644 390l-32 82l-29 -82l29 -82zM612 495l32 82l-32 82l-29 -82zM603 485l-26 17l-26 -17l26 -16zM572 534l-23 23v-46zM549 609l23 23l-23 23v-46zM572 440l-23 22v-45z
M572 344l-23 23v-46zM551 298l26 -16l26 16l-26 17zM573 233l-35 -5l-20 -27l35 4zM612 289l-29 -83l29 -63l32 63zM622 298l26 -16l26 16l-26 17zM653 250l23 -23v45zM676 180l-23 -22l23 -23v45zM653 344l23 -23v46zM653 440l23 -23v45zM653 534l23 -23v46zM653 632
l23 -23v46zM674 680l-26 16l-26 -16l26 -17zM615 737l-10 -17l10 -17l11 17zM603 680l-26 16l-26 -16l26 -17zM534 759l7 -31l32 -7l-7 31zM543 264l-23 39l-8 -31zM522 341l-43 -4l-21 -33l41 2zM464 403l-7 -32l31 -7zM493 91l8 31l-32 8zM459 168h26l11 24l-26 -1z
M448 227l57 -26v62l-57 27v-63zM512 127l57 -26l-1 62l-56 27v-63zM534 89l-11 -23h26l11 24zM531 21h46l-23 23zM602 46v31l-28 14v-31zM615 93l11 17l-11 17l-10 -17zM629 77v-31l28 14v31zM651 21h46l-23 23zM1381 575c3 -15 6 -31 7 -47l-30 -29l31 -31h-1
c-1 -18 -3 -35 -7 -51l-40 -19l20 -40c-11 -23 -25 -44 -41 -62l-36 3l-3 -41c-16 -13 -33 -24 -50 -33l-37 17l-18 -39c-17 -5 -34 -9 -51 -11l-31 25l-29 -26c-23 2 -45 6 -67 12l-18 39l-36 -17c-18 9 -35 20 -51 33l-3 41l-36 -3c-15 19 -29 40 -40 63l19 39l-39 19
c-3 15 -6 32 -7 49l29 28l-29 30c1 18 4 35 7 52l39 19l-19 38c11 24 25 45 40 64l36 -3l3 41c16 12 33 23 51 33l36 -17l18 39c20 6 41 10 61 11l33 -25l27 25c19 -2 38 -6 57 -11l18 -39l37 17c17 -9 34 -20 50 -33l3 -41l36 3c16 -19 30 -39 41 -63l-20 -39zM1352 570
l-20 -26l26 -20zM1346 496v0v1l-25 15l-24 -15v-1v0l24 -15zM1308 665l-9 -31l31 -9zM1307 584l-65 54v-72l42 -63zM1272 496v0v1l-24 15l-25 -15l1 -1h-1l25 -15zM1179 406l-8 31c5 8 8 17 11 28l28 28l-27 29c-3 13 -7 25 -12 34l8 31l-32 -6c-13 9 -28 13 -39 15l-17 24
l-18 -23c-12 -2 -29 -6 -45 -16l-32 6l8 -32c-5 -9 -9 -20 -11 -32l-29 -30l30 -29c2 -10 5 -19 10 -26l-8 -32l32 6c16 -10 33 -15 45 -16l18 -24l17 25c11 2 26 6 39 15zM1159 386l-38 -15l27 -12zM1053 371l-38 15l12 -27zM902 497v-1v0l24 -15l25 15v0v1l-25 15z
M977 560l-29 -15l14 -29zM950 633l6 -28l27 -7l-5 28zM959 468l-10 -31l31 -11zM956 388l-6 -28l28 7l5 28zM1015 607l38 15l-26 11zM1121 622l38 -15l-11 26zM1218 605l6 28l-28 -7l-5 -28zM1227 545l-30 15l15 -44zM1195 426l30 13l-13 30zM1224 360l-6 28l-27 7l5 -28z
M1268 658l6 26l-26 -5l-6 -26zM1261 711l-39 25l7 -32zM1220 658l-43 54l-72 -6l52 -46zM1164 761l-45 10l18 -28zM1093 762l-16 -24l15 -24l16 23zM1091 686l-15 -24l16 -23l14 24zM1055 771l-45 -10l27 -18zM997 712l-43 -54l64 2l51 46zM952 736l-39 -25l32 -7zM926 679
l-26 5l6 -26l26 -5zM932 638l-64 -54l22 -81l43 63zM878 496h-1l1 1l-25 15l-25 -15l1 -1h-1l25 -15zM866 665l-22 -40l31 9zM815 518l26 20l-20 26zM821 429l20 25l-26 21zM866 327l9 32l-31 9zM868 408l64 -53l1 72l-43 63zM906 335l-6 -26l26 5l6 26zM913 281l39 -25
l-7 32zM1010 231l45 -9l-18 27zM997 281l72 6l-51 46l-64 2zM1092 354l-16 -23l15 -25l15 24zM1093 231l15 24l-16 24l-15 -24zM1119 222l45 9l-27 18zM1177 281l43 54l-63 -2l-52 -46zM1222 256l39 25l-32 7zM1248 314l26 -5l-6 26l-26 5zM1242 355l65 53l-23 82l-42 -63
v-72zM1308 327l22 41l-31 -9zM1359 475l-26 -21l20 -25z" />
    <glyph glyph-name="dollar" unicode="$" horiz-adv-x="611" 
d="M339 -7l24 -24v-32h-16l-28 28l-26 -28h-17v31l25 25l-25 25v23c-15 1 -30 4 -44 7l-21 33l-32 -19c-12 4 -24 8 -35 13l-8 38l-38 -15c-16 8 -32 18 -47 28l35 52l37 11l-4 36l34 50c15 -10 30 -19 45 -26l15 -38l39 17c15 -3 30 -6 45 -8l26 -23l23 22l30 -11l-2 28
c1 2 2 3 3 5l20 21l-16 17c0 1 -1 1 -1 2l4 31l-31 -11c-5 1 -11 2 -19 2h-16l-19 25l-25 -24c-20 1 -39 3 -57 7l-11 35l-38 -18c-9 5 -18 10 -26 15l-3 38l-39 -1c-8 9 -15 18 -21 28l12 32l-34 15c-5 13 -8 27 -10 40l23 22l-23 28c2 17 5 33 11 49l34 15l-12 33
c7 12 15 22 24 32l35 -1l3 35c9 7 18 12 29 17l35 -16l11 33c10 3 21 5 32 6v27l24 24l-24 24v32h16l28 -28l27 28h16v-31l-25 -25l25 -25v-26c13 -2 26 -4 38 -6l23 -37l35 21c11 -4 22 -8 32 -13l9 -40l38 15c19 -11 36 -24 50 -36l-34 -40l2 2l-48 -13l5 -38l-41 -49
c-10 8 -21 17 -35 25l-14 36l-35 -15c-16 4 -34 8 -53 9l-22 20l-21 -20l-32 11l3 -29c-1 -1 -2 -1 -2 -2l-21 -23l16 -17c0 -1 0 -1 1 -2l-4 -31l26 13c7 -3 14 -4 23 -4h12l29 -28l29 27c12 -1 23 -2 34 -4l17 -36l35 21c13 -6 25 -12 37 -20l3 -38l39 1
c8 -9 15 -19 21 -28l-13 -37l37 -17c4 -13 7 -26 8 -39l-24 -23l23 -28c-2 -14 -5 -28 -10 -42l-34 -15l12 -34c-7 -11 -14 -21 -23 -31l-36 1l-3 -37c-9 -6 -18 -11 -28 -15l-36 16l-11 -34c-10 -2 -20 -4 -30 -5v-23zM500 659l-20 -20l26 -10l21 20zM108 127l21 20l-27 10
l-21 -20zM344 67l40 5l-22 18zM422 86l30 18l-27 9zM443 133l18 -6l-3 19l-18 6zM438 176l48 22l-9 54l-42 -27zM417 262l19 -12l20 12l-20 12zM488 131l21 28l-29 -2zM488 263l17 -11l17 11l-17 11zM529 205l7 30l-22 -10zM528 319l-18 -20l25 -14zM488 391l-8 -26l29 -2z
M487 328l-50 23l-3 -50l44 -28zM459 379l3 18l-18 -5l-3 -19zM449 421l-30 17l3 -27zM374 450l-37 5l14 -23zM312 444l-14 -18l10 -21l14 18zM288 465l-38 3l20 -24zM217 467l-18 -5l-3 -19l18 5zM202 587h23l-9 21h-23zM283 599l13 20l-13 19l-12 -19zM309 591l40 -5
l-18 23zM375 592l17 15l-6 22l-18 -15zM449 540l9 28l-21 19l-9 -27zM424 600l44 8l-20 41l-51 -9zM453 683l-31 11l10 -22zM399 690l-16 -17l8 -21l16 16zM360 717l-41 4l18 -22zM336 680l-44 -28l41 -29l42 22zM293 779l-16 -25l16 -25l16 25zM283 707l-12 -19l12 -20
l13 20zM266 721l-40 -5l22 -18zM219 672l-32 -45l51 -9l36 37zM193 526l-20 12l-19 -12l19 -12zM188 702l-30 -17l27 -10zM167 655l-18 6l3 -19l18 -5zM172 612l-49 -22l9 -54l43 27zM121 657l-20 -28l28 2zM121 525l-16 11l-17 -11l16 -10zM80 573l-6 -28l20 9zM81 463
l18 20l-25 13zM121 397l8 26l-28 2zM122 460l50 -23l4 51l-45 27zM151 410l-3 -19l18 5l3 19zM158 369l30 -17l-3 27zM188 422l36 -43l72 14l-48 45zM229 337l41 -5l-18 23zM300 336l15 18l-10 21l-15 -18zM323 326l40 -5l-18 23zM362 354l62 12l-42 45l-66 -20zM393 321
l18 6l3 19l-19 -6zM407 201l-23 1l10 -21l23 -1zM423 161l-52 9l-35 -37l55 -17zM325 187l-12 -20l12 -19l12 19zM299 195l-40 5l18 -23zM234 194l-17 -15l6 -22l17 15zM158 251l-9 -28l21 -20l9 28zM182 188l-44 -8l20 -41l51 9zM155 103l32 -11l-10 22zM209 96l16 17
l-8 21l-16 -16zM249 69l40 -4l-18 22zM272 106l44 28l-40 29l-42 -22zM319 13l16 25l-16 25l-16 -25zM325 79l12 19l-12 20l-12 -20z" />
    <glyph glyph-name="exclam" unicode="!" horiz-adv-x="305" 
d="M195 126l41 -1l41 -41l-46 -45h-34l-1 -35l-44 -44l-40 40v38l-38 -1l-42 43l42 43h39l-1 38l44 43l39 -38v-40zM84 65l24 15l-24 15l-23 -15zM154 173l-15 -24l15 -23l14 23zM181 110l-16 -4l-3 -15l15 3zM142 106l-16 4l3 -17l17 -3zM129 70l-3 -16l15 4l4 15zM155 -8
l15 23l-15 24l-15 -24zM165 58l17 -4l-4 17l-17 4zM222 70l24 15l-24 15l-23 -15zM50 280l29 29l-29 28v32l29 29l-29 28v34l29 29l-29 27v40l29 29l-29 27v34l29 29l-29 28v71h77l28 -26l26 26h73v-71l-29 -28l29 -29v-33l-29 -28l29 -30v-39l-29 -28l29 -29v-32l-29 -28
l29 -30v-33l-29 -28l29 -29v-64h-69l-30 29l-32 -29h-73v65zM116 292l26 16l-26 16l-26 -16zM215 557l-23 -22l23 -22v44zM192 630l23 -22v44zM192 444l23 -22v44zM215 374l-23 -22l23 -22v44zM213 488l-26 16l-26 -16l26 -16zM183 397l-32 79l-29 -79l29 -79zM151 498
l32 79l-32 79l-29 -79zM142 488l-26 16l-26 -16l26 -16zM111 535l-23 22v-44zM88 608l23 22l-23 22v-44zM111 444l-23 22v-44zM111 352l-23 22v-44zM154 261l11 16l-11 16l-10 -16zM161 308l26 -16l26 16l-26 16zM227 269l-32 7l7 -31l32 -6zM202 746l-7 -31l32 7l7 31z
M213 676l-26 16l-26 -16l26 -16zM154 731l-10 -17l10 -16l11 16zM142 676l-26 16l-26 -16l26 -16zM73 753l7 -31l32 -7l-7 31zM80 269l-7 -30l32 6l7 31z" />
    <glyph glyph-name="percent" unicode="%" horiz-adv-x="570" 
d="M187 217l7 -25l-1 -1h-29l-8 25l-29 -25h-35l26 43l28 7l-7 28l19 30l27 7l-7 28l19 31l28 7l-7 27l19 31l27 7l-7 27l19 32l27 6l-7 27l20 32l26 7l-7 26l15 23l22 6l-5 22v1h24l13 -20l24 20h41l-19 -30l-28 -7l7 -28l-19 -31l-27 -7l7 -27l-19 -31l-27 -7l7 -27
l-20 -32l-26 -6l6 -27l-19 -32l-26 -7l6 -26l-20 -33l-25 -6l6 -26l-20 -33zM392 606l-25 -14l2 -28l24 13zM350 535l-28 -1l13 -25l28 1zM316 479l-25 -14l2 -28l25 14zM273 406l-28 -2l13 -24l28 1zM238 348l-25 -13l2 -28l24 13zM167 275l13 -25l28 1l-13 25zM139 501
l-26 -25h-62v56l27 28l-27 26v60h60l28 -27l26 27h62v-55l-29 -28l29 -29v-58h-64zM199 525l-27 6l6 -27l27 -6zM176 619l-6 -27l27 7l6 27zM164 570l-14 -8l14 -9l13 9zM139 604l-10 -15l10 -15l9 15zM139 546l-10 -15l10 -15l9 15zM126 562l-14 8l-13 -8l13 -9zM77 599
l27 -7l-6 28l-27 6zM103 503l6 27l-27 -6l-6 -27zM488 276l29 -29v-58h-64l-24 25l-26 -25h-62v56l27 28l-27 26v60h60l28 -27l26 27h62v-55zM466 332l-6 -27l27 6l6 28zM368 312l27 -7l-7 27l-27 7zM393 216l6 27l-27 -6l-6 -27zM403 266l13 8l-13 9l-14 -9zM429 229l9 15
l-9 15l-9 -15zM429 287l9 15l-9 15l-9 -15zM441 274l13 -8l13 8l-13 9zM469 217l27 -6l-6 27l-28 6z" />
    <glyph glyph-name="parenright" unicode=")" horiz-adv-x="291" 
d="M67 912l-19 19v25h25l19 -18l18 18h37l18 -18l18 18l54 -47v-2l-18 -18l18 -19v-39l-18 -19l18 -18v-41l-18 -18l18 -18v-40l-18 -18l18 -18v-42l-18 -18l18 -18v-40l-18 -18l18 -18v-40l-18 -18l18 -18v-40l-18 -18l18 -18v-40l-18 -18l18 -19v-39l-18 -18l18 -19v-39
l-18 -19l18 -18v-39l-18 -19l18 -18v-41l-18 -19l18 -18v-40l-18 -18l18 -18v-4l-54 -48h-3l-19 19l-19 -19h-33l-19 19l-18 -19h-23v23l21 20l-21 21v23h22l21 -20l20 20h38v39l21 20l-21 21v36l21 21l-21 21v35l21 20l-21 21v35l21 21l-21 20v35l21 21l-21 21v34l21 21
l-21 21v34l21 21l-21 21v34l21 21l-21 21v34l21 21l-21 21v36l21 21l-21 21v34l21 21l-21 21v36l21 20l-21 21v36h-39l-21 21l-20 -21h-22v23zM126 -159l14 24l-15 23l-15 -24zM170 -132l27 -5l-7 27l-28 6zM195 -83l24 16l-25 14l-23 -15zM180 12l15 -24l15 24l-16 24z
M195 71l24 16l-25 15l-23 -16zM180 166l15 -24l15 25l-16 23zM195 225l24 15l-25 15l-23 -16zM180 314l15 -24l15 24l-16 24zM195 375l24 16l-25 14l-23 -15zM180 466l15 -24l15 25l-16 23zM195 526l24 16l-25 15l-23 -16zM180 620l15 -24l15 24l-16 24zM195 680l24 16
l-25 14l-23 -15zM180 773l15 -23l15 24l-16 23zM219 849l-25 15l-23 -16l24 -14zM167 912l-4 -27l27 8l4 28zM125 939l-15 -24l16 -24l14 25z" />
    <glyph glyph-name="parenleft" unicode="(" horiz-adv-x="294" 
d="M221 -131l19 -19v-26h-25l-19 19l-18 -19h-36l-19 19l-18 -18l-54 47v2l18 18l-18 19v39l18 18l-18 19v41l18 18l-18 18v40l18 18l-18 18v41l18 19l-18 18v39l18 19l-18 18v40l18 18l-18 18v40l18 18l-18 18v40l18 18l-18 18v40l18 18l-18 18v40l18 18l-18 19v39l18 18
l-18 19v41l18 18l-18 19v39l18 19l-18 18v4l55 47h2l19 -18l19 18h33l19 -18l18 18h23v-22l-20 -21l20 -20v-24h-22l-21 21l-20 -21h-38v-38l-21 -21l21 -20v-37l-21 -21l21 -20v-35l-21 -21l21 -21v-34l-21 -21l21 -21v-34l-21 -21l21 -21v-34l-21 -21l21 -21v-34l-21 -21
l21 -21v-34l-21 -21l21 -21v-35l-21 -20l21 -21v-36l-21 -21l21 -21v-34l-21 -21l21 -21v-36l-21 -21l21 -20v-37h39l21 -20l20 20h22v-22zM162 940l-14 -24l15 -23l15 24zM119 913l-28 5l7 -28l28 -5zM93 864l-23 -16l24 -15l23 16zM109 769l-16 24l-15 -25l16 -23zM93 709
l-23 -15l24 -15l23 16zM109 615l-16 23l-15 -24l16 -23zM93 556l-23 -15l24 -15l23 16zM109 467l-16 24l-15 -24l16 -24zM93 406l-23 -16l24 -14l23 15zM109 315l-16 23l-15 -24l16 -23zM93 254l-23 -15l24 -15l23 16zM109 161l-16 24l-15 -24l16 -24zM93 101l-23 -16
l24 -14l23 15zM109 8l-16 23l-15 -24l16 -24zM70 -68l24 -15l23 16l-24 14zM121 -132l4 28l-27 -8l-4 -28zM163 -158l15 24l-16 23l-14 -24z" />
    <glyph glyph-name="bracketleft" unicode="[" horiz-adv-x="294" 
d="M221 -131l19 -19v-26h-25l-19 19l-18 -19h-36l-19 19l-18 -18l-54 47v2l18 18l-18 19v39l18 18l-18 19v41l18 18l-18 18v40l18 18l-18 18v41l18 19l-18 18v39l18 19l-18 18v40l18 18l-18 18v40l18 18l-18 18v40l18 18l-18 18v40l18 18l-18 18v40l18 18l-18 19v39l18 18
l-18 19v41l18 18l-18 19v39l18 19l-18 18v4l55 47h2l19 -18l19 18h33l19 -18l18 18h23v-22l-20 -21l20 -20v-24h-22l-21 21l-20 -21h-38v-38l-21 -21l21 -20v-37l-21 -21l21 -20v-35l-21 -21l21 -21v-34l-21 -21l21 -21v-34l-21 -21l21 -21v-34l-21 -21l21 -21v-34l-21 -21
l21 -21v-34l-21 -21l21 -21v-35l-21 -20l21 -21v-36l-21 -21l21 -21v-34l-21 -21l21 -21v-36l-21 -21l21 -20v-37h39l21 -20l20 20h22v-22zM162 940l-14 -24l15 -23l15 24zM119 913l-28 5l7 -28l28 -5zM93 864l-23 -16l24 -15l23 16zM109 769l-16 24l-15 -25l16 -23zM93 709
l-23 -15l24 -15l23 16zM109 615l-16 23l-15 -24l16 -23zM93 556l-23 -15l24 -15l23 16zM109 467l-16 24l-15 -24l16 -24zM93 406l-23 -16l24 -14l23 15zM109 315l-16 23l-15 -24l16 -23zM93 254l-23 -15l24 -15l23 16zM109 161l-16 24l-15 -24l16 -24zM93 101l-23 -16
l24 -14l23 15zM109 8l-16 23l-15 -24l16 -24zM70 -68l24 -15l23 16l-24 14zM121 -132l4 28l-27 -8l-4 -28zM163 -158l15 24l-16 23l-14 -24z" />
    <glyph glyph-name="bracketright" unicode="]" horiz-adv-x="291" 
d="M67 912l-19 19v25h25l19 -18l18 18h37l18 -18l18 18l54 -47v-2l-18 -18l18 -19v-39l-18 -19l18 -18v-41l-18 -18l18 -18v-40l-18 -18l18 -18v-42l-18 -18l18 -18v-40l-18 -18l18 -18v-40l-18 -18l18 -18v-40l-18 -18l18 -18v-40l-18 -18l18 -19v-39l-18 -18l18 -19v-39
l-18 -19l18 -18v-39l-18 -19l18 -18v-41l-18 -19l18 -18v-40l-18 -18l18 -18v-4l-54 -48h-3l-19 19l-19 -19h-33l-19 19l-18 -19h-23v23l21 20l-21 21v23h22l21 -20l20 20h38v39l21 20l-21 21v36l21 21l-21 21v35l21 20l-21 21v35l21 21l-21 20v35l21 21l-21 21v34l21 21
l-21 21v34l21 21l-21 21v34l21 21l-21 21v34l21 21l-21 21v36l21 21l-21 21v34l21 21l-21 21v36l21 20l-21 21v36h-39l-21 21l-20 -21h-22v23zM126 -159l14 24l-15 23l-15 -24zM170 -132l27 -5l-7 27l-28 6zM195 -83l24 16l-25 14l-23 -15zM180 12l15 -24l15 24l-16 24z
M195 71l24 16l-25 15l-23 -16zM180 166l15 -24l15 25l-16 23zM195 225l24 15l-25 15l-23 -16zM180 314l15 -24l15 24l-16 24zM195 375l24 16l-25 14l-23 -15zM180 466l15 -24l15 25l-16 23zM195 526l24 16l-25 15l-23 -16zM180 620l15 -24l15 24l-16 24zM195 680l24 16
l-25 14l-23 -15zM180 773l15 -23l15 24l-16 23zM219 849l-25 15l-23 -16l24 -14zM167 912l-4 -27l27 8l4 28zM125 939l-15 -24l16 -24l14 25z" />
    <glyph glyph-name="slash" unicode="/" horiz-adv-x="442" 
d="M125 217l7 -25l-1 -1h-29l-8 25l-29 -25h-35l26 43l28 7l-7 28l19 30l27 7l-7 28l19 31l28 7l-7 27l19 31l27 7l-7 27l19 32l27 6l-7 27l20 32l26 7l-7 26l15 23l22 6l-5 22v1h24l13 -20l24 20h41l-19 -30l-28 -7l7 -28l-19 -31l-27 -7l7 -27l-19 -31l-27 -7l7 -27
l-20 -32l-26 -6l6 -27l-19 -32l-26 -7l6 -26l-20 -33l-25 -6l6 -26l-20 -33zM330 606l-25 -14l2 -28l24 13zM288 535l-28 -1l13 -25l28 1zM254 479l-25 -14l2 -28l25 14zM211 406l-28 -2l13 -24l28 1zM176 348l-25 -13l2 -28l24 13zM105 275l13 -25l28 1l-13 25z" />
    <glyph glyph-name="hyphen" unicode="-" horiz-adv-x="350" 
d="M275 412l25 -25v-52h-36l-35 38l-34 -38h-30l-35 38l-34 -38h-46v46l31 31l-31 32v40h45l32 -34l35 34h32l33 -34l34 34h39v-45zM264 459l-4 -19l19 4l5 20zM77 444l19 -4l-4 19l-20 5zM92 364l4 19l-19 -4l-5 -20zM125 399l24 14l-23 15l-23 -14zM175 360l14 22l-14 23
l-15 -23zM175 413l14 22l-14 23l-15 -23zM225 399l23 14l-23 15l-23 -14zM264 364l20 -5l-5 20l-19 4z" />
    <glyph glyph-name="endash" unicode="&#x2013;" horiz-adv-x="454" 
d="M374 412l26 -25v-52h-37l-34 38l-35 -38h-30l-35 38l-34 -38h-30l-35 38l-34 -38h-46v46l31 31l-31 32v40h45l32 -34l35 34h32l33 -34l34 34h32l33 -34l34 34h40v-45zM364 459l-5 -19l20 4l4 20zM92 364l4 19l-19 -4l-5 -20zM77 444l19 -4l-4 19l-20 5zM125 399l24 14
l-23 15l-23 -14zM175 360l14 22l-14 23l-15 -23zM175 413l14 22l-14 23l-15 -23zM225 399l23 14l-23 15l-23 -14zM275 360l14 22l-14 23l-14 -23zM275 413l14 22l-14 23l-14 -23zM324 399l23 14l-22 15l-24 -14zM364 364l19 -5l-4 20l-20 4z" />
    <glyph glyph-name="emdash" unicode="&#x2014;" horiz-adv-x="660" 
d="M580 412l26 -25v-52h-37l-35 38l-34 -38h-30l-35 38l-35 -38h-30l-34 38l-35 -38h-30l-35 38l-34 -38h-30l-35 38l-34 -38h-46v46l31 31l-31 32v40h45l32 -34l35 34h32l33 -34l34 34h32l33 -34l34 34h32l33 -34l35 34h32l32 -34l35 34h40v-45zM570 459l-4 -19l19 4l5 20z
M84 444l19 -4l-4 19l-20 5zM99 364l4 19l-19 -4l-5 -20zM132 399l24 14l-23 15l-23 -14zM182 360l14 22l-14 23l-15 -23zM182 413l14 22l-14 23l-15 -23zM232 399l23 14l-23 15l-23 -14zM282 360l14 22l-14 23l-14 -23zM282 413l14 22l-14 23l-14 -23zM331 399l23 14l-22 15
l-24 -14zM381 360l15 22l-15 23l-14 -23zM381 413l15 22l-15 23l-14 -23zM430 399l23 14l-22 15l-23 -14zM481 360l14 22l-14 23l-14 -23zM481 413l14 22l-14 23l-14 -23zM529 399l24 14l-23 15l-23 -14zM570 364l20 -5l-5 20l-19 4z" />
    <glyph glyph-name="flake1" horiz-adv-x="697" 
d="M232 239h-56v-33h-37v38h32v53h61v-58zM466 296h60v-53h32v-37h-39v32h-53v58zM231 533h-60v54h-33v37h39v-33h54v-58zM520 590v35h37v-39h-33v-54h-60v58h56zM560 499l71 -71l29 29l43 -43l-42 -41l-28 29l-71 -71l-67 68l-37 -37h-51l1 -50l-42 -42l66 -66l-71 -72
l29 -29l-43 -43l-41 42l29 28l-71 71l71 70l-41 41v51l-51 -1l-37 38l-68 -69l-72 72l-30 -30l-43 43l42 41l29 -29l71 71l64 -64l38 37h53l1 54l36 37l-63 63l72 71l-30 30l43 43l41 -42l-29 -29l71 -71l-67 -67l41 -40l-1 -47h47l41 -41zM384 615l17 11l-17 12l-18 -12z
M336 660l13 -19l12 19l-12 20zM315 638l-18 -12l18 -11l18 11zM336 593l13 -19l12 19l-12 20zM148 382l-11 18l-12 -18l12 -18zM103 403l19 12l-19 13l-20 -13zM170 403l19 12l-19 13l-19 -13zM148 450l-11 18l-12 -18l12 -18zM315 213l-18 -11l18 -12l18 12zM361 168
l-12 20l-13 -20l13 -19zM384 190l17 12l-18 11l-17 -11zM361 235l-12 20l-13 -20l13 -19zM325 508l20 -31l19 31l-19 32zM312 454l4 -21l21 -5l-5 21zM259 397l31 20l-31 20l-32 -20zM371 325l-20 31l-20 -31l20 -32zM333 385l5 22l-22 -5l-5 -22zM385 380l-4 20l-21 5
l5 -21zM358 427l23 5l5 23l-23 -5zM437 399l31 20l-31 20l-31 -20zM573 382l-11 18l-12 -18l12 -18zM528 403l19 12l-19 13l-20 -13zM595 403l19 12l-19 13l-20 -13zM573 450l-11 18l-12 -18l12 -18z" />
    <glyph glyph-name="flake2" horiz-adv-x="646" 
d="M365 211l-39 -39l24 -24l-27 -26l-27 27l23 23l-38 38l43 43zM490 417l43 43l37 -37l23 22l26 -26l-27 -28l-23 23l-37 -38zM157 419l-42 -43l-39 38l-23 -23l-26 27l27 27l24 -23l38 38zM321 663l-25 25l27 26l27 -27l-23 -23l38 -39l-43 -42l-41 41zM413 627h101v41h60
v-58h-40v-100h-96v-51l-35 -37l35 -35v-59h94v-101h41v-60h-58v40h-100v100h-57l-37 36l-35 -36h-52v-97h-102v-42h-60v58h41v101h91v53l38 37l-38 39v52h-89v101h-42v60h58v-41h101v-95h57l32 -33l34 33h58v94zM207 585l4 20l-20 -4l-5 -21zM141 583l23 -5l-5 23l-23 5z
M142 552l-4 -20l20 4l5 21zM189 536l22 -5l-5 22l-22 5zM205 253l-21 5l5 -21l21 -4zM158 236l5 23l-22 -5l-5 -23zM206 284l5 22l-23 -5l-5 -22zM157 302l-21 4l5 -20l20 -5zM443 252l-5 -21l21 5l4 20zM507 253l-23 5l5 -23l23 -5zM507 284l5 21l-21 -5l-5 -20zM459 300
l-22 5l5 -22l22 -5zM241 468l36 -8l-8 36l-36 8zM270 420l18 -12l18 12l-18 11zM272 342l8 36l-36 -8l-8 -36zM403 370l-36 8l8 -36l36 -8zM334 386l-12 20l-13 -20l13 -19zM374 420l-18 11l-17 -11l17 -12zM322 434l12 19l-12 20l-13 -20zM397 470l9 36l-37 -8l-8 -36z
M505 554l-20 4l4 -20l21 -5zM458 537l6 22l-23 -5l-5 -22zM506 584l5 23l-22 -5l-5 -23zM457 602l-21 5l5 -21l21 -5z" />
    <glyph glyph-name="flake3" horiz-adv-x="797" 
d="M724 421l35 35l43 -42l-42 -42l-34 35l-88 -34l-87 32l-55 -56h83v-100h41v-58h-61v42h-101v79l-52 -52l35 -83l-34 -88l34 -35l-43 -42l-41 41l36 36l-34 87l29 80l-51 51v-72h-100v-40h-58v60h41v101h68l-47 47l-78 -30l-91 33l-33 -34l-43 43l42 41l37 -37l87 36
l86 -33l46 46h-74v101h-41v60h58v-40h100v-78l55 55l-33 85l32 89l-34 35l43 42l41 -41l-36 -36l36 -88l-33 -85l50 -50v74h101v42h61v-58h-41v-101h-78l54 -53l82 34zM293 560l-4 -20l20 4l5 21zM261 496l5 21l-21 -5l-5 -21zM245 543l23 -5l-5 23l-23 5zM293 496l22 -5
l-5 22l-22 5zM261 328l-21 5l5 -21l21 -5zM263 263l5 22l-23 -5l-5 -22zM293 263l21 -4l-5 20l-20 5zM310 310l5 23l-22 -5l-5 -23zM305 389l31 20l-31 20l-32 -20zM535 499l21 -4l-5 20l-21 5zM534 565l-5 -23l22 5l5 23zM503 564l-21 4l5 -20l20 -5zM486 517l-5 -22l22 5
l6 22zM397 533l-19 -32l19 -31l20 31zM434 448l-21 -4l-5 -21l21 5zM382 444l-22 5l5 -22l22 -5zM365 395l-5 -20l21 4l4 21zM399 292l20 31l-20 31l-20 -31zM412 379l23 -5l-5 23l-23 5zM503 260l4 21l-20 -5l-5 -21zM535 325l-5 -21l21 4l5 21zM551 277l-22 5l5 -23l22 -5
zM503 324l-22 5l5 -22l23 -5zM488 396l32 19l-32 20l-31 -20z" />
    <glyph glyph-name="flake4" horiz-adv-x="612" 
d="M526 650v50h60v-59h-49l-38 -86l-84 -39v-78l59 59l71 -71l29 29l41 -42l-43 -42l-29 29l-72 -71l-56 56v-73l84 -35l37 -86h49v-61h-58v51l-86 38l-36 77h-73l52 -51l-71 -71l29 -29l-42 -41l-42 43l29 29l-71 71l48 49h-67l-34 -77l-87 -41v-47h-61v59h53l36 87l85 36
v66l-53 -52l-71 71l-29 -29l-43 43l41 41l29 -29l70 71l56 -55v78l-84 37l-40 85h-49v61h59v-51l87 -37l37 -83h71l-52 52l71 72l-29 30l42 42l41 -41l-29 -29l71 -71l-55 -55h76l34 83zM123 444l11 -18l12 18l-12 18zM146 375l-12 18l-11 -18l11 -17zM101 398l19 12l-19 13
l-19 -13zM168 398l19 12l-19 13l-19 -13zM264 257l-18 -12l18 -11l18 11zM311 212l-12 20l-12 -20l12 -19zM333 234l18 11l-18 12l-18 -12zM311 279l-12 20l-12 -20l12 -19zM252 331l8 36l-36 -8l-8 -36zM337 572l18 11l-18 11l-18 -11zM290 617l12 -20l12 20l-12 19z
M268 594l-17 -11l17 -11l18 11zM290 550l12 -20l12 20l-12 19zM216 498l8 -36l36 -8l-8 36zM301 464l-11 -18l11 -18l12 18zM268 425l-19 -13l19 -12l19 12zM290 377l11 -17l12 17l-12 18zM388 328l-9 36l-36 9l9 -36zM335 400l20 12l-20 13l-19 -13zM483 380l-11 18
l-12 -18l12 -18zM460 448l12 -18l11 18l-11 18zM506 425l-20 -12l20 -12l19 12zM439 425l-20 -12l20 -12l19 12zM377 465l8 36l-36 -8l-8 -36z" />
    <glyph glyph-name="flake5" horiz-adv-x="697" 
d="M631 426l30 30l42 -43l-41 -41l-29 29l-71 -71l-67 67l-41 -40h-46l-1 -47l-58 -59l-53 53l-1 51h-50l-42 41l-66 -66l-71 71l-29 -29l-43 43l41 41l29 -29l70 71l71 -70l40 40l52 1l-1 50l58 58l52 -52l-1 -53l55 -1l36 -36l63 63zM135 465l-11 -18l11 -18l12 18z
M102 401l19 13l-19 12l-20 -12zM135 361l12 18l-12 18l-11 -18zM169 401l19 13l-19 12l-19 -12zM258 391l31 20l-31 20l-31 -20zM351 535l-20 -31l20 -32l20 32zM387 451l-21 -5l-4 -21l20 5zM336 446l-23 5l6 -22l22 -5zM318 397l-5 -20l21 4l5 21zM352 294l20 31l-20 31
l-19 -31zM366 382l22 -6l-5 23l-22 5zM442 398l31 20l-31 19l-31 -19zM560 465l-11 -18l11 -18l11 18zM527 401l19 13l-19 12l-20 -12zM560 361l11 18l-11 18l-11 -18zM594 401l19 13l-19 12l-20 -12z" />
    <glyph glyph-name="flake14" horiz-adv-x="165" 
d="M-2 413l82 83l86 -86l-83 -82zM48 399l19 12l-19 13l-19 -13zM115 424l-19 -13l19 -12l20 12zM81 358l12 18l-12 18l-11 -18zM93 445l-12 18l-11 -18l11 -18z" />
    <glyph glyph-name="flake15" horiz-adv-x="149" 
d="M71 453l43 -42l-41 -42l-43 43z" />
    <glyph glyph-name="ellipsis" unicode="&#x2026;" horiz-adv-x="708" 
d="M195 87l29 -29v-58h-64l-24 25l-26 -25h-62v56l27 28l-27 26v60h60l28 -27l26 27h62v-55zM173 143l-6 -27l27 7l6 27zM74 123l27 -7l-6 28l-27 6zM100 27l6 27l-27 -6l-6 -27zM109 77l14 8l-14 9l-13 -8zM136 40l9 15l-9 15l-10 -15zM136 98l9 15l-9 15l-10 -15zM147 86
l14 -9l13 8l-13 9zM175 28l27 -6l-6 27l-27 6zM630 87l29 -29v-58h-64l-24 25l-26 -25h-62v56l27 28l-27 26v60h60l28 -27l26 27h62v-55zM608 143l-6 -27l27 7l6 27zM509 123l27 -7l-6 28l-27 6zM535 27l6 27l-27 -6l-6 -27zM544 77l14 8l-14 9l-13 -8zM571 40l9 15l-9 15
l-10 -15zM571 98l9 15l-9 15l-10 -15zM582 86l14 -9l13 8l-13 9zM610 28l28 -6l-7 27l-27 6zM392 128h41l41 -41l-45 -45h-35l-1 -35l-44 -44l-39 39l-1 39l-37 -1l-43 43l43 43h38v38l43 43l39 -38v-41zM336 152l15 -23l15 23l-15 24zM281 68l24 15l-24 15l-23 -15zM367 18
l-15 24l-15 -24l15 -23zM338 61l4 15l-16 -3l-3 -16zM383 53l-4 17l-17 4l4 -17zM342 94l-4 17l-17 4l4 -17zM359 93l16 4l3 15l-15 -3zM419 73l24 15l-24 15l-23 -15z" />
    <glyph glyph-name="fraction" unicode="&#x2044;" horiz-adv-x="442" 
d="M125 217l7 -25l-1 -1h-29l-8 25l-29 -25h-35l26 43l28 7l-7 28l19 30l27 7l-7 28l19 31l28 7l-7 27l19 31l27 7l-7 27l19 32l27 6l-7 27l20 32l26 7l-7 26l15 23l22 6l-5 22v1h24l13 -20l24 20h41l-19 -30l-28 -7l7 -28l-19 -31l-27 -7l7 -27l-19 -31l-27 -7l7 -27
l-20 -32l-26 -6l6 -27l-19 -32l-26 -7l6 -26l-20 -33l-25 -6l6 -26l-20 -33zM330 606l-25 -14l2 -28l24 13zM288 535l-28 -1l13 -25l28 1zM254 479l-25 -14l2 -28l25 14zM211 406l-28 -2l13 -24l28 1zM176 348l-25 -13l2 -28l24 13zM105 275l13 -25l28 1l-13 25z" />
    <glyph glyph-name="equal" unicode="=" horiz-adv-x="451" 
d="M374 509l26 -25v-52h-37l-34 38l-35 -38h-30l-35 38l-34 -38h-30l-35 38l-34 -38h-46v46l31 31l-31 32v40h45l32 -34l35 34h32l33 -34l34 34h32l33 -34l34 34h40v-45zM364 556l-5 -19l20 4l4 20zM92 461l4 19l-19 -4l-5 -20zM77 541l19 -4l-4 19l-20 5zM125 496l24 14
l-23 15l-23 -14zM175 457l14 22l-14 23l-15 -23zM175 510l14 22l-14 23l-15 -23zM225 496l23 14l-23 15l-23 -14zM275 457l14 22l-14 23l-14 -23zM275 510l14 22l-14 23l-14 -23zM324 496l23 14l-22 15l-24 -14zM364 461l19 -5l-4 20l-20 4zM374 320l26 -25v-52h-37l-34 38
l-35 -38h-30l-35 38l-34 -38h-30l-35 38l-34 -38h-46v46l31 31l-31 32v40h45l32 -34l35 34h32l33 -34l34 34h32l33 -34l34 34h40v-45zM364 367l-5 -19l20 4l4 20zM92 272l4 19l-19 -4l-5 -20zM77 352l19 -4l-4 19l-20 5zM125 307l24 14l-23 15l-23 -14zM175 268l14 22
l-14 23l-15 -23zM175 321l14 22l-14 23l-15 -23zM225 307l23 14l-23 15l-23 -14zM275 268l14 22l-14 23l-14 -23zM275 321l14 22l-14 23l-14 -23zM324 307l23 14l-22 15l-24 -14zM364 272l19 -5l-4 20l-20 4z" />
    <glyph glyph-name="bar" unicode="|" horiz-adv-x="410" 
d="M192 704l-29 30l42 43l42 -42l-30 -29l71 -71l-67 -67l41 -40v-47h47l59 -59l-53 -53h-52l1 -50l-42 -42l66 -66l-71 -72l30 -29l-43 -43l-41 42l28 28l-70 71l70 70l-40 41l-1 51l-50 -1l-58 59l51 51h54v54l37 37l-63 63zM154 209l17 -12l18 12l-18 11zM217 175l-12 20
l-12 -20l12 -19zM258 209l-18 11l-18 -11l18 -12zM217 242l-12 20l-12 -20l12 -19zM227 332l-19 31l-20 -31l20 -32zM84 424l31 -19l31 19l-31 20zM168 461l5 -21l20 -5l-4 21zM172 409l-5 -22l23 5l5 22zM221 391l21 -4l-5 21l-21 4zM325 426l-31 20l-32 -20l32 -20z
M237 439l5 23l-22 -5l-5 -23zM221 515l-20 32l-20 -32l20 -31zM154 633l17 -11l18 11l-18 12zM217 600l-12 20l-12 -20l12 -19zM258 633l-18 12l-18 -12l18 -11zM217 667l-12 20l-12 -20l12 -19z" />
    <glyph glyph-name="exclamdown" unicode="&#xa1;" horiz-adv-x="307" 
d="M109 648l-41 1l-41 41l46 45h34l1 35l44 44l40 -40v-38l38 1l42 -43l-42 -43h-39l1 -38l-44 -43l-39 38v40zM220 709l-24 -15l24 -15l23 15zM150 601l15 24l-15 23l-14 -23zM123 664l16 4l3 15l-15 -3zM162 668l16 -4l-3 17l-17 3zM175 704l3 16l-15 -4l-4 -15zM149 782
l-15 -23l15 -24l15 24zM139 716l-17 4l4 -17l17 -4zM82 704l-24 -15l24 -15l23 15zM254 494l-29 -29l29 -28v-32l-29 -29l29 -28v-34l-29 -29l29 -27v-40l-29 -29l29 -27v-34l-29 -29l29 -28v-71h-77l-28 26l-26 -26h-73v71l29 28l-29 29v33l29 28l-29 30v39l29 28l-29 29
v32l29 28l-29 30v33l29 28l-29 29v64h69l30 -29l32 29h73v-65zM188 482l-26 -16l26 -16l26 16zM89 217l23 22l-23 22v-44zM112 144l-23 22v-44zM112 330l-23 22v-44zM89 400l23 22l-23 22v-44zM91 286l26 -16l26 16l-26 16zM121 377l32 -79l29 79l-29 79zM153 276l-32 -79
l32 -79l29 79zM162 286l26 -16l26 16l-26 16zM193 239l23 -22v44zM216 166l-23 -22l23 -22v44zM193 330l23 -22v44zM193 422l23 -22v44zM150 513l-11 -16l11 -16l10 16zM143 466l-26 16l-26 -16l26 -16zM77 505l32 -7l-7 31l-32 6zM102 28l7 31l-32 -7l-7 -31zM91 98l26 -16
l26 16l-26 16zM150 43l10 17l-10 16l-11 -16zM162 98l26 -16l26 16l-26 16zM231 21l-7 31l-32 7l7 -31zM224 505l7 30l-32 -6l-7 -31z" />
    <glyph glyph-name="four" unicode="4" horiz-adv-x="729" 
d="M652 393l31 -32v-62h-53l-34 36l-38 -36l31 -30v-40l-31 -29l31 -31v-33l-31 -29l31 -31v-76h-70l-31 31l-31 -31h-74v76l30 31l-30 28v34l30 31l-30 29v41l30 29l-37 37l-37 -37h-44v0l-37 37l-37 -37h-41l-33 33l-33 -33h-51v0h-15v63l29 30l-29 28v35l29 31l-29 28v42
l29 30l-29 28v35l29 31l-29 28v74h77l28 -27l28 27h73v-73l-31 -29l31 -31v-35l-31 -28l31 -31v-41l-31 -28l38 -38l41 39h38l36 -39l37 38l-30 28v42l30 30l-30 28v35l30 31l-30 28v74h77l28 -27l28 27h73v-73l-31 -29l31 -31v-35l-31 -28l31 -31v-41l-31 -28l38 -38l39 39
h48v-64zM632 456l-7 -31l32 7l6 32zM537 754l-7 -31l30 6l7 32zM422 227l23 24l-23 23v-47zM445 159l-23 22v-45zM423 298l27 -16l26 16l-26 17zM445 535l-23 22v-46zM422 610l23 22l-23 22v-44zM450 502l-27 -16l27 -16l26 16zM495 486l27 -16l26 16l-26 16zM518 391
l-33 83l-30 -83l30 -83zM485 496l33 82l-33 81l-30 -81zM485 289l-30 -82l30 -82l33 82zM495 298l27 -16l26 16l-26 17zM527 251l22 -24v47zM549 181l-22 -22l22 -23v45zM527 345l22 -23v45zM549 464l-22 -24l22 -23v47zM527 535l22 -24v46zM527 632l22 -22v44zM548 680
l-26 17l-27 -17l27 -17zM488 736l-11 -16l11 -17l11 17zM476 680l-26 17l-27 -17l27 -17zM407 761l7 -32l32 -6l-8 31zM425 453l-16 -26l16 -26l17 26zM342 457h-44l23 -23zM201 754l-7 -31l32 6l7 32zM191 632l23 -22v44zM214 557l-23 -22l23 -24v46zM213 680l-27 17
l-26 -17l26 -17zM183 578l-34 81l-29 -81l29 -82zM153 736l-11 -16l11 -17l11 17zM141 680l-27 17l-25 -17l25 -17zM88 610l21 22l-21 22v-44zM109 535l-21 22v-46zM72 761l7 -32l31 -6l-6 31zM109 440l-21 24v-47zM104 334l6 31l-31 -7l-7 -31zM89 486l25 -16l27 16l-27 16
zM149 354l34 37l-34 83l-29 -83zM160 486l26 -16l27 16l-27 16zM215 330l16 26l-16 26l-17 -26zM215 401l16 26l-16 26l-17 -26zM298 326h44l-21 23zM321 363l82 29l-82 32l-82 -32zM409 356l16 -26l17 26l-17 26zM438 25l8 31l-32 -6l-7 -32zM450 90l26 18l-26 16l-27 -16z
M488 49l11 16l-11 16l-11 -16zM495 108l27 -18l26 18l-26 16zM560 50l-30 6l7 -31l30 -7zM589 361l45 30l-45 32l-45 -32zM632 330l31 -7l-6 31l-32 7z" />
    <glyph glyph-name="A" unicode="A" 
d="M618 107l32 -33v-73h-77l-30 30l-29 -30h-69v77l28 29l-28 27v35l25 27l-30 33l-28 -31h-37l-26 26l-25 -26h-38l-27 31l-31 -33l23 -24v-38l-29 -27l29 -29v-78h-71l-33 31l-31 -31h-70v75l31 32l-31 30v32l31 31l-31 31v35l31 32l-31 31v33l31 32l-31 30v33l31 31
l-30 30c1 16 4 32 7 47l40 20l-19 39c11 23 24 44 40 63l36 -3l3 41c16 13 33 24 51 33l36 -17l18 39c19 5 38 9 58 11l25 -24l23 25c24 -1 49 -6 72 -13l18 -38l36 16c18 -9 35 -20 51 -33l3 -40l36 3c16 -19 29 -40 40 -64l-19 -38l39 -19c4 -16 6 -32 7 -49l-29 -29
l31 -30v-35l-31 -29l31 -31v-35l-31 -30l31 -31v-36l-32 -31l32 -32v-31zM614 554l-20 -26l26 -20zM349 368l27 27h21l39 -32l34 35l-25 25v39l26 27l-29 29c-3 10 -6 19 -10 27l8 31l-33 -5c-15 10 -32 14 -45 16l-18 23l-16 -24c-12 -2 -26 -7 -39 -15l-32 5l8 -30
c-5 -8 -9 -18 -11 -29l-29 -28l26 -26v-43l-22 -22l34 -35l38 32h22zM412 365h-46l23 -23zM364 332l-14 22l-13 -22l13 -22zM332 365h-46l23 -23zM87 225l23 22l-23 23v-45zM110 159l-23 23v-46zM238 549l-29 -14l14 -29zM212 622l5 -27l28 -7l-6 28zM212 486l-25 16
l-24 -16l24 -15zM216 465l-24 -23l24 -23v46zM182 392l-30 83l-33 -83l33 -84zM114 471l25 15l-25 16l-24 -16zM110 442l-23 23v-46zM110 345l-23 23v-47zM89 298l26 -17l27 17l-27 17zM151 290l-33 -82l33 -83l29 83zM161 298l27 -17l26 17l-26 17zM207 341l17 -27l17 27
l-17 28zM276 596l39 16l-27 11zM382 612l38 -16l-11 27zM577 392l-32 83l-31 -83l31 -84zM558 486l24 -15l25 15l-25 16zM509 471l25 15l-25 16l-25 -16zM504 442l-23 23v-46zM474 506l14 29l-30 14zM479 595l6 27l-28 -6l-5 -28zM474 369l-17 -28l17 -27l18 27zM509 315
l-27 -17l27 -17l27 17zM546 290l-32 -82l32 -83l30 83zM554 298l27 -17l27 17l-27 17zM586 247l23 -22v45zM609 182l-23 -23l23 -23v46zM586 345l23 -24v47zM586 442l23 -23v46zM569 655l-9 -31l31 -9zM568 574l-65 54v-73l42 -62zM529 648l7 26l-26 -5l-7 -26zM522 701
l-39 25l7 -32zM425 751l-45 9l18 -27zM438 701l-72 -5l52 -46l63 -2zM343 628l16 24l-14 24l-16 -23zM342 751l-14 -24l16 -24l14 25zM317 760l-46 -9l27 -18zM258 701l-43 -53l64 2l51 46zM214 726l-40 -25l32 -7zM187 669l-26 5l6 -26l26 -5zM193 628l-64 -54l22 -81
l43 62zM128 655l-23 -40l32 9zM76 508l26 20l-20 26zM101 31l7 31l-31 -7l-7 -31zM88 108l27 -17l26 17l-26 17zM149 54l10 17l-10 17l-11 -17zM159 108l27 -17l26 17l-26 17zM190 159l23 -23v46zM223 55l-32 7l7 -31l32 -7zM224 224l17 27l-17 27l-17 -27zM286 230h46
l-23 23zM282 261l53 34l-53 33l-51 -34zM350 238l14 22l-14 22l-13 -22zM366 230h46l-23 23zM412 261l53 34l-53 33l-53 -33zM457 251l17 -27l18 27l-18 27zM505 159l-22 23v-46zM497 31l7 31l-32 -7l-7 -31zM484 108l26 -17l26 17l-26 17zM544 54l11 17l-11 17l-10 -17z
M555 108l26 -17l27 17l-27 17zM594 31l31 -7l-7 31l-31 7z" />
    <glyph glyph-name="space" unicode=" " horiz-adv-x="389" 
 />
    <glyph glyph-name="a" unicode="a" 
d="M618 107l32 -33v-73h-77l-30 30l-29 -30h-69v77l28 29l-28 27v35l25 27l-30 33l-28 -31h-37l-26 26l-25 -26h-38l-27 31l-31 -33l23 -24v-38l-29 -27l29 -29v-78h-71l-33 31l-31 -31h-70v75l31 32l-31 30v32l31 31l-31 31v35l31 32l-31 31v33l31 32l-31 30v33l31 31
l-30 30c1 16 4 32 7 47l40 20l-19 39c11 23 24 44 40 63l36 -3l3 41c16 13 33 24 51 33l36 -17l18 39c19 5 38 9 58 11l25 -24l23 25c24 -1 49 -6 72 -13l18 -38l36 16c18 -9 35 -20 51 -33l3 -40l36 3c16 -19 29 -40 40 -64l-19 -38l39 -19c4 -16 6 -32 7 -49l-29 -29
l31 -30v-35l-31 -29l31 -31v-35l-31 -30l31 -31v-36l-32 -31l32 -32v-31zM614 554l-20 -26l26 -20zM349 368l27 27h21l39 -32l34 35l-25 25v39l26 27l-29 29c-3 10 -6 19 -10 27l8 31l-33 -5c-15 10 -32 14 -45 16l-18 23l-16 -24c-12 -2 -26 -7 -39 -15l-32 5l8 -30
c-5 -8 -9 -18 -11 -29l-29 -28l26 -26v-43l-22 -22l34 -35l38 32h22zM412 365h-46l23 -23zM364 332l-14 22l-13 -22l13 -22zM332 365h-46l23 -23zM87 225l23 22l-23 23v-45zM110 159l-23 23v-46zM238 549l-29 -14l14 -29zM212 622l5 -27l28 -7l-6 28zM212 486l-25 16
l-24 -16l24 -15zM216 465l-24 -23l24 -23v46zM182 392l-30 83l-33 -83l33 -84zM114 471l25 15l-25 16l-24 -16zM110 442l-23 23v-46zM110 345l-23 23v-47zM89 298l26 -17l27 17l-27 17zM151 290l-33 -82l33 -83l29 83zM161 298l27 -17l26 17l-26 17zM207 341l17 -27l17 27
l-17 28zM276 596l39 16l-27 11zM382 612l38 -16l-11 27zM577 392l-32 83l-31 -83l31 -84zM558 486l24 -15l25 15l-25 16zM509 471l25 15l-25 16l-25 -16zM504 442l-23 23v-46zM474 506l14 29l-30 14zM479 595l6 27l-28 -6l-5 -28zM474 369l-17 -28l17 -27l18 27zM509 315
l-27 -17l27 -17l27 17zM546 290l-32 -82l32 -83l30 83zM554 298l27 -17l27 17l-27 17zM586 247l23 -22v45zM609 182l-23 -23l23 -23v46zM586 345l23 -24v47zM586 442l23 -23v46zM569 655l-9 -31l31 -9zM568 574l-65 54v-73l42 -62zM529 648l7 26l-26 -5l-7 -26zM522 701
l-39 25l7 -32zM425 751l-45 9l18 -27zM438 701l-72 -5l52 -46l63 -2zM343 628l16 24l-14 24l-16 -23zM342 751l-14 -24l16 -24l14 25zM317 760l-46 -9l27 -18zM258 701l-43 -53l64 2l51 46zM214 726l-40 -25l32 -7zM187 669l-26 5l6 -26l26 -5zM193 628l-64 -54l22 -81
l43 62zM128 655l-23 -40l32 9zM76 508l26 20l-20 26zM101 31l7 31l-31 -7l-7 -31zM88 108l27 -17l26 17l-26 17zM149 54l10 17l-10 17l-11 -17zM159 108l27 -17l26 17l-26 17zM190 159l23 -23v46zM223 55l-32 7l7 -31l32 -7zM224 224l17 27l-17 27l-17 -27zM286 230h46
l-23 23zM282 261l53 34l-53 33l-51 -34zM350 238l14 22l-14 22l-13 -22zM366 230h46l-23 23zM412 261l53 34l-53 33l-53 -33zM457 251l17 -27l18 27l-18 27zM505 159l-22 23v-46zM497 31l7 31l-32 -7l-7 -31zM484 108l26 -17l26 17l-26 17zM544 54l11 17l-11 17l-10 -17z
M555 108l26 -17l27 17l-27 17zM594 31l31 -7l-7 31l-31 7z" />
    <glyph glyph-name="b" unicode="b" horiz-adv-x="701" 
d="M152 29l-29 -28h-73v75l30 30l-30 29v35l30 30l-30 29v40l30 31l-30 29v34l30 30l-30 29v34l30 30l-30 29v41l30 30l-30 29v35l30 30l-30 29v74h73l29 -29l30 29h54l29 -29l30 29h57l29 -29l30 29c17 -1 34 -3 49 -7l14 -39l42 20c10 -5 20 -11 29 -17l3 -42l44 1
c9 -10 17 -21 24 -32l-15 -41l41 -17c5 -16 8 -31 9 -47l-23 -24l22 -24c-2 -18 -5 -35 -11 -53l-28 -11l8 -32l-39 -27l37 -27c1 -2 3 -4 4 -6l-8 -30l26 -11c6 -15 9 -30 11 -45l-24 -27l24 -25c-2 -17 -6 -35 -12 -53l-37 -15l12 -35c-8 -13 -18 -26 -29 -38l-36 1
l-3 -34c-12 -8 -25 -15 -38 -21l-34 15l-17 -33c-15 -3 -30 -5 -46 -6l-29 28l-29 -29h-57l-30 29l-29 -29h-1v1h-54zM451 593l-35 -13h-1l-33 32l-33 -30h-53l-32 32l-37 -36l22 -23v-66h67l28 -29l30 29h15c6 0 12 1 17 2l36 -14l-2 31c2 2 3 4 4 6l21 23l-17 18
c0 1 -1 3 -1 4zM410 610l26 -5l-8 19zM451 193l-8 32c1 1 2 2 2 3l18 21l-22 18c-1 2 -3 4 -6 6l6 30l-39 -17c-2 1 -4 1 -7 1h-18l-33 32l-31 -32h-64v-59l-22 -23l37 -36l32 32h53l33 -30l36 34zM344 177h-45l23 -23zM278 135l-14 22l-14 -22l14 -22zM216 558l-23 -23
l23 -23v46zM209 592l32 32h-32v-32zM285 423l-50 -34l50 -33l53 33zM260 462l23 -23l23 23h-46zM331 426l14 -21l14 21l-14 22zM359 355l-14 21l-14 -21l14 -22zM307 313l-23 23l-22 -23h45zM241 347l-25 23l-23 -22l23 -23zM216 418l25 22l-25 24l-23 -23zM215 486l-27 17
l-26 -17l26 -16zM183 391l-30 83l-32 -83l32 -82zM144 299l-27 17l-26 -17l26 -16zM153 290l-32 -82l32 -83l30 83zM162 299l26 -16l27 16l-27 17zM216 274l-23 -23l23 -23v46zM209 191v-32h32zM378 313h45l-23 23zM451 314h26l11 23h-26zM485 178l-24 7l4 -25l24 -7z
M488 248l21 -13l22 13l-21 14zM507 289l55 -30l5 61l-57 26zM538 367l18 27l-17 27l-18 -27zM512 442l54 24l-5 58l-53 -28zM509 524l22 13l-21 14l-22 -13zM504 393l-65 29l-82 -29l82 -33zM376 462l23 -23l23 23h-46zM462 447l26 -1l-11 24h-26zM481 609l3 21l-20 -6
l-4 -21zM299 606h45l-22 23zM383 626l13 22l-13 22l-14 -22zM321 652l50 31l-50 31l-49 -31zM278 648l-14 22l-14 -22l14 -22zM204 649l53 34l-53 33l-47 -33zM183 578l-30 83l-32 -83l32 -82zM144 486l-27 17l-26 -17l26 -16zM112 535l-22 23v-46zM90 607l22 22l-22 23v-45
zM112 441l-22 23v-46zM112 345l-22 23v-46zM112 251l-22 23v-46zM112 159l-22 23v-46zM116 115l-23 -15l23 -14l24 14zM150 42l14 21l-14 22l-14 -22zM183 27h46l-23 23zM204 67l53 33l-53 34l-47 -34zM264 42l14 21l-14 22l-14 -22zM299 27h46l-23 23zM321 72l45 28l-45 29
l-45 -29zM383 42l13 21l-13 22l-14 -22zM383 113l13 22l-13 22l-14 -22zM406 33l45 5l-25 20zM456 85l36 45l-57 12l-38 -39zM493 54l34 19l-30 11zM519 102l24 -7l-4 25l-24 8zM510 149l57 26l-5 60l-55 -29zM568 103l23 32l-32 -3zM612 183l8 38l-28 -15zM617 302l-18 -20
l22 -13zM613 245l-17 11l-18 -10l18 -11zM590 338l-13 28l-10 -24zM574 413l14 28l-24 -5zM577 538l19 -12l18 12l-18 12zM617 481l4 33l-22 -12zM612 600l-20 -22l28 -15zM568 680l-9 -28l32 -3zM567 611l-56 25l-4 -56l55 -29zM535 666l3 21l-20 -6l-4 -21zM527 711
l-34 19l4 -30zM493 653l-36 50l-62 -20l40 -40zM451 746l-45 5l20 -25zM383 742l-14 -22l14 -22l13 22zM345 756h-46l23 -23zM264 742l-14 -22l14 -22l14 22zM229 756h-46l23 -23zM150 742l-14 -22l14 -22l14 22zM140 683l-24 14l-23 -14l23 -15zM77 761l7 -32l31 -7l-7 32z
M108 29l7 32l-31 -7l-7 -32z" />
    <glyph glyph-name="c" unicode="c" horiz-adv-x="685" 
d="M643 570c6 -24 9 -49 9 -77h-45l-24 22l-22 -22h-35l-24 22l-23 -22h-36c0 22 -4 38 -11 51l6 37l-34 -6c-15 11 -33 15 -45 17l-20 21l-16 -22c-12 -2 -27 -7 -40 -16l-33 6l8 -31c-5 -8 -8 -17 -11 -28l-29 -29l26 -26v-43l-26 -25l26 -26v-47l-26 -25l30 -31
c4 -16 9 -28 16 -39l-8 -30l31 6c14 -10 29 -15 42 -17l17 -21l19 23c12 2 25 6 37 14l30 -5l-4 35c9 15 15 35 15 64h32l27 -27l29 27h25l27 -27l29 27h40c0 -31 -3 -59 -10 -86l-44 -22l22 -41c-11 -21 -24 -41 -39 -59l-42 3l-3 -45c-15 -12 -32 -22 -49 -31l-39 19
l-19 -40c-21 -6 -41 -10 -62 -11l-25 25l-25 -25c-20 2 -39 6 -58 11l-19 40l-38 -18c-18 9 -35 20 -50 33l-3 42l-39 -3c-16 18 -29 40 -41 62l21 38l-43 22c-5 18 -8 37 -10 58l29 31l-31 30v33l31 32l-31 30v33l31 31l-30 30c1 16 4 32 7 47l41 21l-20 38
c11 22 25 43 41 62l38 -3l3 41c16 13 33 24 51 33l38 -17l18 39c19 5 39 9 59 11l25 -24l24 25c25 -1 50 -5 74 -13l18 -38l37 17c18 -9 36 -20 52 -33l3 -41l37 3c16 -19 30 -40 41 -63l-19 -37zM423 755l-46 9l18 -28zM337 755l-14 -25l16 -23l15 24zM311 764l-46 -9
l28 -19zM206 729l-39 -24l32 -7zM100 446l-23 24v-47zM79 490l25 -15l25 15l-25 16zM100 349l-23 23v-47zM105 319l-27 -16l27 -17l28 17zM109 396l35 -84l30 84l-30 83zM180 319l-27 -16l27 -17l27 17zM185 349l24 -24v47zM185 446l24 -23v47zM180 475l25 15l-25 16
l-25 -16zM179 672l-26 5l6 -26l27 -4zM185 631l-66 -52l24 -82l43 63zM118 658l-23 -40l32 9zM65 512l27 21l-21 25zM77 224l20 25l-26 21zM124 124l9 31l-32 9zM125 203l66 -52l1 71l-47 64zM165 131l-7 -26l27 5l7 25zM172 77l40 -24l-7 31zM271 27l46 -9l-19 28zM344 27
l16 24l-15 24l-17 -23zM371 18l46 9l-28 19zM626 269l-28 -16l16 -28zM587 164l-32 -9l9 -31zM551 267l-50 -40l1 -68l63 43zM523 131l-27 4l7 -25l26 -5zM516 77l-33 7l-7 -31zM468 264l-11 -40l26 16zM472 184l-28 5l6 -26l28 -7zM474 131l-65 -2l-52 -47l73 -5zM412 183
l-39 -16l27 -12zM345 150l-16 -23l17 -24l15 24zM315 167l-39 16l11 -28zM278 129l-64 2l44 -54l73 5zM238 163l6 26l-28 -5l-6 -28zM222 272l-15 -29l30 -15zM216 510l15 44l-30 -15zM210 598l28 -5l-6 26l-28 7zM208 651l65 2l52 47l-73 5zM270 599l39 16l-27 11zM339 632
l17 23l-16 24l-16 -24zM379 615l39 -16l-12 27zM415 653l65 -2l-44 54l-73 -5zM468 524l15 25l-26 15zM478 598l5 28l-27 -7l-6 -26zM481 729l8 -31l32 7zM535 677l-26 -5l-7 -25l26 4zM551 521l14 65l-63 43l-1 -68zM561 627l32 -9l-23 40zM614 563l-16 -28l28 -16z" />
    <glyph glyph-name="d" unicode="d" horiz-adv-x="701" 
d="M152 31l-29 -29h-73v75l30 31l-30 29v34l30 30l-30 29v40l30 31l-30 29v34l30 30l-30 30v33l30 31l-30 29v40l30 31l-30 29v34l30 30l-30 29v74h73l29 -29l30 29h54l29 -29l30 29h54h5l28 -28l26 23c16 -3 31 -7 47 -12l12 -33l35 13c14 -7 28 -15 41 -25l3 -44l41 3
c15 -17 28 -38 39 -60l-19 -36l38 -18c4 -16 6 -32 8 -50l-28 -26l29 -28v-37l-29 -27l29 -28v-37l-29 -27l27 -27c-2 -21 -6 -41 -11 -60l-40 -19l20 -37c-11 -23 -25 -44 -40 -62l-38 3l-3 -42c-12 -9 -24 -18 -37 -25l-36 14l-14 -37c-13 -5 -27 -9 -41 -11l-30 26
l-33 -33h-1h-49l-34 34l-30 -31v2h-54zM363 608l-29 -27h-35l-35 34l-37 -36l22 -22v-43l-24 -24l24 -27v-39l-30 -29l30 -33v-36l-27 -27l27 -29v-41l-22 -23l37 -36l30 30h45l24 -22l14 26c9 2 18 5 27 11l32 -6l-8 28c8 11 15 24 18 42l28 27l-24 22v50l24 23l-24 22v46
l24 23l-27 24c-3 13 -8 23 -14 31l3 30l-35 -6c-7 3 -15 5 -21 6zM299 614h45l-22 22zM371 622l17 20l-11 23l-16 -19zM412 617l-28 -11l40 -15zM591 352l23 -23v45zM613 307l-27 16l-28 -16l28 -17zM591 446l23 -22v45zM587 474l25 15l-25 15l-25 -15zM582 397l-34 82
l-30 -82l30 -81zM455 235l30 14l-15 28zM482 164l-6 27l-28 7l6 -27zM507 352l-24 22v-45zM483 424l24 22l-24 23v-45zM485 307l27 -17l27 17l-27 16zM512 474l25 15l-25 15l-25 -15zM476 508l15 29l-30 13zM483 597l5 27l-28 -6l-5 -27zM384 180l28 -11l12 26zM388 144
l-17 20l-10 -24l16 -19zM344 172h-45l23 -22zM278 136l-14 22l-14 -22l14 -22zM216 559l-23 -23l23 -23v46zM209 593l32 32h-32v-32zM193 441l23 -23v46zM216 369l-23 -23l23 -23v46zM215 488l-27 16l-26 -16l26 -17zM183 393l-30 82l-32 -82l32 -83zM144 301l-27 16
l-26 -16l26 -17zM153 291l-32 -82l32 -83l30 83zM162 301l26 -17l27 17l-27 16zM216 275l-23 -23l23 -23v46zM209 192v-32h32zM264 628l14 21l-14 22l-14 -22zM204 651l53 33l-53 33l-47 -33zM183 579l-30 83l-32 -83l32 -82zM144 488l-27 16l-26 -16l26 -17zM112 536
l-22 23v-46zM90 608l22 22l-22 23v-45zM112 442l-22 23v-46zM112 346l-22 23v-46zM112 252l-22 23v-46zM112 160l-22 23v-46zM116 116l-23 -14l23 -15l24 15zM150 43l14 21l-14 22l-14 -22zM183 29h46l-23 22zM204 68l53 33l-53 34l-47 -34zM264 43l14 21l-14 22l-14 -22z
M299 29h46l-23 22zM321 70l47 37l-49 28l-50 -34zM387 51l11 24l-17 19l-10 -23zM403 39l44 13l-25 13zM450 94l34 50l-58 3l-36 -39zM477 63l40 24l-33 7zM507 120l27 -5l-7 25l-27 5zM501 159l65 52l-19 80l-47 -62zM567 133l23 39l-32 -9zM614 231l6 44l-26 -19zM620 555
l-21 -25l27 -20zM573 653l-9 -31l32 -9zM572 574l-65 52l-1 -70l43 -61zM527 646l7 25l-27 -5l-7 -25zM519 696l-40 24l7 -31zM484 642l-34 50l-60 -15l36 -38zM447 734l-44 13l19 -26zM387 735l-16 -20l10 -23l17 19zM368 679l-47 37l-52 -31l50 -34zM345 757h-46l23 -22z
M264 743l-14 -22l14 -22l14 22zM229 757h-46l23 -23zM150 743l-14 -22l14 -22l14 22zM140 684l-24 15l-23 -15l23 -15zM77 762l7 -31l31 -8l-7 32zM108 30l7 32l-31 -7l-7 -32z" />
    <glyph glyph-name="e" unicode="e" horiz-adv-x="641" 
d="M562 98l31 -30v-68h-64l-30 29l-28 -29h-60l-30 29l-29 -29h-57l-30 29l-28 -29h-56l-29 29l-29 -29h-73v76l30 30l-30 29v35l30 30l-30 29v40l30 30l-30 29v35l30 30l-30 29v34l30 30l-30 29v41l30 30l-30 29v35l30 30l-30 29v74h73l29 -30l30 30h54l29 -30l30 30h57
l29 -30l30 30h60l28 -30l30 30h64v-68l-31 -31l31 -34v-69h-62l-32 31l-30 -31h-55l-32 31l-34 -31h-51l-33 33l-37 -36l22 -23v-66h67l28 -29l30 29h52l28 -29l30 29h57v-66l-30 -29l30 -31v-76h-55l-32 31l-30 -31h-48l-32 31l-30 -31h-65v-60l-22 -22l37 -36l33 33h51
l34 -31l32 31h55l30 -31l32 31h62v-69zM539 175l-7 -31l31 7l7 31zM500 156l-14 -21l14 -22l13 22zM493 100l-53 33l-53 -33l53 -33zM462 176h-45l22 -22zM383 156l-14 -21l14 -22l13 22zM374 100l-53 33l-52 -33l52 -33zM344 176h-45l23 -22zM264 156l-14 -21l14 -22l14 22
zM90 228l22 23l-22 22v-45zM112 159l-22 22v-45zM188 283l27 16l-27 17l-26 -17zM216 273l-23 -22l23 -23v45zM153 309l30 82l-30 82l-32 -82zM162 486l26 -16l27 16l-27 17zM193 535l23 -23v46zM157 683l47 -34l53 34l-53 33zM183 578l-30 82l-32 -82l32 -82zM144 486
l-27 17l-26 -17l26 -16zM112 535l-22 23v-46zM90 606l22 23l-22 23v-46zM112 441l-22 22v-45zM112 345l-22 23v-46zM91 299l26 -16l27 16l-27 17zM153 290l-32 -83l32 -82l30 82zM204 133l-47 -33l47 -33l53 33zM241 159l-32 32v-32h32zM216 325l25 22l-25 23l-23 -23z
M262 313h45l-23 23zM345 333l14 21l-14 22l-14 -22zM348 389l53 -33l53 33l-53 34zM377 313h46l-23 23zM455 333l14 21l-14 22l-14 -22zM516 338l-31 8l7 -32l31 -7zM492 460l-7 -31l31 7l7 31zM500 391l-17 11l-17 -11l17 -11zM455 448l-14 -22l14 -21l14 21zM421 462h-45
l23 -23zM345 448l-14 -22l14 -21l14 21zM306 462h-46l23 -23zM285 423l-50 -34l50 -33l53 33zM241 440l-25 23l-23 -22l23 -23zM209 592l32 32h-32v-32zM264 626l14 22l-14 21l-14 -21zM269 683l52 -34l53 34l-53 33zM299 606h45l-22 23zM383 626l13 22l-13 21l-14 -21z
M387 683l53 -34l53 34l-53 33zM417 606h45l-23 23zM500 626l13 22l-13 21l-14 -21zM563 632l-31 7l7 -31l31 -8zM539 754l-7 -32l31 7l7 32zM547 684l-17 11l-17 -11l17 -10zM500 741l-14 -21l14 -22l13 22zM461 755h-46l23 -22zM383 741l-14 -21l14 -22l13 22zM345 755h-46
l23 -22zM264 741l-14 -21l14 -22l14 22zM229 755h-46l23 -22zM150 741l-14 -21l14 -22l14 22zM140 682l-24 15l-23 -15l23 -14zM77 761l7 -32l31 -7l-7 32zM108 29l7 31l-31 -7l-7 -31zM93 100l23 -15l24 15l-24 15zM150 41l14 22l-14 22l-14 -22zM183 27h46l-23 23zM264 41
l14 22l-14 22l-14 -22zM299 27h46l-23 23zM383 41l13 22l-13 22l-14 -22zM415 27h46l-23 23zM500 41l13 22l-13 22l-14 -22zM513 98l17 -10l17 10l-17 11zM539 29l31 -7l-7 31l-31 7z" />
    <glyph glyph-name="f" unicode="f" horiz-adv-x="641" 
d="M562 684l31 -34v-70h-62l-32 32l-30 -32h-55l-32 32l-34 -32h-51l-33 34l-37 -36l28 -29v-35l-30 -28l30 -31v-25h42l28 -29l30 29h52l28 -29l30 29h57v-66l-30 -29l30 -31v-76h-55l-32 32l-30 -32h-48l-32 32l-30 -32h-33v8l-37 -36l30 -31v-34l-30 -29l30 -30v-76h-74
l-31 31l-30 -31h-70v76l30 30l-30 29v34l30 31l-30 29v40l30 30l-30 29v34l30 31l-30 29v34l30 30l-30 29v40l30 31l-30 29v34l30 31l-30 29v74h73l29 -30l30 30h54l29 -30l30 29h57l29 -29l30 29h60l28 -29l30 29h64v-68zM539 753l-7 -31l31 7l7 31zM500 741l-14 -22
l14 -21l13 21zM493 682l-53 34l-53 -34l53 -33zM461 755h-46l23 -23zM383 741l-14 -22l14 -21l13 21zM374 682l-53 34l-52 -34l52 -33zM345 755h-46l23 -23zM264 741l-14 -22l14 -21l14 21zM193 250l23 -23v46zM216 181l-23 -23l23 -23v46zM188 282l27 17l-27 16l-26 -16z
M90 227l22 23l-22 23v-46zM112 158l-22 23v-46zM162 486l26 -17l27 17l-27 16zM183 391l-30 82l-32 -82l32 -82zM153 495l30 83l-30 82l-32 -82zM144 486l-27 16l-26 -16l26 -17zM112 534l-22 23v-45zM90 606l22 23l-22 23v-46zM112 440l-22 23v-46zM112 344l-22 23v-45z
M91 299l26 -17l27 17l-27 16zM153 289l-32 -82l32 -82l30 82zM216 463l-23 -23l23 -23v46zM193 534l23 -22v45zM157 682l47 -33l53 33l-53 34zM229 755h-46l23 -23zM150 741l-14 -22l14 -21l14 21zM140 682l-24 15l-23 -15l23 -15zM77 760l7 -31l31 -7l-7 31zM102 24l7 32
l-31 -7l-7 -32zM91 107l26 -16l27 16l-27 17zM150 47l11 17l-11 17l-11 -17zM162 107l26 -16l27 16l-27 17zM231 17l-7 32l-32 7l8 -32zM216 330l50 -33l53 33l-53 34zM243 254h45l-23 23zM326 274l13 22l-13 21l-14 -21zM329 330l53 -33l53 33l-53 34zM358 254h46l-23 23z
M436 274l14 22l-14 21l-14 -21zM497 280l-31 7l7 -32l31 -7zM473 401l-7 -31l31 7l7 31zM481 332l-17 11l-17 -11l17 -11zM436 389l-14 -22l14 -21l14 21zM402 403h-45l23 -23zM326 389l-14 -22l14 -21l13 21zM287 403h-46l23 -23zM225 367l-13 22l-14 -22l14 -21zM209 591
l32 32h-32v-32zM264 626l14 21l-14 22l-14 -22zM299 606h45l-22 23zM383 626l13 21l-13 22l-14 -22zM417 606h45l-23 23zM500 626l13 21l-13 22l-14 -22zM513 684l17 -11l17 11l-17 11zM539 611l31 -7l-7 31l-31 7z" />
    <glyph glyph-name="g" unicode="g" horiz-adv-x="710" 
d="M652 568c6 -25 9 -50 9 -77h-45l-24 22l-22 -22h-34l-24 22l-23 -22h-36c0 21 -4 38 -11 50l6 38l-34 -6c-15 10 -33 15 -45 16l-19 23l-16 -24c-12 -2 -27 -6 -40 -15l-33 6l8 -32c-5 -8 -8 -16 -11 -28l-29 -28l26 -26v-43l-26 -25l26 -27v-46l-26 -25l30 -31
c4 -16 9 -28 16 -39l-8 -30l31 5c14 -10 29 -14 42 -16l16 -23l19 24c12 3 25 7 37 15l30 -5l-4 35c6 10 10 22 13 37l26 27l-27 27l-35 -37h-45v45l31 30l-31 32v39h44l33 -33l35 33h41l33 -33l34 33h72v-108l-29 -27l27 -27c-1 -22 -4 -41 -9 -60l-44 -22l22 -42
c-11 -21 -24 -42 -40 -60l-40 3l-3 -44c-15 -12 -32 -22 -49 -31l-39 19l-19 -41c-21 -5 -41 -9 -62 -10l-24 24l-25 -24c-20 2 -39 5 -58 11l-19 40l-38 -18c-18 9 -35 20 -50 32l-3 42l-38 -3c-16 19 -29 40 -41 63l21 39l-43 21c-5 19 -8 38 -10 59l29 31l-31 29v33
l31 33l-31 30v33l31 31l-30 30c1 16 4 32 7 47l41 20l-20 39c11 24 25 44 41 63l37 -3l3 41c16 13 33 24 51 33l38 -17l18 38c19 6 39 10 59 12l25 -24l23 25c25 -1 50 -6 74 -13l18 -38l37 17c18 -10 36 -21 52 -34l3 -40l36 3c16 -19 30 -40 41 -64l-19 -38zM433 754
l-46 9l18 -28zM348 754l-14 -25l16 -23l14 24zM322 763l-46 -9l28 -19zM217 728l-39 -24l32 -8zM112 444l-23 23v-47zM91 488l25 -15l25 15l-25 16zM112 347l-23 22v-46zM117 317l-27 -17l27 -17l28 17zM121 394l34 -85l30 85l-30 83zM191 317l-27 -17l27 -17l27 17z
M196 347l24 -24v46zM196 444l24 -24v47zM191 473l25 15l-25 16l-25 -16zM190 670l-26 6l6 -26l27 -5zM196 630l-65 -54l23 -81l43 62zM130 657l-23 -41l32 10zM77 510l27 20l-21 26zM89 221l20 26l-26 20zM136 121l9 31l-32 9zM137 201l65 -53l1 72l-47 64zM176 128l-7 -26
l27 5l7 25zM183 74l40 -25l-7 32zM282 24l46 -10l-19 28zM354 24l16 24l-15 23l-16 -23zM381 14l46 10l-28 18zM486 49l40 25l-33 7zM513 107l26 -5l-6 26l-27 4zM496 297l24 -14l24 16l-24 13zM512 156l62 44l-14 77l-49 -53zM572 300l23 -15l23 14l-23 14zM573 121l23 40
l-32 -9zM635 267l-28 -17l16 -28zM630 339l7 31l-31 -7l-7 -31zM642 409l-47 1l23 -24zM556 385l-24 -38l24 -34l25 34zM396 395l20 -5l-5 20l-19 4zM411 316l5 19l-20 -4l-4 -20zM437 351l23 13l-22 15l-23 -14zM523 409l-47 1l24 -24zM477 370l7 -31l32 -7l-8 31zM478 262
l-11 -40l26 15zM482 181l-28 6l6 -27l28 -7zM484 128l-65 -2l-52 -47l73 -5zM422 179l-39 -15l27 -12zM355 147l-15 -24l16 -24l15 25zM326 164l-39 15l11 -27zM289 126l-64 2l44 -54l73 5zM249 160l6 27l-28 -6l-6 -28zM233 270l-15 -29l30 -15zM227 508l15 43l-30 -14z
M221 596l28 -6l-6 27l-28 7zM219 650l65 1l52 47l-73 6zM281 598l39 15l-27 12zM350 630l16 23l-15 25l-16 -24zM389 613l39 -15l-12 27zM425 651l65 -1l-44 54l-73 -6zM478 522l15 24l-26 15zM488 596l5 28l-27 -7l-6 -27zM491 728l8 -32l32 8zM545 676l-26 -6l-7 -25l26 5
zM560 518l14 66l-62 43l-1 -68zM570 626l32 -10l-23 41zM623 561l-16 -28l28 -17z" />
    <glyph glyph-name="h" unicode="h" horiz-adv-x="760" 
d="M224 106l30 -30v-76h-74l-31 31l-30 -31h-70v76l30 30l-30 29v34l30 31l-30 29v40l30 30l-30 29v34l30 31l-30 29v34l30 30l-30 29v40l30 31l-30 29v34l30 31l-30 29v74h73l27 -28l28 28h77v-75l-30 -28l30 -31v-34l-30 -29l30 -30v-66h42l28 -30l30 30h52l28 -30l30 30
h42v66l29 30l-29 29v34l29 31l-29 28v75h77l28 -28l26 28h74v-74l-30 -29l30 -31v-34l-30 -29l30 -31v-40l-30 -29l30 -30v-34l-30 -29l30 -31v-34l-30 -29l30 -30v-40l-30 -29l30 -31v-34l-30 -29l30 -30v-76h-70l-30 31l-32 -31h-73v76l29 30l-29 29v34l29 31l-29 29v59
h-40l-32 31l-30 -31h-48l-32 31l-30 -31h-40v-59l-30 -29l30 -31v-34zM242 313h45l-23 23zM325 333l13 22l-13 21l-14 -21zM328 389l53 -33l53 33l-53 34zM357 313h46l-23 23zM435 333l14 22l-14 21l-14 -21zM474 313h46l-23 23zM561 32l7 31l-31 -7l-7 -31zM671 557
l-23 -23l23 -22v45zM648 632l23 -22v45zM599 299l-27 16l-26 -16l26 -17zM578 391l29 -82l32 82l-32 82zM607 289l-29 -82l29 -82l32 82zM617 299l26 -17l27 17l-27 16zM648 250l23 -23v46zM671 181l-23 -23l23 -23v46zM648 344l23 -22v45zM648 440l23 -23v46zM670 486
l-27 16l-26 -16l26 -17zM607 495l32 83l-32 82l-29 -82zM599 486l-27 16l-26 -16l26 -17zM567 534l-22 23v-45zM545 610l22 22l-22 23v-45zM567 440l-22 23v-46zM545 322l22 22l-22 23v-45zM567 250l-22 23v-46zM567 158l-22 23v-46zM572 91l27 16l-27 17l-26 -17zM611 47
l10 17l-10 17l-11 -17zM617 107l26 -16l27 16l-27 17zM683 56l-32 7l7 -31l32 -7zM658 755l-7 -32l32 7l7 32zM670 680l-27 17l-26 -17l26 -16zM611 737l-11 -17l11 -17l10 17zM599 680l-27 17l-26 -17l26 -16zM530 762l7 -32l31 -7l-7 32zM551 389l-53 34l-53 -34l53 -33z
M518 462h-45l23 -22zM435 448l-14 -21l14 -22l14 22zM401 462h-45l23 -22zM325 448l-14 -21l14 -22l13 22zM286 462h-46l23 -22zM265 423l-53 -34l53 -33l53 33zM89 227l22 23l-22 23v-46zM111 158l-22 23v-46zM215 557l-23 -23l23 -22v45zM192 632l23 -22v45zM214 486
l-27 16l-26 -16l26 -17zM215 463l-23 -23l23 -23v46zM182 391l-30 82l-32 -82l32 -82zM152 495l30 83l-30 82l-32 -82zM143 486l-27 16l-26 -16l26 -17zM111 534l-22 23v-45zM89 610l22 22l-22 23v-45zM111 440l-22 23v-46zM111 344l-22 23v-45zM90 299l26 -17l27 17l-27 16
zM152 289l-32 -82l32 -82l30 82zM161 299l26 -17l27 17l-27 16zM192 250l23 -23v46zM215 181l-23 -23l23 -23v46zM192 344l23 -22v45zM199 755l-8 -32l32 7l7 32zM187 697l-26 -17l26 -16l27 16zM149 737l-11 -17l11 -17l11 17zM143 680l-27 17l-26 -17l26 -16zM77 730
l31 -7l-7 32l-31 7zM101 32l7 31l-31 -7l-7 -31zM90 107l26 -16l27 16l-27 17zM149 47l11 17l-11 17l-11 -17zM161 107l26 -16l27 16l-27 17zM199 32l31 -7l-7 31l-32 7z" />
    <glyph glyph-name="i" unicode="i" horiz-adv-x="726" 
d="M82 688l-32 31v65h58l27 -28l29 28h58l27 -28l28 28h59l27 -28l29 28h57l28 -28l28 28h59l27 -28l28 28h56v-66l-31 -30l31 -32v-67h-53l-31 31l-30 -31h-53l-31 31l-36 -37l22 -24v-49l-25 -25l25 -26v-42l-25 -25l25 -26v-43l-25 -25l25 -26v-45l-22 -24l36 -37l29 29
h57l28 -29l29 29h55v-66l-31 -31l31 -31v-67h-54l-30 30l-30 -30h-54l-30 30l-30 -30h-53l-31 30l-29 -30h-55l-30 30l-29 -30h-54l-31 30l-29 -30h-56v67l32 31l-32 32v65h57l28 -29l30 29h56l28 -29l37 37l-28 34v31l30 30l-30 29v35l30 30l-30 29v34l30 30l-30 29v34
l28 35l-37 37l-30 -31h-52l-32 31l-30 -31h-55v67zM100 614l7 32l-32 -7l-7 -32zM137 631l13 22l-13 22l-14 -22zM137 688l53 -34l53 34l-53 33zM168 618h46l-23 23zM249 631l13 22l-13 22l-14 -22zM393 580l-30 82l-32 -82l32 -83zM368 688l53 -34l52 34l-52 33zM363 127
l30 82l-30 82l-32 -82zM421 131l-53 -33l53 -34l52 34zM358 98l-53 33l-53 -33l53 -34zM327 471l27 17l-27 16l-26 -16zM363 475l-32 -82l32 -82l30 82zM300 514l23 22l-23 23v-45zM323 442l-23 23v-46zM323 346l-23 23v-45zM301 301l26 -17l27 17l-27 16zM323 252l-23 23
v-46zM372 301l27 -17l26 17l-26 16zM426 275l-23 -23l23 -23v46zM403 346l23 -22v45zM403 442l23 -23v46zM425 488l-26 16l-27 -16l27 -17zM403 536l23 -22v45zM305 654l53 34l-53 33l-53 -33zM284 618h45l-22 23zM329 168h-45l23 -23zM249 154l-14 -22l14 -21l13 21z
M243 98l-53 33l-53 -33l53 -34zM214 168h-46l23 -23zM137 154l-14 -22l14 -21l13 21zM75 147l32 -7l-7 31l-32 7zM99 25l8 32l-32 -7l-7 -32zM98 99l17 -10l17 10l-17 11zM137 39l13 22l-13 21l-14 -21zM168 28h46l-23 22zM249 39l13 22l-13 21l-14 -21zM284 28h45l-22 22z
M364 39l13 22l-13 21l-14 -21zM397 28h45l-23 22zM477 39l13 22l-13 21l-14 -21zM483 98l53 -34l53 34l-53 33zM514 28h45l-23 22zM590 39l14 22l-14 21l-14 -21zM653 50l-31 7l7 -32l31 -7zM629 171l-7 -31l31 7l7 31zM630 99l-17 11l-17 -11l17 -10zM590 154l-14 -22
l14 -21l14 21zM559 168h-45l22 -23zM477 153l-14 -22l14 -22l13 22zM442 168h-45l22 -23zM397 618h45l-23 23zM477 633l13 22l-13 21l-14 -21zM483 688l53 -34l53 34l-53 33zM514 618h45l-23 23zM590 631l14 22l-14 22l-14 -22zM653 639l-31 7l7 -32l31 -7zM629 760l-7 -31
l31 7l7 31zM630 686l-17 11l-17 -11l17 -10zM590 747l-14 -22l14 -22l14 22zM559 758h-45l22 -23zM477 747l-14 -22l14 -22l13 22zM442 758h-45l22 -23zM364 747l-14 -22l14 -22l13 22zM329 758h-45l23 -23zM249 747l-14 -22l14 -22l13 22zM214 758h-46l23 -23zM137 747
l-14 -22l14 -22l13 22zM132 686l-17 11l-17 -11l17 -10zM99 760l-31 7l7 -31l32 -7z" />
    <glyph glyph-name="j" unicode="j" horiz-adv-x="689" 
d="M76 269l-26 26v65h72l31 -30l29 30h69v-66l-23 -25l26 -17c2 -9 5 -18 10 -26l-4 -32l30 6c10 -6 23 -10 39 -12l18 -23l15 23c12 2 27 7 40 16l30 -6l-7 31c6 10 10 22 14 36l30 31l-26 26v44l26 27l-26 25v41l26 26l-26 26v47l26 27l-26 25v42l26 26l-26 26v76h75
l26 -26l25 26h75v-73l-30 -29l30 -30v-34l-30 -29l30 -31v-40l-30 -29l30 -31v-33l-30 -29l30 -31v-34l-30 -29l28 -29c-2 -21 -5 -40 -10 -59l-40 -20l19 -38c-11 -23 -24 -44 -39 -62l-36 3l-3 -41c-15 -12 -32 -23 -49 -32l-36 17l-19 -39c-18 -6 -37 -9 -55 -11l-25 24
l-23 -24c-19 1 -39 4 -58 8l-19 41l-40 -19c-19 8 -36 19 -52 31v35h-37c-15 17 -28 36 -39 57l20 35l-41 24c-4 15 -6 30 -8 46zM94 202l15 29l-28 15zM138 111l6 31l-32 6zM135 187l64 -42l-5 69l-41 45zM173 121l-5 -28l27 8l5 27zM180 69l39 -22l-8 31zM278 26l45 -6
l-19 26zM348 27l15 23l-16 24l-14 -24zM374 18l44 9l-27 18zM475 51l38 25l-31 7zM604 556l-22 -23l22 -22v45zM582 631l22 -23v46zM577 314l-26 -16l26 -17l26 17zM541 307l32 83l-32 82l-30 -82zM582 343l22 -22v45zM582 439l22 -23v46zM603 485l-26 16l-26 -16l26 -17z
M541 494l32 83l-32 82l-30 -82zM532 485l-26 16l-27 -16l27 -17zM501 533l-23 23v-45zM478 608l23 23l-23 23v-46zM501 439l-23 23v-46zM501 343l-23 23v-45zM506 314l-27 -16l27 -17l26 17zM501 108l25 -5l-6 25l-25 5zM495 148l63 53l-19 80l-45 -62zM559 121l22 40
l-31 -9zM604 220l6 46l-26 -20zM592 752l-7 -32l31 7l7 32zM603 679l-26 17l-26 -17l26 -16zM544 736l-11 -17l11 -17l11 17zM532 679l-26 17l-27 -17l27 -16zM463 759l7 -32l32 -7l-8 32zM466 268l-15 -43l29 14zM471 181l-27 6l6 -27l27 -7zM473 128l-62 -2l-51 -45l71 -5
zM413 179l-38 -15l27 -11zM347 147l-15 -23l14 -23l15 23zM320 161l-37 16l11 -27zM280 126l-61 -1l40 -53l73 10zM244 156l6 27l-26 -6l-7 -26zM231 246l-13 -25l26 -14zM201 336l-7 -32l31 7l8 32zM188 284l-22 -14l22 -14l22 14zM153 313l-10 -17l10 -17l11 17zM136 270
l-22 14l-22 -14l22 -14zM104 336l-32 7l7 -32l32 -7z" />
    <glyph glyph-name="k" unicode="k" horiz-adv-x="722" 
d="M501 24l-29 -25h-27l-20 33l11 44l-44 11l-19 32l11 42l-43 11l-17 27l11 41l-42 10l-25 43v-65l-30 -29l30 -30v-35l-30 -28l30 -31v-75h-74l-31 30l-30 -30h-70v75l30 31l-30 29v34l30 30l-30 29v40l30 31l-30 29v34l30 30l-30 29v34l30 31l-30 29v40l30 30l-30 29v35
l30 30l-30 29v74h73l27 -27l28 27h77v-74l-30 -29l30 -30v-35l-30 -29l30 -30v-59l25 41l42 10l-11 42l17 27l43 11l-11 41l20 33l43 11l-10 42l17 28h25l29 -26l37 25h33l29 -25l37 25h49l-31 -50l-42 -11l10 -41l-17 -28l-42 -11l11 -41l-21 -33l-42 -11l11 -41l-18 -28
l-42 -11l11 -41l-26 -42l26 -42l-11 -41l43 -11l17 -28l-11 -41l43 -11l20 -33l-11 -41l43 -11l16 -27l-10 -42l43 -11l32 -53h-47l-37 24l-29 -25h-33zM463 498l26 38l-32 -6zM468 561h30l-13 27h-30zM565 664l26 38l-32 -6zM568 752l-11 -17l11 -17l11 17zM515 580l26 37
l-32 -6zM538 748l-69 -54l-14 -88l67 56zM465 757l-11 -17l11 -17l10 17zM201 696l-26 -16l26 -17l27 17zM103 227l22 23l-22 23v-46zM125 158l-22 23v-46zM175 485l26 -16l27 16l-27 17zM196 390l-30 83l-32 -83l32 -82zM166 495l30 82l-30 83l-32 -83zM157 485l-27 17
l-26 -17l26 -16zM125 534l-22 23v-46zM103 609l22 23l-22 23v-46zM125 440l-22 23v-46zM125 344l-22 23v-46zM104 299l26 -17l27 17l-27 16zM166 289l-32 -82l32 -83l30 83zM175 299l26 -17l27 17l-27 16zM206 250l23 -23v46zM229 181l-23 -23l23 -23v46zM206 344l23 -23v46
zM206 440l23 -23v46zM206 534l23 -23v46zM206 632l23 -23v46zM163 737l-11 -17l11 -17l11 17zM157 680l-27 16l-26 -16l26 -17zM91 735l31 -7l-7 32l-31 7zM115 31l7 32l-31 -7l-7 -32zM104 107l26 -17l27 17l-27 16zM163 47l11 17l-11 17l-11 -17zM175 107l26 -17l27 17
l-27 16zM244 24l-7 32l-32 7l8 -32zM237 735l7 32l-31 -7l-8 -32zM425 686l-26 -37l32 6zM425 623h-30l13 -27h30zM377 602l-25 -38l31 6zM336 435l-10 21h-24l10 -22zM323 521l-26 -38l32 6zM268 479l-17 -26l17 -26l17 26zM323 418l-83 -24l82 -25l83 24zM410 410l26 37
l-32 -6zM436 334l-25 38l-6 -32zM268 315l17 26l-17 27l-17 -27zM317 271l7 32l-32 6zM328 328l11 23h-26l-11 -23h26zM375 183l6 31l-32 6zM422 98l6 32l-31 6zM424 164l13 27h-30l-13 -27h30zM369 259l70 -55l-16 86l-67 56zM422 497l19 85l-71 -52l-17 -87zM566 118
l-6 -32l31 -6zM563 60l-11 -17l11 -17l10 17zM515 202l-6 -32l32 -6zM464 284l-6 -32l31 -6zM466 226l-13 -27h31l13 27h-31zM517 128l-68 56l14 -87l69 -55zM465 60l-11 -17l11 -17l10 17z" />
    <glyph glyph-name="l" unicode="l" horiz-adv-x="639" 
d="M152 30l-29 -29h-73v76l30 30l-30 29v35l30 30l-30 29v40l30 30l-30 29v35l30 30l-30 29v34l30 30l-30 29v41l30 30l-30 29v35l30 30l-30 29v74h73l29 -30l30 30h71v-66l-30 -33l30 -29v-37l-30 -33l30 -29v-39l-30 -32l30 -30v-30l-30 -33l30 -29v-34l-30 -32l30 -29
v-36l-26 -27l37 -36l33 33h51l34 -31l32 31h55l30 -31l32 31h62v-69l-31 -35l31 -30v-68h-64l-30 29l-28 -29h-60l-30 29l-29 -29h-57l-30 29l-28 -29h-56zM216 559l-23 -23l23 -23v46zM193 631l23 -23v46zM153 310l30 82l-30 82l-32 -82zM188 317l-26 -17l26 -16l27 16z
M144 300l-27 17l-26 -17l26 -16zM153 291l-32 -83l32 -82l30 82zM204 134l-47 -33l47 -33l53 33zM193 252l23 -23v45zM193 347l23 -23v46zM193 441l23 -23v45zM215 487l-27 17l-26 -17l26 -16zM153 497l30 82l-30 82l-32 -82zM144 487l-27 17l-26 -17l26 -16zM112 536
l-22 23v-46zM90 607l22 23l-22 23v-46zM112 442l-22 22v-45zM112 346l-22 23v-46zM112 252l-22 22v-45zM112 160l-22 22v-45zM116 116l-23 -15l23 -15l24 15zM150 42l14 22l-14 22l-14 -22zM183 28h46l-23 23zM264 42l14 22l-14 22l-14 -22zM269 101l52 -33l53 33l-53 33z
M299 28h46l-23 23zM383 42l13 22l-13 22l-14 -22zM387 101l53 -33l53 33l-53 33zM415 28h46l-23 23zM500 42l13 22l-13 22l-14 -22zM563 54l-31 7l7 -31l31 -7zM539 176l-7 -31l31 7l7 31zM547 99l-17 11l-17 -11l17 -10zM500 157l-14 -21l14 -22l13 22zM462 177h-45l22 -22
zM383 157l-14 -21l14 -22l13 22zM344 177h-45l23 -22zM264 157l-14 -21l14 -22l14 22zM241 160l-32 32v-32h32zM193 755l-8 -32l32 7l7 32zM208 683l-24 15l-23 -15l23 -14zM150 742l-14 -21l14 -22l14 22zM140 683l-24 15l-23 -15l23 -14zM77 762l7 -32l31 -7l-7 32z
M108 30l7 31l-31 -7l-7 -31z" />
    <glyph glyph-name="m" unicode="m" horiz-adv-x="806" 
d="M725 103l30 -29v-74h-73l-27 27l-28 -27h-77v74l30 29l-30 30v35l30 29l-30 30v40l30 29l-30 30v37l24 28l-20 21l-4 -6v2l-26 -40l-45 -10l10 -45l-35 -55l-52 32l-51 -32l-37 58l9 42l-42 9l-26 41v-2l-4 6l-20 -21l24 -28v-37l-30 -30l30 -29v-40l-30 -30l30 -29v-35
l-30 -30l30 -29v-74h-77l-28 27l-27 -27h-73v74l30 29l-30 30v35l30 29l-30 30v41l30 29l-30 30v34l30 29l-30 30v35l30 29l-30 30v40l30 29l-30 30v35l30 29l-30 30v76h70l30 -31l31 31h74v-6h1v-51l49 -16l28 -44l-10 -46l46 -10l33 -53l34 53l46 10l-10 46l28 44l49 16
v51h1v6h74l31 -31l30 31h70v-76l-30 -30l30 -29v-35l-30 -30l30 -29v-40l-30 -30l30 -29v-35l-30 -30l30 -29v-34l-30 -30l30 -29v-41l-30 -30l30 -29v-35zM736 761h-46l23 -23zM589 225l23 23l-23 23v-46zM612 150l-23 23v-46zM661 484l26 -17l27 17l-27 16zM684 392
l-32 82l-30 -82l30 -83zM652 493l32 83l-32 63l-30 -63zM643 484l-27 16l-26 -16l26 -17zM612 438l-23 23v-46zM612 342l-23 23v-46zM590 297l26 -17l27 17l-27 16zM652 287l-30 -82l30 -82l32 82zM661 297l26 -17l27 17l-27 16zM692 248l23 -23v46zM715 173l-23 -23l23 -23
v46zM692 342l23 -23v46zM692 438l23 -23v46zM692 532l23 -22v45zM692 624l23 -22v45zM668 736v-31l28 -14v31zM655 688l-11 -17l11 -17l11 17zM642 705l-1 31l-27 -14v-31zM616 761h-45l23 -23zM588 715l-26 1l11 -24h26zM551 654v-62l57 26v63zM516 682l-24 -39l32 8z
M532 591l-11 23h-25l11 -23h25zM461 594l-24 -39l31 7zM461 520h-26l11 -23h26zM404 532l-20 -29l19 -31l19 30zM344 594l-8 -32l32 -7zM344 520l-11 -23h25l11 23h-25zM289 682l-8 -31l31 -8zM283 614l-11 -23h26l11 23h-26zM254 592l-1 62l-56 27v-63zM231 692l11 24
l-25 -1l-11 -23h25zM234 761h-46l23 -23zM163 736v-31l28 -14v31zM90 225l22 23l-22 23v-46zM112 150l-22 23v-46zM121 576l32 -83l30 83l-30 63zM183 392l-30 82l-32 -82l32 -83zM144 484l-27 16l-26 -16l26 -17zM112 532l-22 23v-45zM90 602l22 22l-22 23v-45zM112 438
l-22 23v-46zM112 342l-22 23v-46zM91 297l26 -17l27 17l-27 16zM153 287l-32 -82l32 -82l30 82zM162 297l26 -17l27 17l-27 16zM193 248l23 -23v46zM216 173l-23 -23l23 -23v46zM193 342l23 -23v46zM193 438l23 -23v46zM188 467l27 17l-27 16l-26 -16zM150 688l-11 -17
l11 -17l11 17zM137 705v31l-28 -14v-31zM69 761l23 -23l22 23h-45zM102 31l7 32l-31 -7l-7 -32zM91 102l26 -16l27 16l-27 17zM150 45l11 17l-11 17l-11 -17zM162 102l26 -16l27 16l-27 17zM231 24l-7 32l-32 7l8 -32zM238 479l7 32l-31 7zM228 554l19 27l-34 -4l-21 -28z
M249 445l40 5l20 31l-43 -3zM302 385l7 31l-31 8zM260 520l57 -27v63l-57 26v-62zM322 423l57 -26l-1 62l-56 27v-63zM362 287l7 32l-31 7zM361 364l11 23h-26l-11 -23h26zM400 310l23 36l-22 35l-23 -35zM444 287l24 39l-31 -7zM444 364h26l-11 23h-26zM483 423v63l-56 -27
l-1 -62zM488 556v-63l56 27l1 62zM503 385l24 39l-32 -8zM516 450l40 -5l-17 33l-43 3zM592 577l-35 4l20 -27l36 -5zM567 479l24 39l-31 -7zM605 31l7 32l-31 -7l-7 -32zM616 86l27 16l-27 17l-26 -17zM655 45l11 17l-11 17l-11 -17zM661 102l26 -16l27 16l-27 17zM702 31
l32 -7l-7 32l-32 7z" />
    <glyph glyph-name="n" unicode="n" horiz-adv-x="765" 
d="M80 677l-30 30v76h70l30 -31l31 31h74v-6h1v-51l48 -16l29 -45l-10 -45l44 -10l25 -39l-9 -43l42 -9l28 -45l-10 -45l45 -9l1 -2h-1l27 -44l20 21l-24 29v30l29 31l-29 28v41l29 30l-29 29v34l29 31l-29 28v75h77l28 -28l26 28h73v-74l-29 -29l29 -31v-34l-29 -29l29 -31
v-40l-29 -29l29 -31v-33l-29 -29l29 -31v-34l-29 -29l29 -30v-40l-29 -29l29 -31v-34l-29 -29l29 -30v-76h-69l-30 31l-32 -31h-71v56l-46 16l-29 46l10 46l-46 10l-23 37l10 49l-48 11l-26 41l11 48l-48 10l-3 5l-24 39l-20 -21l24 -28v-37l-30 -30l30 -29v-40l-30 -30
l30 -29v-35l-30 -30l30 -29v-74h-77l-28 27l-27 -27h-73v74l30 29l-30 30v35l30 29l-30 30v41l30 29l-30 30v34l30 29l-30 30v35l30 29l-30 30v40l30 29l-30 30v35zM493 90l8 31l-32 7zM459 167h26l11 23h-26zM512 126l57 -26l-1 62l-56 27v-63zM676 555l-23 -23l23 -22v45z
M653 630l23 -22v45zM603 297l-26 16l-26 -16l26 -17zM583 389l29 -82l32 82l-32 82zM612 287l-29 -82l29 -64l32 64zM622 297l26 -17l26 17l-26 16zM653 248l23 -23v46zM676 179l-23 -23l23 -23v46zM653 342l23 -22v45zM653 438l23 -23v46zM674 484l-26 16l-26 -16l26 -17z
M612 493l32 83l-32 82l-29 -82zM603 484l-26 16l-26 -16l26 -17zM572 532l-23 23v-45zM549 608l23 22l-23 23v-45zM572 438l-23 23v-46zM572 342l-23 23v-45zM573 232l-35 -5l-20 -27l35 4zM534 88l-11 -23h26l11 23h-26zM531 20h46l-23 23zM602 45v31l-28 13v-31zM615 92
l11 17l-11 17l-10 -17zM629 76v-31l28 13v31zM697 20l-23 23l-23 -23h46zM663 749l-7 -31l32 7l7 31zM674 678l-26 17l-26 -17l26 -16zM615 735l-10 -17l10 -17l11 17zM603 678l-26 17l-26 -17l26 -16zM534 756l7 -31l32 -7l-7 31zM543 263l-23 39l-8 -32zM522 340l-43 -4
l-21 -34l41 3zM464 401l-7 -31l31 -7zM505 262l-57 26v-62l57 -27v63zM428 188l7 32l-31 7zM398 264h26l11 24l-26 -1zM399 500l-5 -32l32 -5zM431 423h-25l-11 -23h26zM443 361l-57 26v-62l57 -27v63zM102 30l7 31l-31 -7l-7 -32zM144 297l-27 16l-26 -16l26 -17zM121 392
l32 -83l30 83l-30 82zM153 287l-32 -82l32 -83l30 83zM162 297l26 -17l27 17l-27 16zM193 248l23 -23v46zM216 173l-23 -23l23 -23v46zM193 342l23 -23v46zM193 438l23 -23v46zM188 467l27 17l-27 16l-26 -16zM153 493l30 83l-30 63l-32 -63zM144 484l-27 16l-26 -16l26 -17
zM112 532l-22 23v-46zM90 601l22 23l-22 23v-46zM112 438l-22 23v-46zM112 342l-22 23v-46zM112 248l-22 23v-46zM112 150l-22 23v-46zM91 102l26 -16l27 16l-27 17zM150 45l11 17l-11 17l-11 -17zM162 102l26 -16l27 16l-27 17zM231 22l-7 32l-32 7l8 -31zM238 479l7 32
l-31 7zM228 554l19 27l-34 -4l-21 -28zM302 385l7 31l-31 8zM364 288l7 31l-31 8zM361 364l11 23h-26l-11 -23h26zM344 594l-8 -32l32 -7zM344 520l-11 -23h25l11 23h-25zM378 459l-56 27v-63l57 -26zM289 682l-8 -31l31 -8zM283 614l-11 -23h26l11 23h-26zM317 556l-57 26
v-62l57 -27v63zM266 478l-17 -33l40 5l20 31zM254 592l-1 62l-56 27v-63zM231 692l11 24l-25 -1l-11 -23h25zM234 761h-46l23 -23zM163 736v-31l28 -14v31zM150 688l-11 -17l11 -17l11 17zM137 705v31l-28 -14v-31zM114 761h-45l23 -23z" />
    <glyph glyph-name="o" unicode="o" horiz-adv-x="710" 
d="M610 191l20 -38c-11 -24 -25 -45 -41 -64l-37 3l-3 -42c-16 -13 -32 -24 -50 -32l-38 17l-19 -40c-20 -6 -41 -9 -62 -11l-23 25l-26 -25c-20 2 -39 5 -58 11l-19 40l-38 -17c-18 8 -34 19 -50 31l-3 43l-38 -3c-16 18 -29 39 -40 63l20 39l-43 21c-5 18 -8 38 -10 59
l30 30l-32 31v33l32 32l-32 30v33l32 32l-31 29c2 17 4 33 8 47l40 21l-20 39c11 23 25 44 41 63l37 -3l3 41c16 13 33 24 51 33l38 -17l18 39c19 5 39 9 59 11l25 -24l23 25c25 -1 50 -5 74 -13l18 -38l37 17c18 -9 36 -20 52 -34l3 -40l36 3c16 -19 30 -40 41 -63l-19 -39
l40 -20c3 -15 6 -31 7 -49l-29 -28l30 -31v-35l-30 -29l30 -31v-35l-30 -30l28 -29c-2 -21 -5 -42 -10 -60zM629 558l-21 -26l27 -21zM445 200l-8 30c6 11 11 23 14 38l32 31l-27 27v45l27 27l-27 26v41l27 27l-30 30c-3 10 -6 19 -11 27l9 31l-33 -6c-16 11 -34 15 -46 16
l-19 24l-16 -24c-12 -3 -27 -7 -40 -16l-33 6l8 -30c-4 -8 -8 -18 -11 -29l-29 -29l26 -26v-42l-26 -26l26 -26v-47l-26 -26l31 -30c3 -16 8 -29 15 -40l-8 -29l31 6c14 -10 29 -15 42 -17l16 -23l19 25c12 2 24 6 35 15zM425 180l-39 -16l28 -11zM374 124l-16 24l-14 -24
l15 -24zM329 164l-39 16l12 -27zM115 445l-23 24v-46zM94 490l25 -16l25 16l-25 15zM115 348l-23 23v-47zM120 318l-27 -17l27 -16l28 16zM124 395l34 -84l30 84l-30 84zM246 554l-31 -15l15 -30zM218 627l6 -28l28 -7l-6 28zM199 445l24 -22v46zM223 371l-24 -23l24 -24v47
zM219 490l-25 15l-25 -15l25 -16zM194 318l-27 -17l27 -16l27 16zM236 271l-15 -30l30 -15zM230 181l-6 -28l28 7l6 28zM284 600l39 16l-27 11zM392 616l39 -16l-12 27zM492 423l24 22l-24 24v-46zM516 348l-24 23v-47zM496 490l25 -16l25 16l-25 15zM485 509l15 30l-30 15z
M491 599l6 28l-28 -7l-6 -28zM464 226l30 15l-15 30zM491 153l-6 28l-28 7l6 -28zM494 301l27 -16l27 16l-27 17zM527 395l30 -84l34 84l-34 84zM571 490l25 -16l25 16l-25 15zM595 318l-28 -17l28 -16l27 16zM600 348l23 -24v47zM600 445l23 -22v46zM582 659l-9 -31l32 -9z
M581 578l-66 53v-71l43 -64zM542 652l6 26l-26 -5l-7 -26zM534 705l-39 25l7 -32zM436 756l-46 8l18 -27zM449 705l-73 -6l52 -45l65 -2zM353 632l16 24l-15 24l-16 -24zM351 756l-14 -25l16 -24l15 25zM325 764l-46 -8l28 -19zM266 705l-44 -53l65 2l52 45zM221 730
l-40 -25l32 -7zM193 673l-26 5l7 -26l26 -5zM200 631l-66 -53l23 -82l43 64v71zM133 659l-23 -40l32 9zM81 511l26 21l-20 26zM92 222l21 26l-27 21zM139 121l9 32l-32 8zM140 202l65 -53l1 72l-47 64zM179 128l-6 -26l26 5l7 26zM186 75l40 -25l-7 32zM228 128l44 -53l73 5
l-52 46zM285 24l46 -8l-18 27zM357 24l16 24l-15 25l-16 -24zM384 16l46 8l-27 19zM443 75l44 53l-64 -2l-53 -46zM489 50l40 25l-33 7zM516 107l27 -5l-7 26l-27 5zM510 149l65 53l-19 83l-47 -64zM576 121l23 40l-32 -8zM629 269l-27 -21l21 -26z" />
    <glyph glyph-name="p" unicode="p" horiz-adv-x="699" 
d="M81 680l-30 29v74h73l29 -30l30 30h54l29 -30l30 30h57l29 -30l30 29c17 0 34 -3 49 -6l14 -39l42 19c10 -5 20 -10 29 -16l3 -43l44 1c9 -10 17 -20 24 -31l-15 -41l41 -18c5 -15 8 -30 9 -45l-27 -25l26 -30c-2 -16 -6 -32 -11 -47l-38 -16l14 -38
c-8 -12 -16 -24 -26 -35l-41 1l-3 -40c-10 -7 -19 -13 -30 -18l-41 19l-14 -38c-15 -4 -32 -6 -49 -8l-30 30l-29 -30h-56l-31 30l-36 -33l20 -20v-28l-32 -32l32 -33v-42l-28 -27l28 -28v-75h-68l-29 29l-29 -29h-73v76l30 30l-30 29v34l30 31l-30 29v40l30 30l-30 29v34
l30 31l-30 29v34l30 30l-30 29v40l30 31l-30 29v34zM109 29l7 31l-31 -7l-7 -31zM322 651l50 31l-50 31l-49 -31zM384 669l-14 -22l14 -21l13 21zM345 606l-22 23l-23 -23h45zM279 647l-14 22l-14 -22l14 -21zM205 649l53 33l-53 34l-47 -34zM194 250l23 -23v46zM211 181
l-23 -23l23 -23v46zM189 282l27 17l-27 16l-26 -16zM145 299l-27 16l-26 -16l26 -17zM122 391l32 -82l30 82l-30 82zM154 289l-32 -82l32 -82l30 82zM163 486l26 -17l27 17l-27 16zM194 534l23 -22v45zM210 591l32 32h-32v-32zM184 578l-30 82l-32 -82l32 -83zM145 486
l-27 16l-26 -16l26 -17zM113 534l-22 23v-45zM91 606l22 23l-22 23v-46zM113 440l-22 23v-46zM113 344l-22 23v-45zM113 250l-22 23v-46zM113 158l-22 23v-46zM96 103l23 -14l24 14l-24 15zM151 41l14 22l-14 21l-14 -21zM160 103l24 -14l23 14l-23 15zM222 53l-32 7l7 -31
l32 -7zM222 322v45l-23 -23zM222 417v46l-23 -23zM228 498l37 -36l27 27h64l27 -25l26 25l34 -12l-2 31c2 2 3 4 4 6l21 22l-17 19c0 1 -1 2 -1 3l4 34l-35 -13h-1l-33 33l-33 -30h-53l-32 32l-37 -36l22 -23v-34zM411 610l26 -6l-8 19zM482 608l3 21l-20 -6l-4 -21z
M489 446l-11 23l-26 1l11 -24h26zM399 431l-13 22l-14 -22l14 -21zM345 464h-45l23 -23zM262 333l14 22l-14 22l-13 -22zM262 406l14 22l-14 21l-13 -21zM327 426l-49 -32l49 -31l49 31zM302 320h45l-23 23zM386 333l13 22l-13 22l-14 -22zM407 321l45 5l-25 20zM460 375
l36 49l-58 11l-40 -41zM489 537l21 -14l22 14l-21 13zM494 342l34 19l-30 11zM518 393l20 -6l-3 21l-21 6zM513 441l54 25l-10 59l-48 -30zM569 392l23 31l-32 -3zM569 538l19 -12l18 11l-18 13zM614 474l8 32l-24 -10zM613 600l-20 -23l28 -15zM569 680l-9 -29l32 -2z
M568 610l-56 26l-4 -57l50 -30zM536 666l3 21l-20 -6l-4 -21zM528 710l-34 19l4 -29zM494 652l-36 50l-62 -19l40 -41zM452 745l-45 5l20 -25zM384 741l-14 -22l14 -21l13 21zM346 755h-46l23 -23zM265 741l-14 -22l14 -21l14 21zM230 755h-46l23 -23zM151 741l-14 -22
l14 -21l14 21zM141 682l-24 15l-23 -15l23 -15zM109 753l-31 7l7 -31l31 -7z" />
    <glyph glyph-name="q" unicode="q" horiz-adv-x="717" 
d="M634 163c-4 -9 -8 -18 -13 -26l75 -71l-33 -33h-44v-44l-27 -28l-74 71c-10 -6 -20 -12 -31 -17l-30 18l-16 -35c-20 -5 -40 -8 -60 -10l-23 24l-26 -24c-19 2 -38 6 -57 11l-19 40l-39 -17c-17 9 -34 19 -50 32l-3 42l-37 -3c-16 19 -30 40 -41 63l20 40l-42 20
c-5 19 -9 39 -11 60l30 30l-32 30v33l32 32l-32 31v33l32 31l-30 30c1 16 4 32 7 47l41 20l-20 40c11 23 25 44 40 62l38 -2l3 41c16 13 33 23 51 33l37 -18l19 40c19 5 38 9 58 11l25 -24l24 25c25 -1 50 -6 74 -13l18 -39l37 17c18 -9 35 -20 51 -33l4 -40l36 2
c16 -19 30 -40 41 -63l-20 -39l40 -19c4 -16 6 -32 8 -49l-30 -29l31 -31v-34l-31 -30l31 -31v-35l-31 -29l29 -30c-2 -21 -6 -41 -11 -60l-41 -20zM624 227l6 46l-26 -20zM447 204l-9 31c7 10 12 22 15 37l31 32l-27 26v45l27 28l-27 26v41l27 27l-30 29
c-2 10 -6 19 -10 27l8 32l-33 -6c-16 10 -33 14 -46 16l-18 24l-17 -25c-12 -2 -26 -6 -40 -15l-32 6l8 -31c-5 -8 -9 -18 -11 -29l-29 -28l26 -26v-43l-26 -25l26 -27v-47l-26 -25l30 -30c3 -17 9 -29 15 -40l-7 -30l31 6c14 -10 29 -15 41 -16l16 -24l20 25
c11 2 23 7 35 15zM427 184l-39 -15l27 -12zM376 128l-16 24l-15 -24l16 -24zM330 169l-39 15l12 -27zM117 450l-24 23v-46zM96 494l25 -15l25 15l-25 16zM117 352l-24 23v-46zM122 322l-27 -17l27 -16l27 16zM126 399l33 -84l31 84l-31 84zM247 558l-30 -15l15 -29zM220 631
l6 -28l28 -7l-6 28zM201 450l23 -23v46zM224 375l-23 -23l23 -23v46zM220 494l-25 16l-25 -16l25 -15zM196 322l-28 -17l28 -16l27 16zM237 275l-14 -30l30 -14zM231 186l-5 -28l28 7l5 28zM286 605l39 15l-28 12zM393 620l39 -15l-11 27zM601 450l24 -23v46zM625 375
l-24 -23l24 -23v46zM597 479l25 15l-25 16l-25 -16zM592 399l-33 84l-31 -84l31 -84zM523 479l25 15l-25 16l-25 -16zM494 427l24 23l-24 23v-46zM518 352l-24 23v-46zM487 514l14 29l-30 15zM492 603l6 28l-28 -7l-6 -28zM465 231l30 14l-14 30zM492 158l-5 28l-28 7l6 -28
zM495 305l27 -16l28 16l-28 17zM557 289l-46 -64v-72l66 53zM601 166l-32 -9l9 -32zM596 289l27 16l-27 17l-27 -17zM630 562l-20 -26l26 -20zM584 664l-10 -32l33 -9zM582 582l-65 54l-1 -72l44 -63zM543 657l7 25l-27 -5l-6 -26zM536 710l-40 25l7 -32zM438 760l-47 9
l19 -27zM450 710l-73 -5l53 -47l64 -2zM354 637l16 23l-15 25l-16 -24zM353 760l-15 -24l16 -24l15 25zM327 769l-46 -9l27 -18zM268 710l-44 -54l64 2l53 47zM222 735l-40 -25l33 -7zM195 677l-27 5l7 -25l27 -6zM201 636l-65 -54l22 -81l44 63zM135 664l-23 -41l32 9z
M82 516l26 20l-20 26zM94 227l20 26l-26 20zM140 125l9 32l-32 9zM141 206l66 -53v72l-46 64zM181 132l-7 -26l27 6l6 25zM188 79l40 -25l-8 32zM229 132l44 -53l74 5l-53 47zM286 29l46 -10l-18 28zM359 28l16 24l-15 25l-16 -24zM386 19l46 10l-28 18zM445 79l44 53
l-65 -1l-52 -47zM490 54l40 25l-32 7zM590 -9l11 17l-11 16l-11 -17zM552 63l56 -14l-12 55l-74 32zM640 79l-17 -10l17 -11l17 10z" />
    <glyph glyph-name="r" unicode="r" horiz-adv-x="701" 
d="M635 65l43 -11l32 -53h-47l-37 24l-29 -25h-33l-37 25l-29 -25h-27l-20 33l11 44l-44 11l-19 32l11 42l-43 11l-17 27l11 41l-42 10l-22 37h-47v-51l-32 -31l32 -33v-42l-28 -27l28 -29v-74h-68l-29 29l-29 -29h-73v75l30 31l-30 29v34l30 30l-30 29v40l30 31l-30 29v34
l30 30l-30 29v34l30 31l-30 29v40l30 30l-30 29v35l30 30l-30 29v74h73l29 -29l30 30h54l29 -30l30 30h57l29 -30l30 29c17 -1 34 -3 49 -7l14 -39l42 20c10 -5 20 -11 29 -17l3 -42l44 1c9 -10 17 -21 24 -32l-15 -41l41 -17c5 -15 8 -30 9 -45l-27 -25l26 -30
c-2 -16 -6 -32 -11 -47l-38 -17l14 -37c-8 -13 -16 -24 -26 -35l-41 1l-3 -41c-9 -6 -19 -12 -29 -17l28 -45l-11 -41l43 -11l20 -33l-11 -41l43 -11l16 -27zM523 227h-31l-13 -27h31zM398 395l62 -20l36 50l-58 10zM424 347l-3 19l-18 6l3 -19zM386 410l13 22l-13 22
l-14 -22zM489 446l-11 24h-26l11 -23zM461 603l21 6l3 21l-20 -6zM489 538l21 -14l22 13l-21 14zM490 285l-6 -32l31 -6zM494 343l34 19l-30 11zM518 394l20 -6l-3 21l-21 6zM513 442l54 24l-10 60l-48 -30zM569 392l23 31l-32 -2zM569 538l19 -12l18 12l-18 12zM614 475
l8 32l-24 -10zM613 600l-20 -22l28 -15zM569 680l-9 -28l32 -3zM568 611l-56 25l-4 -56l50 -30zM536 666l3 21l-20 -6l-4 -21zM528 711l-34 19l4 -30zM494 653l-36 50l-62 -20l40 -40zM437 605l-8 19l-18 -14zM322 652l50 31l-50 31l-49 -31zM345 606l-22 23l-23 -23h45z
M194 251l23 -23v46zM211 182l-23 -23l23 -23v46zM189 283l27 17l-27 16l-26 -16zM91 228l22 23l-22 23v-46zM113 159l-22 23v-46zM122 578l32 -82l30 82l-30 83zM184 391l-30 83l-32 -83l32 -82zM145 486l-27 17l-26 -17l26 -16zM113 535l-22 23v-46zM91 607l22 22l-22 23
v-45zM113 441l-22 23v-46zM113 345l-22 23v-46zM92 300l26 -17l27 17l-27 16zM154 290l-32 -82l32 -83l30 83zM163 486l26 -16l27 16l-27 17zM194 535l23 -23v46zM210 592l32 32h-32v-32zM205 649l53 34l-53 33l-47 -33zM265 670l-14 -22l14 -22l14 22zM384 670l-14 -22
l14 -22l13 22zM452 746l-45 5l20 -25zM384 742l-14 -22l14 -22l13 22zM346 756h-46l23 -23zM265 742l-14 -22l14 -22l14 22zM230 756h-46l23 -23zM151 742l-14 -22l14 -22l14 22zM141 683l-24 14l-23 -14l23 -15zM78 761l7 -32l31 -7l-7 32zM109 29l7 32l-31 -7l-7 -32z
M96 104l23 -15l24 15l-24 15zM151 42l14 21l-14 22l-14 -22zM160 104l24 -15l23 15l-23 15zM222 54l-32 7l7 -32l32 -7zM222 322v46l-23 -23zM222 418v46l-23 -23zM228 578l22 -23v-34l-22 -22l37 -36l27 26h64l27 -24l26 25l34 -13l-2 31c2 2 3 4 4 7l21 22l-17 18
c0 1 -1 3 -1 4l4 34l-35 -13h-1l-33 32l-33 -30h-53l-32 32zM345 464h-45l23 -23zM276 428l-14 22l-13 -22l13 -21zM266 323l17 27l-17 27l-17 -27zM345 267l6 31l-32 6zM302 325h46l-23 22zM327 364l49 31l-49 31l-49 -31zM401 184l6 31l-32 6zM448 99l6 32l-32 6zM450 165
l13 27h-30l-13 -27h30zM395 260l70 -55l-16 86l-67 56zM447 322l32 -6l-26 38l-1 -4l-15 23l-6 -32l19 -3zM491 27l10 17l-10 17l-11 -17zM489 98l69 -55l-15 86l-68 56zM535 171l32 -6l-26 38zM589 27l10 17l-10 17l-11 -17zM586 87l31 -6l-25 38z" />
    <glyph glyph-name="s" unicode="s" horiz-adv-x="692" 
d="M152 75l-43 -17c-18 9 -36 20 -53 32l40 59l42 12l-5 42l40 57c17 -12 34 -22 51 -30l16 -43l45 20c17 -5 34 -8 51 -10l30 -27l26 26l35 -13l-2 32l3 6l22 24l-18 19c0 1 0 2 -1 3l5 35l-36 -13c-6 2 -13 3 -21 3h-19l-21 28l-29 -27c-23 0 -44 3 -64 8l-14 39l-43 -19
c-10 5 -20 10 -29 16l-4 44l-45 -1c-8 10 -16 20 -23 31l13 37l-39 17c-5 15 -8 30 -10 46l26 25l-27 32c2 19 6 38 12 56l39 17l-13 38c8 13 17 25 27 36l40 -1l4 40c10 7 21 14 32 19l40 -18l13 38c15 3 31 6 48 8l32 -32l36 32c22 -2 43 -4 63 -8l27 -43l40 24
c13 -4 25 -9 36 -14l10 -46l44 17c22 -13 41 -27 57 -41l-39 -46l2 3l-54 -16l5 -43l-47 -56c-11 10 -24 19 -40 28l-16 42l-40 -18c-18 6 -38 10 -60 11l-25 23l-24 -23l-36 13l2 -33c0 -1 -1 -2 -2 -3l-23 -25l18 -20c0 -1 0 -2 1 -2l-5 -36l30 15c8 -3 16 -5 27 -5h14
l32 -31l33 30c13 -1 27 -2 39 -4l19 -41l41 23c14 -6 28 -14 41 -22l4 -44l45 1c8 -10 16 -21 24 -32l-15 -42l42 -19c5 -14 8 -30 9 -45l-28 -26l27 -32c-2 -16 -6 -32 -11 -48l-39 -17l14 -39c-8 -12 -17 -24 -26 -35l-42 1l-4 -42c-9 -6 -20 -12 -30 -18l-42 19l-13 -38
c-17 -4 -34 -7 -52 -8l-30 29l-32 -28c-24 1 -47 5 -70 9l-24 39l-36 -22c-14 4 -27 9 -40 15zM569 698l-24 -23l30 -12l24 23zM175 64l36 -13l-12 25zM281 25l47 -5l-21 26zM264 107l44 -40l51 32l-47 33zM368 36l14 22l-14 22l-14 -22zM390 23l46 6l-26 20zM479 45l34 19
l-30 11zM503 98l20 -7l-3 22l-21 6zM497 147l55 25l-10 62l-48 -32zM473 245l22 -14l22 14l-21 14zM555 96l23 32l-32 -3zM555 246l19 -12l19 12l-19 12zM601 180l8 34l-25 -11zM600 310l-21 -23l29 -16zM555 392l-9 -29l32 -3zM554 321l-58 26l-3 -58l50 -31zM521 378l3 21
l-20 -6l-4 -21zM510 426l-35 20l4 -31zM424 460l-42 5l16 -26zM353 452l-16 -20l12 -24l16 21zM327 476l-44 4l22 -28zM245 479l-20 -6l-4 -22l21 6zM229 616l26 -1l-11 24l-26 1zM321 630l14 22l-14 22l-14 -22zM350 620l46 -6l-20 26zM425 621l20 18l-8 25l-19 -17z
M510 562l10 32l-24 22l-10 -31zM482 631l49 9l-22 47l-58 -11zM515 725l-36 13l11 -25zM453 733l-18 -19l9 -25l18 19zM377 657l48 25l-44 40l-50 -32zM408 764l-46 5l20 -26zM321 753l-14 -22l14 -23l14 23zM301 768l-46 -5l26 -21zM247 713l-37 -51l60 -11l40 42zM218 546
l-22 14l-23 -14l22 -14zM212 747l-34 -20l30 -11zM188 694l-20 6l3 -22l21 -6zM193 645l-55 -26l11 -61l48 31zM136 696l-23 -33l32 3zM136 545l-19 12l-19 -12l19 -12zM89 600l-7 -32l23 10zM91 474l20 23l-28 15zM136 399l9 29l-32 3zM137 471l57 -27l4 58l-50 31z
M170 413l-3 -21l20 6l4 21zM178 367l34 -19l-4 31zM212 427l41 -48l82 15l-55 52zM259 330l46 -5l-20 26zM340 330l17 20l-12 24l-16 -21zM366 318l46 -6l-20 26zM411 349l70 15l-48 51l-74 -23zM445 312l21 7l4 21l-21 -6zM462 175l-26 1l11 -24l26 -1zM480 129l-59 11
l-40 -42l63 -20zM368 159l-14 -22l14 -23l14 23zM339 169l-46 5l21 -26zM264 167l-19 -17l7 -25l20 17zM246 99l-18 -19l9 -24l18 19zM178 232l-10 -31l24 -23l10 32zM205 161l-50 -10l23 -46l58 10zM114 126l-24 -23l31 -12l24 23z" />
    <glyph glyph-name="t" unicode="t" horiz-adv-x="731" 
d="M644 687l31 -31v-68h-53l-31 31l-30 -31h-53l-31 31l-36 -36l22 -24v-50l-25 -24l25 -27v-42l-25 -25l25 -26v-43l-25 -24l25 -26v-46l-22 -24l22 -23v-48l-29 -28l29 -29v-14v0v0v-60h-69l-30 29l-28 -29h-78v71l34 35l-34 33v36l28 27l-28 35v30l30 31l-30 29v34l30 30
l-30 29v34l30 31l-30 29v34l28 35l-37 36l-30 -31h-52l-32 31l-30 -31h-55v67l32 32l-32 32v64h58l27 -28l29 28h58l27 -28l28 28h59l27 -28l29 28h57l28 -28l28 28h59l27 -28l28 28h56v-65zM629 760l-7 -32l31 7l7 32zM590 746l-14 -22l14 -21l14 21zM589 687l-53 34
l-53 -34l53 -33zM559 757h-45l22 -22zM477 746l-14 -22l14 -21l13 21zM300 229l23 23l-23 22v-45zM323 156l-23 22v-45zM327 471l27 16l-27 17l-26 -17zM363 474l-32 -82l32 -82l30 82zM300 513l23 23l-23 23v-46zM323 442l-23 22v-45zM323 346l-23 23v-46zM301 300l26 -16
l27 16l-27 17zM363 291l-32 -83l32 -82l30 82zM372 300l27 -16l26 16l-26 17zM403 252l23 -23v45zM426 178l-23 -22l23 -23v45zM403 346l23 -23v46zM403 442l23 -23v45zM425 487l-26 17l-27 -17l27 -16zM403 536l23 -23v46zM363 497l30 82l-30 82l-32 -82zM305 654l53 33
l-53 34l-53 -34zM368 687l53 -33l52 33l-52 34zM442 757h-45l22 -22zM364 746l-14 -22l14 -21l13 21zM329 757h-45l23 -22zM249 746l-14 -22l14 -21l13 21zM243 687l-53 34l-53 -34l53 -33zM214 757h-46l23 -22zM137 746l-14 -22l14 -21l13 21zM75 735l32 -7l-8 32l-31 7z
M100 614l7 31l-32 -7l-7 -31zM98 686l17 -11l17 11l-17 10zM137 631l13 21l-13 22l-14 -22zM168 617h46l-23 23zM249 631l13 21l-13 22l-14 -22zM284 617h45l-22 23zM321 29l7 31l-31 -7l-8 -31zM307 103l24 -14l23 14l-23 15zM363 41l13 22l-13 21l-14 -21zM372 103l23 -14
l24 14l-24 15zM440 22l-7 31l-31 7l7 -31zM397 617h45l-23 23zM477 632l13 22l-13 22l-14 -22zM514 617h45l-23 23zM590 631l14 21l-14 22l-14 -22zM596 686l17 -11l17 11l-17 10zM629 614l31 -7l-7 31l-31 7z" />
    <glyph glyph-name="u" unicode="u" horiz-adv-x="706" 
d="M82 671l-31 32v73h76l31 -30l29 30h69v-77l-28 -28l28 -27v-36l-26 -27l26 -26v-48l-26 -27l26 -27v-48l-25 -26l25 -24v-39l-27 -28l30 -29c2 -10 6 -19 10 -26l-8 -32l32 6c16 -10 33 -15 45 -16l19 -24l16 25c12 2 26 6 39 15l32 -6l-8 31c5 8 9 17 11 28l29 28
l-26 27v44l23 24l-23 24v49l23 24l-23 24v53l23 24l-23 25v37l28 28l-28 29v78h71l32 -32l31 32h71v-75l-31 -32l31 -30v-32l-31 -32l31 -30v-36l-31 -32l31 -30v-33l-31 -32l31 -30v-33l-31 -32l29 -29c-1 -17 -3 -32 -7 -48l-40 -19l20 -40c-11 -23 -25 -44 -40 -62l-37 3
l-3 -42c-15 -12 -32 -23 -50 -32l-37 17l-18 -39c-19 -6 -38 -9 -57 -11l-25 23l-23 -24c-25 1 -49 5 -73 12l-18 39l-36 -17c-18 9 -35 20 -51 33l-3 41l-35 -3c-16 19 -30 40 -41 63l19 39l-38 19c-4 15 -7 32 -8 49l29 28l-30 31v34l30 30l-30 31v35l30 29l-30 31v36
l31 31l-31 32v31zM86 223l20 26l-26 21zM218 555l-23 -23l23 -22v45zM195 619l23 -23v45zM218 479l-26 17l-27 -17l27 -17zM123 386l33 -84l30 84l-30 84zM143 291l-25 16l-24 -16l24 -15zM192 307l-25 -16l25 -15l24 15zM197 336l23 -24v47zM195 425l23 -22v45zM154 488
l32 82l-32 82l-29 -82zM146 479l-27 17l-26 -17l26 -17zM114 530l-22 23v-46zM92 596l22 23l-22 22v-45zM115 428l-24 23v-47zM115 336l-24 23v-47zM132 122l9 32l-32 9zM133 203l64 -53l1 72l-43 63zM172 130l-7 -26l26 5l7 26zM179 76l39 -25l-7 32zM275 26l46 -9l-18 27z
M358 26l15 24l-16 24l-14 -24zM384 17l45 9l-27 18zM487 51l39 25l-32 7zM510 535l-23 23v-46zM487 596l23 23l-23 22v-45zM513 496l-27 -17l27 -17l27 17zM614 553l-23 -23l23 -23v46zM591 619l23 -23v45zM587 307l-25 -16l25 -15l24 15zM549 302l32 84l-32 84l-31 -84z
M590 336l23 -24v47zM590 433l23 -23v46zM612 479l-27 17l-26 -17l26 -17zM550 488l32 82l-32 82l-30 -82zM510 426l-23 23v-45zM508 336l-23 23v-47zM513 307l-24 -16l24 -15l25 15zM514 109l26 -5l-7 26l-26 5zM508 150l64 53l-22 82l-43 -63zM573 122l23 41l-32 -9z
M625 270l-26 -21l20 -26zM600 747l-8 -32l32 7l7 32zM612 670l-26 16l-26 -16l26 -17zM552 724l-11 -17l11 -17l11 17zM541 670l-26 16l-26 -16l26 -17zM478 722l31 -7l-7 32l-31 7zM478 272l-16 -44l30 14zM483 183l-27 7l6 -28l27 -7zM485 130l-63 -2l-52 -46l72 -6z
M425 181l-39 -15l27 -12zM357 149l-15 -23l14 -25l16 24zM319 166l-39 15l12 -27zM283 128l-64 2l44 -54l72 6zM243 162l6 28l-28 -7l-5 -28zM242 228l-15 44l-14 -30zM204 747l-7 -32l31 7l7 32zM217 670l-27 16l-26 -16l26 -17zM156 724l-10 -17l10 -17l11 17zM146 670
l-27 16l-26 -16l26 -17zM107 747l-32 7l7 -32l32 -7z" />
    <glyph glyph-name="v" unicode="v" horiz-adv-x="838" 
d="M680 750l62 34l57 -1l-20 -59l-41 -20l20 -40l-10 -29l-41 -20l20 -40l-11 -32l-41 -20l20 -40l-11 -30l-40 -21l20 -39l-11 -32l-40 -20l19 -39l-10 -30l-40 -20l19 -38l-11 -34l-40 -20l19 -39l-11 -31l-39 -20l19 -39l-10 -28l1 -3h-2h-67l-39 58l-41 -58h-72h-2l1 3
l-10 27l20 40l-40 20l-11 31l20 39l-41 20l-11 33l20 39l-41 21l-10 28l20 40l-41 20l-10 31l20 40l-41 21l-11 29l21 41l-42 20l-11 31l21 41l-42 21l-9 27l20 41l-42 20l-20 59l59 1l62 -34l33 34l70 1l-17 -35l36 -19l12 -36l-17 -36l36 -17l13 -40l-17 -35l35 -18
l13 -36l-17 -35l34 -17l16 -45l-16 -32l32 -16l15 -42l13 38l36 18l-18 36l13 39l40 20l-20 38l11 30l39 20l-19 39l11 33l40 21l-19 39l10 30l41 21l-19 37l70 -1zM703 728l-31 -7l20 -24l30 7zM663 523l-20 25l-30 -7l19 -25zM605 552l55 68l-2 87l-56 -67zM640 749
l-30 -8l19 -24l30 7zM589 726l-16 -43l30 14zM595 547l-20 24l-31 -7l20 -25zM556 631l-16 -43l29 13zM527 543l-16 -43l29 14zM536 345l-57 -68l4 -88l55 68zM483 381l19 -24l30 8l-19 24zM493 448l-16 -43l30 13zM478 147l-18 -8l-1 -20l19 8v20zM458 351l-16 -43l29 13z
M445 283l-3 -20l16 -12l3 20zM399 263l-3 20l-17 -12l3 -20zM379 351l-13 -30l29 -13zM377 119l-1 20l-18 8v-20zM354 189l4 88l-57 68l-1 -88zM305 365l30 -8l20 24l-31 8zM342 448l-14 -30l30 -13zM279 631l-13 -30l29 -13zM289 568l-31 7l-20 -25l31 -7zM246 726l-14 -29
l30 -14zM197 755l-19 -24l30 -8l20 25zM174 711l-1 -87l54 -69l4 89zM189 552l-19 -25l30 -7l20 24zM130 732l-19 -24l30 -7l19 24zM77 738l24 -6l-5 25l-25 6zM119 637l13 30l-29 13zM150 548l13 30l-29 13zM181 456l14 29l-30 14zM215 365l13 30l-29 13zM232 538l-2 -89
l56 -70l4 90zM287 359l-30 7l-19 -24l30 -8zM249 276l13 30l-30 13zM278 189l14 29l-30 13zM308 543l-13 -29l29 -14zM314 94l13 30l-29 13zM297 161l30 -7l20 24l-31 7zM356 25l6 24l-25 -5l-6 -25zM368 67l20 25l-31 7l-20 -24zM421 90l29 83l-29 82l-32 -82zM451 92
l20 -25l31 8l-20 24zM486 25l25 -6l-5 25l-25 5zM518 94l17 43l-30 -13zM510 154l31 7l-20 24l-31 -7zM554 189l16 42l-29 -13zM550 359l20 -25l30 8l-20 24zM584 276l16 43l-30 -13zM547 376l56 69l-2 89l-58 -68zM617 365l16 43l-29 -13zM651 456l16 43l-30 -14zM682 548
l17 43l-30 -13zM713 637l16 43l-29 -13zM757 738l5 25l-25 -6l-5 -25z" />
    <glyph glyph-name="w" unicode="w" horiz-adv-x="1099" 
d="M81 674l-31 32v73h76l31 -30l29 30h69v-76l-28 -29l28 -27v-42l-28 -29l28 -27v-39l-28 -29l28 -27v-40l-28 -28l28 -27v-40l-27 -27l30 -29c2 -11 6 -19 10 -27l-8 -32l32 6c16 -10 33 -14 45 -16l19 -23l16 24c11 2 26 6 39 15l32 -6l-8 31c5 8 8 18 11 29l29 28
l-28 28v39l24 23l-24 25v48l25 26l-25 27v51l25 25l-25 27v34l30 29l-30 31v74h2v2h71l32 -32l31 32h71v-75l-31 -32l31 -30v-32l-31 -32l31 -30v-36l-31 -31l31 -31v-33l-31 -32l31 -30v-33l-31 -32l32 -32c3 -9 6 -17 10 -24l-8 -32l32 6c16 -10 33 -14 45 -16l19 -23
l16 24c11 2 26 6 39 15l32 -6l-8 31c5 8 9 18 11 29l29 28l-26 26v43l22 21l-22 23v52l23 24l-23 25v55l23 23l-23 25v38l28 27l-28 29v78h71l32 -32l31 32h71v-75l-31 -32l31 -30v-32l-31 -32l31 -30v-36l-31 -31l31 -31v-33l-31 -32l31 -30v-33l-31 -32l29 -29
c-1 -16 -3 -32 -7 -47l-40 -20l20 -39c-11 -23 -25 -44 -40 -63l-37 3l-3 -41c-15 -13 -32 -24 -50 -33l-37 17l-18 -39c-19 -5 -38 -9 -57 -11l-25 23l-23 -24c-25 1 -49 6 -73 13l-18 38l-36 -16c-19 10 -38 22 -55 36c-17 -15 -36 -27 -55 -37l-37 17l-18 -38
c-19 -6 -38 -10 -57 -12l-25 23l-23 -24c-25 1 -49 6 -73 13l-18 38l-36 -17c-18 10 -35 21 -51 34l-3 40l-35 -3c-16 19 -30 40 -41 64l19 38l-38 19c-4 16 -7 32 -8 49l29 28l-30 31v35l30 29l-30 31v35l30 30l-30 31v36l31 30l-31 33v30zM85 227l20 26l-26 20zM217 558
l-23 -23l23 -23v46zM194 622l23 -23v46zM217 483l-26 17l-27 -17l27 -17zM122 389l33 -83l30 83l-30 84zM142 295l-25 15l-24 -15l24 -16zM191 310l-25 -15l25 -16l24 16zM196 339l23 -23v46zM194 434l23 -23v46zM153 491l32 82l-32 82l-29 -82zM145 483l-27 17l-26 -17
l26 -17zM113 534l-22 22v-45zM91 599l22 23l-22 23v-46zM114 436l-24 24v-47zM114 339l-24 23v-46zM131 126l9 31l-32 9zM132 207l64 -54l1 72l-43 63zM171 133l-7 -26l26 5l7 26zM178 80l39 -25l-7 32zM274 30l46 -10l-18 28zM357 29l15 25l-16 23l-14 -24zM383 20l45 10
l-27 18zM486 55l39 25l-32 7zM509 535l-23 23v-46zM486 599l23 23l-23 23v-46zM512 500l-27 -17l27 -17l27 17zM613 556l-23 -22l23 -23v45zM590 622l23 -23v46zM586 310l-25 -15l25 -16l24 16zM548 306l32 83l-32 84l-31 -84zM589 339l23 -23v46zM589 436l23 -23v47z
M611 483l-27 17l-26 -17l26 -17zM549 491l32 82l-32 82l-30 -82zM509 434l-23 23v-46zM507 339l-23 23v-46zM512 310l-24 -15l24 -16l25 16zM509 106l26 -5l-6 26l-27 5zM548 124l32 84l-32 84l-31 -84zM572 127l-6 -26l26 5l6 26zM575 80l39 -25l-7 32zM671 30l46 -10
l-18 28zM754 29l15 25l-16 23l-15 -24zM780 20l45 10l-27 18zM883 55l39 25l-32 7zM906 535l-23 23v-46zM883 599l23 23l-23 23v-46zM909 500l-27 -17l27 -17l27 17zM1010 556l-23 -22l23 -23v45zM987 622l23 -23v46zM982 310l-24 -15l24 -16l25 16zM945 306l32 83l-32 84
l-31 -84zM986 339l23 -23v46zM986 436l23 -23v47zM1008 483l-27 17l-26 -17l26 -17zM946 491l32 82l-32 82l-30 -82zM906 434l-23 23v-46zM904 339l-23 23v-46zM909 310l-24 -15l24 -16l25 16zM910 112l26 -5l-7 26l-26 5zM904 153l64 54l-22 81l-43 -63zM969 126l23 40
l-32 -9zM1021 273l-26 -20l20 -26zM996 750l-8 -31l32 7l7 31zM1008 673l-26 16l-26 -16l26 -17zM948 727l-11 -17l11 -17l11 17zM937 673l-26 16l-26 -16l26 -17zM874 726l31 -7l-7 31l-31 7zM874 275l-16 -44l30 15zM879 186l-27 7l6 -28l27 -7zM881 133l-63 -2l-52 -46
l72 -5zM821 185l-39 -16l27 -11zM753 153l-16 -24l15 -24l16 23zM715 169l-39 16l12 -27zM679 131l-64 2l44 -53l72 5zM629 165l6 28l-28 -7l-5 -28zM624 273l-26 -20l20 -26zM599 750l-8 -31l32 7l7 31zM611 673l-26 16l-26 -16l26 -17zM551 727l-11 -17l11 -17l11 17z
M540 673l-26 16l-26 -16l26 -17zM477 726l31 -7l-7 31l-31 7zM477 275l-16 -44l30 15zM482 186l-27 7l6 -28l27 -7zM484 133l-63 -2l-52 -46l72 -5zM424 185l-39 -16l27 -11zM356 153l-16 -24l15 -24l16 23zM318 169l-39 16l12 -27zM282 131l-64 2l44 -53l72 5zM242 165
l6 28l-28 -7l-5 -28zM241 231l-15 44l-14 -29zM203 750l-7 -31l31 7l7 31zM216 673l-27 16l-26 -16l26 -17zM155 727l-10 -17l10 -17l11 17zM145 673l-27 16l-26 -16l26 -17zM106 750l-32 7l7 -31l32 -7z" />
    <glyph glyph-name="x" unicode="x" horiz-adv-x="818" 
d="M700 64l43 -11l33 -53h-47l-37 24l-29 -25h-33l-38 25l-29 -25h-26l-20 33l11 44l-44 11l-19 32l10 42l-42 11l-26 41l-25 -41l-42 -11l10 -42l-19 -32l-44 -11l11 -44l-20 -33h-26l-30 25l-37 -25h-33l-29 25l-37 -24h-47l33 53l43 11l-11 42l16 27l43 11l-11 41l21 33
l42 11l-10 41l17 28l42 11l-11 41l26 42l-25 42l10 41l-42 11l-17 28l10 41l-42 11l-20 33l10 41l-42 11l-17 28l11 41l-43 11l-30 50h48l37 -25l29 25h33l38 -25l29 26h25l17 -28l-11 -42l43 -11l20 -33l-10 -41l42 -11l25 -41l26 41l42 11l-10 41l20 33l43 11l-11 42
l17 28h25l29 -26l38 25h33l29 -25l36 25h49l-30 -50l-43 -11l11 -41l-17 -28l-42 -11l10 -41l-20 -33l-42 -11l10 -41l-17 -28l-42 -11l10 -41l-25 -42l26 -42l-11 -41l42 -11l17 -28l-10 -41l42 -11l21 -33l-11 -41l43 -11l16 -27zM555 498l26 38l-32 -6zM559 561h31
l-13 27h-31zM657 664l26 38l-32 -7zM660 752l-11 -17l11 -17l10 17zM607 580l25 37l-31 -6zM630 748l-76 -48l-8 -94l75 54zM556 757l-10 -17l10 -17l11 17zM158 664l6 31l-32 7zM155 718l11 17l-11 17l-10 -17zM208 580l6 31l-31 6zM197 660l71 -54l-7 90l-76 52zM260 498
l6 32l-32 6zM256 561l13 27h-31l-13 -27h31zM259 723l10 17l-10 17l-11 -17zM260 284l-26 -38l32 6zM257 226h-30l13 -27h30zM158 118l-26 -38l32 6zM161 26l10 17l-10 17l-11 -17zM208 202l-26 -38l32 6zM259 26l10 17l-10 17l-11 -17zM266 91l6 89l-69 -47l-12 -91z
M517 686l-26 -37l32 6zM517 623h-30l13 -27h30zM469 602l-26 -38l32 6zM409 548l-16 -52l15 -52l16 52zM487 393l-82 33l-82 -32l82 -31zM346 602l-6 -32l32 -6zM298 686l-6 -31l32 -6zM298 623l-13 -27h30l13 27h-30zM353 530l-71 52l19 -85l69 -54zM313 410l6 31l-32 6z
M319 340l-6 32l-26 -38zM301 98l26 38l-32 -6zM299 164h31l-13 27h-31zM285 204l74 52l9 90l-73 -54zM349 183l25 37l-31 -6zM408 243l16 52l-15 52l-16 -52zM466 183l6 31l-31 6zM514 98l6 32l-32 6zM516 164l13 27h-31l-13 -27h31zM458 254l72 -50l-10 88l-73 54zM502 410
l26 37l-32 -6zM528 334l-26 38l-6 -32zM514 497l19 85l-71 -52l-17 -87zM555 284l-6 -32l32 -6zM558 226l-13 -27h30l13 27h-30zM556 26l11 17l-11 17l-10 -17zM551 91l73 -49l-6 87l-77 55zM601 170l32 -6l-26 38zM654 26l11 17l-11 17l-10 -17zM651 86l32 -6l-26 38z" />
    <glyph glyph-name="y" unicode="y" horiz-adv-x="703" 
d="M426 103l27 -28v-75h-68l-29 29l-29 -29h-73v76l30 30l-30 29v34l30 31l-30 29v35l13 7l-23 48l-36 -17c-18 10 -35 21 -51 33l-3 41l-35 -3c-16 19 -30 40 -41 64l19 38l-38 19c-4 16 -7 32 -8 49l29 28l-30 31v35l30 29l-30 31v87h76l31 -30l29 30h69v-97l-25 -26
l25 -24v-39l-27 -27l30 -29c2 -11 6 -19 10 -27l-8 -32l32 6c16 -10 33 -14 45 -16l19 -23l16 24c12 2 26 6 39 15l32 -6l-8 31c5 8 9 18 11 29l29 28l-26 26v54l28 27l-28 29v78h71l32 -31l31 31h71v-75l-31 -32l31 -30v-45l-31 -32l29 -29c-1 -16 -3 -32 -7 -47l-40 -20
l20 -39c-11 -23 -25 -44 -40 -63l-37 3l-3 -41c-15 -13 -32 -24 -50 -33l-37 17l-22 -48l17 -12v-22l-32 -32l32 -33v-42zM383 299l45 10l-27 18zM397 250l23 -23v46zM414 181l-23 -23l23 -23v46zM357 289l-32 -82l32 -82l30 82zM342 332l15 -24l15 25l-16 23zM486 334
l39 25l-32 7zM512 589l-24 -16l24 -15l25 15zM486 600l23 23l-23 22v-45zM610 573l-24 16l-25 -16l25 -15zM589 625l23 -23v46zM551 589l24 37l-24 37l-24 -37zM513 391l26 -5l-7 26l-26 5zM507 432l64 54l-22 81l-43 -63zM572 405l23 40l-32 -9zM624 552l-26 -20l20 -26z
M599 754l-8 -31l32 7l7 31zM611 677l-26 17l-26 -17l26 -17zM551 731l-11 -17l11 -17l11 17zM540 677l-26 17l-26 -17l26 -17zM477 730l31 -7l-7 31l-31 7zM477 554l-16 -44l30 15zM482 465l-27 7l6 -28l27 -7zM484 412l-63 -2l-52 -46l72 -6zM424 464l-39 -16l27 -11z
M356 431l-16 -23l15 -24l16 23zM318 448l-39 16l12 -27zM241 510l-15 44l-14 -29zM248 472l-28 -7l-5 -28l27 7zM117 589l-24 -16l24 -15l25 15zM90 599l24 23l-24 23v-46zM130 626l24 -37l24 37l-24 37zM191 589l-25 -16l25 -15l24 15zM196 622l23 -23v46zM203 755l-7 -32
l31 7l7 32zM216 677l-27 17l-26 -17l26 -16zM155 732l-10 -17l10 -17l11 17zM145 677l-27 17l-26 -17l26 -16zM74 762l7 -32l32 -7l-7 32zM85 506l20 26l-26 20zM131 405l9 31l-32 9zM132 486l64 -54l1 72l-43 63zM171 412l-7 -26l26 5l7 26zM178 359l39 -25l-7 32zM262 358
l72 6l-52 46l-64 2zM274 309l46 -10l-18 28zM294 227l23 23l-23 23v-46zM317 158l-23 23v-46zM312 29l7 31l-31 -7l-7 -31zM299 103l23 -14l24 14l-24 15zM354 41l14 22l-14 21l-14 -21zM363 103l24 -14l23 14l-23 15zM400 29l32 -7l-7 31l-32 7z" />
    <glyph glyph-name="z" unicode="z" horiz-adv-x="736" 
d="M89 30l-31 -31h-8v111l28 28l-28 29v23l50 10l1 42l42 48l45 3l-3 45l31 35l48 4l-4 47l34 39l47 3l-3 47l65 74h-22l-30 30l-28 -30h-41l-30 30l-29 -30h-35l-30 30l-29 -30h-76v69l30 31l-30 29v66h75l30 -31l32 31h32l30 -31l31 31h39l30 -31l31 31h32l30 -31l31 31
h33l30 -31l31 31h38l30 -31l31 31h9v-97l-33 -31l33 -33v-34l-36 -40l-51 -3l4 -50l-26 -30l-48 -4l3 -47l-32 -36l-49 -3l4 -48l-32 -37l-51 -3l4 -50l-38 -42h16l30 -30l29 30h41l30 -30l28 30h35l30 -30l29 30h77v-69l-30 -31l30 -29v-66h-76l-30 31l-31 -31h-32l-30 31
l-32 -31h-38l-30 31l-32 -31h-32l-30 31l-31 -31h-32l-30 31l-32 -31h-38zM117 30h46l-23 23zM190 43l14 22l-14 22l-14 -22zM170 141l8 -25l25 -3l-7 24zM211 30h46l-23 23zM281 63l82 32l-82 30l-74 -30zM280 183l-32 -2l1 -32zM253 237l8 -24l25 -4l-7 25zM307 30h46
l-23 23zM376 43l14 22l-14 22l-14 -22zM401 30h46l-23 23zM499 30h46l-23 23zM652 21l-8 31l-31 7l7 -31zM620 163l-7 -31l31 7l8 31zM610 105l-17 -11l17 -10l17 10zM570 148l-14 -22l14 -22l14 22zM570 87l-14 -22l14 -22l14 22zM545 166h-46l23 -23zM550 95l-83 30
l-82 -30l82 -32zM447 166h-46l23 -23zM376 148l-14 -22l14 -22l14 22zM353 166h-46l23 -23zM316 223l30 34l-32 -1zM333 298l25 -4l-7 24l-26 4zM392 312l30 34l-32 -2zM409 387l25 -4l-7 25l-26 4zM470 400l28 36l-32 -4zM484 474l25 -3l-7 24l-26 4zM528 531l9 62l-60 -18
l-9 -62zM496 641l5 -25l32 -11l-14 32zM542 482l30 34l-32 -2zM557 559l25 -4l-7 25l-25 4zM611 560l31 34l-33 -1zM627 721l-5 -31l30 9l5 31zM610 751h-45l23 -23zM614 682l-60 -18l-9 -62l60 18zM539 736l-14 -23l14 -22l14 22zM516 751h-45l22 -23zM447 718l-82 -32
l82 -30l73 30zM465 587l-2 32l-31 -34zM420 751h-45l23 -23zM352 738l-14 -22l14 -22l14 22zM326 751h-45l22 -23zM228 751h-45l22 -23zM78 760l7 -31l31 -7l-7 31zM109 618l7 31l-31 -7l-7 -31zM118 676l17 11l-17 10l-17 -10zM158 633l14 22l-14 22l-14 -22zM158 694
l14 22l-14 22l-14 -22zM183 615h45l-23 23zM178 686l82 -30l82 30l-82 32zM281 615h45l-23 23zM352 633l14 22l-14 22l-14 -22zM375 615h45l-22 23zM439 558l-37 7l17 -37l36 -10zM403 488l-9 -61l59 18l10 62zM391 531l-31 -34l33 1zM375 455l-26 4l8 -25l25 -4zM327 399
l-9 -62l59 18l10 62zM316 444l-31 -34l32 2zM298 366l-26 4l8 -25l25 -3zM250 311l-10 -62l60 18l9 62zM238 354l-30 -34l32 2zM222 280l-26 4l8 -25l25 -4zM171 220l-9 -61l59 18l10 62zM160 270l-31 -34l32 2zM136 185l-25 4l7 -25l25 -4zM95 121l-14 -59l60 25l10 55z
" />
    <glyph glyph-name="Agrave" unicode="&#xc0;" 
d="M618 107l32 -33v-73h-77l-30 30l-29 -30h-69v77l28 29l-28 27v35l25 27l-30 33l-28 -31h-37l-26 26l-25 -26h-38l-27 31l-31 -33l23 -24v-38l-29 -27l29 -29v-78h-71l-33 31l-31 -31h-70v75l31 32l-31 30v32l31 31l-31 31v35l31 32l-31 31v33l31 32l-31 30v33l31 31
l-30 30c1 16 4 32 7 47l40 20l-19 39c11 23 24 44 40 63l36 -3l3 41c16 13 33 24 51 33l36 -17l18 39c19 5 38 9 58 11l25 -24l23 25c24 -1 49 -6 72 -13l18 -38l36 16c18 -9 35 -20 51 -33l3 -40l36 3c16 -19 29 -40 40 -64l-19 -38l39 -19c4 -16 6 -32 7 -49l-29 -29
l31 -30v-35l-31 -29l31 -31v-35l-31 -30l31 -31v-36l-32 -31l32 -32v-31zM614 554l-20 -26l26 -20zM349 368l27 27h21l39 -32l34 35l-25 25v39l26 27l-29 29c-3 10 -6 19 -10 27l8 31l-33 -5c-15 10 -32 14 -45 16l-18 23l-16 -24c-12 -2 -26 -7 -39 -15l-32 5l8 -30
c-5 -8 -9 -18 -11 -29l-29 -28l26 -26v-43l-22 -22l34 -35l38 32h22zM412 365h-46l23 -23zM364 332l-14 22l-13 -22l13 -22zM332 365h-46l23 -23zM87 225l23 22l-23 23v-45zM110 159l-23 23v-46zM238 549l-29 -14l14 -29zM212 622l5 -27l28 -7l-6 28zM212 486l-25 16
l-24 -16l24 -15zM216 465l-24 -23l24 -23v46zM182 392l-30 83l-33 -83l33 -84zM114 471l25 15l-25 16l-24 -16zM110 442l-23 23v-46zM110 345l-23 23v-47zM89 298l26 -17l27 17l-27 17zM151 290l-33 -82l33 -83l29 83zM161 298l27 -17l26 17l-26 17zM207 341l17 -27l17 27
l-17 28zM276 596l39 16l-27 11zM382 612l38 -16l-11 27zM577 392l-32 83l-31 -83l31 -84zM558 486l24 -15l25 15l-25 16zM509 471l25 15l-25 16l-25 -16zM504 442l-23 23v-46zM474 506l14 29l-30 14zM479 595l6 27l-28 -6l-5 -28zM474 369l-17 -28l17 -27l18 27zM509 315
l-27 -17l27 -17l27 17zM546 290l-32 -82l32 -83l30 83zM554 298l27 -17l27 17l-27 17zM586 247l23 -22v45zM609 182l-23 -23l23 -23v46zM586 345l23 -24v47zM586 442l23 -23v46zM569 655l-9 -31l31 -9zM568 574l-65 54v-73l42 -62zM529 648l7 26l-26 -5l-7 -26zM522 701
l-39 25l7 -32zM425 751l-45 9l18 -27zM438 701l-72 -5l52 -46l63 -2zM343 628l16 24l-14 24l-16 -23zM342 751l-14 -24l16 -24l14 25zM317 760l-46 -9l27 -18zM258 701l-43 -53l64 2l51 46zM214 726l-40 -25l32 -7zM187 669l-26 5l6 -26l26 -5zM193 628l-64 -54l22 -81
l43 62zM128 655l-23 -40l32 9zM76 508l26 20l-20 26zM101 31l7 31l-31 -7l-7 -31zM88 108l27 -17l26 17l-26 17zM149 54l10 17l-10 17l-11 -17zM159 108l27 -17l26 17l-26 17zM190 159l23 -23v46zM223 55l-32 7l7 -31l32 -7zM224 224l17 27l-17 27l-17 -27zM286 230h46
l-23 23zM282 261l53 34l-53 33l-51 -34zM350 238l14 22l-14 22l-13 -22zM366 230h46l-23 23zM412 261l53 34l-53 33l-53 -33zM457 251l17 -27l18 27l-18 27zM505 159l-22 23v-46zM497 31l7 31l-32 -7l-7 -31zM484 108l26 -17l26 17l-26 17zM544 54l11 17l-11 17l-10 -17z
M555 108l26 -17l27 17l-27 17zM594 31l31 -7l-7 31l-31 7zM421 832l-14 20l-22 -18c-12 1 -23 3 -34 4l-17 27l-27 -19c-14 3 -27 6 -38 9l-10 26l-29 -13c-15 6 -22 10 -22 10l19 33l41 6l-19 34l19 32c7 -7 14 -14 22 -20l5 -28l24 6c8 -6 16 -11 24 -15l7 -26l26 8
c10 -5 20 -9 29 -13l9 -23l23 11c23 -8 38 -12 38 -12v-1l-23 -18l19 -21c-17 0 -34 0 -50 1zM317 888l-4 26l-23 -13l4 -26zM386 868l-4 19l-17 -11l4 -20z" />
    <glyph glyph-name="Aacute" unicode="&#xc1;" 
d="M618 107l32 -33v-73h-77l-30 30l-29 -30h-69v77l28 29l-28 27v35l25 27l-30 33l-28 -31h-37l-26 26l-25 -26h-38l-27 31l-31 -33l23 -24v-38l-29 -27l29 -29v-78h-71l-33 31l-31 -31h-70v75l31 32l-31 30v32l31 31l-31 31v35l31 32l-31 31v33l31 32l-31 30v33l31 31
l-30 30c1 16 4 32 7 47l40 20l-19 39c11 23 24 44 40 63l36 -3l3 41c16 13 33 24 51 33l36 -17l18 39c19 5 38 9 58 11l25 -24l23 25c24 -1 49 -6 72 -13l18 -38l36 16c18 -9 35 -20 51 -33l3 -40l36 3c16 -19 29 -40 40 -64l-19 -38l39 -19c4 -16 6 -32 7 -49l-29 -29
l31 -30v-35l-31 -29l31 -31v-35l-31 -30l31 -31v-36l-32 -31l32 -32v-31zM614 554l-20 -26l26 -20zM349 368l27 27h21l39 -32l34 35l-25 25v39l26 27l-29 29c-3 10 -6 19 -10 27l8 31l-33 -5c-15 10 -32 14 -45 16l-18 23l-16 -24c-12 -2 -26 -7 -39 -15l-32 5l8 -30
c-5 -8 -9 -18 -11 -29l-29 -28l26 -26v-43l-22 -22l34 -35l38 32h22zM412 365h-46l23 -23zM364 332l-14 22l-13 -22l13 -22zM332 365h-46l23 -23zM87 225l23 22l-23 23v-45zM110 159l-23 23v-46zM238 549l-29 -14l14 -29zM212 622l5 -27l28 -7l-6 28zM212 486l-25 16
l-24 -16l24 -15zM216 465l-24 -23l24 -23v46zM182 392l-30 83l-33 -83l33 -84zM114 471l25 15l-25 16l-24 -16zM110 442l-23 23v-46zM110 345l-23 23v-47zM89 298l26 -17l27 17l-27 17zM151 290l-33 -82l33 -83l29 83zM161 298l27 -17l26 17l-26 17zM207 341l17 -27l17 27
l-17 28zM276 596l39 16l-27 11zM382 612l38 -16l-11 27zM577 392l-32 83l-31 -83l31 -84zM558 486l24 -15l25 15l-25 16zM509 471l25 15l-25 16l-25 -16zM504 442l-23 23v-46zM474 506l14 29l-30 14zM479 595l6 27l-28 -6l-5 -28zM474 369l-17 -28l17 -27l18 27zM509 315
l-27 -17l27 -17l27 17zM546 290l-32 -82l32 -83l30 83zM554 298l27 -17l27 17l-27 17zM586 247l23 -22v45zM609 182l-23 -23l23 -23v46zM586 345l23 -24v47zM586 442l23 -23v46zM569 655l-9 -31l31 -9zM568 574l-65 54v-73l42 -62zM529 648l7 26l-26 -5l-7 -26zM522 701
l-39 25l7 -32zM425 751l-45 9l18 -27zM438 701l-72 -5l52 -46l63 -2zM343 628l16 24l-14 24l-16 -23zM342 751l-14 -24l16 -24l14 25zM317 760l-46 -9l27 -18zM258 701l-43 -53l64 2l51 46zM214 726l-40 -25l32 -7zM187 669l-26 5l6 -26l26 -5zM193 628l-64 -54l22 -81
l43 62zM128 655l-23 -40l32 9zM76 508l26 20l-20 26zM101 31l7 31l-31 -7l-7 -31zM88 108l27 -17l26 17l-26 17zM149 54l10 17l-10 17l-11 -17zM159 108l27 -17l26 17l-26 17zM190 159l23 -23v46zM223 55l-32 7l7 -31l32 -7zM224 224l17 27l-17 27l-17 -27zM286 230h46
l-23 23zM282 261l53 34l-53 33l-51 -34zM350 238l14 22l-14 22l-13 -22zM366 230h46l-23 23zM412 261l53 34l-53 33l-53 -33zM457 251l17 -27l18 27l-18 27zM505 159l-22 23v-46zM497 31l7 31l-32 -7l-7 -31zM484 108l26 -17l26 17l-26 17zM544 54l11 17l-11 17l-10 -17z
M555 108l26 -17l27 17l-27 17zM594 31l31 -7l-7 31l-31 7zM284 852l-14 -20c-16 -1 -32 -1 -50 -1l19 21l-22 18v1s15 4 38 12l22 -11l10 23c9 4 18 8 28 13l27 -8l6 26c8 4 16 9 24 15l25 -6l5 28c8 6 15 13 22 20l18 -32l-18 -34l41 -6l19 -33s-8 -4 -22 -10l-29 13
l-10 -26c-12 -3 -24 -6 -39 -9l-26 19l-18 -27c-10 -1 -21 -3 -33 -4zM378 914l-3 -26l22 -13l4 26zM309 887l-4 -19l17 -12l4 20z" />
    <glyph glyph-name="Acircumflex" unicode="&#xc2;" 
d="M618 107l32 -33v-73h-77l-30 30l-29 -30h-69v77l28 29l-28 27v35l25 27l-30 33l-28 -31h-37l-26 26l-25 -26h-38l-27 31l-31 -33l23 -24v-38l-29 -27l29 -29v-78h-71l-33 31l-31 -31h-70v75l31 32l-31 30v32l31 31l-31 31v35l31 32l-31 31v33l31 32l-31 30v33l31 31
l-30 30c1 16 4 32 7 47l40 20l-19 39c11 23 24 44 40 63l36 -3l3 41c16 13 33 24 51 33l36 -17l18 39c19 5 38 9 58 11l25 -24l23 25c24 -1 49 -6 72 -13l18 -38l36 16c18 -9 35 -20 51 -33l3 -40l36 3c16 -19 29 -40 40 -64l-19 -38l39 -19c4 -16 6 -32 7 -49l-29 -29
l31 -30v-35l-31 -29l31 -31v-35l-31 -30l31 -31v-36l-32 -31l32 -32v-31zM614 554l-20 -26l26 -20zM349 368l27 27h21l39 -32l34 35l-25 25v39l26 27l-29 29c-3 10 -6 19 -10 27l8 31l-33 -5c-15 10 -32 14 -45 16l-18 23l-16 -24c-12 -2 -26 -7 -39 -15l-32 5l8 -30
c-5 -8 -9 -18 -11 -29l-29 -28l26 -26v-43l-22 -22l34 -35l38 32h22zM412 365h-46l23 -23zM364 332l-14 22l-13 -22l13 -22zM332 365h-46l23 -23zM87 225l23 22l-23 23v-45zM110 159l-23 23v-46zM238 549l-29 -14l14 -29zM212 622l5 -27l28 -7l-6 28zM212 486l-25 16
l-24 -16l24 -15zM216 465l-24 -23l24 -23v46zM182 392l-30 83l-33 -83l33 -84zM114 471l25 15l-25 16l-24 -16zM110 442l-23 23v-46zM110 345l-23 23v-47zM89 298l26 -17l27 17l-27 17zM151 290l-33 -82l33 -83l29 83zM161 298l27 -17l26 17l-26 17zM207 341l17 -27l17 27
l-17 28zM276 596l39 16l-27 11zM382 612l38 -16l-11 27zM577 392l-32 83l-31 -83l31 -84zM558 486l24 -15l25 15l-25 16zM509 471l25 15l-25 16l-25 -16zM504 442l-23 23v-46zM474 506l14 29l-30 14zM479 595l6 27l-28 -6l-5 -28zM474 369l-17 -28l17 -27l18 27zM509 315
l-27 -17l27 -17l27 17zM546 290l-32 -82l32 -83l30 83zM554 298l27 -17l27 17l-27 17zM586 247l23 -22v45zM609 182l-23 -23l23 -23v46zM586 345l23 -24v47zM586 442l23 -23v46zM569 655l-9 -31l31 -9zM568 574l-65 54v-73l42 -62zM529 648l7 26l-26 -5l-7 -26zM522 701
l-39 25l7 -32zM425 751l-45 9l18 -27zM438 701l-72 -5l52 -46l63 -2zM343 628l16 24l-14 24l-16 -23zM342 751l-14 -24l16 -24l14 25zM317 760l-46 -9l27 -18zM258 701l-43 -53l64 2l51 46zM214 726l-40 -25l32 -7zM187 669l-26 5l6 -26l26 -5zM193 628l-64 -54l22 -81
l43 62zM128 655l-23 -40l32 9zM76 508l26 20l-20 26zM101 31l7 31l-31 -7l-7 -31zM88 108l27 -17l26 17l-26 17zM149 54l10 17l-10 17l-11 -17zM159 108l27 -17l26 17l-26 17zM190 159l23 -23v46zM223 55l-32 7l7 -31l32 -7zM224 224l17 27l-17 27l-17 -27zM286 230h46
l-23 23zM282 261l53 34l-53 33l-51 -34zM350 238l14 22l-14 22l-13 -22zM366 230h46l-23 23zM412 261l53 34l-53 33l-53 -33zM457 251l17 -27l18 27l-18 27zM505 159l-22 23v-46zM497 31l7 31l-32 -7l-7 -31zM484 108l26 -17l26 17l-26 17zM544 54l11 17l-11 17l-10 -17z
M555 108l26 -17l27 17l-27 17zM594 31l31 -7l-7 31l-31 7zM469 866v0l-26 -11l12 -26c-17 5 -33 10 -48 16l-8 23l-26 -10c-11 4 -21 9 -31 13v1c-10 -5 -23 -11 -32 -14l-26 10l-8 -23c-15 -6 -31 -11 -48 -16l12 26l-26 11v0s13 8 32 23l25 -4l2 25c8 6 15 13 23 21h28
l-1 26c6 7 12 14 18 22h1v0c6 -8 12 -15 18 -22l-1 -26h28c8 -8 15 -15 23 -21l2 -25l25 4c19 -15 32 -23 32 -23zM299 889l20 -6l-2 21l-20 5zM384 889l2 20l-20 -5l-2 -21z" />
    <glyph glyph-name="Atilde" unicode="&#xc3;" 
d="M618 107l32 -33v-73h-77l-30 30l-29 -30h-69v77l28 29l-28 27v35l25 27l-30 33l-28 -31h-37l-26 26l-25 -26h-38l-27 31l-31 -33l23 -24v-38l-29 -27l29 -29v-78h-71l-33 31l-31 -31h-70v75l31 32l-31 30v32l31 31l-31 31v35l31 32l-31 31v33l31 32l-31 30v33l31 31
l-30 30c1 16 4 32 7 47l40 20l-19 39c11 23 24 44 40 63l36 -3l3 41c16 13 33 24 51 33l36 -17l18 39c19 5 38 9 58 11l25 -24l23 25c24 -1 49 -6 72 -13l18 -38l36 16c18 -9 35 -20 51 -33l3 -40l36 3c16 -19 29 -40 40 -64l-19 -38l39 -19c4 -16 6 -32 7 -49l-29 -29
l31 -30v-35l-31 -29l31 -31v-35l-31 -30l31 -31v-36l-32 -31l32 -32v-31zM614 554l-20 -26l26 -20zM349 368l27 27h21l39 -32l34 35l-25 25v39l26 27l-29 29c-3 10 -6 19 -10 27l8 31l-33 -5c-15 10 -32 14 -45 16l-18 23l-16 -24c-12 -2 -26 -7 -39 -15l-32 5l8 -30
c-5 -8 -9 -18 -11 -29l-29 -28l26 -26v-43l-22 -22l34 -35l38 32h22zM412 365h-46l23 -23zM364 332l-14 22l-13 -22l13 -22zM332 365h-46l23 -23zM87 225l23 22l-23 23v-45zM110 159l-23 23v-46zM238 549l-29 -14l14 -29zM212 622l5 -27l28 -7l-6 28zM212 486l-25 16
l-24 -16l24 -15zM216 465l-24 -23l24 -23v46zM182 392l-30 83l-33 -83l33 -84zM114 471l25 15l-25 16l-24 -16zM110 442l-23 23v-46zM110 345l-23 23v-47zM89 298l26 -17l27 17l-27 17zM151 290l-33 -82l33 -83l29 83zM161 298l27 -17l26 17l-26 17zM207 341l17 -27l17 27
l-17 28zM276 596l39 16l-27 11zM382 612l38 -16l-11 27zM577 392l-32 83l-31 -83l31 -84zM558 486l24 -15l25 15l-25 16zM509 471l25 15l-25 16l-25 -16zM504 442l-23 23v-46zM474 506l14 29l-30 14zM479 595l6 27l-28 -6l-5 -28zM474 369l-17 -28l17 -27l18 27zM509 315
l-27 -17l27 -17l27 17zM546 290l-32 -82l32 -83l30 83zM554 298l27 -17l27 17l-27 17zM586 247l23 -22v45zM609 182l-23 -23l23 -23v46zM586 345l23 -24v47zM586 442l23 -23v46zM569 655l-9 -31l31 -9zM568 574l-65 54v-73l42 -62zM529 648l7 26l-26 -5l-7 -26zM522 701
l-39 25l7 -32zM425 751l-45 9l18 -27zM438 701l-72 -5l52 -46l63 -2zM343 628l16 24l-14 24l-16 -23zM342 751l-14 -24l16 -24l14 25zM317 760l-46 -9l27 -18zM258 701l-43 -53l64 2l51 46zM214 726l-40 -25l32 -7zM187 669l-26 5l6 -26l26 -5zM193 628l-64 -54l22 -81
l43 62zM128 655l-23 -40l32 9zM76 508l26 20l-20 26zM101 31l7 31l-31 -7l-7 -31zM88 108l27 -17l26 17l-26 17zM149 54l10 17l-10 17l-11 -17zM159 108l27 -17l26 17l-26 17zM190 159l23 -23v46zM223 55l-32 7l7 -31l32 -7zM224 224l17 27l-17 27l-17 -27zM286 230h46
l-23 23zM282 261l53 34l-53 33l-51 -34zM350 238l14 22l-14 22l-13 -22zM366 230h46l-23 23zM412 261l53 34l-53 33l-53 -33zM457 251l17 -27l18 27l-18 27zM505 159l-22 23v-46zM497 31l7 31l-32 -7l-7 -31zM484 108l26 -17l26 17l-26 17zM544 54l11 17l-11 17l-10 -17z
M555 108l26 -17l27 17l-27 17zM594 31l31 -7l-7 31l-31 7zM472 886l11 -30l-12 -24c-7 6 -13 11 -20 16l-8 23l-20 -9c-10 3 -19 5 -28 5l-15 17l-18 -20c-9 -2 -17 -4 -26 -7l-16 15l-14 -25c-5 -2 -10 -3 -14 -5c-9 -2 -16 -4 -23 -5l-16 19l-19 -22c-27 2 -38 12 -38 12
l7 19l33 12l-17 25l8 21s6 -3 16 -4l15 -20l20 20c7 2 15 4 23 6l1 1l18 -16l18 27c11 3 21 5 31 6l17 -19l22 21c8 -1 16 -2 25 -4l12 -3l10 -28l25 13c18 -10 27 -20 27 -20l-9 -17h-26zM290 865l12 17l-13 14l-11 -16zM355 887l12 17l-13 14l-12 -16zM415 889l15 14
l-10 16l-14 -13z" />
    </font>
</defs>
</svg>
