<?xml version="1.0" encoding="utf-8"?>
<!-- Generator: Adobe Illustrator 25.0.1, SVG Export Plug-In . SVG Version: 6.00 Build 0)  -->
<svg version="1.1" xmlns="http://www.w3.org/2000/svg" xmlns:xlink="http://www.w3.org/1999/xlink" x="0px" y="0px"
	 viewBox="0 0 320.1 90.1" style="enable-background:new 0 0 320.1 90.1;" xml:space="preserve">
<style type="text/css">
	.st0{display:none;}
	.st1{display:inline;}
	.st2{fill:none;stroke:#222222;stroke-width:2;}
	.st3{fill:none;stroke:#222222;stroke-width:2;stroke-miterlimit:10;}
	.st4{fill:none;stroke:#222222;stroke-width:2;stroke-linecap:square;}
	.st5{fill:none;stroke:#222222;stroke-width:2;stroke-linecap:square;stroke-linejoin:round;}
	.st6{fill:#222222;}
	.st7{fill:#FFFFFF;}
	.st8{clip-path:url(#SVGID_2_);fill:none;stroke:#FFFFFF;stroke-width:2;}
	.st9{fill:none;stroke:#FFFFFF;stroke-width:2;}
</style>
<g id="Layer_1" class="st0">
	<g class="st1">
		<g>
			<g>
				<path class="st2" d="M45.1,89.1c24.3,0,44-19.7,44-44s-19.7-44-44-44s-44,19.7-44,44S20.8,89.1,45.1,89.1L45.1,89.1z"/>
			</g>
		</g>
		<path class="st3" d="M64.7,35c0,14.4-19.6,33.1-19.6,33.1S25.5,49.4,25.5,35c0-10.8,8.8-19.6,19.6-19.6
			C55.9,15.3,64.7,24.1,64.7,35L64.7,35z"/>
		<line class="st4" x1="45.1" y1="41.1" x2="45.1" y2="81.6"/>
		<path class="st4" d="M62.4,27.8l-7.6,7.6 M64,36.2l-9.2,9.2"/>
	</g>
	<g class="st1">
		<g>
			<g>
				<path class="st2" d="M160.1,89.2c24.3,0,44-19.7,44-44s-19.7-44-44-44s-44,19.7-44,44S135.8,89.2,160.1,89.2L160.1,89.2z
					 M143.6,30h33"/>
			</g>
		</g>
		<path class="st3" d="M131.1,51.4c0-9.2,12.5-21,12.5-21s12.5,11.9,12.5,21c0,6.9-5.6,12.5-12.5,12.5
			C136.7,63.9,131.1,58.3,131.1,51.4L131.1,51.4z"/>
		<line class="st2" x1="131.5" y1="51.3" x2="155.7" y2="51.3"/>
		<path class="st3" d="M189.1,51.4c0-9.2-12.5-21-12.5-21s-12.5,11.9-12.5,21c0,6.9,5.6,12.5,12.5,12.5
			C183.5,63.9,189.1,58.3,189.1,51.4L189.1,51.4z"/>
		<line class="st2" x1="188.7" y1="51.3" x2="164.5" y2="51.3"/>
		<line class="st5" x1="160.2" y1="17.5" x2="160.2" y2="30"/>
	</g>
	<g class="st1">
		<polyline class="st2" points="292.6,35.9 283.4,45.1 292.6,54.3 		"/>
		<polyline class="st2" points="257.4,35.9 266.6,45.1 257.4,54.3 		"/>
		<polyline class="st2" points="284.2,62.7 275,53.5 265.8,62.7 		"/>
		<polyline class="st2" points="284.2,27.5 275,36.7 265.8,27.5 		"/>
		<g>
			<g>
				<path class="st2" d="M275,89.1c24.3,0,44-19.7,44-44s-19.7-44-44-44s-44,19.7-44,44S250.7,89.1,275,89.1L275,89.1z"/>
			</g>
		</g>
		<path class="st6" d="M284.9,46.1H313c0-0.3,0.1-0.7,0.1-1s0-0.7-0.1-1h-28.1V46.1L284.9,46.1z"/>
		<path class="st6" d="M237.1,46.1h28.4v-2h-28.4c0,0.3-0.1,0.7-0.1,1S237,45.8,237.1,46.1L237.1,46.1z"/>
		<path class="st6" d="M274,36.2h2v-29c-0.3,0-0.7-0.1-1-0.1c-0.3,0-0.7,0-1,0.1V36.2L274,36.2z"/>
		<path class="st6" d="M276,55h-2v28c0.3,0,0.7,0.1,1,0.1c0.3,0,0.7,0,1-0.1V55L276,55z"/>
	</g>
</g>
<g id="Layer_2">
	<g>
		<path class="st7" d="M68.7,46.1h15.1c0-0.3,0.1-0.7,0.1-1c0-0.3,0-0.7-0.1-1H68.7V46.1L68.7,46.1z"/>
		<path class="st7" d="M8.8,46.1h15.7v-2H8.8c0,0.3-0.1,0.7-0.1,1C8.7,45.4,8.7,45.8,8.8,46.1L8.8,46.1z"/>
		<path class="st7" d="M47.3,66.9h-2v15.7c0.3,0,0.7,0.1,1,0.1c0.3,0,0.7,0,1-0.1V66.9L47.3,66.9z"/>
		<path class="st7" d="M45.3,23.3h2V7.5c-0.3,0-0.7-0.1-1-0.1c-0.3,0-0.7,0-1,0.1V23.3L45.3,23.3z"/>
		<path class="st7" d="M73.5,19.2c-0.5-0.5-0.9-1-1.4-1.4l-11,11l1.3,1.6L73.5,19.2L73.5,19.2z"/>
		<path class="st7" d="M20.4,72.3l11.2-11.2l-1.3-1.5L19.1,70.9C19.5,71.4,20,71.9,20.4,72.3L20.4,72.3z"/>
		<path class="st7" d="M31.4,28.8l-11-11c-0.5,0.5-1,0.9-1.4,1.4l11,11L31.4,28.8L31.4,28.8z"/>
		<path class="st7" d="M73.5,70.9L62.3,59.7l-1.4,1.5l11.2,11.2C72.6,71.9,73.1,71.4,73.5,70.9L73.5,70.9z"/>
		<g>
			<g>
				<defs>
					<rect id="SVGID_1_" x="1.7" y="0.5" width="89.1" height="89.1"/>
				</defs>
				<clipPath id="SVGID_2_">
					<use xlink:href="#SVGID_1_"  style="overflow:visible;"/>
				</clipPath>
				<path class="st8" d="M46.3,88.6c24.1,0,43.6-19.5,43.6-43.6S70.3,1.5,46.3,1.5S2.7,21,2.7,45.1S22.2,88.6,46.3,88.6L46.3,88.6z
					 M46.3,66.9c12.1,0,21.8-9.7,21.8-21.8s-9.7-21.8-21.8-21.8S24.5,33,24.5,45.1S34.2,66.9,46.3,66.9L46.3,66.9z"/>
			</g>
		</g>
	</g>
	<g>
		<path class="st7" d="M170.6,46.2h27c0-0.3,0.1-0.7,0.1-1c0-0.3,0-0.7-0.1-1h-27V46.2L170.6,46.2z"/>
		<path class="st7" d="M122.6,46.2h26.6v-2h-26.6c0,0.3-0.1,0.7-0.1,1C122.5,45.5,122.5,45.9,122.6,46.2L122.6,46.2z"/>
		<path class="st7" d="M161.1,56.1h-2v26.6c0.3,0,0.7,0.1,1,0.1s0.7,0,1-0.1V56.1L161.1,56.1z"/>
		<path class="st7" d="M159.1,34.3h2V7.6c-0.3,0-0.7-0.1-1-0.1s-0.7,0-1,0.1V34.3L159.1,34.3z"/>
		<path class="st7" d="M187.3,19.3c-0.5-0.5-0.9-1-1.4-1.4l-18.7,18.7l1.4,1.4L187.3,19.3L187.3,19.3z"/>
		<path class="st7" d="M134.3,72.4L153,53.7l-1.4-1.4L132.9,71C133.3,71.5,133.8,72,134.3,72.4L134.3,72.4z"/>
		<path class="st7" d="M152,38.4l1.4-1.4l-19.1-19.1c-0.5,0.5-1,0.9-1.4,1.4L152,38.4L152,38.4z"/>
		<path class="st7" d="M187.3,71l-19.1-19.1l-1.4,1.4l19.1,19.1C186.4,72,186.9,71.5,187.3,71L187.3,71z"/>
		<g>
			<g>
				<path class="st9" d="M160.1,88.7c24.1,0,43.6-19.5,43.6-43.6S184.2,1.6,160.1,1.6s-43.6,19.5-43.6,43.6S136,88.7,160.1,88.7
					L160.1,88.7z M160.1,56.1c6,0,10.9-4.9,10.9-10.9s-4.9-10.9-10.9-10.9s-10.9,4.9-10.9,10.9S154.1,56.1,160.1,56.1L160.1,56.1z"
					/>
			</g>
		</g>
	</g>
	<g>
		<g>
			<g>
				<path class="st9" d="M273.9,88.6c24.1,0,43.6-19.5,43.6-43.6S297.9,1.5,273.9,1.5S230.3,21,230.3,45.1S249.8,88.6,273.9,88.6
					L273.9,88.6z M273.9,50.4c9.9,0,17.9-8,17.9-17.9c0-10-8-18.1-17.9-18.1c-9.9,0-18,8-18,18C255.9,42.3,264,50.4,273.9,50.4
					L273.9,50.4z M264.2,69.7c9.9,0,17.9-8,17.9-17.9s-8-17.9-17.9-17.9c-9.9,0-17.9,8-17.9,17.9C246.2,61.7,254.3,69.7,264.2,69.7
					L264.2,69.7z M283.6,69.7c9.9,0,17.9-8,17.9-17.9s-8-17.9-17.9-17.9c-9.9,0-18,8-18,17.9S273.7,69.7,283.6,69.7L283.6,69.7z"/>
			</g>
		</g>
	</g>
</g>
</svg>
