<?xml version="1.0" encoding="utf-8"?>
<!-- Generator: Adobe Illustrator 25.0.1, SVG Export Plug-In . SVG Version: 6.00 Build 0)  -->
<svg version="1.1" id="Layer_1" xmlns="http://www.w3.org/2000/svg" xmlns:xlink="http://www.w3.org/1999/xlink" x="0px" y="0px"
	 viewBox="0 0 528.7 52.3" style="enable-background:new 0 0 528.7 52.3;" xml:space="preserve">
<style type="text/css">
	.st0{fill:#2B2B2B;}
</style>
<g>
	<path class="st0" d="M0.6,43.7c0.9-1.7,6,1.6,9.9,1.4c1.8-0.7,3.1-2.4,3.1-5.6c0-4.2-2.5-11.5-2.1-16.3c0.4-5.5,4.9-9.1,8.4-9.1
		c2.5,0,4.3,1.9,4.2,3.7c-0.2,2.7-6.3,1-6.8,5.3c0,4.3,2.1,10.9,2.1,16.2c0,1.4-0.2,2.8-0.6,4.1c5.1-2.4,11.3-8.1,16-13.3
		c2.7-2.6,3.4,1-0.3,5.1C30.4,40,22.2,48.6,13.3,50c-1.3,0.6-2.7,1.1-4.4,1.4C3,52.5-0.6,45.8,0.6,43.7z"/>
	<path class="st0" d="M42.6,16.6c1.3,0.1,2.2,1.1,2.2,3.1c0,1.6-0.6,3.8-2.3,6.6c-1.4,2.5-3.6,9.5-4.5,13.5
		c-0.6,2.8-0.6,4.1,0.4,4.1c2.8-0.2,11.4-8,16.8-13.8c2.6-2.6,3.3,1-0.3,5.1s-13.7,14.6-19,14.6c-3.3,0-4.7-3.3-4-7.9
		c1-7.1,4-14.5,5.7-20C38.8,18.3,40.4,16.5,42.6,16.6z M43.8,6.5c-0.8-2.4,1.8-5.6,5.4-5.3c1.8,0.2,2.5,1.1,2.5,2.4
		c0,0.8-0.2,1.7-0.6,2.6c-1.3,2.9-3.3,4.9-5.1,4.8C44.2,10.7,43.4,8.9,43.8,6.5z"/>
	<path class="st0" d="M60.7,50.4c-5.8,0-9.3-4.3-9-10.9c0.3-7.8,4.8-15.8,9.3-20.1c3.4-3.3,6.1-3.5,7.4-2.5c0.3-1,1.1-1.8,2.7-2.1
		c3,0,6,1.8,7.9,4.9c2.5,0.2,5.2,0.2,8,0.2c3.3,0,6.5-0.2,9.4-0.6c3.3-0.5,2.6,2.8-2,4.4c-3.4,1-7.6,1.3-11.8,1.3
		c-0.7,0-1.4,0-2.1,0c0.1,0.5,0.1,1,0.1,1.5C80.2,37.2,71.3,50.4,60.7,50.4z M61.4,44.9c5.6-0.1,13.1-10.2,13.3-18.2
		c0-0.8,0-1.6-0.1-2.3c-2.9-0.8-5-2.7-5.9-4.7c-0.5,1.1-1.5,2.3-3.3,3.6c-2.7,2.8-5.8,7.4-7.2,12.8c-0.3,1.4-0.5,2.6-0.5,3.7
		C57.7,42.8,58.8,44.9,61.4,44.9z"/>
	<path class="st0" d="M95.4,51.1c-4.5,0-8-3.5-8-8.9c0-7.7,7.4-24.1,14.6-38.9c0.9-1.9,2.1-2.8,3.3-2.8c1.5,0,2.8,1.6,2.4,4.5
		c-0.3,2.4-2,6.8-4,11.1c1-0.4,2.4-0.4,4-0.1c2.4,0.5,4.3,1.8,5.6,3.9c2.5,0.2,4.9,0.2,7.4,0.2c3.3,0,6.5-0.2,9.6-0.6
		c3.3-0.4,2.7,2.9-2,4.5c-3.3,0.9-7.2,1.2-11.3,1.2c-0.7,0-1.4,0-2.1,0c0.1,0.5,0.1,1.1,0.1,1.7C115,39.4,103.7,51.4,95.4,51.1z
		 M96.1,45.4c4.9,0,12.9-9.7,12.9-17.9c0-1.1-0.2-2.1-0.5-2.9c-4.1-1-6.2-2.8-6.8-4.5c-1,1.7-2,3.1-2.9,4.1
		c-3,6.4-5.7,13.4-5.7,17.3C93,44,94.1,45.4,96.1,45.4z"/>
	<path class="st0" d="M121,50.7c-1.4,0-2.4-0.9-2.4-2.6c0-1.4,0.6-3.2,2.1-5.6c2.8-8,11.4-31.3,13.9-37.6c1.1-3,2.6-4.4,3.8-4.4
		c1.5,0,2.5,2,2.1,5.6c-0.6,3.9-2.7,9.7-5.7,14.2c-1.3,3-2.7,6.7-4.2,10.7c8.4-10.1,14.7-14.5,17.8-14.7c2.4-0.2,4,1.6,4,4.6
		c0,0.9-0.2,2-0.5,3.1c-1.1,3.8-4.5,12.8-5.6,16.3c-0.6,2.2-0.6,3.8,0.6,3.8c3-0.2,12.3-8.5,17.4-14c2.6-2.6,3.3,0.9-0.3,5.1
		c-3.5,4.1-14.2,15-20.2,15c-2.8,0-4.8-2.7-3.8-7.1c1.2-6.3,6.7-18.7,5.8-19.6c-1-1-9.1,6-18.9,18.3c-0.6,1.6-1,3.3-1.5,4.9
		C124.6,49.4,122.6,50.7,121,50.7z"/>
	<path class="st0" d="M178.6,41.6c-4.7,6.1-9.3,8.7-12.7,8.7c-1,0-1.9-0.2-2.7-0.6c-2.1-1-3.2-3.5-3.2-6.8c0-1.1,0.2-2.3,0.4-3.6
		c2.9-12.2,12.4-23.5,20.6-23.5c1,0,1.9,0.2,2.8,0.5c2.9,1.1,3.9,3.3,3.9,5.3c0,1.8-0.8,3.3-1.9,3.7c-1.7,0.5-2.1-3.7-5.3-4.3
		c-5.7-0.9-13,11.5-14,18.3c-0.2,1-0.3,1.8-0.3,2.5c0,1.5,0.4,2.5,1.3,2.8c2.1,0.4,7.2-3,13.1-11.5c0.2-1,0.6-1.8,0.9-2.8
		c1.1-3.1,2.8-4.4,4.1-4.4c1.2,0,2.1,1,2.1,2.7c0,1.1-0.4,2.5-1.4,4.1c-1,2.5-1.8,6.9-1.8,9.3c0,1.2,0.4,1.6,0.9,1.6
		c2.9,0,11.6-8.4,16.4-13.5c2.7-2.6,3.3,0.9-0.2,5.1c-3.2,3.7-13.5,14.5-18.5,14.5c-2.5,0-4-2.4-4.1-5.9
		C178.5,43.2,178.6,42.4,178.6,41.6z"/>
	<path class="st0" d="M198,50.3c-1.5,0-2.8-1-2.7-2.8c-0.3-1.8,1.1-4.8,3.2-7.8c2.3-7.4,5.1-14.7,7.1-20c-0.4-2.4,2.5-4.5,4.6-4.5
		c1,0,1.7,0.4,2,1.4c0.8,2.8-1.7,7-3.7,11.7c-0.3,1-0.6,1.9-1,2.9c9.5-10.7,15.7-15.5,19-15.5c2.5,0,4.7,2.4,3.5,5.3
		c-0.8,3.5-4.9,14.2-6.1,18.9c-0.7,2.5-0.8,3.8,0.3,3.9c1.4-0.1,5-2.4,8.8-5.6c1.8-1.3,3-1.4,3,0.1c0.1,1.3-1,3.2-3,4.9
		c-4.1,3.9-8.5,6.6-11.1,6.6c-1.5,0-2.6-0.6-3.5-1.8c-0.7-0.7-1-1.8-1-3.3c0-1.2,0.2-2.7,0.6-4.3c1.4-5,4.9-14.5,5.4-16.7
		c0.5-2-8.3,4.6-19.6,18.1c-0.7,1.9-1.4,3.8-2.1,5.6C200.7,49.4,199.3,50.3,198,50.3z"/>
	<path class="st0" d="M261.1,50.6c-5.8,0-9.3-4.5-9-11.1c0.3-7.8,4.9-15.7,9.3-20.1c2.5-2.4,4.5-3.1,6-2.9c1.6-1.2,3.3-1.8,5-1.8
		c4.6,0,8.5,4.1,8.5,11C281.1,37.1,271.7,50.6,261.1,50.6z M261.9,45.1c5.6-0.1,13.4-10.5,13.3-18.9c0-3.7-1.4-5.6-3.3-5.6
		c-1.6,0-3.6,1.2-5.5,3.7c-1.2,2.1-2.4,3.1-3.3,3.1c-0.2,0-0.2,0-0.4-0.1c-1.6,2.4-3,5.3-4,8.5c-0.3,1.4-0.6,2.7-0.6,3.9
		C258.2,42.8,259.3,45.1,261.9,45.1z"/>
	<path class="st0" d="M299.5,0.9c2.5,0.6,4.3,3.3,4.3,7c0,0.8-0.1,1.6-0.2,2.5c-1,5.1-4.9,9.6-10.5,12.1c-1,0.5-1.8,0.6-2.5,0.6
		c-2,0-2.5-1.6-1.3-2.5c4.5-3,7.7-6.6,7.8-9.8c0.1-3.7-3.1-4.6-3.2-6.2C293.8,2.7,296.6,0.2,299.5,0.9z"/>
	<path class="st0" d="M320.1,41.3c-4.9,6.3-9.6,9.5-13.2,9.5c-1.3,0-2.5-0.4-3.4-1.3c-1.5-1.4-2.2-3.7-2.2-6.5
		c0-10.3,9-27.1,19.4-27.9c3.2-0.2,4.7,0.8,4.7,2.1c0,1.9-2.7,4.5-8,5.4c-4.9,2.5-10.3,13.8-10.3,19.1c0,1.1,0.2,1.9,0.7,2.4
		c1.9,1.8,8.7-3,14.7-12.9c2.3-7.3,5.8-16.1,9-23.2c1.4-4.5,4.7-8.5,6.8-7.6c0.7,0.3,1.1,1.2,1.1,2.7c0,3.1-1.8,8.6-6.6,16.3
		c-2.7,6-6.9,17.7-6.9,23c0,1,0.3,1.5,0.9,1.6c2.9,0,11.5-8.1,16.9-13.9c2.6-2.6,3.3,1-0.3,5.1C340,39.1,329.6,50,324.3,50
		c-2.6,0-4.4-2.8-4.4-6.4C319.9,42.9,320,42.1,320.1,41.3z"/>
	<path class="st0" d="M349.2,50.4c-5.8,0-9.3-4.3-9-10.9c0.3-7.8,4.8-15.8,9.3-20.1c3.4-3.3,6.1-3.5,7.4-2.5c0.3-1,1.1-1.8,2.7-2.1
		c3,0,6,1.8,7.9,4.9c2.5,0.2,5.2,0.2,8,0.2c3.3,0,6.5-0.2,9.4-0.6c3.3-0.5,2.6,2.8-2,4.4c-3.3,0.9-7.5,1.2-11.7,1.2
		c-0.7,0-1.4,0-2.1,0c0.1,0.5,0.1,1,0.1,1.5C368.8,37.2,359.9,50.4,349.2,50.4z M350,44.9c5.6-0.1,13.1-10.2,13.3-18.2
		c0-0.8,0-1.6-0.1-2.3c-2.9-0.8-5-2.7-5.9-4.7c-0.5,1.1-1.5,2.3-3.3,3.6c-2.7,2.8-5.8,7.4-7.2,12.8c-0.3,1.4-0.5,2.6-0.5,3.7
		C346.3,42.8,347.4,44.9,350,44.9z"/>
	<path class="st0" d="M375.8,50.3c-1.5,0-2.8-1-2.7-2.8c-0.3-1.8,1.1-4.8,3.2-7.8c2.3-7.4,5.1-14.7,7.1-20c-0.4-2.4,2.5-4.5,4.6-4.5
		c1,0,1.7,0.4,2,1.4c0.8,2.8-1.7,7-3.7,11.7c-0.3,1-0.6,1.9-1,2.9c9.5-10.7,15.7-15.5,19-15.5c2.5,0,4.7,2.4,3.5,5.3
		c-0.8,3.5-4.9,14.2-6.1,18.9c-0.7,2.5-0.8,3.8,0.3,3.9c3.1-0.2,11.1-7.1,17.2-13.7c2.6-2.6,3.3,0.9-0.2,5.1
		c-4.3,5.1-14.2,14.6-19.5,14.6c-1.4,0-2.5-0.6-3.3-1.8c-0.7-0.7-1-1.8-1-3.3c0-1.2,0.2-2.7,0.6-4.3c1.4-5,4.9-14.5,5.4-16.7
		c0.5-2-8.3,4.6-19.6,18.1c-0.7,1.9-1.4,3.8-2.1,5.6C378.5,49.4,377.1,50.3,375.8,50.3z"/>
	<path class="st0" d="M415.6,50.3c-1.5,0-2.8-1-2.7-2.8c-0.3-1.8,1.1-4.8,3.2-7.8c2.3-7.4,5.1-14.7,7.1-20c-0.4-2.4,2.5-4.5,4.6-4.5
		c1,0,1.7,0.4,2,1.4c0.8,2.8-1.7,7-3.7,11.7c-0.3,1-0.6,1.9-1,2.9c9.5-10.7,15.7-15.5,19-15.5c2.5,0,4.7,2.4,3.5,5.3
		c-0.8,3.5-4.9,14.2-6.1,18.9c-0.7,2.5-0.8,3.8,0.3,3.9c3.1-0.2,11.1-7.1,17.2-13.7c2.6-2.6,3.3,0.9-0.2,5.1
		c-4.3,5.1-14.2,14.6-19.5,14.6c-1.4,0-2.5-0.6-3.3-1.8c-0.7-0.7-1-1.8-1-3.3c0-1.2,0.2-2.7,0.6-4.3c1.4-5,4.9-14.5,5.4-16.7
		c0.5-2-8.3,4.6-19.6,18.1c-0.7,1.9-1.4,3.8-2.1,5.6C418.3,49.4,416.9,50.3,415.6,50.3z"/>
	<path class="st0" d="M465,51.9c-3.9,0-6.8-1.5-8.3-4.1c-1.4-1.6-2-3.7-2-6.5c0-2,0.3-4.1,1-6.1c-0.1-0.1-0.1-0.2-0.1-0.4
		c0-0.5,0.2-1,0.6-1.4C459.7,24.1,468,15,474.6,15c5.1,0,8,4.7,6.5,9c-2.2,6.5-12.7,10.3-19.5,11.8c-0.6,1.6-0.8,3.1-0.9,4.6
		c-0.2,4.1,1.6,6,5.3,6c8-0.2,18-8.8,24.8-16.2c2.7-2.6,3.3,0.9-0.2,5.1C486.6,40.1,474.9,51.9,465,51.9z M463.8,30.7
		c6.5-2.2,11.1-5.3,12.1-7.6c0.6-1.8-0.2-2.8-1.4-2.8C471.6,20.3,466.9,25,463.8,30.7z"/>
	<path class="st0" d="M493.1,42.4c-0.3,1.6-0.2,2.6,0.7,2.6c3,0,12.3-8.7,18.3-14.9c2.6-2.6,3.3,1-0.3,5.1
		c-3.7,4.3-15.7,16.3-21.2,16.3c-2.1,0-3.9-1.8-3.9-5.4c0-1,0.1-2.1,0.4-3.3c1.8-8,8.4-23,13.5-35.3c1.4-4.6,4.4-6.2,5.5-5
		c0.7,0.6,1,1.9,1,3.7c0,4.4-2.1,11.5-6.8,16.8C497.6,29,493.9,37.8,493.1,42.4z"/>
	<path class="st0" d="M514.3,42.4C514,44,514.1,45,515,45c1.4,0,5.3-2.8,9.8-6.8c1.6-1.3,3.1-1.8,3.1-0.3c0.1,1.3-0.8,3.1-3.1,5.3
		c-4.8,4.8-9.9,8.4-13,8.4c-2.2,0-4-1.8-4-5.3c0-1,0.1-2.1,0.4-3.3c1.8-8,8.4-23,13.5-35.3c1.4-4.6,4.4-6.2,5.5-5
		c0.7,0.6,1,1.9,1,3.7c0,4.4-2.1,11.5-6.8,16.8C518.7,29,515.1,37.8,514.3,42.4z"/>
</g>
</svg>
