<?xml version="1.0" encoding="utf-8"?>
<!-- Generator: Adobe Illustrator 25.0.0, SVG Export Plug-In . SVG Version: 6.00 Build 0)  -->
<svg version="1.1" id="Layer_1" xmlns="http://www.w3.org/2000/svg" xmlns:xlink="http://www.w3.org/1999/xlink" x="0px" y="0px"
	 viewBox="0 0 952.9 647.8" style="enable-background:new 0 0 952.9 647.8;" xml:space="preserve">
<style type="text/css">
	.st0{fill:#FFFFFF;}
	.st1{clip-path:url(#SVGID_2_);fill:#005CB9;}
	.st2{clip-path:url(#SVGID_2_);fill:#FFFFFF;}
	.st3{fill:#005CB9;}
</style>
<rect x="-71.1" y="-52" class="st0" width="1147.5" height="774.7"/>
<g>
	<g>
		<defs>
			<rect id="SVGID_1_" x="80.6" y="-180.2" width="792" height="1008"/>
		</defs>
		<clipPath id="SVGID_2_">
			<use xlink:href="#SVGID_1_"  style="overflow:visible;"/>
		</clipPath>
		<polygon class="st1" points="820,677.8 909.5,587.8 909.5,583.7 815.5,677.8 820,677.8 		"/>
		<path class="st1" d="M474.4-138.8L360.9-25.4L247-139.1 M476.3-137L590.2-23L476.7,90.3L362.9-23.4L476.3-137L476.3-137z
			 M474.3,92.7L360.9,206L247.2,92.4L360.6-21.1L474.3,92.7L474.3,92.7z M476.3,94.7l113.5,113.7l0.2,0.2L476.7,321.7l-0.1-0.1
			L363,208.1L476.3,94.7L476.3,94.7z M478.7,92.3L592-21.1L705.6,92.6l0.3,0.3L592.6,206l-0.2-0.2L478.7,92.3L478.7,92.3z
			 M706-138.7L592.6-25.4l-114-113.9 M131.3-23.3L244.9-137L358.6-23.1L245,90.3L131.3-23.3L131.3-23.3z M131.5,208.3L244.9,94.7
			l113.6,113.7L245,321.7L131.5,208.3L131.5,208.3z M245,553.1L131.6,439.8l113.3-113.4l113.4,113.5l0,0L245,553.1L245,553.1z
			 M360.8,437.4L247.3,324l113.3-113.4L474,324.2l0.1,0.1L360.8,437.4L360.8,437.4L360.8,437.4z M476.7,553.1L363.2,439.7
			l113.1-113.3l113.6,113.7L476.7,553.1L476.7,553.1z M478.9,323.8L592,210.6l113.7,113.8L592.6,437.4L478.9,323.8L478.9,323.8z
			 M821.5,440.2l-113.1,113L594.7,439.6l113.1-113.2L821.5,440.2L821.5,440.2z M821.6,208.7L708.4,321.7L594.6,208L707.7,94.7
			L821.6,208.7L821.6,208.7z M821.4-23.2l0.3,0.3L708.4,90.3l-0.3-0.3L594.4-23.6L707.7-137L821.4-23.2L821.4-23.2z M242.9-139
			L129.2-25.4l-85.4-85.3v4.1L127-23.3L43.8,59.9v4.5l85.4-85.5L242.7,92.6L129.2,206l-85.4-85.3v4.4l83.1,83.2l-83.1,83v4.8
			l85.4-85.5l113.4,113.6L129.2,437.4l-85.4-85.3v4.6l83,83.1l-83,82.9v5.1l85.4-85.5l113.3,113.4l-122,122.1h5.1l119.4-119.7
			l119.3,119.7h5.7L247.5,555.5l113.1-113.3L474,555.8l-122,122h4.8l119.5-119.7l119.5,119.7h5.7L479,555.4L592,442.2l113.6,113.7
			l-122,121.9h4.5l119.6-119.7l119.6,119.7h6L710.5,555.3l113-113.1l86,86.1v-5.6l-83.3-83.2l83.3-83.4v-3.8l-85.3,85.2L710.4,323.7
			l113.1-113.2l86,86.1v-5.4l-83.4-83.3l83.4-83.5v-3.5L824.3,206l-114-113.9L823.4-21.1L909.5,65v-5.3L826-23.7l83.5-83.6v-3.2
			l-85.2,85.1l-0.3-0.3L710.1-139.4"/>
		<path class="st2" d="M1045.9,863.8V-232h-1152V863.8H1045.9L1045.9,863.8z M710.4,323.8L476.3,558.1L242.6,324.1L476.7,90.3
			L710.4,323.8L710.4,323.8z"/>
	</g>
	<path class="st3" d="M477.5,90.6c-0.2-13-0.9-24-0.9-24s-0.7,11-0.9,24c-4.7-4.6-8.7-8.1-8.7-8.1s3.5,4,8.1,8.7
		c-13,0.1-24,0.9-24,0.9s11,0.7,24,0.9c-4.6,4.7-8.1,8.7-8.1,8.7s4-3.5,8.7-8.1c0.2,13,0.9,24,0.9,24s0.7-11,0.9-24
		c4.7,4.6,8.7,8.1,8.7,8.1s-3.5-4-8.1-8.7c13-0.2,24-0.9,24-0.9s-11-0.7-24-0.9c4.6-4.7,8.1-8.7,8.1-8.7S482.2,86,477.5,90.6
		L477.5,90.6z"/>
	<path class="st3" d="M666.2,281.5c13-0.2,23.9-0.9,23.9-0.9s-10.9-0.7-23.9-0.9c4.5-4.7,8.1-8.7,8.1-8.7s-4,3.5-8.7,8.1
		c-0.2-13-0.9-23.9-0.9-23.9s-0.7,10.9-0.9,23.9c-4.7-4.5-8.7-8.1-8.7-8.1s3.5,4,8.1,8.7c-13,0.2-23.9,0.9-23.9,0.9
		s10.9,0.7,23.9,0.9c-4.5,4.7-8.1,8.7-8.1,8.7s4-3.5,8.7-8.1c0.2,13,0.9,23.9,0.9,23.9s0.7-10.9,0.9-23.9c4.7,4.5,8.7,8.1,8.7,8.1
		S670.8,286.2,666.2,281.5L666.2,281.5z"/>
	<path class="st3" d="M709.8,322.2c-0.2-13-0.9-24-0.9-24s-0.7,11-0.9,24c-4.7-4.6-8.7-8.1-8.7-8.1s3.5,4,8.1,8.7
		c-13,0.1-24,0.9-24,0.9s11,0.7,24,0.9c-4.6,4.7-8.1,8.7-8.1,8.7s4-3.5,8.7-8.1c0.2,13,0.9,24,0.9,24s0.7-11,0.9-24
		c4.7,4.6,8.7,8.1,8.7,8.1s-3.5-4-8.1-8.7c13-0.2,24-0.9,24-0.9s-11-0.7-24-0.9c4.6-4.7,8.1-8.7,8.1-8.7S714.5,317.7,709.8,322.2
		L709.8,322.2z"/>
	<path class="st3" d="M243.9,322.6c-0.2-13-0.9-24-0.9-24s-0.7,11-0.9,24c-4.7-4.6-8.7-8.1-8.7-8.1s3.5,4,8.1,8.7
		c-13,0.1-24,0.9-24,0.9s11,0.7,24,0.9c-4.6,4.7-8.1,8.7-8.1,8.7s4-3.5,8.7-8.1c0.2,13,0.9,24,0.9,24s0.7-11,0.9-24
		c4.7,4.6,8.7,8.1,8.7,8.1s-3.5-4-8.1-8.7c13-0.2,24-0.9,24-0.9s-11-0.7-24-0.9c4.6-4.7,8.1-8.7,8.1-8.7S248.6,318.1,243.9,322.6
		L243.9,322.6z"/>
	<path class="st3" d="M477.5,554.8c-0.2-13-0.9-24-0.9-24s-0.7,11-0.9,24c-4.7-4.6-8.7-8.1-8.7-8.1s3.5,4,8.1,8.7
		c-13,0.1-24,0.9-24,0.9s11,0.7,24,0.9c-4.6,4.7-8.1,8.7-8.1,8.7s4-3.5,8.7-8.1c0.2,13,0.9,24,0.9,24s0.7-11,0.9-24
		c4.7,4.6,8.7,8.1,8.7,8.1s-3.5-4-8.1-8.7c13-0.2,24-0.9,24-0.9s-11-0.7-24-0.9c4.6-4.7,8.1-8.7,8.1-8.7S482.2,550.3,477.5,554.8
		L477.5,554.8z"/>
	<path class="st3" d="M496.3,458.6c-2.1,2.1-3.4,4.5-4.2,7.1c-1.5-0.7-10.9-4.9-23-10.1c-4.9-19.4-10.5-43-22-54.4
		c-2.9-2.9-9-7.1-10-6c-2.5,2.5,8.4,30.5,18.7,54.8c-24.3-10.2-52.2-21.2-54.8-18.7c-1,1,3.1,7.1,6,10c11.5,11.5,35,17.1,54.4,22
		c5.3,12.2,9.5,21.5,10.1,23c-2.6,0.7-5.1,2.1-7.1,4.2c-6.4,6.4-6.4,16.7,0,23.1c6.4,6.4,16.7,6.4,23.1,0c6.4-6.4,6.4-16.7,0-23.1
		c-1.1-1.1-2.2-1.9-3.5-2.7c-1.5-1-2.7-1.7-4.5-3.5c-3-3-5.4-9.8-7.8-18.4c8.6,2.4,15.4,4.7,18.4,7.8c1.8,1.8,2.5,3,3.5,4.5
		c0.7,1.2,1.6,2.4,2.7,3.5c6.4,6.4,16.7,6.4,23.1,0c6.4-6.4,6.4-16.7,0-23.1C513,452.2,502.6,452.2,496.3,458.6L496.3,458.6z
		 M483.8,509.8c-4.3,4.3-11.4,4.3-15.7,0c-4.3-4.3-4.3-11.4,0-15.7c4.3-4.3,11.4-4.3,15.7,0C488.2,498.4,488.2,505.5,483.8,509.8
		L483.8,509.8z M515.6,478c-4.3,4.3-11.4,4.3-15.7,0c-4.3-4.3-4.3-11.4,0-15.7c4.3-4.3,11.4-4.3,15.7,0
		C520,466.6,520,473.6,515.6,478L515.6,478z"/>
	<path class="st3" d="M496.1,395L461,355.5c-8.4,8.4,7.3,21.1,7.3,21.1l24.5,21.7c-0.6,1.8-0.2,3.9,1.2,5.4l55,55c2,2,5.4,2,7.4,0
		c2-2,2-5.4,0-7.4l-55-55C500,394.8,497.9,394.4,496.1,395L496.1,395z"/>
	<path class="st3" d="M418.9,469c5.4-5.6,9.7-10.5,9.7-10.5s-4.9,4.3-10.5,9.7c-0.1-3.9-0.3-7.1-0.3-7.1s-0.2,3.2-0.3,7.1
		c-5.6-5.4-10.5-9.7-10.5-9.7s4.3,4.9,9.7,10.5c-3.9,0.1-7.1,0.3-7.1,0.3s3.2,0.2,7.1,0.3c-5.4,5.6-9.7,10.5-9.7,10.5
		s4.9-4.3,10.5-9.7c0.1,3.9,0.3,7.1,0.3,7.1s0.2-3.2,0.3-7.1c5.6,5.4,10.5,9.7,10.5,9.7s-4.3-4.9-9.7-10.5c3.9-0.1,7.1-0.3,7.1-0.3
		S422.8,469.1,418.9,469L418.9,469z"/>
	<path class="st3" d="M454.7,481.8c0,2.4-1.9,4.3-4.3,4.3c-2.4,0-4.3-1.9-4.3-4.3c0-2.4,1.9-4.3,4.3-4.3
		C452.8,477.5,454.7,479.5,454.7,481.8L454.7,481.8z"/>
	<path class="st3" d="M487.3,433c-10.4,0.1-19.1,0.7-19.1,0.7s8.8,0.6,19.1,0.7c-3.6,3.8-6.5,7-6.5,7s3.2-2.8,7-6.5
		c0.1,10.4,0.7,19.1,0.7,19.1s0.6-8.8,0.7-19.1c3.7,3.6,7,6.5,7,6.5s-2.8-3.2-6.5-7c10.4-0.1,19.1-0.7,19.1-0.7s-8.8-0.6-19.1-0.7
		c3.6-3.7,6.5-7,6.5-7s-3.2,2.8-7,6.5c-0.1-10.4-0.7-19.1-0.7-19.1s-0.6,8.8-0.7,19.1c-3.8-3.6-7-6.5-7-6.5S483.7,429.3,487.3,433
		L487.3,433z"/>
	<path class="st3" d="M512.4,467.4c0,1.4-1.1,2.5-2.5,2.5c-1.4,0-2.5-1.1-2.5-2.5c0-1.4,1.1-2.5,2.5-2.5
		C511.2,464.9,512.4,466,512.4,467.4L512.4,467.4z"/>
	<path class="st3" d="M476.7,323.2c-0.2-13-0.9-24-0.9-24s-0.7,11-0.9,24c-4.7-4.5-8.7-8.1-8.7-8.1s3.5,4,8.1,8.7
		c-13,0.1-24,0.9-24,0.9s11,0.7,24,0.9c-4.6,4.7-8.1,8.7-8.1,8.7s4-3.5,8.7-8.1c0.2,13,0.9,24,0.9,24s0.7-11,0.9-24
		c4.7,4.6,8.7,8.1,8.7,8.1s-3.5-4-8.1-8.7c13-0.2,24-0.9,24-0.9s-11-0.7-24-0.9c4.6-4.7,8.1-8.7,8.1-8.7S481.4,318.7,476.7,323.2
		L476.7,323.2z"/>
	<path class="st3" d="M521.9,385.9c0,1.3-1,2.3-2.3,2.3c-1.3,0-2.3-1-2.3-2.3c0-1.3,1-2.3,2.3-2.3
		C520.9,383.6,521.9,384.7,521.9,385.9L521.9,385.9z"/>
	<path class="st3" d="M539.8,412.5c0,2.5-2.1,4.6-4.6,4.6c-2.5,0-4.6-2.1-4.6-4.6c0-2.5,2.1-4.6,4.6-4.6
		C537.7,407.9,539.8,409.9,539.8,412.5L539.8,412.5z"/>
	<path class="st3" d="M568.5,427.7c0,1.8-1.5,3.3-3.3,3.3s-3.3-1.5-3.3-3.3c0-1.8,1.5-3.3,3.3-3.3S568.5,425.8,568.5,427.7
		L568.5,427.7z"/>
	<path class="st3" d="M410.8,410.9c5.4-5.6,9.7-10.5,9.7-10.5s-4.9,4.3-10.5,9.7c-0.1-3.9-0.3-7.1-0.3-7.1s-0.2,3.2-0.3,7.1
		c-5.6-5.4-10.5-9.7-10.5-9.7s4.3,4.9,9.7,10.5c-3.9,0.1-7.1,0.3-7.1,0.3s3.2,0.2,7.1,0.3c-5.4,5.6-9.7,10.5-9.7,10.5
		s4.9-4.3,10.5-9.7c0.1,3.9,0.3,7.1,0.3,7.1s0.2-3.2,0.3-7.1c5.6,5.4,10.5,9.7,10.5,9.7s-4.3-4.9-9.7-10.5c3.9-0.1,7.1-0.3,7.1-0.3
		S414.7,410.9,410.8,410.9L410.8,410.9z"/>
	<path class="st3" d="M583.5,258.2c10.9-0.1,20.4,1,28.2,4c0.5,0.2,1.2,0.6,1.7,0.8c2.4,1.2,4.6,2.4,6.6,4c0.6,0.5,1.2,1,1.7,1.5
		c1.7,1.3,3.5,2.8,4.8,4.6c0.3,0.4,0.8,0.7,1.2,1.2c1,1.3,2,2.5,3,3.8c1.7,2.6,3.2,5.3,4.7,8.2c0.5,1.1,0.8,2.2,1.3,3.4
		c1.3,3.5,2,7.4,2.9,11.5c0.2,0.9,0.2,1.7,0.3,2.5c0,0.5,0,1.1,0,1.6c0.2,1.3,0.2,2.9,0.2,4.4c0,0.6,0,1.2,0,1.8
		c-0.2,1.2-0.3,2.9-0.5,4c0,0.4-0.1,0.8-0.1,1.2c-0.6,2.7-1.3,5.6-2.3,8c-1.2,2.9-2.5,5.8-4.1,8.4c-1.9,3.1-3.9,6.3-5.5,9.7
		c-1.3,2.8-2.7,6.3-3.5,9.5c-0.3,1.3-0.7,2.5-0.9,3.8c0,0.3,0,0.5-0.1,0.8c-0.4,1.4-0.6,3.1-0.8,4.6c0,0.4,0,0.8,0,1.3
		c-0.3,2.1-0.4,4.9,0,7.2c0,0.6,4.2,19,4.7,19.6c0,0.2,0,0.2-0.1,0.3c-14.5,0-61.3,0.2-61.6,0c-2.4-2.1-2.8-14.4-3.1-15.1
		c-1.5-4.5-11.6-1-16.8-2.2c-2.6-0.6-4.9-2.1-6.2-4.1c-1.3-1.9-1.8-5-1.2-8.1c0.1-0.8,0.4-1.7,0.6-2.6c0.1-0.2,0.3-0.4,0.2-0.7
		c-0.2-1-1-2.4-1.5-3.2c-0.3-0.5-0.8-0.9-1.1-1.5c-0.5-1.4,0.4-3.1,1.1-3.5c0-0.1,0-0.1,0-0.2c-0.3-0.2-0.5-0.4-0.8-0.7
		c-1.1-0.9-1.8-1.4-2.1-3.2c-0.1-0.5,0.4-2.3,0.6-2.7c0.2-0.6,0.6-2.2,0.3-3c-0.4-1.2-2.2-1.1-3.3-1.5c-1.4-0.6-3.8-2.1-4.3-3.4
		c-1.3-3.3,1.2-5.2,2.3-6.9c1.8-2.7,3.4-5.5,5.1-8.2c1.1-1.7,3-3.5,3.7-5.5c1-2.5-0.7-4.9-1.4-6.8c-0.7-1.9-0.2-5.8,0.3-7.6
		c0.6-2,1.5-4,2-6c0.6-2.3,1.2-4.7,2-6.8c0.3-0.8,0.4-1.5,0.7-2.3c0.3-0.6,0.6-1.3,0.8-1.8c0.3-0.9,0.5-1.7,1-2.4
		c0.9-1.7,1.9-3.3,2.9-4.9c1.2-1.8,3-3.7,4.7-5c1.1-0.9,2.1-1.9,3.3-2.7c3.7-2.5,7.6-4.5,11.9-6.4c0.8-0.3,1.5-0.4,2.3-0.7
		c2.6-0.8,5.3-1.3,8.3-1.8C579.5,258.5,581.5,258.4,583.5,258.2L583.5,258.2z"/>
	<path class="st0" d="M610.6,291.4c19.7-0.2,36.3-1.4,36.3-1.4s-16.6-1.1-36.3-1.4c6.9-7.1,12.2-13.2,12.2-13.2s-6.1,5.3-13.2,12.2
		c-0.2-19.7-1.4-36.3-1.4-36.3s-1.1,16.6-1.4,36.3c-7.1-6.9-13.2-12.2-13.2-12.2s5.3,6.1,12.2,13.2c-19.7,0.2-36.3,1.4-36.3,1.4
		s16.6,1.1,36.3,1.4c-6.9,7.1-12.2,13.2-12.2,13.2s6.1-5.3,13.2-12.2c0.2,19.7,1.4,36.3,1.4,36.3s1.1-16.6,1.4-36.3
		c7.1,6.9,13.2,12.2,13.2,12.2S617.5,298.5,610.6,291.4L610.6,291.4z"/>
	<path class="st3" d="M585.9,244.2c0,2.3-1.9,4.2-4.2,4.2s-4.2-1.9-4.2-4.2c0-2.3,1.9-4.2,4.2-4.2S585.9,241.9,585.9,244.2
		L585.9,244.2z"/>
	<path class="st3" d="M593.3,224.8c0,1.4-1.1,2.5-2.5,2.5c-1.4,0-2.5-1.1-2.5-2.5c0-1.4,1.1-2.5,2.5-2.5
		C592.1,222.3,593.3,223.4,593.3,224.8L593.3,224.8z"/>
	<path class="st3" d="M616.3,251.4c0,1.6-1.3,2.8-2.9,2.8c-1.6,0-2.8-1.3-2.8-2.8c0-1.6,1.3-2.8,2.8-2.8
		C615,248.5,616.3,249.8,616.3,251.4L616.3,251.4z"/>
	<path class="st3" d="M661,348.2c0,1.2-1,2.2-2.2,2.2c-1.2,0-2.2-1-2.2-2.2c0-1.2,1-2.2,2.2-2.2C660,346,661,347,661,348.2
		L661,348.2z"/>
	<path class="st3" d="M643.4,368.1c0,1.9-1.5,3.4-3.4,3.4c-1.9,0-3.4-1.5-3.4-3.4c0-1.9,1.5-3.4,3.4-3.4
		C641.9,364.6,643.4,366.2,643.4,368.1L643.4,368.1z"/>
	<path class="st3" d="M662.2,319.9c0,2.3-1.9,4.2-4.2,4.2c-2.3,0-4.2-1.9-4.2-4.2c0-2.3,1.9-4.2,4.2-4.2
		C660.3,315.6,662.2,317.5,662.2,319.9L662.2,319.9z"/>
	<path class="st3" d="M592.6,410.3c5.4-5.6,9.7-10.5,9.7-10.5s-4.9,4.3-10.5,9.7c-0.1-3.9-0.3-7.1-0.3-7.1s-0.2,3.2-0.3,7.1
		c-5.6-5.4-10.5-9.7-10.5-9.7s4.3,4.9,9.7,10.5c-3.9,0.1-7.1,0.3-7.1,0.3s3.2,0.2,7.1,0.3c-5.4,5.6-9.7,10.5-9.7,10.5
		s4.9-4.3,10.5-9.7c0.1,3.9,0.3,7.1,0.3,7.1s0.2-3.2,0.3-7.1c5.6,5.4,10.5,9.7,10.5,9.7s-4.3-4.9-9.7-10.5c3.9-0.1,7.1-0.3,7.1-0.3
		S596.5,410.4,592.6,410.3L592.6,410.3z"/>
	<path class="st3" d="M520.4,302.8c0,1.9-1.6,3.5-3.5,3.5s-3.5-1.6-3.5-3.5s1.6-3.5,3.5-3.5S520.4,300.8,520.4,302.8L520.4,302.8z"
		/>
	<path class="st3" d="M514.6,343.9c0,1.3-1.1,2.4-2.4,2.4c-1.3,0-2.4-1.1-2.4-2.4c0-1.3,1.1-2.4,2.4-2.4
		C513.5,341.5,514.6,342.5,514.6,343.9L514.6,343.9z"/>
	<path class="st3" d="M496.3,226.7c-2.1,2.1-3.4,4.5-4.2,7.1c-1.5-0.7-10.9-4.9-23-10.2c-4.9-19.4-10.5-43-22-54.4
		c-2.9-2.9-9-7.1-10-6c-2.5,2.5,8.4,30.5,18.7,54.8c-24.3-10.2-52.2-21.2-54.8-18.7c-1,1,3.1,7.1,6,10c11.5,11.5,35,17.1,54.4,22
		c5.3,12.2,9.5,21.5,10.1,23c-2.6,0.7-5.1,2.1-7.1,4.2c-6.4,6.4-6.4,16.7,0,23.1c6.4,6.4,16.7,6.4,23.1,0c6.4-6.4,6.4-16.7,0-23.1
		c-1.1-1.1-2.2-1.9-3.5-2.7c-1.5-1-2.7-1.7-4.5-3.5c-3-3-5.4-9.8-7.8-18.4c8.6,2.4,15.4,4.7,18.4,7.8c1.8,1.8,2.5,3,3.5,4.5
		c0.7,1.2,1.6,2.4,2.7,3.5c6.4,6.4,16.7,6.4,23.1,0s6.4-16.7,0-23.1S502.6,220.3,496.3,226.7L496.3,226.7z M483.8,277.9
		c-4.3,4.3-11.4,4.3-15.7,0c-4.3-4.3-4.3-11.4,0-15.7c4.3-4.3,11.4-4.3,15.7,0C488.2,266.5,488.2,273.6,483.8,277.9L483.8,277.9z
		 M515.6,246.1c-4.3,4.3-11.4,4.3-15.7,0c-4.3-4.3-4.3-11.4,0-15.7c4.3-4.3,11.4-4.3,15.7,0C520,234.7,520,241.8,515.6,246.1
		L515.6,246.1z"/>
	<path class="st3" d="M496.1,163.1L461,123.6c-8.4,8.4,7.3,21.1,7.3,21.1l24.5,21.7c-0.6,1.8-0.2,3.9,1.2,5.4l55,55c2,2,5.4,2,7.4,0
		c2-2,2-5.4,0-7.4l-55-55C500,162.9,497.9,162.5,496.1,163.1L496.1,163.1z"/>
	<path class="st3" d="M434,282.1c13-0.2,23.9-0.9,23.9-0.9s-10.9-0.7-23.9-0.9c4.5-4.7,8.1-8.7,8.1-8.7s-4,3.5-8.7,8.1
		c-0.1-13-0.9-23.9-0.9-23.9s-0.7,10.9-0.9,23.9c-4.7-4.5-8.7-8.1-8.7-8.1s3.5,4,8.1,8.7c-13,0.2-23.9,0.9-23.9,0.9
		s10.9,0.7,23.9,0.9c-4.5,4.7-8.1,8.7-8.1,8.7s4-3.5,8.7-8.1c0.2,13,0.9,23.9,0.9,23.9s0.7-10.9,0.9-23.9c4.7,4.5,8.7,8.1,8.7,8.1
		S438.5,286.8,434,282.1L434,282.1z"/>
	<path class="st3" d="M418.9,237.1c5.4-5.6,9.7-10.5,9.7-10.5s-4.9,4.3-10.5,9.7c-0.1-3.9-0.3-7.1-0.3-7.1s-0.2,3.2-0.3,7.1
		c-5.6-5.4-10.5-9.7-10.5-9.7s4.3,4.9,9.7,10.5c-3.9,0.1-7.1,0.3-7.1,0.3s3.2,0.2,7.1,0.3c-5.4,5.6-9.7,10.5-9.7,10.5
		s4.9-4.3,10.5-9.7c0.1,3.9,0.3,7.1,0.3,7.1s0.2-3.2,0.3-7.1c5.6,5.4,10.5,9.7,10.5,9.7s-4.3-4.9-9.7-10.5c3.9-0.1,7.1-0.3,7.1-0.3
		S422.8,237.2,418.9,237.1L418.9,237.1z"/>
	<path class="st3" d="M454.7,249.9c0,2.4-1.9,4.3-4.3,4.3c-2.4,0-4.3-1.9-4.3-4.3c0-2.4,1.9-4.3,4.3-4.3
		C452.8,245.7,454.7,247.6,454.7,249.9L454.7,249.9z"/>
	<path class="st3" d="M487.3,201.1c-10.4,0.1-19.1,0.7-19.1,0.7s8.8,0.6,19.1,0.7c-3.6,3.8-6.5,7-6.5,7s3.2-2.8,7-6.5
		c0.1,10.4,0.7,19.1,0.7,19.1s0.6-8.8,0.7-19.1c3.7,3.6,7,6.5,7,6.5s-2.8-3.2-6.5-7c10.4-0.1,19.1-0.7,19.1-0.7s-8.8-0.6-19.1-0.7
		c3.6-3.7,6.5-7,6.5-7s-3.2,2.8-7,6.5c-0.1-10.4-0.7-19.1-0.7-19.1s-0.6,8.8-0.7,19.1c-3.8-3.6-7-6.5-7-6.5S483.7,197.4,487.3,201.1
		L487.3,201.1z"/>
	<path class="st3" d="M512.4,235.5c0,1.4-1.1,2.5-2.5,2.5c-1.4,0-2.5-1.1-2.5-2.5c0-1.4,1.1-2.5,2.5-2.5
		C511.2,233,512.4,234.1,512.4,235.5L512.4,235.5z"/>
	<path class="st3" d="M521.9,154.1c0,1.3-1,2.3-2.3,2.3c-1.3,0-2.3-1-2.3-2.3c0-1.3,1-2.3,2.3-2.3
		C520.9,151.7,521.9,152.8,521.9,154.1L521.9,154.1z"/>
	<path class="st3" d="M539.8,180.6c0,2.5-2.1,4.6-4.6,4.6c-2.5,0-4.6-2.1-4.6-4.6c0-2.5,2.1-4.6,4.6-4.6
		C537.7,176,539.8,178,539.8,180.6L539.8,180.6z"/>
	<path class="st3" d="M568.5,195.8c0,1.8-1.5,3.3-3.3,3.3s-3.3-1.5-3.3-3.3c0-1.8,1.5-3.3,3.3-3.3S568.5,194,568.5,195.8
		L568.5,195.8z"/>
	<path class="st3" d="M410.8,179c5.4-5.6,9.7-10.5,9.7-10.5s-4.9,4.3-10.5,9.7c-0.1-3.9-0.3-7.1-0.3-7.1s-0.2,3.2-0.3,7.1
		c-5.6-5.4-10.5-9.7-10.5-9.7s4.3,4.9,9.7,10.5c-3.9,0.1-7.1,0.3-7.1,0.3s3.2,0.2,7.1,0.3c-5.4,5.6-9.7,10.5-9.7,10.5
		s4.9-4.3,10.5-9.7c0.1,3.9,0.3,7.1,0.3,7.1s0.2-3.2,0.3-7.1c5.6,5.4,10.5,9.7,10.5,9.7s-4.3-4.9-9.7-10.5c3.9-0.1,7.1-0.3,7.1-0.3
		S414.7,179.1,410.8,179L410.8,179z"/>
	<path class="st3" d="M351.6,258.2c10.9-0.1,20.4,1,28.2,4c0.5,0.2,1.2,0.6,1.7,0.8c2.4,1.2,4.6,2.4,6.6,4c0.6,0.5,1.2,1,1.7,1.5
		c1.7,1.3,3.5,2.8,4.8,4.6c0.3,0.4,0.8,0.7,1.2,1.2c1,1.3,2,2.5,3,3.8c1.7,2.6,3.2,5.3,4.7,8.2c0.5,1.1,0.8,2.2,1.3,3.4
		c1.3,3.5,2,7.4,2.9,11.5c0.2,0.9,0.2,1.7,0.3,2.5c0,0.5,0,1.1,0,1.6c0.2,1.3,0.2,2.9,0.2,4.4c0,0.6,0,1.2,0,1.8
		c-0.2,1.2-0.3,2.9-0.5,4c0,0.4-0.1,0.8-0.1,1.2c-0.6,2.7-1.3,5.6-2.3,8c-1.2,2.9-2.5,5.8-4.1,8.4c-1.9,3.1-3.9,6.3-5.5,9.7
		c-1.3,2.8-2.7,6.3-3.5,9.5c-0.3,1.3-0.7,2.5-0.9,3.8c0,0.3,0,0.5-0.1,0.8c-0.4,1.4-0.6,3.1-0.8,4.6c0,0.4,0,0.8,0,1.3
		c-0.3,2.1-0.4,4.9,0,7.2c0,0.6,4.2,19,4.7,19.6c0,0.2,0,0.2-0.1,0.3c-14.5,0-61.3,0.2-61.6,0c-2.4-2.1-2.8-14.4-3.1-15.1
		c-1.5-4.5-11.6-1-16.8-2.2c-2.6-0.6-4.9-2.1-6.2-4.1c-1.3-1.9-1.8-5-1.2-8.1c0.1-0.8,0.4-1.7,0.6-2.6c0.1-0.2,0.3-0.4,0.2-0.7
		c-0.2-1-1-2.4-1.5-3.2c-0.3-0.5-0.8-0.9-1.1-1.5c-0.5-1.4,0.4-3.1,1.1-3.5c0-0.1,0-0.1,0-0.2c-0.3-0.2-0.5-0.4-0.8-0.7
		c-1.1-0.9-1.8-1.4-2.1-3.2c-0.1-0.5,0.4-2.3,0.6-2.7c0.2-0.6,0.6-2.2,0.3-3c-0.4-1.2-2.2-1.1-3.3-1.5c-1.4-0.6-3.8-2.1-4.3-3.4
		c-1.3-3.3,1.2-5.2,2.3-6.9c1.8-2.7,3.4-5.5,5.1-8.2c1.1-1.7,3-3.5,3.7-5.5c1-2.5-0.7-4.9-1.4-6.8c-0.7-1.9-0.2-5.8,0.3-7.6
		c0.6-2,1.5-4,2-6c0.6-2.3,1.2-4.7,2-6.8c0.3-0.8,0.4-1.5,0.7-2.3c0.3-0.6,0.6-1.3,0.8-1.8c0.3-0.9,0.5-1.7,1-2.4
		c0.9-1.7,1.9-3.3,2.9-4.9c1.2-1.8,3-3.7,4.7-5c1.1-0.9,2.1-1.9,3.3-2.7c3.7-2.5,7.6-4.5,11.9-6.4c0.8-0.3,1.5-0.4,2.3-0.7
		c2.6-0.8,5.3-1.3,8.3-1.8C347.6,258.5,349.6,258.4,351.6,258.2L351.6,258.2z"/>
	<path class="st0" d="M378.7,291.4c19.7-0.2,36.3-1.4,36.3-1.4s-16.6-1.1-36.3-1.4c6.9-7.1,12.2-13.2,12.2-13.2s-6.1,5.3-13.2,12.2
		c-0.2-19.7-1.4-36.3-1.4-36.3s-1.1,16.6-1.4,36.3c-7.1-6.9-13.2-12.2-13.2-12.2s5.3,6.1,12.2,13.2c-19.7,0.2-36.3,1.4-36.3,1.4
		s16.6,1.1,36.3,1.4c-6.9,7.1-12.2,13.2-12.2,13.2s6.1-5.3,13.2-12.2c0.2,19.7,1.4,36.3,1.4,36.3s1.1-16.6,1.4-36.3
		c7.1,6.9,13.2,12.2,13.2,12.2S385.6,298.5,378.7,291.4L378.7,291.4z"/>
	<path class="st3" d="M354,244.2c0,2.3-1.9,4.2-4.2,4.2c-2.3,0-4.2-1.9-4.2-4.2c0-2.3,1.9-4.2,4.2-4.2
		C352.2,240,354,241.9,354,244.2L354,244.2z"/>
	<path class="st3" d="M361.4,224.8c0,1.4-1.1,2.5-2.5,2.5c-1.4,0-2.5-1.1-2.5-2.5c0-1.4,1.1-2.5,2.5-2.5
		C360.3,222.3,361.4,223.4,361.4,224.8L361.4,224.8z"/>
	<path class="st3" d="M384.4,251.4c0,1.6-1.3,2.8-2.9,2.8c-1.6,0-2.8-1.3-2.8-2.8c0-1.6,1.3-2.8,2.8-2.8
		C383.1,248.5,384.4,249.8,384.4,251.4L384.4,251.4z"/>
	<path class="st3" d="M429.1,348.2c0,1.2-1,2.2-2.2,2.2c-1.2,0-2.2-1-2.2-2.2c0-1.2,1-2.2,2.2-2.2C428.1,346,429.1,347,429.1,348.2
		L429.1,348.2z"/>
	<path class="st3" d="M411.6,368.1c0,1.9-1.5,3.4-3.4,3.4s-3.4-1.5-3.4-3.4c0-1.9,1.5-3.4,3.4-3.4S411.6,366.2,411.6,368.1
		L411.6,368.1z"/>
	<path class="st3" d="M430.3,319.9c0,2.3-1.9,4.2-4.2,4.2c-2.3,0-4.2-1.9-4.2-4.2c0-2.3,1.9-4.2,4.2-4.2
		C428.4,315.6,430.3,317.5,430.3,319.9L430.3,319.9z"/>
	<path class="st3" d="M360.8,410.3c5.4-5.6,9.7-10.5,9.7-10.5s-4.9,4.3-10.5,9.7c-0.1-3.9-0.3-7.1-0.3-7.1s-0.2,3.2-0.3,7.1
		c-5.6-5.4-10.5-9.7-10.5-9.7s4.3,4.9,9.7,10.5c-3.9,0.1-7.1,0.3-7.1,0.3s3.2,0.2,7.1,0.3c-5.4,5.6-9.7,10.5-9.7,10.5
		s4.9-4.3,10.5-9.7c0.1,3.9,0.3,7.1,0.3,7.1s0.2-3.2,0.3-7.1c5.6,5.4,10.5,9.7,10.5,9.7s-4.3-4.9-9.7-10.5c3.9-0.1,7.1-0.3,7.1-0.3
		S364.7,410.4,360.8,410.3L360.8,410.3z"/>
	<path class="st3" d="M288.6,302.8c0,1.9-1.6,3.5-3.5,3.5c-1.9,0-3.5-1.6-3.5-3.5s1.6-3.5,3.5-3.5
		C287,299.3,288.6,300.8,288.6,302.8L288.6,302.8z"/>
	<path class="st3" d="M282.7,343.9c0,1.3-1.1,2.4-2.4,2.4c-1.3,0-2.4-1.1-2.4-2.4c0-1.3,1.1-2.4,2.4-2.4
		C281.6,341.5,282.7,342.5,282.7,343.9L282.7,343.9z"/>
	<path class="st3" d="M435,513.1c13-0.2,23.9-0.9,23.9-0.9s-10.9-0.7-23.9-0.9c4.5-4.7,8.1-8.7,8.1-8.7s-4,3.5-8.7,8.1
		c-0.1-13-0.9-23.9-0.9-23.9s-0.7,10.9-0.9,23.9c-4.7-4.5-8.7-8.1-8.7-8.1s3.5,4,8.1,8.7c-13,0.2-23.9,0.9-23.9,0.9
		s10.9,0.7,23.9,0.9c-4.5,4.7-8.1,8.7-8.1,8.7s4-3.5,8.7-8.1c0.2,13,0.9,23.9,0.9,23.9s0.7-10.9,0.9-23.9c4.7,4.5,8.7,8.1,8.7,8.1
		S439.6,517.8,435,513.1L435,513.1z"/>
</g>
</svg>
