<?xml version="1.0" encoding="utf-8"?>
<!-- Generator: Adobe Illustrator 25.0.1, SVG Export Plug-In . SVG Version: 6.00 Build 0)  -->
<svg version="1.1" id="Layer_1" xmlns="http://www.w3.org/2000/svg" xmlns:xlink="http://www.w3.org/1999/xlink" x="0px" y="0px"
	 viewBox="0 0 512 512" style="enable-background:new 0 0 512 512;" xml:space="preserve">
<style type="text/css">
	.st0{fill:#C6973F;}
</style>
<g>
	<path class="st0" d="M19.3,342.2c7-13.3,48.3,12.7,78.8,10.8c14-5.7,24.8-19.1,24.8-44.5c0-33.7-20.3-91.5-17.1-130.2
		c3.2-43.8,38.7-72.4,66.7-72.4c19.7,0,34.3,15.3,33.7,29.2c-1.3,21.6-50.2,7.6-54,42.6c0,34.3,17.2,87,17.2,129.6
		c0,11.4-1.3,22.2-4.4,33c40.7-19.1,90.2-64.8,127.7-106.1c21.6-21,27.3,7.6-2.5,40.7c-32.4,38.1-97.8,106.7-169,118.2
		c-10.2,5.1-21.6,8.9-34.9,11.4C38.3,412.1,9.1,358.7,19.3,342.2z"/>
	<path class="st0" d="M335.6,396.9c-46.4,0-74.3-35.6-71.8-88.3c2.5-62.2,38.7-125.1,74.3-160.1c19.7-19,36.2-24.8,48.3-22.9
		c12.7-9.5,26.7-14,40-14c36.8,0,68,33,68,87.7C495.1,289.5,420.1,396.9,335.6,396.9z M342,353c45.1-0.6,106.7-83.8,106.1-150.5
		c0-29.9-10.8-44.5-26.7-44.5c-12.7,0-28.6,9.5-43.8,29.2c-9.5,17.1-19.1,24.8-26,24.8c-1.3,0-1.9,0-3.2-0.6
		c-12.7,19-24.1,41.9-31.8,68c-2.5,10.8-4.4,21.6-4.4,31.1C312.1,334.6,321,353,342,353z"/>
</g>
</svg>
